<svg width="99" height="154" viewBox="0 0 99 154" fill="none" xmlns="http://www.w3.org/2000/svg">
<g filter="url(#filter0_f_2_1819)">
<path d="M31.9767 121.871L20 90.7885L26.7092 84.5507L24.594 40.2462L31.8689 28.3704L51.3765 20L78.9 32.3557L71.4769 61.4654L61.3998 84.4841L63.5148 87.9495L56.5498 132.241L46.7556 134L38.9822 123.217L31.9767 121.871Z" fill="url(#paint0_linear_2_1819)"/>
<g style="mix-blend-mode:multiply" opacity="0.5">
<path d="M77.2564 33.0166L68.9306 58.7956L58.2608 76.9902L54.9466 64.2873L55.472 39.548L51.7807 52.7441L46.2706 74.0445L49.45 69.3658V84.0548L44.3576 90.1864L28.9993 95.1982L20 90.7862L31.9767 121.87L38.9822 123.217L46.7556 134L56.5498 132.241L63.5148 87.947L61.3998 84.4814L71.4769 61.4615L78.9 32.3501L77.2564 33.0166Z" fill="#610051"/>
</g>
<g style="mix-blend-mode:multiply" opacity="0.5">
<path d="M28.5498 44.2251L32.0283 63.0077L30.2891 67.9751L36.6248 61.9082L34.3266 48.0412L32.5873 48.6491L28.5498 44.2251Z" fill="#610051"/>
</g>
<path d="M20 90.721L26.6726 84.6001L33.305 87.6605L44.225 87.7652V90.1325L28.9504 95.0501L20 90.721Z" fill="#083E98"/>
<path d="M24.75 40.3246L39.3386 40.9L50.7301 39.776L57.3931 34.0493L54.6796 26.4894L65.386 27.8007L70.9743 35.3739L78.9 32.4035L51.4556 20L32.004 28.4028L24.75 40.3246Z" fill="#082D91"/>
<g style="mix-blend-mode:multiply" opacity="0.5">
<path d="M53.7246 26.6499L56.4932 34.0288L54.6018 39.4749L62.51 36.1576L70.3496 35.3218L64.6481 27.9298L53.7246 26.6499Z" fill="#610051"/>
</g>
<path d="M61.325 84.5999L50.4427 76.9125L46.8465 75.1775L31.875 74.3768L46.3669 74.1499L50.7757 74.3768L54.6118 77.6065L60.5524 82.8782L61.325 84.5999Z" fill="#FF8337"/>
</g>
<path d="M31.9767 121.871L20 90.7885L26.7092 84.5507L24.594 40.2462L31.8689 28.3704L51.3765 20L78.9 32.3557L71.4769 61.4654L61.3998 84.4841L63.5148 87.9495L56.5498 132.241L46.7556 134L38.9822 123.217L31.9767 121.871Z" fill="url(#paint1_linear_2_1819)"/>
<g style="mix-blend-mode:multiply" opacity="0.5">
<path d="M77.2564 33.0166L68.9306 58.7956L58.2608 76.9902L54.9466 64.2873L55.472 39.548L51.7807 52.7441L46.2706 74.0445L49.45 69.3658V84.0548L44.3576 90.1864L28.9993 95.1982L20 90.7862L31.9767 121.87L38.9822 123.217L46.7556 134L56.5498 132.241L63.5148 87.947L61.3998 84.4814L71.4769 61.4615L78.9 32.3501L77.2564 33.0166Z" fill="#610051"/>
</g>
<g style="mix-blend-mode:multiply" opacity="0.5">
<path d="M28.5498 44.2251L32.0283 63.0077L30.2891 67.9751L36.6248 61.9082L34.3266 48.0412L32.5873 48.6491L28.5498 44.2251Z" fill="#610051"/>
</g>
<path d="M20 90.721L26.6726 84.6001L33.305 87.6605L44.225 87.7652V90.1325L28.9504 95.0501L20 90.721Z" fill="#083E98"/>
<path d="M24.75 40.3246L39.3386 40.9L50.7301 39.776L57.3931 34.0493L54.6796 26.4894L65.386 27.8007L70.9743 35.3739L78.9 32.4035L51.4556 20L32.004 28.4028L24.75 40.3246Z" fill="#082D91"/>
<g style="mix-blend-mode:multiply" opacity="0.5">
<path d="M53.7246 26.6499L56.4932 34.0288L54.6018 39.4749L62.51 36.1576L70.3496 35.3218L64.6481 27.9298L53.7246 26.6499Z" fill="#610051"/>
</g>
<path d="M61.325 84.5999L50.4427 76.9125L46.8465 75.1775L31.875 74.3768L46.3669 74.1499L50.7757 74.3768L54.6118 77.6065L60.5524 82.8782L61.325 84.5999Z" fill="#FF8337"/>
<defs>
<filter id="filter0_f_2_1819" x="0" y="0" width="98.9" height="154" filterUnits="userSpaceOnUse" color-interpolation-filters="sRGB">
<feFlood flood-opacity="0" result="BackgroundImageFix"/>
<feBlend mode="normal" in="SourceGraphic" in2="BackgroundImageFix" result="shape"/>
<feGaussianBlur stdDeviation="10" result="effect1_foregroundBlur_2_1819"/>
</filter>
<linearGradient id="paint0_linear_2_1819" x1="36228.2" y1="24392.2" x2="34786.1" y2="14921.9" gradientUnits="userSpaceOnUse">
<stop stop-color="#003D9F"/>
<stop offset="1" stop-color="#1D0F6D"/>
</linearGradient>
<linearGradient id="paint1_linear_2_1819" x1="36228.2" y1="24392.2" x2="34786.1" y2="14921.9" gradientUnits="userSpaceOnUse">
<stop stop-color="#003D9F"/>
<stop offset="1" stop-color="#1D0F6D"/>
</linearGradient>
</defs>
</svg>
