<svg width="83" height="80" viewBox="0 0 83 80" fill="none" xmlns="http://www.w3.org/2000/svg">
<path opacity="0.71" d="M80.0402 41.089C79.9151 45.5556 79.0398 49.9695 77.4509 54.1459C76.8487 55.7563 76.1385 57.3242 75.325 58.839C75.2073 59.067 75.0896 59.2951 74.9572 59.5084C72.4592 64.0103 69.1058 67.9808 65.0855 71.1971C63.8763 72.1711 62.6087 73.0702 61.2898 73.8893C58.4916 75.6452 55.4872 77.0485 52.3449 78.0675V78.0675C52.1168 78.1411 51.9035 78.2147 51.6828 78.2735C41.7414 81.2929 31.0152 80.3259 21.7742 75.577C12.5331 70.8281 5.50233 62.67 2.16966 52.8291C1.11743 49.7554 0.450296 46.5631 0.183532 43.3252C0.183532 43.0751 0.139406 42.825 0.124694 42.5896C-0.244494 36.8985 0.610865 31.1945 2.63309 25.8621C2.8317 25.3618 3.03766 24.8616 3.24363 24.3541C4.32784 21.8016 5.67385 19.3685 7.26002 17.0937C8.00609 16.015 8.81159 14.9787 9.67278 13.9895C9.80519 13.8203 9.94494 13.6511 10.0921 13.4893C12.5685 10.6899 15.429 8.25544 18.5882 6.25833C18.8089 6.11121 19.0296 5.97881 19.2576 5.8464C19.8682 5.47124 20.4861 5.11079 21.1187 4.77242C21.3173 4.66943 21.5086 4.55909 21.7145 4.46347C29.7315 0.320786 38.9138 -0.988921 47.7693 0.747183C56.6248 2.48329 64.6328 7.16316 70.4921 14.0263C70.7202 14.2837 70.9408 14.5485 71.1468 14.8134C72.2303 16.1497 73.2254 17.5552 74.126 19.021C74.2952 19.2932 74.4644 19.5727 74.6188 19.8522C76.2939 22.7207 77.6037 25.7874 78.5175 28.981C78.5837 29.2017 78.6426 29.4224 78.7014 29.6357C79.4419 32.4005 79.8857 35.2363 80.0255 38.0951C80.0549 39.0955 80.0623 40.0886 80.0402 41.089Z" fill="url(#paint0_radial_2_1956)"/>
<g style="mix-blend-mode:multiply" opacity="0.3">
<path d="M79.1432 48.4596C79.1432 48.4596 60.7532 49.8793 56.9795 43.1854C53.2059 36.4914 49.3808 34.7848 43.3636 35.5204C37.3464 36.256 29.8212 41.0595 22.5388 39.1102C15.2563 37.1608 1.405 29.5474 1.405 29.5474C0.213327 33.2254 0 40.1106 0 40.1106C0 40.1106 3.25136 51.6448 12.3802 52.3509C21.5089 53.0571 42.0689 56.2349 55.5745 60.2071C69.0802 64.1794 72.7876 62.973 72.7876 62.973C75.9071 58.6383 78.0732 53.6919 79.1432 48.4596V48.4596ZM13.3879 48.8127C12.439 46.4514 18.5371 46.1719 19.6994 47.8785C20.8616 49.5851 15.4108 53.8074 13.3879 48.8127ZM39.1339 38.0362C44.8274 35.719 54.8242 39.8752 53.8459 43.6047C52.8675 47.3342 34.7203 39.8237 39.1118 38.0362H39.1339ZM50.5872 57.1618C50.4254 53.8442 54.4638 55.9922 55.4127 57.7282C56.3616 59.4642 50.7196 59.7952 50.5651 57.1397L50.5872 57.1618ZM68.2416 57.0808C68.2341 56.9014 68.2637 56.7223 68.3285 56.5548C68.3932 56.3873 68.4917 56.2348 68.6179 56.107C68.744 55.9792 68.8952 55.8787 69.0618 55.8117C69.2285 55.7448 69.4071 55.7128 69.5867 55.7179C69.7662 55.723 69.9428 55.7649 70.1054 55.8411C70.2681 55.9173 70.4133 56.0262 70.5321 56.1609C70.6508 56.2957 70.7406 56.4534 70.7958 56.6243C70.851 56.7952 70.8705 56.9757 70.8529 57.1544C70.8014 59.0596 68.1827 57.9783 68.2342 57.0588L68.2416 57.0808Z" fill="#974D8B"/>
</g>
<g style="mix-blend-mode:soft-light" opacity="0.51">
<path d="M80.033 41.089C80.033 41.089 66.8584 32.8283 56.435 30.7171C46.0115 28.6059 34.4773 35.1307 21.1262 32.8577C14.2189 31.6734 7.78982 27.8041 3.20703 24.3542C4.28964 21.7986 5.6357 19.3629 7.2234 17.0864C9.65823 19.5286 16.3816 25.8695 22.671 28.1572C30.5272 31.0113 37.7729 27.9071 51.0063 28.6721C62.3345 29.3268 76.2373 36.1605 79.9889 38.1099C80.0551 39.0956 80.0625 40.0886 80.033 41.089Z" fill="#5FCCCC"/>
</g>
<g style="mix-blend-mode:soft-light" opacity="0.51">
<path d="M16.1469 61.1267C14.6242 62.1859 10.8947 61.031 11.2184 60.2954C11.8068 58.8978 17.6181 60.0748 16.1469 61.1267ZM19.0305 58.9566C19.5895 58.1401 22.9806 58.736 22.782 59.2582C22.5834 59.7805 18.4935 59.6922 19.0084 58.9566H19.0305ZM56.9727 69.6449C58.0908 68.3797 64.1006 70.7851 63.7917 72.2195C63.4827 73.6539 55.8251 70.9028 56.9506 69.6449H56.9727ZM29.0861 60.0159C14.0063 57.0367 5.64253 54.19 2.14844 52.8291C3.46892 56.7433 5.38968 60.4285 7.84197 63.7528C14.2564 63.8557 20.4722 58.1769 37.6926 63.4953C45.9255 66.0586 53.8419 69.5455 61.2906 73.8893C62.6084 73.0684 63.8759 72.1693 65.0863 71.197C53.4687 66.3348 41.4141 62.5908 29.0861 60.0159V60.0159Z" fill="#5FCCCC"/>
</g>
<g style="mix-blend-mode:multiply" opacity="0.1">
<path d="M21.4058 20.3376C21.1042 21.8088 26.9228 24.4864 28.0262 22.846C29.1296 21.2056 22.0311 17.3143 21.4058 20.3376Z" fill="#190024"/>
</g>
<g style="mix-blend-mode:multiply" opacity="0.1">
<path d="M23.3921 25.1042C23.6348 26.2517 24.981 26.2738 25.1428 25.7589C25.3046 25.2439 23.1567 23.9493 23.3921 25.1042Z" fill="#190024"/>
</g>
<g style="mix-blend-mode:multiply" opacity="0.1">
<path d="M56.9352 39.6177C58.5536 37.9774 59.2965 38.8821 59.6717 39.7649C60.0468 40.6476 56.435 40.1253 56.9352 39.6177Z" fill="#190024"/>
</g>
<g style="mix-blend-mode:multiply" opacity="0.1">
<path d="M57.5753 26.1563C59.1936 24.5159 59.9365 25.4207 60.3117 26.3034C60.6869 27.1862 57.0677 26.6933 57.5753 26.1563Z" fill="#190024"/>
</g>
<g style="mix-blend-mode:multiply" opacity="0.1">
<path d="M35.4637 69.439C37.082 67.7986 37.8249 68.7034 38.2001 69.5861C38.5752 70.4689 34.9635 69.9466 35.4637 69.439Z" fill="#190024"/>
</g>
<g style="mix-blend-mode:multiply" opacity="0.1">
<path d="M64.6526 45.0243C64.8438 45.8555 66.3003 46.01 66.2047 45.0611C66.109 44.1121 64.3289 43.6119 64.6526 45.0243Z" fill="#190024"/>
</g>
<g style="mix-blend-mode:multiply" opacity="0.1">
<path d="M34.5725 10.7749C34.7637 11.6062 36.2202 11.7606 36.1246 10.7749C36.029 9.78923 34.2488 9.36258 34.5725 10.7749Z" fill="#190024"/>
</g>
<g style="mix-blend-mode:soft-light" opacity="0.51">
<path d="M62.5403 65.1062C63.1729 65.2754 65.4239 66.7981 65.3135 68.1295C65.2032 69.4609 59.6347 68.2987 59.8333 67.0849C60.0319 65.8712 61.6723 64.8634 62.5403 65.1062Z" fill="#5FCCCC"/>
</g>
<g style="mix-blend-mode:soft-light" opacity="0.51">
<path d="M63.9607 26.112C64.586 26.2812 66.8369 27.8039 66.734 29.1354C66.631 30.4668 61.0478 29.3045 61.2464 28.0908C61.445 26.8771 63.078 25.8693 63.9607 26.112Z" fill="#5FCCCC"/>
</g>
<g style="mix-blend-mode:soft-light" opacity="0.51">
<path d="M48.3804 9.94356C48.5349 10.5762 48.3142 13.2832 47.0931 13.8422C45.872 14.4013 44.1507 8.96521 45.3203 8.54592C46.4899 8.12663 48.1598 9.03877 48.3804 9.94356Z" fill="#5FCCCC"/>
</g>
<g style="mix-blend-mode:soft-light" opacity="0.71">
<g style="mix-blend-mode:soft-light" opacity="0.71">
<path d="M57.1422 19.8153C57.305 19.1928 57.3251 18.5415 57.2011 17.9101C57.1871 17.8083 57.1521 17.7106 57.0981 17.6232C57.0337 17.5458 56.9505 17.4862 56.8565 17.4502C56.7624 17.4141 56.6607 17.4028 56.5611 17.4172C56.3162 17.444 56.0848 17.5428 55.8962 17.7013C55.7076 17.8598 55.5703 18.0707 55.5018 18.3073C55.4428 18.5464 55.4421 18.7961 55.4997 19.0355C55.5573 19.2748 55.6716 19.4969 55.8329 19.6829C56 19.8999 56.2457 20.0425 56.517 20.0801C56.6507 20.0926 56.7845 20.0583 56.8958 19.9832C57.0071 19.9081 57.089 19.7968 57.1275 19.6682C57.116 19.6515 57.1006 19.6379 57.0827 19.6284C57.0648 19.619 57.0448 19.6141 57.0245 19.6141C57.0043 19.6141 56.9843 19.619 56.9664 19.6284C56.9484 19.6379 56.933 19.6515 56.9215 19.6682L57.1422 19.8153Z" fill="#E9E9A8"/>
</g>
<g style="mix-blend-mode:soft-light" opacity="0.71">
<path d="M66.5355 23.4858C66.5665 23.304 66.5519 23.1174 66.4928 22.9428C66.4337 22.7681 66.3321 22.6109 66.1971 22.4854C66.0258 22.5424 65.8701 22.6386 65.7424 22.7663C65.6147 22.8939 65.5186 23.0496 65.4615 23.221C65.4369 23.3084 65.4297 23.3998 65.4403 23.49C65.451 23.5802 65.4794 23.6674 65.5238 23.7467C65.5682 23.8259 65.6278 23.8956 65.6991 23.9518C65.7705 24.008 65.8522 24.0496 65.9397 24.0742C66.3001 24.1405 66.6752 23.6844 66.4619 23.3828L66.5355 23.4858Z" fill="#E9E9A8"/>
</g>
<g style="mix-blend-mode:soft-light" opacity="0.71">
<path d="M65.4316 20.1754C65.3952 20.0563 65.3433 19.9425 65.2771 19.837C65.2651 19.8339 65.2524 19.8339 65.2403 19.837C65.2334 19.8337 65.2259 19.832 65.2183 19.832C65.2106 19.832 65.2031 19.8337 65.1962 19.837C65.0859 19.9032 65.0711 20.1018 64.9387 20.1092C64.8063 20.1165 64.8872 20.1092 64.8725 20.1092C64.8578 20.1092 64.8725 20.1827 64.8725 20.2122C64.9089 20.2458 64.9522 20.271 64.9993 20.2861C65.0465 20.3011 65.0964 20.3057 65.1455 20.2994C65.1946 20.2931 65.2417 20.276 65.2835 20.2495C65.3253 20.223 65.3608 20.1877 65.3875 20.1459V20.2048L65.4316 20.1754Z" fill="#E9E9A8"/>
</g>
<g style="mix-blend-mode:soft-light" opacity="0.71">
<path d="M62.8353 17.0566C62.7701 16.8332 62.6735 16.6202 62.5484 16.424C62.5484 16.424 62.4895 16.3946 62.4895 16.3946C62.4759 16.3875 62.4608 16.3838 62.4454 16.3838C62.43 16.3838 62.4149 16.3875 62.4013 16.3946C62.1953 16.5123 62.1659 16.8948 61.9231 16.9021C61.8797 16.8909 61.8341 16.8909 61.7907 16.9021C61.7319 16.9463 61.7907 17.0419 61.7907 17.0934C61.859 17.1582 61.9407 17.2071 62.03 17.2366C62.1194 17.2662 62.2141 17.2757 62.3075 17.2644C62.401 17.2532 62.4908 17.2215 62.5705 17.1716C62.6503 17.1217 62.7181 17.0548 62.7691 16.9757V17.0787L62.8353 17.0566Z" fill="#E9E9A8"/>
</g>
<g style="mix-blend-mode:soft-light" opacity="0.71">
<path d="M69.1835 15.5045C69.1158 15.2808 69.0167 15.0678 68.8893 14.8719C68.8781 14.8453 68.857 14.8242 68.8304 14.813C68.8168 14.8059 68.8017 14.8022 68.7863 14.8022C68.7709 14.8022 68.7558 14.8059 68.7422 14.813C68.5288 14.9307 68.4994 15.3132 68.2567 15.3206C68.2157 15.3093 68.1725 15.3093 68.1316 15.3206C68.0728 15.3647 68.1316 15.4604 68.1316 15.5119C68.1999 15.5766 68.2816 15.6255 68.3709 15.6551C68.4603 15.6846 68.555 15.6941 68.6484 15.6829C68.7419 15.6717 68.8317 15.64 68.9114 15.59C68.9912 15.5401 69.059 15.4733 69.11 15.3942V15.4971L69.1835 15.5045Z" fill="#E9E9A8"/>
</g>
<g style="mix-blend-mode:soft-light" opacity="0.71">
<path d="M66.1673 18.0719C66.1822 17.9873 66.1766 17.9005 66.151 17.8186C66.1254 17.7367 66.0805 17.6621 66.0202 17.6011C65.9593 17.6482 65.9071 17.7054 65.8657 17.7703C65.8462 17.8024 65.8359 17.8393 65.8359 17.8769C65.8359 17.9145 65.8462 17.9514 65.8657 17.9836C65.9113 18.0108 65.9634 18.0252 66.0165 18.0252C66.0696 18.0252 66.1217 18.0108 66.1673 17.9836L66.1232 18.0571L66.1673 18.0719Z" fill="#E9E9A8"/>
</g>
<g style="mix-blend-mode:soft-light" opacity="0.71">
<path d="M65.0206 17.5861C65.0106 17.5391 64.9877 17.4957 64.9544 17.4611C64.909 17.4459 64.86 17.4459 64.8146 17.4611C64.69 17.4755 64.5641 17.4755 64.4395 17.4611L64.8367 17.9539V17.9981C64.8367 18.0569 64.7925 18.101 64.7705 18.1525C64.7484 18.204 64.822 18.3144 64.9029 18.3511C65.4325 18.6012 65.1015 17.8656 65.0206 17.5861Z" fill="#E9E9A8"/>
</g>
<g style="mix-blend-mode:soft-light" opacity="0.71">
<path d="M58.9952 15.3279C58.987 15.2823 58.9637 15.2409 58.929 15.2102C58.8836 15.1956 58.8347 15.1956 58.7892 15.2102C58.6644 15.2211 58.5389 15.2211 58.4141 15.2102L58.8113 15.703C58.8113 15.7619 58.7672 15.806 58.7451 15.8649C58.723 15.9237 58.7966 16.0194 58.8775 16.0635C59.4365 16.3283 59.0688 15.578 58.9952 15.3279Z" fill="#E9E9A8"/>
</g>
<g style="mix-blend-mode:soft-light" opacity="0.71">
<path d="M66.7632 13.8791L66.6529 13.7319C66.6039 13.7684 66.5671 13.8188 66.5474 13.8766C66.5277 13.9344 66.526 13.9968 66.5425 14.0556C66.5541 14.0842 66.5729 14.1092 66.5971 14.1283C66.6214 14.1473 66.6502 14.1597 66.6807 14.1642C66.7112 14.1686 66.7423 14.165 66.771 14.1537C66.7996 14.1424 66.8249 14.1238 66.8441 14.0997C66.8809 14.0335 66.9177 13.9158 66.9765 13.9526L66.7632 13.8791Z" fill="#E9E9A8"/>
</g>
<g style="mix-blend-mode:soft-light" opacity="0.71">
<path d="M57.4874 13.7392C57.4859 13.7824 57.4732 13.8244 57.4507 13.8612C57.4282 13.898 57.3965 13.9284 57.3588 13.9493C57.321 13.9703 57.2785 13.9811 57.2353 13.9807C57.1921 13.9804 57.1498 13.9689 57.1124 13.9473C57.075 13.9257 57.0439 13.8948 57.0219 13.8576C57 13.8205 56.9881 13.7782 56.9873 13.7351C56.9866 13.6919 56.997 13.6493 57.0176 13.6113C57.0382 13.5734 57.0682 13.5414 57.1048 13.5186C57.144 13.499 57.1874 13.4895 57.2311 13.4908C57.2748 13.4922 57.3175 13.5043 57.3554 13.5262C57.3933 13.548 57.4251 13.5789 57.4482 13.6161C57.4712 13.6533 57.4847 13.6956 57.4874 13.7392V13.7392Z" fill="#E9E9A8"/>
</g>
<g style="mix-blend-mode:soft-light" opacity="0.71">
<path d="M59.7023 15.5708C59.8052 15.6591 59.9303 15.7915 59.8641 15.9166C59.7979 16.0416 59.6213 16.0048 59.4963 15.9607C59.3712 15.9166 59.3786 15.9166 59.3712 15.8577C59.3639 15.7989 59.6213 15.7032 59.6213 15.5635C59.6213 15.5635 59.6949 15.5635 59.6655 15.6297L59.7023 15.5708Z" fill="#E9E9A8"/>
</g>
<g style="mix-blend-mode:soft-light" opacity="0.71">
<path d="M68.5137 25.3101C68.5021 25.2093 68.4667 25.1127 68.4104 25.0283C68.3541 24.9439 68.2786 24.8741 68.19 24.8246C68.1453 24.8021 68.096 24.7903 68.046 24.79C67.9959 24.7898 67.9465 24.8012 67.9016 24.8233C67.8567 24.8454 67.8175 24.8776 67.7871 24.9174C67.7568 24.9572 67.736 25.0035 67.7266 25.0527C67.7255 25.1131 67.7436 25.1723 67.7781 25.2218L67.859 25.288C67.9089 25.335 67.9681 25.371 68.0327 25.3938C68.0972 25.4166 68.1659 25.4257 68.2342 25.4205C68.3031 25.4148 68.3671 25.3824 68.4125 25.3302C68.4579 25.2779 68.481 25.21 68.4769 25.1409L68.5137 25.3101Z" fill="#E9E9A8"/>
</g>
<g style="mix-blend-mode:soft-light" opacity="0.71">
<path d="M72.7879 27.6124C72.7573 27.6127 72.7271 27.6195 72.6992 27.6321C72.6714 27.6448 72.6465 27.6631 72.6261 27.6859C72.5912 27.7345 72.5662 27.7895 72.5525 27.8478C72.4936 27.9728 72.3392 28.0317 72.2509 28.1346C72.1863 28.2465 72.1523 28.3733 72.1523 28.5024C72.1523 28.6316 72.1863 28.7584 72.2509 28.8702C72.2555 28.8973 72.2666 28.9228 72.2833 28.9446C72.2999 28.9663 72.3216 28.9838 72.3465 28.9953C72.3871 29.0088 72.431 29.0088 72.4716 28.9953C72.7438 28.8923 72.9203 29.1571 73.2072 29.1203C73.3244 29.0921 73.4333 29.0368 73.5252 28.9588C73.6172 28.8809 73.6897 28.7826 73.7368 28.6716C73.7885 28.5344 73.8015 28.3856 73.7745 28.2415C73.7475 28.0974 73.6814 27.9634 73.5836 27.8542C73.4858 27.745 73.3599 27.6647 73.2196 27.6221C73.0793 27.5794 72.93 27.5761 72.7879 27.6124Z" fill="#E9E9A8"/>
</g>
<g style="mix-blend-mode:soft-light" opacity="0.71">
<path d="M66.2704 20.1537C66.3103 20.1874 66.3364 20.2345 66.3439 20.2862C66.2768 20.2793 66.2123 20.2563 66.156 20.2191C66.0996 20.182 66.0531 20.1318 66.0203 20.0728C65.9761 20.014 65.932 19.9404 65.9688 19.8742C66.0056 19.808 66.0497 19.8154 66.0938 19.7786C66.138 19.7418 66.2115 19.5726 66.3145 19.5873C66.3431 19.5938 66.3687 19.6096 66.3874 19.6323C66.406 19.6549 66.4166 19.6831 66.4175 19.7124C66.4141 19.7721 66.3964 19.8301 66.366 19.8816C66.3145 19.9919 66.2556 20.1096 66.2042 20.2273L66.2704 20.1537Z" fill="#E9E9A8"/>
</g>
<g style="mix-blend-mode:soft-light" opacity="0.71">
<path d="M64.844 21.5803C64.844 21.4774 64.6675 21.4553 64.6013 21.5803C64.56 21.6817 64.56 21.7953 64.6013 21.8966C64.6757 21.8872 64.7458 21.8565 64.8032 21.8083C64.8606 21.76 64.9029 21.6962 64.9249 21.6245L64.844 21.5803Z" fill="#E9E9A8"/>
</g>
<g style="mix-blend-mode:soft-light" opacity="0.71">
<path d="M64.5195 20.0139C64.5076 19.9621 64.4877 19.9125 64.4606 19.8668C64.444 19.8466 64.4223 19.8311 64.3977 19.8221C64.3732 19.813 64.3466 19.8107 64.3209 19.8153C64.2399 19.8153 64.2252 19.9551 64.1664 20.0139C64.1075 20.0728 63.9898 20.0801 63.9531 20.161C63.9163 20.242 63.9898 20.3302 64.0781 20.3523C64.1639 20.3556 64.2486 20.3325 64.3209 20.2861C64.3917 20.2531 64.4508 20.1992 64.49 20.1316C64.5154 20.1033 64.5294 20.0666 64.5294 20.0286C64.5294 19.9906 64.5154 19.954 64.49 19.9256L64.5195 20.0139Z" fill="#E9E9A8"/>
</g>
<g style="mix-blend-mode:soft-light" opacity="0.71">
<path d="M64.2916 19.3369C64.2847 19.3616 64.2687 19.3829 64.247 19.3965C64.2252 19.4101 64.1991 19.4151 64.1739 19.4105C64.1491 19.4051 64.1257 19.3944 64.1054 19.3792C64.0851 19.3639 64.0683 19.3445 64.0562 19.3222C64.049 19.2957 64.049 19.2678 64.0562 19.2413C64.0562 19.2081 64.0693 19.1763 64.0928 19.1528C64.1162 19.1294 64.148 19.1162 64.1812 19.1162C64.2144 19.1162 64.2462 19.1294 64.2696 19.1528C64.2931 19.1763 64.3063 19.2081 64.3063 19.2413C64.303 19.2753 64.288 19.3071 64.2638 19.3313C64.2397 19.3554 64.2079 19.3704 64.1739 19.3737L64.2916 19.3369Z" fill="#E9E9A8"/>
</g>
<g style="mix-blend-mode:soft-light" opacity="0.71">
<path d="M57.1563 20.7419C57.1563 20.7934 57.0974 20.8228 57.0459 20.8155C57.0211 20.8101 56.9978 20.7994 56.9775 20.7842C56.9571 20.7689 56.9404 20.7495 56.9282 20.7272C56.9211 20.7007 56.9211 20.6728 56.9282 20.6463C56.9282 20.6292 56.9317 20.6123 56.9384 20.5966C56.9452 20.581 56.955 20.5668 56.9674 20.5551C56.9798 20.5434 56.9945 20.5344 57.0105 20.5285C57.0266 20.5227 57.0436 20.5202 57.0606 20.5212C57.0945 20.5249 57.1256 20.5415 57.1475 20.5675C57.1694 20.5936 57.1804 20.627 57.1783 20.661C57.1751 20.695 57.1601 20.7268 57.1359 20.751C57.1118 20.7751 57.08 20.7901 57.0459 20.7934L57.1563 20.7419Z" fill="#E9E9A8"/>
</g>
<g style="mix-blend-mode:soft-light" opacity="0.71">
<path d="M64.9171 19.1017C64.9427 19.0954 64.9663 19.0827 64.9856 19.0648C65.0048 19.0468 65.0192 19.0242 65.0273 18.9992C65.0354 18.9741 65.037 18.9474 65.0319 18.9216C65.0267 18.8957 65.0151 18.8716 64.998 18.8516C64.9433 18.8623 64.8924 18.8878 64.8509 18.9251C64.8336 18.9472 64.8242 18.9744 64.8242 19.0024C64.8242 19.0304 64.8336 19.0576 64.8509 19.0796C64.8584 19.0902 64.8683 19.0989 64.8798 19.1049C64.8913 19.1109 64.9041 19.114 64.9171 19.114C64.9301 19.114 64.9429 19.1109 64.9544 19.1049C64.9659 19.0989 64.9759 19.0902 64.9833 19.0796L64.9171 19.1017Z" fill="#E9E9A8"/>
</g>
<g style="mix-blend-mode:soft-light" opacity="0.71">
<path d="M57.6861 11.2823C57.711 11.2763 57.7339 11.2638 57.7526 11.2462C57.7712 11.2286 57.7849 11.2065 57.7923 11.182C57.7998 11.1574 57.8006 11.1314 57.7949 11.1064C57.7892 11.0814 57.777 11.0584 57.7597 11.0396C57.703 11.0442 57.6503 11.0705 57.6125 11.1131C57.5952 11.1351 57.5858 11.1623 57.5858 11.1903C57.5858 11.2184 57.5952 11.2456 57.6125 11.2676C57.62 11.2782 57.6299 11.2869 57.6415 11.2929C57.653 11.2989 57.6658 11.302 57.6787 11.302C57.6917 11.302 57.7045 11.2989 57.716 11.2929C57.7276 11.2869 57.7375 11.2782 57.7449 11.2676L57.6861 11.2823Z" fill="#E9E9A8"/>
</g>
<g style="mix-blend-mode:soft-light" opacity="0.71">
<path d="M55.4352 16.3063C55.4623 16.2475 55.4763 16.1835 55.4763 16.1187C55.4763 16.054 55.4623 15.99 55.4352 15.9312L55.1557 16.0856C55.1189 16.0856 55.0674 16.1371 55.0454 16.1813C55.0359 16.2034 55.0311 16.2272 55.0313 16.2513C55.0314 16.2753 55.0364 16.2991 55.0461 16.3212C55.0557 16.3432 55.0698 16.3631 55.0874 16.3795C55.1049 16.3959 55.1257 16.4085 55.1483 16.4166C55.1966 16.4278 55.2472 16.4239 55.2932 16.4055C55.3393 16.3871 55.3785 16.3551 55.4058 16.3137L55.4352 16.3063Z" fill="#E9E9A8"/>
</g>
<g style="mix-blend-mode:soft-light" opacity="0.71">
<path d="M58.3554 17.3878L58.6864 17.8586C58.6349 17.9395 58.5025 17.8586 58.429 17.8144C58.3523 17.7558 58.2937 17.6768 58.2598 17.5864C58.2598 17.4908 58.2965 17.3657 58.3922 17.3657L58.3554 17.3878Z" fill="#E9E9A8"/>
</g>
<g style="mix-blend-mode:soft-light" opacity="0.71">
<path d="M71.6849 22.0443C71.7071 22.0178 71.7223 21.9862 71.7291 21.9524C71.7359 21.9186 71.7341 21.8836 71.7239 21.8506C71.7136 21.8176 71.6952 21.7878 71.6704 21.7638C71.6456 21.7398 71.6152 21.7224 71.5819 21.7132C71.5124 21.7038 71.4418 21.7184 71.3816 21.7545C71.3214 21.7906 71.2753 21.8461 71.2509 21.9118C71.2346 21.947 71.2289 21.9862 71.2346 22.0246C71.2402 22.0629 71.257 22.0988 71.2828 22.1277C71.3086 22.1567 71.3424 22.1774 71.3798 22.1874C71.4173 22.1974 71.4569 22.1962 71.4937 22.184C71.5812 22.1547 71.6615 22.1071 71.7291 22.0443H71.6849Z" fill="#E9E9A8"/>
</g>
<g style="mix-blend-mode:soft-light" opacity="0.71">
<path d="M59.1277 14.982C59.1751 14.9365 59.2076 14.8777 59.2207 14.8133C59.2338 14.7489 59.2271 14.682 59.2013 14.6216C59.1065 14.6296 59.0178 14.6714 58.9512 14.7393C58.9058 14.7801 58.8758 14.8353 58.8664 14.8956C58.857 14.9559 58.8688 15.0176 58.8997 15.0703C58.9806 15.1733 59.1792 15.1218 59.1792 14.9967L59.1277 14.982Z" fill="#E9E9A8"/>
</g>
<g style="mix-blend-mode:soft-light" opacity="0.71">
<path d="M58.7602 16.2695C58.7593 16.3132 58.7435 16.3552 58.7154 16.3887C58.6873 16.4221 58.6486 16.445 58.6057 16.4534L58.4365 16.218C58.4579 16.1918 58.4849 16.1707 58.5154 16.1563C58.5459 16.1418 58.5793 16.1343 58.6131 16.1343C58.6469 16.1343 58.6802 16.1418 58.7108 16.1563C58.7413 16.1707 58.7682 16.1918 58.7896 16.218L58.7602 16.2695Z" fill="#E9E9A8"/>
</g>
<g style="mix-blend-mode:soft-light" opacity="0.71">
<path d="M69.3827 23.4416L69.1179 23.8168C69.0873 23.8466 69.0667 23.8851 69.059 23.9271C69.0454 23.9702 69.0454 24.0164 69.059 24.0595C69.1178 24.2066 69.2208 24.3832 69.3827 24.3758C69.5445 24.3685 69.6254 24.1478 69.699 23.9933C69.8461 23.6917 70.6111 23.2062 70.3242 22.8237C70.0373 22.4412 69.5518 23.2209 69.3827 23.4416Z" fill="#E9E9A8"/>
</g>
<g style="mix-blend-mode:soft-light" opacity="0.71">
<path d="M70.8908 21.3597L70.9791 21.4407C70.8993 21.4829 70.8116 21.5079 70.7216 21.5142C70.6767 21.5166 70.6323 21.5042 70.5951 21.479C70.5579 21.4537 70.53 21.417 70.5156 21.3745C70.5156 21.2935 70.5818 21.1906 70.6627 21.22C70.7494 21.2457 70.8264 21.297 70.8834 21.3671L70.8908 21.3597Z" fill="#E9E9A8"/>
</g>
<g style="mix-blend-mode:soft-light" opacity="0.71">
<path d="M63.784 20.8084C63.7767 20.8454 63.7589 20.8797 63.7329 20.907C63.7068 20.9344 63.6735 20.9537 63.6368 20.9628C63.6009 20.9733 63.5627 20.9726 63.5272 20.9607C63.4917 20.9489 63.4607 20.9265 63.4382 20.8966C63.4382 20.8525 63.4014 20.7863 63.4382 20.7642C63.4485 20.759 63.4598 20.7563 63.4713 20.7563C63.4828 20.7563 63.4942 20.759 63.5044 20.7642H63.784V20.8084Z" fill="#E9E9A8"/>
</g>
<g style="mix-blend-mode:soft-light" opacity="0.71">
<path d="M62.372 21.1909C62.2837 21.1909 62.1954 21.235 62.1366 21.3012C62.0777 21.3674 62.0042 21.4557 61.9085 21.4484C61.8129 21.441 61.8571 21.4484 61.8497 21.4042C61.8424 21.3601 61.8938 21.2939 61.9306 21.2424C61.9571 21.198 61.9792 21.1512 61.9968 21.1026C62.02 21.0448 62.0611 20.9957 62.114 20.9627C62.1668 20.9296 62.2289 20.9142 62.2911 20.9187C62.3191 20.9365 62.3415 20.9618 62.3558 20.9917C62.3701 21.0216 62.3757 21.055 62.372 21.0879C62.3682 21.1213 62.3542 21.1527 62.3318 21.1778C62.3094 21.2028 62.2797 21.2203 62.2469 21.2277L62.372 21.1909Z" fill="#E9E9A8"/>
</g>
<g style="mix-blend-mode:soft-light" opacity="0.71">
<path d="M62.121 20.3007L62.0842 20.1977C62.0544 20.1952 62.0246 20.2034 62.0003 20.2209C61.9759 20.2385 61.9588 20.2642 61.9518 20.2934C61.9486 20.3079 61.9484 20.3229 61.9511 20.3375C61.9539 20.3521 61.9595 20.366 61.9677 20.3784C61.976 20.3907 61.9867 20.4013 61.9991 20.4094C62.0115 20.4176 62.0255 20.4231 62.0401 20.4258C62.0541 20.4251 62.0678 20.4213 62.0802 20.4147C62.0926 20.4081 62.1034 20.3989 62.1118 20.3876C62.1203 20.3764 62.1261 20.3634 62.129 20.3497C62.1318 20.3359 62.1316 20.3217 62.1284 20.3081L62.121 20.3007Z" fill="#E9E9A8"/>
</g>
<g style="mix-blend-mode:soft-light" opacity="0.71">
<path d="M59.621 20.0727L59.5842 19.9697C59.5543 19.9671 59.5246 19.9754 59.5003 19.9929C59.4759 20.0105 59.4588 20.0362 59.4518 20.0653C59.4486 20.0798 59.4484 20.0948 59.4511 20.1095C59.4539 20.1241 59.4595 20.138 59.4677 20.1503C59.476 20.1627 59.4867 20.1733 59.4991 20.1814C59.5115 20.1896 59.5254 20.1951 59.5401 20.1977C59.5547 20.1981 59.5693 20.1952 59.5826 20.189C59.5959 20.1829 59.6077 20.1738 59.6169 20.1624C59.6261 20.1511 59.6326 20.1377 59.6359 20.1234C59.6392 20.1091 59.6391 20.0943 59.6357 20.08L59.621 20.0727Z" fill="#E9E9A8"/>
</g>
<g style="mix-blend-mode:soft-light" opacity="0.71">
<path d="M65.6151 18.7561C65.6151 18.8223 65.7034 18.8665 65.7696 18.8444C65.8358 18.8223 65.8873 18.7709 65.9535 18.7414C65.9858 18.7268 66.0209 18.7192 66.0565 18.7192C66.092 18.7192 66.1271 18.7268 66.1594 18.7414C66.1797 18.7485 66.1974 18.7613 66.2104 18.7783C66.2235 18.7953 66.2313 18.8157 66.233 18.8371C66.2383 18.8486 66.241 18.8611 66.241 18.8738C66.241 18.8865 66.2383 18.8991 66.233 18.9106C66.1679 19.0339 66.0715 19.138 65.9535 19.2122C65.896 19.2514 65.8281 19.2724 65.7585 19.2724C65.689 19.2724 65.621 19.2514 65.5636 19.2122C65.5263 19.1818 65.4983 19.1416 65.4827 19.0961C65.4671 19.0506 65.4645 19.0016 65.4753 18.9548C65.4862 18.9077 65.5087 18.8642 65.5409 18.8282C65.573 18.7922 65.6137 18.7649 65.6592 18.7488L65.6151 18.7561Z" fill="#E9E9A8"/>
</g>
<g style="mix-blend-mode:soft-light" opacity="0.71">
<path d="M56.2588 7.41295C56.2588 7.47915 56.3471 7.52329 56.4133 7.50122C56.4746 7.4713 56.5336 7.43687 56.5898 7.39823C56.6236 7.38387 56.6598 7.37646 56.6965 7.37646C56.7331 7.37646 56.7694 7.38387 56.8031 7.39823C56.8225 7.40668 56.8394 7.41987 56.8522 7.43659C56.8651 7.45331 56.8735 7.47302 56.8767 7.49387C56.8837 7.51789 56.8837 7.5434 56.8767 7.56742C56.8161 7.69151 56.7218 7.79603 56.6045 7.86902C56.5471 7.90824 56.4791 7.92921 56.4096 7.92921C56.34 7.92921 56.2721 7.90824 56.2147 7.86902C56.1785 7.8373 56.1515 7.79657 56.1362 7.75099C56.1209 7.7054 56.118 7.65658 56.1277 7.60949C56.1374 7.56241 56.1594 7.51873 56.1915 7.48292C56.2236 7.4471 56.2646 7.42042 56.3103 7.40559L56.2588 7.41295Z" fill="#E9E9A8"/>
</g>
<g style="mix-blend-mode:soft-light" opacity="0.71">
<path d="M66.3291 17.0272C66.3434 16.9872 66.3414 16.9432 66.3235 16.9047C66.3056 16.8661 66.2733 16.8362 66.2335 16.8213C66.1924 16.8055 66.1476 16.802 66.1045 16.8111C66.0614 16.8203 66.0219 16.8417 65.9908 16.8728C65.9754 16.8829 65.9636 16.8976 65.9571 16.9147C65.9505 16.9318 65.9494 16.9506 65.954 16.9684C65.9778 16.9763 66.0036 16.9763 66.0275 16.9684L66.3438 17.0272H66.3291Z" fill="#E9E9A8"/>
</g>
<g style="mix-blend-mode:soft-light" opacity="0.71">
<path d="M56.1925 10.9659C56.4108 10.9049 56.5976 10.7628 56.7147 10.5687C56.7147 10.5687 56.7515 10.4952 56.7147 10.4584C56.6779 10.4216 56.575 10.3995 56.4867 10.3922C56.3984 10.3848 56.2145 10.2671 56.0674 10.2598C55.9479 10.2699 55.8358 10.322 55.7511 10.4069C55.6113 10.5099 55.4642 10.6864 55.5598 10.8335C55.5893 10.8672 55.6255 10.8944 55.666 10.9134C55.7065 10.9324 55.7505 10.9427 55.7952 10.9439C55.9804 10.9732 56.1691 10.9732 56.3543 10.9439L56.1925 10.9659Z" fill="#E9E9A8"/>
</g>
<g style="mix-blend-mode:soft-light" opacity="0.71">
<path d="M62.49 13.4521C62.6224 13.4521 62.6886 13.2903 62.696 13.1579C62.7026 13.115 62.7001 13.0713 62.6887 13.0295C62.6773 12.9876 62.6572 12.9487 62.6298 12.9151C62.5415 12.8416 62.4091 12.9151 62.3135 12.974L62.0633 13.1358C62.0428 13.1456 62.0248 13.1599 62.0108 13.1778C61.9968 13.1957 61.987 13.2165 61.9824 13.2388C61.9861 13.2769 62.0015 13.3129 62.0266 13.3418C62.1582 13.4918 62.3182 13.6142 62.4974 13.7022L62.49 13.4521Z" fill="#E9E9A8"/>
</g>
<g style="mix-blend-mode:soft-light" opacity="0.71">
<path d="M61.0181 17.6379C62.1877 17.9468 62.4304 16.5418 61.5183 16.049C60.6061 15.5561 60.0177 17.3657 61.0181 17.6379Z" fill="#E9E9A8"/>
</g>
<g style="mix-blend-mode:soft-light" opacity="0.71">
<path d="M66.3369 21.8453C66.3094 21.8791 66.2746 21.9064 66.2351 21.9251C66.1957 21.9438 66.1526 21.9536 66.1089 21.9536C66.0653 21.9536 66.0221 21.9438 65.9827 21.9251C65.9432 21.9064 65.9085 21.8791 65.8809 21.8453C65.9589 21.7286 66.0686 21.6368 66.1972 21.5805C66.2295 21.5691 66.2638 21.5646 66.2979 21.5671C66.3321 21.5695 66.3654 21.579 66.3957 21.5949C66.426 21.6107 66.4528 21.6326 66.4743 21.6593C66.4959 21.6859 66.5117 21.7167 66.5208 21.7496L66.3811 21.9483L66.3369 21.8453Z" fill="#E9E9A8"/>
</g>
<g style="mix-blend-mode:soft-light" opacity="0.71">
<path d="M63.0708 24.0815L62.9531 23.9271C62.78 24.0781 62.5769 24.1909 62.3573 24.2581C62.2426 24.2803 62.1313 24.3174 62.0262 24.3684C61.9732 24.3929 61.9275 24.4309 61.8939 24.4787C61.8603 24.5265 61.84 24.5824 61.835 24.6406C61.835 24.8613 62.1071 24.9642 62.3205 24.9569C62.4618 24.9535 62.6008 24.9196 62.7278 24.8574C62.8548 24.7951 62.9668 24.7061 63.0561 24.5964C63.1288 24.4876 63.1676 24.3596 63.1676 24.2286C63.1676 24.0977 63.1288 23.9697 63.0561 23.8608L62.828 24.008L63.0708 24.0815Z" fill="#E9E9A8"/>
</g>
<g style="mix-blend-mode:soft-light" opacity="0.71">
<path d="M61.7543 22.6028C61.8131 22.5292 61.7543 22.4925 61.6586 22.5219C61.5592 22.5561 61.4669 22.6085 61.3865 22.6764L60.798 23.0883C60.6877 23.1618 60.5626 23.2648 60.5405 23.3457C60.5185 23.4267 60.6067 23.434 60.7024 23.4046C60.809 23.3692 60.9105 23.3198 61.004 23.2575C61.3276 23.0589 61.7395 22.7867 61.791 22.5219L61.5998 22.566L61.7543 22.6028Z" fill="#E9E9A8"/>
</g>
<g style="mix-blend-mode:soft-light" opacity="0.71">
<path d="M61.1513 21.4481C61.1513 21.4481 61.1072 21.5143 61.0704 21.5143C61.0316 21.5037 60.9962 21.4835 60.9674 21.4554C60.9434 21.4306 60.9257 21.4003 60.9159 21.3671C60.9075 21.3358 60.9102 21.3025 60.9237 21.273C60.9371 21.2435 60.9604 21.2196 60.9895 21.2053C61.0174 21.1892 61.0492 21.1807 61.0814 21.1807C61.1137 21.1807 61.1454 21.1892 61.1734 21.2053C61.1986 21.2231 61.2168 21.2491 61.2249 21.2789C61.2275 21.2944 61.2244 21.3103 61.2164 21.3238C61.2083 21.3372 61.1956 21.3474 61.1807 21.3524L61.1513 21.4481Z" fill="#E9E9A8"/>
</g>
<g style="mix-blend-mode:soft-light" opacity="0.71">
<path d="M63.4608 15.6588C63.5836 15.5293 63.6944 15.389 63.7918 15.2395C63.7777 15.2193 63.759 15.2027 63.7373 15.1912C63.7155 15.1797 63.6913 15.1735 63.6667 15.1733C63.6021 15.1693 63.5374 15.1785 63.4764 15.2002C63.4155 15.222 63.3596 15.2559 63.3121 15.2999C63.2647 15.344 63.2266 15.3972 63.2003 15.4563C63.1741 15.5155 63.16 15.5793 63.1592 15.6441C63.1449 15.6794 63.1449 15.719 63.1592 15.7544C63.18 15.7711 63.206 15.7802 63.2327 15.7802C63.2595 15.7802 63.2854 15.7711 63.3063 15.7544C63.3514 15.7302 63.3894 15.6948 63.4166 15.6514L63.4608 15.6588Z" fill="#E9E9A8"/>
</g>
<g style="mix-blend-mode:soft-light" opacity="0.71">
<path d="M64.203 18.4252L64.1588 18.3296C64.1297 18.3337 64.1016 18.3437 64.0763 18.3588C64.0511 18.374 64.0291 18.3941 64.0117 18.4179C64.0117 18.4694 64.0117 18.5503 64.0779 18.5429H64.1368L64.2913 18.4032L64.203 18.4252Z" fill="#E9E9A8"/>
</g>
<g style="mix-blend-mode:soft-light" opacity="0.71">
<path d="M55.8694 14.2319C55.8744 14.1407 55.8567 14.0497 55.8179 13.9671C55.8012 13.9245 55.7717 13.8883 55.7335 13.8632C55.6953 13.8382 55.6503 13.8256 55.6046 13.8273C55.5603 13.8345 55.5192 13.855 55.4869 13.8861C55.4647 13.9108 55.4475 13.9395 55.4364 13.9708C55.4253 14.0021 55.4205 14.0352 55.4222 14.0683C55.4239 14.1015 55.4321 14.1339 55.4464 14.1639C55.4606 14.1938 55.4807 14.2207 55.5053 14.2429C55.5299 14.2651 55.5587 14.2823 55.5899 14.2934C55.6212 14.3045 55.6544 14.3093 55.6875 14.3076C55.7206 14.3059 55.7531 14.2977 55.783 14.2834C55.813 14.2692 55.8398 14.2491 55.862 14.2245L55.8694 14.2319Z" fill="#E9E9A8"/>
</g>
<g style="mix-blend-mode:soft-light" opacity="0.71">
<path d="M59.0544 10.7598C59.0736 10.7853 59.0861 10.8152 59.0908 10.8468C59.0955 10.8783 59.0922 10.9106 59.0813 10.9406C59.0703 10.9706 59.052 10.9973 59.028 11.0184C59.0041 11.0395 58.9752 11.0543 58.9441 11.0614C58.8802 11.0245 58.825 10.9743 58.7822 10.9142C58.8065 10.8814 58.8374 10.854 58.8728 10.8337C58.9083 10.8135 58.9476 10.8008 58.9882 10.7965L59.0544 10.7598Z" fill="#E9E9A8"/>
</g>
<g style="mix-blend-mode:soft-light" opacity="0.71">
<path d="M60.1655 12.7977C60.2097 12.7315 60.0699 12.6653 60.0184 12.7315C60.0024 12.7685 59.9996 12.8098 60.0103 12.8486C60.021 12.8874 60.0446 12.9213 60.0772 12.9448C60.11 12.928 60.1363 12.9009 60.1522 12.8677C60.1681 12.8345 60.1728 12.797 60.1655 12.7609V12.7977Z" fill="#E9E9A8"/>
</g>
<g style="mix-blend-mode:soft-light" opacity="0.71">
<path d="M66.9038 24.3097L66.7935 24.1553C66.7489 24.1736 66.7088 24.2012 66.6758 24.2362C66.6817 24.2582 66.692 24.2787 66.706 24.2966C66.72 24.3145 66.7375 24.3294 66.7574 24.3404C66.7773 24.3514 66.7993 24.3582 66.8219 24.3605C66.8445 24.3629 66.8674 24.3606 66.8891 24.3539L66.9038 24.3097Z" fill="#E9E9A8"/>
</g>
<g style="mix-blend-mode:soft-light" opacity="0.71">
<path d="M82.77 23.0519L82.6523 22.9048C82.61 22.9232 82.5723 22.9508 82.542 22.9857C82.5479 23.0077 82.5582 23.0282 82.5722 23.0461C82.5862 23.064 82.6037 23.0789 82.6236 23.0899C82.6436 23.1009 82.6655 23.1077 82.6881 23.1101C82.7107 23.1124 82.7336 23.1101 82.7553 23.1034L82.77 23.0519Z" fill="#E9E9A8"/>
</g>
<g style="mix-blend-mode:soft-light" opacity="0.71">
<path d="M74.6934 21.7644C74.7777 21.8352 74.8423 21.9266 74.881 22.0296C74.9197 22.1327 74.9311 22.244 74.9141 22.3528C74.9195 22.3771 74.9195 22.4022 74.9141 22.4264C74.8958 22.4355 74.8757 22.4402 74.8553 22.4402C74.8349 22.4402 74.8147 22.4355 74.7964 22.4264C74.5537 22.3823 74.2668 22.2866 74.23 22.0512C74.2249 22 74.2328 21.9483 74.2528 21.9009C74.2728 21.8535 74.3043 21.8118 74.3445 21.7796C74.3847 21.7475 74.4323 21.7259 74.4829 21.7168C74.5336 21.7077 74.5857 21.7114 74.6346 21.7276L74.6934 21.9188V21.7644Z" fill="#E9E9A8"/>
</g>
<g style="mix-blend-mode:soft-light" opacity="0.71">
<path d="M71.0521 41.2729C71.0831 41.0911 71.0685 40.9045 71.0094 40.7299C70.9503 40.5552 70.8487 40.398 70.7137 40.2725C70.5424 40.3295 70.3867 40.4257 70.259 40.5534C70.1313 40.681 70.0351 40.8367 69.9781 41.0081C69.9534 41.0955 69.9463 41.1869 69.957 41.2771C69.9676 41.3673 69.996 41.4545 70.0404 41.5338C70.0848 41.613 70.1444 41.6827 70.2157 41.7389C70.2871 41.7951 70.3688 41.8367 70.4562 41.8613C70.8167 41.9276 71.1919 41.4715 70.9785 41.1699L71.0521 41.2729Z" fill="#E9E9A8"/>
</g>
<g style="mix-blend-mode:soft-light" opacity="0.71">
<path d="M69.9628 37.9625C69.9265 37.8434 69.8746 37.7296 69.8084 37.6241H69.7716C69.7647 37.6208 69.7571 37.6191 69.7495 37.6191C69.7419 37.6191 69.7343 37.6208 69.7274 37.6241C69.6171 37.6903 69.6024 37.8889 69.47 37.8963C69.3376 37.9036 69.4185 37.8963 69.4038 37.8963C69.3891 37.8963 69.4038 37.9698 69.4038 37.9993C69.4401 38.0329 69.4834 38.0581 69.5306 38.0732C69.5777 38.0883 69.6276 38.0928 69.6767 38.0865C69.7258 38.0802 69.7729 38.0632 69.8147 38.0367C69.8566 38.0101 69.8921 37.9748 69.9187 37.9331V37.9919L69.9628 37.9625Z" fill="#E9E9A8"/>
</g>
<g style="mix-blend-mode:soft-light" opacity="0.71">
<path d="M73.6924 33.3136C73.6308 33.0889 73.5339 32.8754 73.4055 32.681C73.3943 32.6544 73.3732 32.6333 73.3467 32.6221C73.333 32.615 73.3179 32.6113 73.3025 32.6113C73.2872 32.6113 73.272 32.615 73.2584 32.6221C73.0451 32.7398 73.0157 33.1223 72.7729 33.1297C72.7288 33.1297 72.6773 33.1297 72.6478 33.1297C72.6184 33.1297 72.6478 33.2695 72.6478 33.3209C72.7161 33.3857 72.7978 33.4346 72.8872 33.4642C72.9765 33.4937 73.0713 33.5032 73.1647 33.492C73.2581 33.4808 73.3479 33.4491 73.4277 33.3991C73.5074 33.3492 73.5752 33.2824 73.6262 33.2033V33.3062L73.6924 33.3136Z" fill="#E9E9A8"/>
</g>
<g style="mix-blend-mode:soft-light" opacity="0.71">
<path d="M70.6693 35.8585C70.6824 35.774 70.6759 35.6876 70.6504 35.606C70.6249 35.5244 70.581 35.4497 70.5221 35.3877C70.4613 35.4348 70.409 35.492 70.3677 35.5569C70.3482 35.589 70.3379 35.6259 70.3379 35.6635C70.3379 35.7011 70.3482 35.738 70.3677 35.7702C70.4133 35.7974 70.4654 35.8118 70.5185 35.8118C70.5716 35.8118 70.6237 35.7974 70.6693 35.7702L70.6251 35.8438L70.6693 35.8585Z" fill="#E9E9A8"/>
</g>
<g style="mix-blend-mode:soft-light" opacity="0.71">
<path d="M69.5362 35.3733C69.5262 35.3262 69.5033 35.2829 69.47 35.2482C69.4245 35.2336 69.3757 35.2336 69.3302 35.2482C69.2042 35.2505 69.0783 35.2382 68.9551 35.2114L69.3523 35.7043C69.3544 35.7189 69.3544 35.7338 69.3523 35.7484C69.3523 35.8073 69.3082 35.8514 69.2861 35.9029C69.264 35.9544 69.3376 36.0647 69.4185 36.1015C69.9776 36.3663 69.6097 35.6234 69.5362 35.3733Z" fill="#E9E9A8"/>
</g>
<g style="mix-blend-mode:soft-light" opacity="0.71">
<path d="M71.2734 31.6657L71.1704 31.5186C71.1214 31.555 71.0847 31.6054 71.065 31.6632C71.0453 31.721 71.0436 31.7834 71.0601 31.8422C71.0716 31.8708 71.0905 31.8959 71.1147 31.9149C71.1389 31.934 71.1677 31.9463 71.1982 31.9508C71.2287 31.9553 71.2599 31.9517 71.2886 31.9404C71.3172 31.929 71.3424 31.9104 71.3617 31.8864C71.3985 31.8202 71.4279 31.7025 71.4941 31.7392L71.2734 31.6657Z" fill="#E9E9A8"/>
</g>
<g style="mix-blend-mode:soft-light" opacity="0.71">
<path d="M73.0313 43.0968C73.0197 42.996 72.9843 42.8994 72.928 42.815C72.8717 42.7306 72.7962 42.6608 72.7076 42.6113C72.6627 42.5903 72.6137 42.5796 72.5641 42.5801C72.5145 42.5806 72.4657 42.5922 72.4212 42.6141C72.3767 42.636 72.3377 42.6676 72.307 42.7066C72.2764 42.7455 72.2549 42.7909 72.2442 42.8393C72.2431 42.8997 72.2611 42.9589 72.2957 43.0085L72.3766 43.0747C72.4265 43.1216 72.4856 43.1576 72.5502 43.1804C72.6148 43.2032 72.6835 43.2123 72.7518 43.2071C72.8207 43.2015 72.8847 43.1691 72.9301 43.1168C72.9755 43.0646 72.9986 42.9967 72.9945 42.9276L73.0313 43.0968Z" fill="#E9E9A8"/>
</g>
<g style="mix-blend-mode:soft-light" opacity="0.71">
<path d="M70.787 37.9404C70.8269 37.974 70.853 38.0211 70.8605 38.0728C70.7934 38.0659 70.7289 38.0429 70.6726 38.0058C70.6162 37.9686 70.5697 37.9184 70.5369 37.8594C70.4927 37.8006 70.4486 37.727 70.4854 37.6608C70.5222 37.5946 70.5663 37.602 70.6104 37.5652C70.6546 37.5284 70.7281 37.3592 70.8311 37.374C70.8597 37.3805 70.8853 37.3963 70.904 37.4189C70.9226 37.4415 70.9332 37.4697 70.9341 37.499C70.9307 37.5587 70.913 37.6167 70.8826 37.6682L70.7208 38.0139L70.787 37.9404Z" fill="#E9E9A8"/>
</g>
<g style="mix-blend-mode:soft-light" opacity="0.71">
<path d="M69.4339 36.8883C69.4595 36.882 69.483 36.8693 69.5023 36.8514C69.5216 36.8334 69.536 36.8109 69.5441 36.7858C69.5522 36.7607 69.5538 36.734 69.5486 36.7082C69.5435 36.6823 69.5318 36.6583 69.5148 36.6382C69.4583 36.6485 69.4066 36.6769 69.3677 36.7191C69.3521 36.7405 69.3438 36.7662 69.3438 36.7927C69.3438 36.8191 69.3521 36.8448 69.3677 36.8662C69.3759 36.8769 69.3865 36.8856 69.3986 36.8915C69.4107 36.8975 69.4241 36.9006 69.4376 36.9006C69.4511 36.9006 69.4644 36.8975 69.4765 36.8915C69.4886 36.8856 69.4992 36.8769 69.5074 36.8662L69.4339 36.8883Z" fill="#E9E9A8"/>
</g>
<g style="mix-blend-mode:soft-light" opacity="0.71">
<path d="M76.2005 39.8309C76.2227 39.8044 76.2379 39.7729 76.2447 39.739C76.2515 39.7052 76.2497 39.6702 76.2395 39.6372C76.2292 39.6043 76.2109 39.5744 76.1861 39.5504C76.1613 39.5264 76.1308 39.509 76.0976 39.4999C76.028 39.4905 75.9574 39.505 75.8972 39.5411C75.837 39.5772 75.791 39.6327 75.7665 39.6985C75.7502 39.7336 75.7445 39.7728 75.7502 39.8112C75.7559 39.8496 75.7726 39.8854 75.7984 39.9144C75.8242 39.9433 75.858 39.9641 75.8954 39.9741C75.9329 39.9841 75.9725 39.9829 76.0093 39.9706C76.0968 39.9414 76.1771 39.8937 76.2447 39.8309H76.2005Z" fill="#E9E9A8"/>
</g>
<g style="mix-blend-mode:soft-light" opacity="0.71">
<path d="M73.898 41.2287L73.6332 41.6039C73.6166 41.6174 73.6028 41.6342 73.5927 41.6531C73.5826 41.6721 73.5764 41.6928 73.5744 41.7142C73.5638 41.7577 73.5638 41.8031 73.5744 41.8466C73.6406 41.9937 73.7435 42.1776 73.9054 42.1629C74.0672 42.1482 74.1481 41.9349 74.2217 41.7804C74.3688 41.4788 75.1265 40.9933 74.8469 40.6108C74.5674 40.2283 74.0672 41.008 73.898 41.2287Z" fill="#E9E9A8"/>
</g>
<g style="mix-blend-mode:soft-light" opacity="0.71">
<path d="M75.4064 39.1468L75.4947 39.2278C75.4149 39.2699 75.3272 39.295 75.2372 39.3013C75.1934 39.3031 75.1502 39.2913 75.1133 39.2676C75.0765 39.2439 75.0478 39.2095 75.0312 39.1689C75.0312 39.0806 75.0975 38.9777 75.1784 39.0071C75.2651 39.0328 75.342 39.084 75.399 39.1542L75.4064 39.1468Z" fill="#E9E9A8"/>
</g>
<g style="mix-blend-mode:soft-light" opacity="0.71">
<path d="M70.1327 36.5428C70.1327 36.609 70.2209 36.6531 70.2872 36.631C70.3534 36.609 70.4048 36.5575 70.4711 36.528C70.5034 36.5134 70.5385 36.5059 70.574 36.5059C70.6095 36.5059 70.6447 36.5134 70.677 36.528C70.6972 36.5351 70.715 36.5479 70.728 36.5649C70.7411 36.5819 70.7489 36.6023 70.7506 36.6237C70.758 36.6476 70.758 36.6733 70.7506 36.6972C70.6855 36.8206 70.5891 36.9246 70.4711 36.9988C70.4136 37.038 70.3457 37.059 70.2761 37.059C70.2066 37.059 70.1386 37.038 70.0812 36.9988C70.0439 36.9684 70.0158 36.9282 70.0002 36.8827C69.9846 36.8372 69.9821 36.7882 69.9929 36.7414C70.0024 36.6938 70.0245 36.6495 70.0568 36.6133C70.0891 36.5771 70.1306 36.5502 70.1768 36.5354L70.1327 36.5428Z" fill="#E9E9A8"/>
</g>
<g style="mix-blend-mode:soft-light" opacity="0.71">
<path d="M70.8466 34.7846C70.8609 34.7446 70.8589 34.7005 70.841 34.662C70.8231 34.6235 70.7908 34.5935 70.751 34.5786C70.7099 34.5628 70.6651 34.5593 70.622 34.5684C70.5789 34.5776 70.5394 34.599 70.5082 34.6301C70.499 34.6443 70.4941 34.661 70.4941 34.6779C70.4941 34.6949 70.499 34.7115 70.5082 34.7257C70.5321 34.7336 70.5579 34.7336 70.5818 34.7257L70.8981 34.7846H70.8466Z" fill="#E9E9A8"/>
</g>
<g style="mix-blend-mode:soft-light" opacity="0.71">
<path d="M70.8535 39.6322C70.8259 39.6661 70.7911 39.6934 70.7516 39.7121C70.7122 39.7308 70.6691 39.7405 70.6254 39.7405C70.5818 39.7405 70.5386 39.7308 70.4992 39.7121C70.4597 39.6934 70.425 39.6661 70.3974 39.6322C70.4754 39.5156 70.5852 39.4237 70.7137 39.3674C70.7455 39.3562 70.7793 39.3517 70.813 39.3542C70.8467 39.3568 70.8794 39.3663 70.9092 39.3822C70.939 39.3981 70.9651 39.4201 70.9859 39.4467C71.0067 39.4733 71.0217 39.5039 71.03 39.5366L70.8976 39.7352L70.8535 39.6322Z" fill="#E9E9A8"/>
</g>
<g style="mix-blend-mode:soft-light" opacity="0.71">
<path d="M71.4487 42.0964L71.3384 41.9419C71.2939 41.9602 71.2537 41.9878 71.2207 42.0228C71.2266 42.0448 71.2369 42.0653 71.2509 42.0832C71.2649 42.1011 71.2824 42.116 71.3023 42.127C71.3223 42.138 71.3442 42.1448 71.3668 42.1472C71.3894 42.1495 71.4123 42.1472 71.434 42.1405L71.4487 42.0964Z" fill="#E9E9A8"/>
</g>
<g style="mix-blend-mode:soft-light" opacity="0.71">
<path d="M79.2091 39.5515C79.2934 39.6223 79.358 39.7137 79.3966 39.8168C79.4353 39.9198 79.4467 40.0312 79.4297 40.1399C79.4351 40.1642 79.4351 40.1893 79.4297 40.2135C79.4115 40.2226 79.3913 40.2273 79.3709 40.2273C79.3505 40.2273 79.3303 40.2226 79.312 40.2135C79.0693 40.1694 78.7824 40.0737 78.7456 39.8384C78.7406 39.7871 78.7484 39.7354 78.7684 39.688C78.7884 39.6406 78.8199 39.5989 78.8601 39.5667C78.9003 39.5346 78.9479 39.513 78.9985 39.5039C79.0492 39.4948 79.1013 39.4985 79.1502 39.5147L79.2017 39.7059L79.2091 39.5515Z" fill="#E9E9A8"/>
</g>
<g style="mix-blend-mode:soft-light" opacity="0.71">
<path d="M66.7199 33.3132C66.8036 33.3829 66.8679 33.473 66.9066 33.5748C66.9452 33.6766 66.9569 33.7867 66.9406 33.8944C66.9459 33.9059 66.9486 33.9184 66.9486 33.9311C66.9486 33.9438 66.9459 33.9564 66.9406 33.9679C66.9406 33.9679 66.8671 33.9679 66.8229 33.9679C66.5875 33.9238 66.2933 33.8282 66.2565 33.5928C66.2533 33.542 66.2623 33.4913 66.2829 33.4448C66.3034 33.3983 66.3349 33.3574 66.3746 33.3257C66.4143 33.2939 66.461 33.2722 66.5109 33.2623C66.5608 33.2525 66.6123 33.2548 66.6611 33.2691L66.7199 33.4604V33.3132Z" fill="#E9E9A8"/>
</g>
</g>
<g style="mix-blend-mode:soft-light" opacity="0.51">
<g style="mix-blend-mode:soft-light" opacity="0.51">
<path d="M20.0601 6.89861L18.5889 6.25129C18.8095 6.10417 19.0302 5.97176 19.2583 5.83936L20.3322 6.31014L21.1193 6.65587C32.2928 11.5413 44.1218 14.7631 56.2295 16.2187C57.5536 16.3805 58.885 16.5203 60.2164 16.6527C63.431 16.991 66.7633 17.3368 69.9852 17.9841C71.3832 18.2615 72.7656 18.6127 74.1266 19.036C74.2958 19.3082 74.465 19.5877 74.6195 19.8672C73.0544 19.3518 71.4603 18.9293 69.8454 18.602C66.6456 17.9547 63.3354 17.6089 60.1355 17.2853C58.7967 17.1382 57.4653 17.0058 56.1338 16.8439C43.9575 15.3828 32.0613 12.1435 20.8251 7.22964L20.0601 6.89861Z" fill="#5FCCCC"/>
</g>
<g style="mix-blend-mode:soft-light" opacity="0.51">
<path d="M78.6722 29.6358C75.5018 29.4224 72.449 28.3264 69.4846 27.2598L67.7044 26.6272C60.3003 23.9452 52.4652 22.651 44.5919 22.8094C43.003 22.8682 41.3773 23.0007 39.8105 23.1184C37.3466 23.3619 34.8714 23.4724 32.3956 23.4494C24.9491 23.2217 17.7706 20.6183 11.9092 16.0198C11.1053 15.3914 10.3481 14.7055 9.64355 13.9675C9.77596 13.7983 9.91573 13.6291 10.0629 13.4673C10.7561 14.2066 11.5062 14.8903 12.3064 15.5123C18.0584 20.0247 25.1029 22.5791 32.4103 22.802C34.8663 22.8297 37.3219 22.7242 39.7663 22.4857C41.3405 22.3533 42.9736 22.2283 44.5845 22.1768C52.5348 22.0077 60.4479 23.3096 67.9251 26.0166C68.5209 26.2226 69.1094 26.4359 69.7052 26.6566C72.5594 27.6791 75.4944 28.731 78.4957 28.9811C78.5619 29.2165 78.6207 29.4372 78.6722 29.6358Z" fill="#5FCCCC"/>
</g>
</g>
<g style="mix-blend-mode:soft-light" opacity="0.51">
<g style="mix-blend-mode:soft-light" opacity="0.51">
<path d="M75.3253 58.839C75.2076 59.0671 75.0899 59.2951 74.9575 59.5084L73.6776 59.5967C70.5586 59.7291 66.3878 59.2583 64.2178 56.2423C63.7911 55.607 63.4171 54.9378 63.0996 54.2415C62.5112 53.0204 61.9595 51.8802 60.8928 51.2991C60.0843 50.8917 59.1701 50.7427 58.2741 50.8725C56.5319 51.1881 54.8648 51.8294 53.3603 52.763C52.0565 53.5296 50.663 54.1324 49.2115 54.5578C47.0047 55.1022 44.6508 54.8153 42.5911 54.5578H42.3558C37.6185 53.9694 32.8812 53.3882 28.144 52.7777C27.2263 52.7218 26.3311 52.471 25.5179 52.0421C25.076 51.7995 24.7221 51.4234 24.5067 50.9677C24.2914 50.5119 24.2256 49.9997 24.3188 49.5043C24.5005 48.9733 24.8144 48.4973 25.231 48.1213C25.4631 47.8993 25.6703 47.6527 25.8489 47.3857C26.0823 46.8905 26.156 46.3349 26.0598 45.7959C25.9636 45.2569 25.7023 44.7611 25.3119 44.3771C24.4598 43.5608 23.3649 43.0443 22.193 42.9059C19.2506 42.4057 16.1905 43.0825 13.2481 43.7298C10.6644 44.4308 7.99505 44.7651 5.31832 44.7229C3.5323 44.6088 1.78453 44.1544 0.169129 43.3841C0.169129 43.134 0.125003 42.8839 0.110291 42.6485C1.73712 43.4853 3.51589 43.9856 5.34039 44.1197C7.92234 44.2889 10.5484 43.7004 13.0863 43.1413C16.0875 42.4719 19.1991 41.7878 22.2739 42.3101C23.5789 42.4616 24.7997 43.032 25.7533 43.9358C26.2448 44.4183 26.5707 45.0441 26.6844 45.7234C26.798 46.4027 26.6935 47.1005 26.3859 47.7168C26.1735 48.0324 25.9268 48.3235 25.6503 48.5848C25.3203 48.8912 25.0681 49.272 24.9147 49.6955C24.8627 50.0582 24.9229 50.4281 25.0873 50.7555C25.2517 51.0829 25.5123 51.3522 25.8342 51.5272C26.5678 51.9035 27.3722 52.1216 28.1955 52.1671C32.9327 52.7801 37.6724 53.3735 42.4146 53.9473L42.65 53.9841C44.7685 54.2415 46.968 54.5137 49.0644 53.9841C50.4644 53.5715 51.8083 52.9884 53.0661 52.248C54.6433 51.2762 56.3906 50.6122 58.2153 50.2914C59.2466 50.1291 60.3028 50.3073 61.2239 50.7989C62.4597 51.5345 63.0849 52.7997 63.6881 54.0429C63.9868 54.7091 64.3412 55.3488 64.7474 55.9555C66.7482 58.7434 70.6984 59.17 73.6482 59.0376C74.1999 58.9273 74.7663 58.8905 75.3253 58.839Z" fill="#5FCCCC"/>
</g>
</g>
<g style="mix-blend-mode:soft-light" opacity="0.51">
<g style="mix-blend-mode:soft-light" opacity="0.51">
<path d="M52.3376 78.0674C52.1095 78.1409 51.8962 78.2145 51.6755 78.2734C51.0663 77.4714 50.525 76.6201 50.0572 75.7282C49.9395 75.5149 49.8071 75.2942 49.6894 75.0735C47.2178 70.785 44.0621 67.6439 40.5532 65.9741C36.5075 64.0542 31.8585 63.9365 27.4375 64.0836C22.2221 64.2602 16.3005 64.9002 11.8869 68.2324L11.4971 67.7249C16.0504 64.2749 22.0971 63.6276 27.4155 63.4363C31.9173 63.2818 36.6619 63.4363 40.8254 65.393C44.4519 67.1143 47.7106 70.3583 50.2484 74.7572C50.3661 74.9705 50.4985 75.1986 50.6162 75.4192C51.1067 76.3534 51.6829 77.2399 52.3376 78.0674Z" fill="#5FCCCC"/>
</g>
</g>
<g style="mix-blend-mode:soft-light" opacity="0.51">
<g style="mix-blend-mode:soft-light" opacity="0.51">
<path d="M71.1256 14.828L70.059 14.6147C65.4607 13.6755 60.7757 13.2268 56.0827 13.2759C55.5208 13.3209 54.9556 13.2534 54.4202 13.0773C53.2579 12.6212 52.8313 11.4516 52.4194 10.3188C52.253 9.82804 52.0489 9.35093 51.8088 8.89172C50.7863 7.09686 48.5722 6.47896 46.8582 6.50103C45.1367 6.61173 43.4398 6.96843 41.8194 7.56029L41.0029 7.81774C36.4716 9.19331 32.823 9.60525 29.5128 9.1124C26.2943 8.69118 23.3261 7.15243 21.127 4.76501C21.3256 4.66203 21.5168 4.55168 21.7228 4.45605C23.8044 6.66819 26.5886 8.09018 29.6011 8.47978C32.8156 8.95057 36.3833 8.54599 40.819 7.2072L41.6208 6.94974C43.3025 6.33652 45.0641 5.96982 46.8509 5.86105C48.7487 5.86105 51.213 6.53781 52.3679 8.57542C52.6279 9.06398 52.8469 9.5733 53.0226 10.0981C53.4051 11.1427 53.7581 12.1284 54.6629 12.4814C55.1118 12.6234 55.5841 12.6759 56.0532 12.6359C60.8084 12.5736 65.5563 13.0274 70.2135 13.9894L70.5004 14.0409C70.699 14.2984 70.9197 14.5632 71.1256 14.828Z" fill="#5FCCCC"/>
</g>
</g>
<defs>
<radialGradient id="paint0_radial_2_1956" cx="0" cy="0" r="1" gradientUnits="userSpaceOnUse" gradientTransform="translate(32.9618 77.1922) scale(78.1868)">
<stop offset="0.59" stop-color="#1622A0"/>
<stop offset="1" stop-color="#5757E8"/>
</radialGradient>
</defs>
</svg>
