<svg width="56" height="68" viewBox="0 0 56 68" fill="none" xmlns="http://www.w3.org/2000/svg">
<path d="M3.0983 0.442686C3.22055 0.442686 3.31964 0.34359 3.31964 0.221343C3.31964 0.0990964 3.22055 0 3.0983 0C2.97606 0 2.87695 0.0990964 2.87695 0.221343C2.87695 0.34359 2.97606 0.442686 3.0983 0.442686Z" fill="#439FC2"/>
<path d="M17.9297 1.77063C17.9297 1.88804 17.8947 2.00066 17.8324 2.08368C17.7701 2.1667 17.6857 2.21331 17.5976 2.21331C17.532 2.21331 17.4678 2.18736 17.4132 2.13872C17.3586 2.09007 17.316 2.02092 17.2909 1.94003C17.2658 1.85914 17.2592 1.77015 17.272 1.68428C17.2848 1.5984 17.3164 1.51952 17.3629 1.4576C17.4093 1.39569 17.4685 1.35354 17.5329 1.33645C17.5973 1.31937 17.664 1.32812 17.7247 1.36162C17.7854 1.39513 17.8372 1.45188 17.8737 1.52468C17.9102 1.59749 17.9297 1.68307 17.9297 1.77063Z" fill="#439FC2"/>
<path d="M49.8018 54.8929H53.1677L54.8927 55.9997L49.8018 54.8929Z" fill="#085495"/>
<path d="M40.8677 55.7783L37.1855 56.0097L38.3416 56.2209L41.44 56.0097H42.4978L40.8677 55.7783Z" fill="#085495"/>
<path d="M44.2686 53.7865L47.81 52.6797L47.3016 53.2331L44.2686 53.7865Z" fill="#085495"/>
<path d="M9.07504 37.874C8.75981 37.5354 8.37238 37.2717 7.94133 37.1024C7.84749 37.0568 7.74915 37.0211 7.6479 36.9959C7.42761 36.9537 7.20129 36.9537 6.98101 36.9959C6.50751 37.0691 6.31411 37.2753 6.47416 37.4815C6.81446 37.7631 7.22891 37.9409 7.6679 37.9937C7.97708 38.0569 8.29295 38.0815 8.60822 38.0669C8.89498 38.0669 9.0817 37.9338 8.975 37.8274C8.8683 37.721 8.7616 37.8274 8.78827 37.8673L9.07504 37.874Z" fill="#0072A4"/>
<path d="M7.45618 38.5269C7.23223 38.3942 6.97034 38.3133 6.69697 38.2922C6.48376 38.3531 6.35376 38.4444 6.45256 38.5443C6.68376 38.6854 6.9682 38.7518 7.25338 38.7312C7.57059 38.7312 7.63299 38.5704 7.32098 38.5096L7.45618 38.5269Z" fill="#0072A4"/>
<path d="M12.8382 35.9886C12.622 35.9373 12.4016 35.8935 12.1779 35.8574H12.0898H12.0144C11.8823 35.9051 12.0772 35.9965 11.8508 36.0164C11.8133 36.0135 11.7752 36.0135 11.7377 36.0164C11.7062 36.0164 11.8005 36.0522 11.876 36.0601C12.2911 36.1078 12.7627 36.0601 12.7438 35.9608L12.8256 35.9846L12.8382 35.9886Z" fill="#0072A4"/>
<path d="M4.20538 36.7073C4.08915 36.6052 3.95304 36.5412 3.81032 36.5217C3.81032 36.5217 3.75726 36.5788 3.76315 36.6145C3.76905 36.6502 3.81622 36.6859 3.89287 36.7073C3.9863 36.7298 4.08247 36.7298 4.1759 36.7073V36.743L4.20538 36.7073Z" fill="#0072A4"/>
<path d="M5.99642 33.0403C5.9662 33.0109 5.93364 32.9927 5.90028 32.9868C5.86692 32.9777 5.83313 32.9777 5.79977 32.9868L5.5332 33.0314L6.00079 33.2277H6.03575C6.07071 33.2277 6.03575 33.2901 6.03575 33.3169C6.03575 33.3437 6.13626 33.3972 6.20618 33.4061C6.71746 33.5042 6.16685 33.1385 5.99642 33.0403Z" fill="#0072A4"/>
<path d="M11.0425 33.5043C11.1177 33.576 11.0074 33.6621 10.852 33.6406C10.6966 33.6191 10.5713 33.5115 10.6465 33.4541C10.7742 33.4021 10.9105 33.4148 11.0325 33.49L11.0425 33.5043Z" fill="#0072A4"/>
<path d="M5.53318 37.5901L5.75451 37.626C5.54082 37.6333 5.32639 37.6229 5.11814 37.5952C4.99825 37.5952 4.86914 37.5593 4.86914 37.5336C4.86914 37.508 4.93369 37.508 4.96136 37.4977C4.98903 37.4874 4.96137 37.4207 5.09971 37.4156C5.18454 37.404 5.27311 37.404 5.35794 37.4156C5.3922 37.4298 5.41792 37.4495 5.43173 37.472L5.50551 37.5952L5.53318 37.5901Z" fill="#0072A4"/>
<path d="M4.81671 38.1007C4.77469 38.0342 4.65284 38.1007 4.64863 38.1007C4.64443 38.1007 4.70326 38.2241 4.76208 38.2811C4.82091 38.3381 4.89234 38.1671 4.86293 38.0722L4.81671 38.1007Z" fill="#0072A4"/>
<path d="M13.8999 41.4887C13.8606 41.4522 13.8193 41.4251 13.7769 41.4082C13.7291 41.3855 13.6794 41.3855 13.6316 41.4082C13.5757 41.4082 13.6316 41.5232 13.6036 41.5807C13.5756 41.6383 13.4918 41.6613 13.503 41.7303C13.5142 41.7993 13.6204 41.8339 13.7042 41.8339C13.7649 41.8253 13.8241 41.79 13.8776 41.7303C13.9111 41.7303 13.9446 41.6498 13.9446 41.5922C13.9446 41.5347 13.8831 41.4772 13.8105 41.4542L13.8999 41.4887Z" fill="#0072A4"/>
<path d="M3.66063 37.3602C3.8497 37.3602 3.76147 37.0385 3.52199 36.9643C3.4475 36.9815 3.3773 37.0418 3.32031 37.1375C3.32031 37.1375 3.32031 37.3355 3.47156 37.385C3.62281 37.4345 3.74886 37.385 3.73626 37.385L3.66063 37.3602Z" fill="#0072A4"/>
<path d="M5.53317 36.6671C5.53317 36.6165 5.39844 36.5596 5.20597 36.5217L4.94613 36.6165C4.94613 36.6165 4.86914 36.6165 4.86914 36.6671C4.86914 36.7177 5.07124 36.743 5.23484 36.743C5.39844 36.743 5.5043 36.7114 5.51392 36.6734L5.53317 36.6671Z" fill="#0072A4"/>
<path d="M27.9327 37.0354L28.5537 37.3482C28.5537 37.4335 28.3885 37.4193 28.2762 37.3482C28.1685 37.3175 28.0623 37.2652 27.9591 37.1918C27.8732 37.1918 27.86 36.9927 27.9591 36.9643L27.9327 37.0354Z" fill="#0072A4"/>
<path d="M23.4262 36.6517C23.4622 36.5941 23.313 36.5149 23.1896 36.5221C23.0661 36.5293 22.9993 36.5869 23.025 36.6517C23.034 36.6715 23.0461 36.6882 23.0603 36.7007C23.0746 36.7131 23.0906 36.721 23.1073 36.7237C23.1851 36.7494 23.2661 36.7494 23.3439 36.7237C23.3881 36.7062 23.4287 36.6741 23.4622 36.6301L23.4262 36.6517Z" fill="#0072A4"/>
<path d="M7.70003 35.5604C7.72099 35.5161 7.70003 35.4528 7.62319 35.4148C7.58642 35.4164 7.5514 35.4436 7.52539 35.4908C7.52539 35.5351 7.52539 35.5921 7.61271 35.6237C7.70003 35.6554 7.77687 35.6237 7.73496 35.5604H7.70003Z" fill="#0072A4"/>
<path d="M3.31233 37.8496C3.33122 37.9296 3.31233 37.9936 3.28588 38.0415C3.23974 38.0808 3.19221 38.0808 3.14606 38.0415C3.11583 38.0415 3.0856 37.9456 3.1045 37.9136H3.13851H3.30855L3.31233 37.8496Z" fill="#0072A4"/>
<path d="M4.06122 36.8056C4.12043 36.8269 4.18502 36.8269 4.24422 36.8056C4.28997 36.8056 4.30713 36.7651 4.34717 36.7535C4.40742 36.7397 4.46991 36.7397 4.53016 36.7535C4.56813 36.7484 4.60658 36.7484 4.64454 36.7535C4.64708 36.7589 4.6484 36.7648 4.6484 36.7709C4.6484 36.7769 4.64708 36.7828 4.64454 36.7882C4.64671 36.8162 4.64014 36.8441 4.62577 36.8681C4.6114 36.892 4.58995 36.9107 4.56448 36.9216C4.45284 36.9624 4.33295 36.9743 4.21563 36.9564C4.13734 36.9495 4.06231 36.9215 3.99832 36.8752C3.964 36.8404 3.99831 36.8056 4.04406 36.7824L4.06122 36.8056Z" fill="#0072A4"/>
<path d="M0.746212 33.1182C0.803786 33.1546 0.865307 33.1546 0.92288 33.1182C0.974171 33.1182 0.985571 33.0357 1.03116 33.0003C1.09124 32.9732 1.15345 32.9732 1.21354 33.0003C1.25081 32.9787 1.29024 32.9787 1.32751 33.0003C1.32751 33.0003 1.32751 33.0003 1.32751 33.0593C1.33024 33.1178 1.32326 33.1765 1.30773 33.2258C1.2922 33.2751 1.26902 33.312 1.24202 33.3304C1.13165 33.421 1.01118 33.4455 0.894384 33.4011C0.816049 33.3901 0.740894 33.3328 0.677827 33.2361C0.643633 33.1653 0.677825 33.0946 0.729116 33.0593L0.746212 33.1182Z" fill="#0072A4"/>
<path d="M10.4542 34.621C10.6104 34.621 10.5536 34.4997 10.4542 34.4304C10.3868 34.3715 10.3089 34.3329 10.2269 34.3177C10.1743 34.3049 10.1202 34.3052 10.0677 34.3186C10.0152 34.332 9.9655 34.3583 9.92154 34.3957L9.7582 34.5257C9.7582 34.5257 9.71558 34.5257 9.7582 34.5864C9.79531 34.613 9.83631 34.6307 9.87893 34.6384C10.1255 34.6935 10.3745 34.7311 10.6246 34.751L10.4542 34.621Z" fill="#0072A4"/>
<path d="M11.3839 36.5213C12.7793 36.5213 12.142 35.7531 10.8942 35.6445C9.64633 35.536 10.183 36.5463 11.3839 36.5213Z" fill="#0072A4"/>
<path d="M6.48116 37.9764C6.48116 38.0592 6.20196 38.0968 5.97559 38.0516C5.98752 38.0114 6.00981 37.9749 6.04026 37.9459C6.07071 37.9169 6.10825 37.8963 6.14915 37.8862C6.30897 37.8374 6.47979 37.8374 6.63962 37.8862V37.999L6.48116 37.9764Z" fill="#0072A4"/>
<path d="M1.50479 38.1635C1.5329 38.1635 1.55297 38.1635 1.54896 38.2338C1.53681 38.2669 1.5213 38.2875 1.50479 38.2924H1.44456C1.40354 38.2928 1.36328 38.2603 1.32812 38.1987C1.32813 38.1987 1.32813 38.105 1.3482 38.0815C1.36664 38.0676 1.38598 38.0676 1.40441 38.0815C1.42449 38.0815 1.45259 38.0815 1.45259 38.0815L1.50479 38.1635Z" fill="#0072A4"/>
<path d="M10.6116 44.7524C10.4034 44.6509 10.1911 44.5633 9.97548 44.4901H9.88007H9.80374C9.67017 44.5776 9.86735 44.7683 9.63835 44.8081C9.60033 44.8023 9.56189 44.8023 9.52386 44.8081C9.49206 44.8081 9.58747 44.8796 9.6638 44.8955C10.09 44.9909 10.5607 44.8955 10.5416 44.6968L10.6243 44.7445L10.6116 44.7524Z" fill="#0072A4"/>
<path d="M0.691268 47.6107L1.10675 47.7796C1.10675 47.8237 0.99625 47.8163 0.92111 47.7796C0.849116 47.7629 0.778131 47.7359 0.708952 47.6988C0.655912 47.6621 0.642652 47.6033 0.708952 47.5886L0.691268 47.6107Z" fill="#0072A4"/>
<path d="M1.86612 55.7779C3.26351 55.7779 2.62164 54.7766 1.37803 54.6775C0.134425 54.5785 0.655945 55.811 1.86612 55.7779Z" fill="#0072A4"/>
<path d="M16.3444 62.881L13.5251 31.9686L12.8378 20.4556L14.047 15.494H15.3898L20.4046 23.1631L21.9129 39.5569V64.6321L18.1454 64.1912L16.3444 62.881Z" fill="url(#paint0_linear_2_3850)"/>
<path d="M17.7989 64.0903L15.9365 35.1023L20.8824 15.971L22.9607 15.5064L24.8231 6.10186L27.6723 3.32013L33.0437 20.3821L33.7036 33.6216L38.6002 36.552L42.4977 65.0259L38.7667 66.6243L17.7989 64.0903Z" fill="url(#paint1_linear_2_3850)"/>
<path d="M20.8066 15.963L23.2896 20.1839L26.7984 24.7925L27.8896 28.3319L27.857 23.817L26.5567 22.1474L23.0086 15.494L20.8066 15.963Z" fill="#5BEBF3"/>
<path d="M25.0117 6.09883L27.715 12.1513L28.7226 17.492L30.9159 19.1753L33.2014 20.3636L27.8502 3.32013L25.0117 6.09883Z" fill="#5BEBF3"/>
<path d="M14.1499 15.494L13.2812 19.1693L14.9262 21.2695L18.6102 22.1343L19.4789 21.8316L15.4498 15.494H14.1499Z" fill="#5BEBF3"/>
<g style="mix-blend-mode:multiply" opacity="0.3">
<path d="M15.9365 34.9721L19.9828 39.9088L22.4709 46.176L24.9904 57.5479L28.0691 60.0659L27.0513 42.3398L30.0357 39.9088L31.4305 47.1335L29.9854 65.9601L17.834 64.0638L15.9365 34.9721Z" fill="#833BC7"/>
</g>
<path d="M39.1004 66.3466L37.1855 43.8933L42.79 29.66L44.1988 30.3645L47.4492 43.7759L50.6875 67.731L43.9365 67.4405L39.1004 66.3466Z" fill="url(#paint2_linear_2_3850)"/>
<path d="M30.0418 66.9591L28.7744 52.8273L29.3593 50.6256L33.338 43.433L33.8194 42.2764L36.9572 42.6166L40.8384 55.2826L42.2763 67.5095L38.8704 66.4149L34.7089 67.5095L30.0418 66.9591Z" fill="url(#paint3_linear_2_3850)"/>
<path d="M33.2996 43.4645L29.2178 50.8535L34.3934 55.0149L35.5436 54.5067L41.613 55.9997L37.0125 42.6259L33.7934 42.2764L33.2996 43.4645Z" fill="#5BEBF3"/>
<path d="M42.8115 29.66L40.9483 34.3221L41.7236 38.7529L41.8799 39.6341L45.7815 44.4899L47.5886 43.9337L44.2559 30.3724L42.8115 29.66Z" fill="#5BEBF3"/>
<path d="M34.0321 33.6442L32.3679 37.0571L29.6494 39.4092L27.4462 42.2765L30.2594 39.9063L35.5187 38.7121L38.7347 36.5115L34.0321 33.6442Z" fill="#5BEBF3"/>
<g style="mix-blend-mode:multiply" opacity="0.3">
<path d="M23.0195 15.5307L25.0015 6.19745L27.8891 12.2106L25.5265 20.1421L23.0195 15.5307Z" fill="#833BC7"/>
</g>
<g style="mix-blend-mode:multiply" opacity="0.3">
<path d="M41.942 39.5667L44.3026 53.4795L45.8183 51.2401L44.0355 67.5099L42.4949 66.8108L41.7308 55.6323L37.4073 43.3217L41.0164 34.3084L41.942 39.5667Z" fill="#833BC7"/>
</g>
<g style="mix-blend-mode:multiply" opacity="0.3">
<path d="M34.308 54.9162V66.2103L32.2479 60.9609L30.0201 67.0668L28.7744 53.0868L29.3493 50.9088L34.308 54.9162Z" fill="#833BC7"/>
</g>
<g style="mix-blend-mode:multiply" opacity="0.3">
<path d="M28.7752 17.4871L28.5788 24.6536L28.3507 34.9722L27.7678 28.1383L27.7361 23.6931L25.4551 20.1161L27.7361 12.1739L28.7752 17.4871Z" fill="#833BC7"/>
</g>
<path d="M23.4688 36.5204C22.1494 36.5488 20.86 36.1251 19.8158 35.3198C18.0387 33.9161 17.1193 32.3708 17.1563 30.8501C16.8231 30.6038 14.6449 29.3602 13.2812 28.6029L13.4355 28.332C17.4155 30.5607 17.4402 30.6654 17.4587 30.7454C17.4628 30.7864 17.4628 30.8276 17.4587 30.8686C17.4155 32.6663 18.8162 34.1562 20.001 35.0859C22.5556 37.0991 25.9555 35.9971 27.7573 35.1598C28.4322 34.6983 29.0334 34.1379 29.5406 33.4975C30.1203 32.7744 30.8144 32.1506 31.5954 31.6505C32.6382 31.1887 33.7613 30.8193 33.7736 30.8132L33.8662 31.1087C33.8662 31.1087 32.7493 31.4781 31.7188 31.9337C30.9804 32.4272 30.3226 33.0315 29.7689 33.7253C29.2452 34.3957 28.6208 34.9813 27.9178 35.4614C26.5262 36.1234 25.01 36.4843 23.4688 36.5204Z" fill="#24D2F3"/>
<path d="M28.8295 34.308L28.5537 34.1894C28.6124 34.0396 30.0028 30.4818 31.3522 28.9276C32.1557 27.9885 32.7653 26.8807 33.1416 25.6757L33.4233 25.763C33.0409 27.0188 32.4062 28.1711 31.5634 29.1398C30.2493 30.6504 28.8412 34.2768 28.8295 34.308Z" fill="#24D2F3"/>
<path d="M31.4642 47.3674C30.1304 46.2857 27.843 44.5868 27.3506 44.5868C26.9876 44.6387 26.6276 44.7109 26.2723 44.8031C24.6581 45.1722 21.9469 45.783 20.2703 45.2485C18.039 44.5231 17.1913 44.5231 16.8734 44.6504C16.2173 44.824 15.5512 44.9558 14.879 45.0449L14.8291 44.7331C15.4802 44.6461 16.1254 44.5186 16.7612 44.3513C17.2973 44.1414 18.4752 44.3513 20.3637 44.9431C21.9656 45.4585 24.6207 44.854 26.2038 44.4913C26.5765 44.391 26.9555 44.3166 27.3381 44.2686C28.0923 44.2686 31.0778 46.642 31.6512 47.1193L31.4642 47.3674Z" fill="#24D2F3"/>
<path d="M49.8658 62.4187C48.1399 62.2557 46.4268 61.9747 44.7381 61.5776L42.2489 60.5847H34.5821C34.1527 60.5847 30.0393 58.4977 29.2178 58.055L29.3547 57.7704C31.2216 58.7127 34.2647 60.2242 34.5821 60.2432H42.3235L44.8127 61.2361C47.1588 61.7357 49.7912 62.1847 50.065 62.0582L50.2454 62.3112C50.131 62.3818 49.9997 62.419 49.8658 62.4187Z" fill="#24D2F3"/>
<path d="M48.1334 48.4743C48.1334 48.4743 46.3631 47.8103 45.7542 47.6355C45.1452 47.4608 42.5651 44.9736 42.2764 44.6882L42.5086 44.4901C43.5758 45.5386 45.4214 47.2394 45.8483 47.3617C46.4761 47.5307 48.1836 48.1772 48.2526 48.2064L48.1334 48.4743Z" fill="#24D2F3"/>
<path d="M34.3603 17.5847C33.9492 17.4761 33.5159 17.4569 33.0951 17.5284C33.0278 17.5352 32.9627 17.5543 32.9038 17.5847C32.852 17.6238 32.8119 17.6742 32.7871 17.7312C32.7623 17.7882 32.7536 17.85 32.7619 17.9108C32.7757 18.0585 32.8378 18.199 32.9401 18.3143C33.0424 18.4296 33.1802 18.5143 33.3358 18.5575C33.4921 18.5983 33.657 18.6038 33.8162 18.5734C33.9754 18.543 34.124 18.4777 34.2492 18.3832C34.3965 18.2867 34.4963 18.1412 34.5269 17.9783C34.5374 17.8965 34.5167 17.8139 34.4684 17.7444C34.4201 17.6748 34.3471 17.6224 34.2616 17.5959C34.2512 17.6038 34.2428 17.6137 34.2371 17.6249C34.2314 17.6361 34.2284 17.6482 34.2284 17.6606C34.2284 17.6729 34.2314 17.6851 34.2371 17.6963C34.2428 17.7074 34.2512 17.7173 34.2616 17.7253L34.3603 17.5847Z" fill="#02FFFC"/>
<path d="M45.1824 26.2573C44.7808 26.113 44.3598 26.0806 43.9477 26.1622C43.8781 26.1744 43.8109 26.204 43.7502 26.2494C43.6989 26.3034 43.659 26.373 43.6342 26.452C43.6094 26.531 43.6004 26.6167 43.6082 26.7013C43.6217 26.9105 43.6836 27.1099 43.7858 27.2737C43.8881 27.4375 44.0262 27.5584 44.1823 27.6208C44.3402 27.6766 44.5062 27.6827 44.6664 27.6385C44.8265 27.5944 44.976 27.5013 45.1021 27.3671C45.2471 27.2296 45.3446 27.0248 45.3737 26.7964C45.3838 26.6821 45.363 26.5669 45.3146 26.4701C45.2662 26.3734 45.1934 26.301 45.1083 26.2653C45.0968 26.2745 45.0873 26.2874 45.0808 26.3027C45.0742 26.3179 45.0708 26.335 45.0708 26.3524C45.0708 26.3699 45.0742 26.387 45.0808 26.4023C45.0873 26.4175 45.0968 26.4304 45.1083 26.4397L45.1824 26.2573Z" fill="#02FFFC"/>
<path d="M35.5971 19.4932C35.4458 19.4698 35.2883 19.4739 35.1399 19.505C34.9915 19.5362 34.8572 19.5934 34.75 19.671C34.7897 19.7744 34.8648 19.8696 34.9691 19.9484C35.0733 20.0272 35.2034 20.0874 35.3484 20.1238C35.4209 20.1396 35.4971 20.1454 35.5728 20.1406C35.6484 20.1359 35.722 20.1208 35.7892 20.0962C35.8564 20.0717 35.9159 20.0381 35.9643 19.9975C36.0127 19.9569 36.049 19.9101 36.0712 19.8597C36.1334 19.6495 35.7603 19.4339 35.5039 19.5471L35.5971 19.4932Z" fill="#02FFFC"/>
<path d="M33.142 20.1424C33.0848 20.155 33.0304 20.176 32.981 20.2045C32.979 20.2109 32.979 20.2176 32.981 20.2239C33.0115 20.2705 33.1028 20.2783 33.1072 20.3327C33.105 20.3429 33.105 20.3535 33.1072 20.3637C33.1072 20.3637 33.142 20.3637 33.155 20.3637C33.1712 20.3489 33.1837 20.3311 33.1915 20.3116C33.1993 20.292 33.2023 20.2712 33.2002 20.2505C33.1981 20.2299 33.1911 20.2099 33.1795 20.1919C33.168 20.1739 33.1522 20.1583 33.1333 20.1463H33.155L33.142 20.1424Z" fill="#02FFFC"/>
<path d="M32.6692 13.7233C32.557 13.782 32.4497 13.8761 32.3511 14.0022C32.3372 14.0169 32.3259 14.0405 32.3189 14.0695C32.3143 14.0975 32.3143 14.1279 32.3189 14.156C32.3788 14.3771 32.5678 14.4156 32.5678 14.6655C32.563 14.7099 32.563 14.7558 32.5678 14.8001C32.5908 14.8674 32.6369 14.8001 32.6646 14.8001C32.6978 14.7311 32.7233 14.6476 32.7392 14.5555C32.7551 14.4635 32.7611 14.3653 32.7567 14.2679C32.7523 14.1705 32.7376 14.0764 32.7137 13.9922C32.6898 13.908 32.6573 13.8359 32.6185 13.781H32.6692V13.7233Z" fill="#02FFFC"/>
<path d="M18.0286 10.1817C17.8581 10.2476 17.6949 10.3441 17.5432 10.4688C17.5432 10.4688 17.501 10.4688 17.4939 10.5262C17.4889 10.5412 17.4863 10.5575 17.4863 10.574C17.4863 10.5905 17.4889 10.6068 17.4939 10.6219C17.5784 10.8419 17.8668 10.8802 17.8668 11.129C17.8561 11.1724 17.8561 11.2195 17.8668 11.2629C17.8668 11.3203 17.9653 11.2629 18.0075 11.2629C18.0582 11.1942 18.0971 11.1111 18.1214 11.0195C18.1457 10.9279 18.1549 10.8302 18.1482 10.7333C18.1414 10.6363 18.119 10.5426 18.0826 10.4589C18.0461 10.3751 17.9964 10.3033 17.9372 10.2487H18.0145L18.0286 10.1817Z" fill="#02FFFC"/>
<path d="M31.5525 20.2937C31.5183 20.3044 31.4872 20.3273 31.4627 20.3599C31.4529 20.3974 31.4529 20.4381 31.4627 20.4757C31.4615 20.5871 31.4508 20.698 31.4307 20.8064L31.7769 20.4674H31.8089C31.8474 20.4674 31.8795 20.5087 31.918 20.5253C31.9564 20.5418 32.0269 20.4839 32.0526 20.4178C32.2449 19.9216 31.7256 20.2358 31.5525 20.2937Z" fill="#02FFFC"/>
<path d="M27.1232 15.1522C27.0808 15.1581 27.0418 15.1715 27.0106 15.1907C27.0017 15.218 27.0017 15.2462 27.0106 15.2734C27.0232 15.3467 27.0232 15.4207 27.0106 15.494L27.4786 15.2679C27.4786 15.2679 27.4786 15.2679 27.5219 15.2679C27.5652 15.2679 27.6172 15.2955 27.6692 15.3065C27.7212 15.3175 27.8166 15.2789 27.8512 15.2348C28.0592 14.9041 27.3572 15.1136 27.1232 15.1522Z" fill="#02FFFC"/>
<path d="M29.072 18.9228L28.9961 19.0741C29.0145 19.148 29.0403 19.2036 29.07 19.2331C29.0997 19.2627 29.1319 19.2648 29.162 19.239C29.1763 19.2218 29.1887 19.1944 29.1982 19.1592C29.2077 19.1241 29.214 19.0825 29.2164 19.0383C29.2187 18.9942 29.2172 18.949 29.2118 18.9071C29.2065 18.8653 29.1975 18.8281 29.1858 18.7991C29.1526 18.7991 29.0909 18.6891 29.1146 18.5929L29.072 18.9228Z" fill="#02FFFC"/>
<path d="M30.3314 17.0435C30.3704 17.0464 30.4082 17.0643 30.4411 17.0956C30.474 17.1268 30.5008 17.1702 30.5188 17.2216C30.5369 17.2729 30.5456 17.3303 30.5441 17.3881C30.5426 17.446 30.5309 17.5022 30.5102 17.5513C30.4895 17.6004 30.4605 17.6407 30.4261 17.668C30.3917 17.6954 30.3531 17.7089 30.3141 17.7074C30.275 17.7058 30.237 17.6891 30.2036 17.659C30.1703 17.6289 30.1428 17.5863 30.124 17.5356C30.1073 17.4834 30.0997 17.4258 30.102 17.368C30.1042 17.3103 30.1162 17.2544 30.1369 17.2054C30.1575 17.1564 30.1862 17.1158 30.2202 17.0875C30.2542 17.0592 30.2924 17.0441 30.3314 17.0435V17.0435Z" fill="#02FFFC"/>
<path d="M31.7343 15.8661C31.8122 15.7689 31.929 15.6716 32.0302 15.7364C32.1315 15.8013 32.1003 15.9391 32.0302 16.0526C31.9601 16.166 31.9913 16.1498 31.9446 16.1579C31.8978 16.166 31.8122 15.9391 31.6953 15.9391C31.5785 15.9391 31.7343 15.8661 31.7576 15.8985L31.7343 15.8661Z" fill="#02FFFC"/>
<path d="M55.9294 31.4305C55.8594 31.4367 55.7918 31.4555 55.7317 31.4855C55.6715 31.5156 55.6203 31.5562 55.5817 31.6044C55.5662 31.63 55.558 31.6582 55.5576 31.6867C55.5573 31.7153 55.5648 31.7435 55.5797 31.7694C55.5945 31.7952 55.6163 31.8179 55.6434 31.8359C55.6705 31.8539 55.7023 31.8667 55.7362 31.8732C55.777 31.8727 55.8169 31.8636 55.8522 31.8469L55.9037 31.7994C55.9669 31.7415 56.0014 31.6663 56.0003 31.5886C55.997 31.55 55.9759 31.5137 55.9412 31.4873C55.9065 31.4609 55.8609 31.4463 55.8135 31.4464L55.9294 31.4305Z" fill="#02FFFC"/>
<path d="M45.8282 31.5219C45.8328 31.554 45.8494 31.5844 45.876 31.6097C45.9134 31.6302 45.955 31.6459 45.9992 31.6561C46.0949 31.6871 46.1291 31.7748 46.2044 31.8264C46.2849 31.8572 46.374 31.8733 46.4643 31.8733C46.5546 31.8733 46.6436 31.8572 46.7242 31.8264C46.7449 31.8232 46.7643 31.8163 46.7809 31.8065C46.7975 31.7966 46.8109 31.784 46.82 31.7696C46.8294 31.7478 46.8294 31.7243 46.82 31.7025C46.7516 31.5477 46.9431 31.4549 46.9226 31.3155C46.9036 31.2495 46.8648 31.1877 46.809 31.1349C46.7533 31.0821 46.6821 31.0397 46.6011 31.0111C46.5025 30.9862 46.397 30.9813 46.2951 30.9967C46.1932 31.0122 46.0985 31.0475 46.0203 31.0992C45.9421 31.1509 45.8833 31.2171 45.8496 31.2912C45.8158 31.3654 45.8085 31.4449 45.8282 31.5219Z" fill="#02FFFC"/>
<path d="M28.783 4.07447C28.7867 4.10647 28.8 4.13682 28.8213 4.16199C28.8512 4.18247 28.8845 4.19814 28.9198 4.20835C28.9965 4.24439 29.0238 4.32677 29.084 4.37826C29.148 4.41026 29.2194 4.427 29.292 4.427C29.3645 4.427 29.4359 4.41026 29.4999 4.37826C29.5164 4.37502 29.532 4.36822 29.5453 4.35839C29.5586 4.34857 29.5693 4.33599 29.5765 4.32163C29.584 4.29987 29.584 4.27644 29.5765 4.25469C29.5163 4.10022 29.675 4.00754 29.6586 3.86852C29.6435 3.80267 29.6124 3.74099 29.5678 3.6883C29.5232 3.63561 29.4662 3.59333 29.4014 3.56473C29.3225 3.53993 29.2381 3.53499 29.1566 3.55042C29.0751 3.56584 28.9993 3.60109 28.9368 3.65265C28.8742 3.7042 28.8271 3.77028 28.8002 3.84429C28.7732 3.91829 28.7673 3.99765 28.783 4.07447V4.07447Z" fill="#02FFFC"/>
<path d="M33.1142 19.5528C33.1378 19.5346 33.1683 19.5223 33.2015 19.5178C33.1964 19.5494 33.1809 19.5795 33.1565 19.6055C33.1322 19.6316 33.0996 19.6526 33.0618 19.6669C33.0269 19.6888 32.9745 19.7107 32.9338 19.6932C32.9117 19.6752 32.8939 19.6544 32.8814 19.6318C32.8406 19.5923 32.7533 19.5748 32.7591 19.5221C32.7643 19.509 32.7751 19.4976 32.7899 19.4897C32.8046 19.4817 32.8225 19.4777 32.8406 19.4783C32.8777 19.4811 32.9135 19.4901 32.9454 19.5046L33.1608 19.5835L33.1142 19.5528Z" fill="#02FFFC"/>
<path d="M34.136 20.4759C34.0786 20.4759 34.0629 20.6895 34.136 20.7682C34.1632 20.7933 34.1925 20.8062 34.2221 20.8062C34.2517 20.8062 34.281 20.7933 34.3083 20.7682C34.3052 20.6772 34.2897 20.5901 34.2637 20.518C34.2377 20.446 34.2023 20.3922 34.1621 20.3635L34.136 20.4759Z" fill="#02FFFC"/>
<path d="M33.066 20.8102C33.0436 20.8112 33.0221 20.8184 33.0044 20.831C32.9949 20.8355 32.9874 20.8428 32.9832 20.8516C32.979 20.8605 32.9783 20.8705 32.9813 20.8797C32.9813 20.911 33.0391 20.918 33.0622 20.9423C33.0853 20.9667 33.0891 21.0084 33.1199 21.0223C33.1507 21.0362 33.1931 21.0223 33.2008 20.9771C33.2015 20.9453 33.1922 20.9139 33.1738 20.8867C33.1613 20.8605 33.1414 20.8377 33.1161 20.8206C33.1036 20.8113 33.088 20.8062 33.0718 20.8062C33.0556 20.8062 33.04 20.8113 33.0275 20.8206L33.066 20.8102Z" fill="#02FFFC"/>
<path d="M32.7037 20.8062C32.7213 20.8124 32.7366 20.8265 32.7467 20.8461C32.7568 20.8656 32.7611 20.8891 32.7588 20.9124C32.7483 20.9607 32.7236 21.002 32.6899 21.0275H32.6279C32.6152 21.0264 32.6029 21.022 32.5915 21.0147C32.5801 21.0075 32.57 20.9974 32.5617 20.985C32.5533 20.9727 32.547 20.9583 32.543 20.9428C32.539 20.9273 32.5374 20.911 32.5383 20.8947C32.5439 20.8727 32.5538 20.853 32.5671 20.8375C32.5804 20.822 32.5966 20.8112 32.6141 20.8062C32.6393 20.8118 32.6623 20.8278 32.6797 20.8517C32.6971 20.8757 32.708 20.9063 32.7106 20.939L32.7037 20.8062Z" fill="#02FFFC"/>
<path d="M32.2165 18.6602C32.1637 18.616 32.105 18.5929 32.0453 18.5929C31.9856 18.5929 31.9268 18.616 31.874 18.6602L32.011 19.0692C32.0322 19.1326 32.0613 19.1883 32.0967 19.2328C32.1167 19.2481 32.1386 19.2563 32.1608 19.2569C32.183 19.2575 32.205 19.2504 32.2253 19.2361C32.2457 19.2219 32.2638 19.2008 32.2786 19.1744C32.2933 19.1479 32.3043 19.1167 32.3107 19.0828C32.3208 19.0149 32.3181 18.9437 32.3028 18.8782C32.2876 18.8127 32.2606 18.7558 32.2251 18.7147L32.2165 18.6602Z" fill="#02FFFC"/>
<path d="M32.7741 16.7138L33.1722 16.3793C33.241 16.4383 33.1722 16.576 33.1339 16.6449C33.0838 16.7295 33.0141 16.7915 32.9349 16.822C32.8583 16.822 32.7588 16.822 32.7588 16.6744L32.7741 16.7138Z" fill="#02FFFC"/>
<path d="M34.4653 15.7651C34.4536 15.7438 34.4393 15.7287 34.4236 15.7213C34.4079 15.7139 34.3914 15.7144 34.3759 15.7228C34.3603 15.7311 34.3462 15.7471 34.335 15.7691C34.3237 15.791 34.3158 15.8182 34.3118 15.8479C34.3046 15.9092 34.3095 15.9734 34.3257 16.0283C34.3419 16.0832 34.3681 16.125 34.3995 16.1458C34.4266 16.1623 34.4557 16.1623 34.4828 16.1458C34.501 16.123 34.5151 16.09 34.5229 16.0514C34.5308 16.0129 34.5321 15.9706 34.5266 15.9306C34.515 15.8511 34.4941 15.7775 34.4653 15.7155V15.7651Z" fill="#02FFFC"/>
<path d="M31.3687 16.2211C31.3484 16.1925 31.3226 16.1724 31.2943 16.1634C31.2659 16.1544 31.2363 16.1568 31.209 16.1704C31.2125 16.2273 31.2298 16.281 31.2581 16.3227C31.2757 16.3517 31.3002 16.3711 31.3273 16.3773C31.3543 16.3835 31.3821 16.3761 31.4056 16.3566C31.4506 16.3114 31.4301 16.1929 31.3769 16.1929L31.3687 16.2211Z" fill="#02FFFC"/>
<path d="M32.1921 16.3972C32.2213 16.3991 32.2492 16.4099 32.2715 16.4283C32.2939 16.4466 32.3095 16.4714 32.3161 16.4989L32.1487 16.6006C32.1318 16.5871 32.1182 16.5702 32.1089 16.5511C32.0996 16.532 32.0947 16.5111 32.0947 16.4899C32.0947 16.4688 32.0996 16.4479 32.1089 16.4288C32.1182 16.4096 32.1318 16.3927 32.1487 16.3793L32.1921 16.3972Z" fill="#02FFFC"/>
<path d="M47.5275 29.0438L47.7242 29.1801C47.7412 29.195 47.7619 29.2059 47.7846 29.2119C47.8075 29.2189 47.8323 29.2189 47.8552 29.2119C47.9409 29.1847 48.0367 29.1392 48.0317 29.0574C48.0266 28.9757 47.9157 28.9348 47.83 28.8984C47.7443 28.8621 47.4166 28.444 47.2049 28.5803C46.9932 28.7166 47.4166 28.962 47.5275 29.0438Z" fill="#02FFFC"/>
<path d="M33.748 21.9215C33.748 21.99 33.748 22.066 33.8907 22.1116C34.0334 22.1572 34.0982 22.2256 34.0853 22.3017C34.0723 22.3777 34.0853 22.3473 34.0853 22.3549C34.0853 22.3625 33.9426 22.3169 33.8647 22.2788C33.7869 22.2408 33.735 22.2788 33.6702 22.2256C33.5921 22.2043 33.5268 22.1697 33.4828 22.1263C33.4389 22.0829 33.4183 22.0328 33.4237 21.9824C33.4499 21.9587 33.4868 21.9397 33.5304 21.9277C33.5739 21.9156 33.6223 21.9108 33.6702 21.914C33.7149 21.9194 33.7559 21.9323 33.7882 21.9512C33.8204 21.9701 33.8426 21.9942 33.8518 22.0204L33.748 21.9215Z" fill="#02FFFC"/>
<path d="M32.3254 19.835C32.3555 19.835 32.3705 19.7864 32.363 19.7485C32.3555 19.7107 32.333 19.6782 32.3254 19.6404C32.3189 19.622 32.3154 19.6016 32.3154 19.5809C32.3154 19.5602 32.3189 19.5399 32.3254 19.5215C32.3286 19.5102 32.3337 19.5003 32.3403 19.4927C32.3468 19.4851 32.3546 19.4801 32.363 19.4782H32.3967C32.4443 19.5198 32.4842 19.5772 32.513 19.6458C32.5285 19.6795 32.5368 19.719 32.5368 19.7593C32.5368 19.7997 32.5285 19.8392 32.513 19.8729C32.4997 19.8928 32.483 19.9073 32.4645 19.9149C32.4461 19.9225 32.4266 19.9229 32.408 19.9161C32.3889 19.91 32.3712 19.8968 32.3568 19.8778C32.3423 19.8589 32.3315 19.8348 32.3254 19.808V19.835Z" fill="#02FFFC"/>
<path d="M25.9265 17.8426C26.0164 17.8426 26.0614 17.794 26.0389 17.7561C26.0164 17.7183 25.949 17.6859 25.9265 17.6481C25.9068 17.6297 25.8965 17.6093 25.8965 17.5887C25.8965 17.568 25.9068 17.5476 25.9265 17.5293C25.9359 17.518 25.9511 17.5081 25.9708 17.5005C25.9905 17.493 26.014 17.488 26.0389 17.486H26.14C26.285 17.526 26.4052 17.5838 26.4885 17.6535C26.5354 17.686 26.5605 17.7247 26.5605 17.7643C26.5605 17.8038 26.5354 17.8425 26.4885 17.875C26.4514 17.8969 26.402 17.9131 26.3461 17.9217C26.2902 17.9303 26.2304 17.931 26.1738 17.9236C26.1166 17.9175 26.0637 17.9043 26.0203 17.8854C25.977 17.8664 25.9446 17.8424 25.9265 17.8156V17.8426Z" fill="#02FFFC"/>
<path d="M31.4303 19.5035C31.4124 19.4987 31.3931 19.4961 31.3735 19.4961C31.3539 19.496 31.3345 19.4985 31.3165 19.5032C31.2985 19.508 31.2824 19.515 31.2691 19.5238C31.2558 19.5325 31.2456 19.5429 31.2393 19.5542C31.2195 19.5741 31.209 19.5969 31.209 19.6201C31.209 19.6434 31.2195 19.6662 31.2393 19.686C31.2393 19.686 31.2974 19.7164 31.3223 19.686C31.3274 19.6806 31.3301 19.6745 31.3301 19.6683C31.3301 19.6621 31.3274 19.6559 31.3223 19.6506L31.3805 19.4782L31.4303 19.5035Z" fill="#02FFFC"/>
<path d="M28.7757 18.0096C28.7425 17.8891 28.6568 17.7848 28.5369 17.7189C28.5369 17.7189 28.4903 17.6934 28.467 17.7189C28.4437 17.7444 28.4262 17.7954 28.4204 17.8413C28.4146 17.8872 28.3388 17.9892 28.333 18.0708C28.3373 18.1359 28.3683 18.1975 28.4204 18.2441C28.4845 18.3206 28.5951 18.4073 28.6825 18.3563C28.7043 18.3406 28.7222 18.3212 28.7352 18.2993C28.7482 18.2774 28.756 18.2535 28.7582 18.2288C28.7787 18.1276 28.7787 18.0241 28.7582 17.9229L28.7757 18.0096Z" fill="#02FFFC"/>
<path d="M30.3398 13.9863C30.3398 13.825 30.2106 13.7443 30.1043 13.7328C30.07 13.7204 30.0344 13.7202 30.0001 13.7322C29.9659 13.7442 29.9339 13.768 29.9067 13.8019C29.8459 13.9056 29.9067 14.067 29.9447 14.1938L30.0739 14.505C30.091 14.5512 30.1177 14.5877 30.1498 14.6087C30.1498 14.6087 30.2106 14.6087 30.241 14.5511C30.3661 14.3954 30.4694 14.2034 30.5449 13.9863H30.3398Z" fill="#02FFFC"/>
<path d="M18.1088 16.3149C18.375 15.6625 17.2887 15.5124 16.8931 16.0146C16.4974 16.5169 17.8786 16.8793 18.1088 16.3149Z" fill="#02FFFC"/>
<path d="M34.2363 19.5433C34.2569 19.5524 34.2737 19.5642 34.2852 19.5778C34.2967 19.5913 34.3027 19.6063 34.3027 19.6214C34.3027 19.6366 34.2967 19.6515 34.2852 19.6651C34.2737 19.6787 34.2569 19.6905 34.2363 19.6996C34.1701 19.6715 34.1184 19.6332 34.0869 19.5889C34.0869 19.5433 34.0869 19.4815 34.1921 19.4782L34.3083 19.527L34.2363 19.5433Z" fill="#02FFFC"/>
<path d="M45.7975 34.5761L45.671 34.6507C45.7869 34.772 45.8729 34.9114 45.9239 35.0607C45.9433 35.1371 45.9707 35.212 46.0057 35.2844C46.0266 35.3189 46.057 35.3488 46.0946 35.3715C46.1321 35.3942 46.1756 35.4091 46.2214 35.4149C46.3924 35.4149 46.4891 35.2409 46.4817 35.0918C46.4809 35 46.4559 34.9095 46.4083 34.8268C46.3607 34.7441 46.2918 34.6712 46.2065 34.6134C46.1182 34.5589 46.0113 34.5295 45.9016 34.5295C45.7918 34.5295 45.685 34.5589 45.5967 34.6134L45.7157 34.7687L45.7975 34.5761Z" fill="#02FFFC"/>
<path d="M8.67891 25.2477C8.64627 25.2185 8.62297 25.2477 8.63695 25.3013C8.65413 25.3524 8.67933 25.4002 8.71153 25.4426C8.7768 25.5498 8.84206 25.6521 8.91199 25.7544C8.98191 25.8568 8.99589 25.886 9.03785 25.8958C9.0798 25.9055 9.07981 25.8617 9.07048 25.8129C9.05304 25.7568 9.02959 25.7028 9.00056 25.6521C8.90267 25.4767 8.77214 25.2721 8.65094 25.2331V25.3305L8.67891 25.2477Z" fill="#02FFFC"/>
<path d="M34.0428 22.6301C34.0493 22.6309 34.0556 22.6331 34.0614 22.6366C34.0671 22.64 34.0721 22.6447 34.0761 22.6502C34.0802 22.6558 34.0831 22.6621 34.0849 22.6689C34.0866 22.6757 34.087 22.6828 34.0861 22.6897C34.0793 22.7165 34.064 22.74 34.0428 22.756L33.9871 22.7957C33.9665 22.801 33.9449 22.7987 33.9257 22.789C33.9066 22.7794 33.8911 22.7631 33.8818 22.7427C33.871 22.7226 33.8652 22.6998 33.8652 22.6765C33.8652 22.6532 33.871 22.6304 33.8818 22.6103C33.8869 22.6008 33.8941 22.5928 33.9027 22.5871C33.9114 22.5813 33.9212 22.5779 33.9314 22.5771C33.9314 22.5771 33.9809 22.5771 33.9809 22.6103L34.0428 22.6301Z" fill="#02FFFC"/>
<path d="M27.6245 9.30856C27.5792 9.21896 27.5278 9.14041 27.4714 9.07489C27.4645 9.08493 27.4588 9.09737 27.4547 9.11147C27.4505 9.12557 27.4479 9.14105 27.4471 9.157C27.4447 9.20083 27.4472 9.24507 27.4546 9.28702C27.462 9.32896 27.4741 9.36772 27.4901 9.40087C27.5061 9.43401 27.5256 9.46085 27.5475 9.47973C27.5694 9.49862 27.5933 9.50915 27.6175 9.51067C27.631 9.51988 27.6458 9.51988 27.6592 9.51067C27.6646 9.49681 27.6675 9.48026 27.6675 9.46329C27.6675 9.44633 27.6646 9.42979 27.6592 9.41594C27.6482 9.3842 27.634 9.35637 27.6175 9.33383L27.6245 9.30856Z" fill="#02FFFC"/>
<path d="M30.8976 18.1507C30.82 18.1475 30.7425 18.1619 30.6703 18.193C30.6338 18.2082 30.6024 18.2348 30.58 18.2695C30.5576 18.3042 30.5454 18.3452 30.5449 18.3875C30.5524 18.4276 30.5685 18.4652 30.592 18.4974C30.611 18.5251 30.6355 18.548 30.6637 18.5644C30.6918 18.5809 30.7229 18.5904 30.7549 18.5925C30.7868 18.5946 30.8188 18.5891 30.8486 18.5765C30.8784 18.5638 30.9052 18.5443 30.9273 18.5193C30.9493 18.4942 30.966 18.4643 30.9762 18.4316C30.9864 18.3989 30.9898 18.3641 30.9862 18.3298C30.9827 18.2955 30.9722 18.2624 30.9555 18.233C30.9389 18.2035 30.9164 18.1783 30.8898 18.1592L30.8976 18.1507Z" fill="#02FFFC"/>
<path d="M28.5537 16.1873C28.5723 16.1729 28.5947 16.1634 28.6186 16.1597C28.6425 16.1561 28.667 16.1585 28.6896 16.1666C28.7122 16.1747 28.7321 16.1883 28.7471 16.2059C28.7621 16.2235 28.7718 16.2446 28.7751 16.2668C28.7486 16.3132 28.7091 16.3521 28.6608 16.3794C28.6133 16.3427 28.5826 16.2906 28.5751 16.2337L28.5537 16.1873Z" fill="#02FFFC"/>
<path d="M38.8254 6.24426C38.7665 6.20169 38.6992 6.32939 38.7581 6.37195C38.7715 6.39115 38.7906 6.40554 38.8126 6.41303C38.8346 6.42051 38.8583 6.42071 38.8805 6.4136C38.9026 6.40649 38.9219 6.39242 38.9356 6.37346C38.9493 6.3545 38.9567 6.33162 38.9567 6.30812C38.9567 6.28462 38.9493 6.26172 38.9356 6.24275C38.9219 6.22379 38.9026 6.20975 38.8805 6.20264C38.8583 6.19553 38.8346 6.19573 38.8126 6.20321C38.7906 6.2107 38.7715 6.22507 38.7581 6.24426H38.8254Z" fill="#02FFFC"/>
<path d="M34.3147 13.6467C34.3625 13.5928 34.4231 13.5517 34.4909 13.5273C34.5587 13.5028 34.6316 13.4959 34.7028 13.507C34.7188 13.5037 34.7353 13.5037 34.7513 13.507C34.7513 13.507 34.7513 13.5556 34.7513 13.586C34.7149 13.7379 34.6543 13.9263 34.4966 13.9445C34.4672 13.9427 34.4386 13.9345 34.4128 13.9204C34.387 13.9062 34.3646 13.8866 34.3472 13.8628C34.3298 13.839 34.3179 13.8116 34.3123 13.7827C34.3067 13.7538 34.3075 13.7239 34.3147 13.6954L34.442 13.665L34.3147 13.6467Z" fill="#02FFFC"/>
<path d="M49.8188 35.7058C49.8413 35.6797 49.8697 35.6599 49.9014 35.6482C49.933 35.6366 49.967 35.6334 50.0001 35.6391C50.0077 35.6375 50.0155 35.6375 50.0231 35.6391C50.0231 35.6391 50.0231 35.6634 50.0231 35.6785C50.0087 35.7544 49.977 35.8484 49.9022 35.8575C49.8866 35.8585 49.8709 35.8553 49.8567 35.8484C49.8425 35.8414 49.8302 35.8309 49.8208 35.8177C49.8113 35.8044 49.8052 35.789 49.8028 35.7726C49.8005 35.7563 49.802 35.7396 49.8072 35.724L49.8677 35.7058H49.8188Z" fill="#02FFFC"/>
<path style="mix-blend-mode:color-dodge" d="M23.2415 41.1698C27.7645 41.1698 31.4312 36.413 31.4312 30.5453C31.4312 24.6776 27.7645 19.9208 23.2415 19.9208C18.7184 19.9208 15.0518 24.6776 15.0518 30.5453C15.0518 36.413 18.7184 41.1698 23.2415 41.1698Z" fill="url(#paint4_radial_2_3850)"/>
<path style="mix-blend-mode:color-dodge" d="M38.5754 62.0232C43.6621 60.8339 46.6754 55.1212 45.3058 49.2635C43.9362 43.4058 38.7023 39.6213 33.6156 40.8106C28.5289 41.9999 25.5156 47.7127 26.8852 53.5704C28.2548 59.4281 33.4887 63.2126 38.5754 62.0232Z" fill="url(#paint5_radial_2_3850)"/>
<defs>
<linearGradient id="paint0_linear_2_3850" x1="17.3754" y1="64.6321" x2="17.3754" y2="15.494" gradientUnits="userSpaceOnUse">
<stop stop-color="#1550FF"/>
<stop offset="1" stop-color="#00C8F6"/>
</linearGradient>
<linearGradient id="paint1_linear_2_3850" x1="29.214" y1="66.6243" x2="29.214" y2="3.32013" gradientUnits="userSpaceOnUse">
<stop stop-color="#1572FF"/>
<stop offset="1" stop-color="#00E5F6"/>
</linearGradient>
<linearGradient id="paint2_linear_2_3850" x1="4793.11" y1="17052.4" x2="4793.11" y2="14707.2" gradientUnits="userSpaceOnUse">
<stop stop-color="#1572FF"/>
<stop offset="1" stop-color="#00E5F6"/>
</linearGradient>
<linearGradient id="paint3_linear_2_3850" x1="4603.5" y1="11312.9" x2="4603.5" y2="10283.4" gradientUnits="userSpaceOnUse">
<stop stop-color="#1572FF"/>
<stop offset="1" stop-color="#00E5F6"/>
</linearGradient>
<radialGradient id="paint4_radial_2_3850" cx="0" cy="0" r="1" gradientUnits="userSpaceOnUse" gradientTransform="translate(23.3528 30.5453) scale(8.19745 10.6245)">
<stop stop-color="#005EFF"/>
<stop offset="0.12" stop-color="#004DD1"/>
<stop offset="0.3" stop-color="#003692"/>
<stop offset="0.48" stop-color="#00235E"/>
<stop offset="0.64" stop-color="#001435"/>
<stop offset="0.78" stop-color="#000918"/>
<stop offset="0.91" stop-color="#000206"/>
<stop offset="1"/>
</radialGradient>
<radialGradient id="paint5_radial_2_3850" cx="0" cy="0" r="1" gradientUnits="userSpaceOnUse" gradientTransform="translate(-6878.27 6607.42) rotate(76.84) scale(331.546 332)">
<stop stop-color="#005EFF"/>
<stop offset="0.12" stop-color="#004DD1"/>
<stop offset="0.3" stop-color="#003692"/>
<stop offset="0.48" stop-color="#00235E"/>
<stop offset="0.64" stop-color="#001435"/>
<stop offset="0.78" stop-color="#000918"/>
<stop offset="0.91" stop-color="#000206"/>
<stop offset="1"/>
</radialGradient>
</defs>
</svg>
