<svg width="48" height="90" viewBox="0 0 48 90" fill="none" xmlns="http://www.w3.org/2000/svg">
<path d="M37.9445 9.97595L44.0263 19.7596L48 35.2163L45.3832 56.5866L32.9531 90L18.4635 82.3077L8.33519 43.2212L0 24.7836L12.309 0L27.2105 10.0962L37.9445 9.97595Z" fill="url(#paint0_linear_2_3966)"/>
<g style="mix-blend-mode:multiply" opacity="0.5">
<path d="M36.8571 9.8694L27.5605 22.6402L23.1828 43.5205L25.7953 73.7471L20.7822 67.5639L17.9344 81.4286L7.22552 39.5252L0 24.5189L11.9562 0L26.4308 9.98835L36.8571 9.8694Z" fill="#610051"/>
</g>
<path d="M31.7143 89.9995L25.6598 74.6622L24.3526 50.5709L18 82.3666L31.7143 89.9995Z" fill="#903982"/>
<path d="M0 24.0009L9.06244 40.3439L18.8571 74.2299L17.4383 81.4295L6.6824 42.1198L0 24.0009Z" fill="#903982"/>
<path d="M37.9445 9.97595L44.0263 19.7596L48 35.2163L45.3832 56.5866L32.9531 90L18.4635 82.3077L8.33519 43.2212L0 24.7836L12.309 0L27.2105 10.0962L37.9445 9.97595Z" fill="url(#paint1_linear_2_3966)"/>
<g style="mix-blend-mode:multiply" opacity="0.5">
<path d="M36.8571 9.8694L27.5605 22.6402L23.1828 43.5205L25.7953 73.7471L20.7822 67.5639L17.9344 81.4286L7.22552 39.5252L0 24.5189L11.9562 0L26.4308 9.98835L36.8571 9.8694Z" fill="#610051"/>
</g>
<path d="M31.7143 89.9995L25.6598 74.6622L24.3526 50.5709L18 82.3666L31.7143 89.9995Z" fill="#903982"/>
<path d="M0 24.0009L9.06244 40.3439L18.8571 74.2299L17.4383 81.4295L6.6824 42.1198L0 24.0009Z" fill="#903982"/>
<defs>
<linearGradient id="paint0_linear_2_3966" x1="-28887.9" y1="-6664.85" x2="-26929.8" y2="-4262.08" gradientUnits="userSpaceOnUse">
<stop stop-color="#002974"/>
<stop offset="1" stop-color="#00093E"/>
</linearGradient>
<linearGradient id="paint1_linear_2_3966" x1="-28887.9" y1="-6664.85" x2="-26929.8" y2="-4262.08" gradientUnits="userSpaceOnUse">
<stop stop-color="#002974"/>
<stop offset="1" stop-color="#00093E"/>
</linearGradient>
</defs>
</svg>
