<svg width="32" height="32" viewBox="0 0 32 32" fill="none" xmlns="http://www.w3.org/2000/svg">
<path d="M8.33807 21.6417C14.2974 23.9674 19.3689 24.4204 25.1159 20.8004C25.0738 20.8636 23.9369 22.5478 20.9474 23.4109C21.579 24.2741 22.4422 25.2635 22.4422 25.2635C24.358 25.2635 26.2317 24.7162 27.8527 23.6635C29.1159 22.8214 29.8316 21.3688 29.6843 19.853C29.4316 17.2635 28.8211 14.7372 27.8738 12.3162C26.6738 9.15834 23.7896 6.96884 20.4422 6.65303C20.1474 6.63197 19.9369 6.63197 19.8106 6.63197L19.4738 6.96878C23.3264 8.06353 25.2423 9.76878 25.2843 9.83197C19.3685 6.84247 12.3791 6.80041 6.42114 9.70566C6.42114 9.70566 8.31589 7.83197 12.5053 6.84247L12.2527 6.58984C11.8106 6.58984 11.3895 6.63197 10.9474 6.69509C7.8527 7.22141 5.26326 9.34772 4.14745 12.274C3.17901 14.8003 2.54745 17.453 2.31589 20.1477C2.18957 21.5793 2.86326 22.9898 4.0422 23.8109C5.60007 24.8425 7.4527 25.3898 9.32638 25.3898C9.32638 25.3898 10.0843 24.4003 10.8422 23.5162C8.00007 22.674 6.8422 20.9898 6.82114 20.9267L7.35601 21.1998C7.67576 21.3632 8.00357 21.5112 8.33807 21.6417ZM11.6422 19.8109C10.2738 19.7688 9.20007 18.6109 9.2422 17.2214C9.28432 15.9162 10.3369 14.8635 11.6422 14.8214C13.0106 14.8635 14.0843 16.0214 14.0422 17.4109C13.979 18.7162 12.9474 19.7688 11.6422 19.8109ZM20.2316 19.8109C18.8632 19.7688 17.7895 18.6109 17.8316 17.2214C17.8738 15.9162 18.9264 14.8635 20.2316 14.8214C21.6001 14.8635 22.6738 16.0214 22.6316 17.4109C22.5896 18.7162 21.5369 19.7688 20.2316 19.8109Z" fill="white"/>
</svg>
