<svg width="80" height="80" viewBox="0 0 80 80" fill="none" xmlns="http://www.w3.org/2000/svg">
<path d="M17.3963 6.97329L17.3609 6.99854C15.3746 8.36483 13.5151 9.90683 11.8047 11.6059C11.0167 12.3839 10.2674 13.1906 9.55689 14.0258C8.90025 14.7937 8.27393 15.5869 7.68294 16.3952C7.23507 17.0183 6.80236 17.6498 6.3848 18.2897C5.60285 19.5025 4.88789 20.7573 4.24312 22.0483C3.82893 22.8819 3.43997 23.7256 3.08639 24.5743L3.00053 24.7764C1.31583 28.889 0.324167 33.2524 0.065817 37.6892C-0.35596 45.0353 1.25558 52.3555 4.72326 58.8451C8.19094 65.3346 13.3805 70.7422 19.7214 74.4735C26.0624 78.2047 33.3092 80.1151 40.6652 79.9946C48.0212 79.8742 55.2016 77.7275 61.417 73.7906C61.816 73.538 62.21 73.2854 62.604 73.0075C63.1091 72.6791 63.5536 72.3457 64.0132 71.9971C64.4729 71.6485 65.0234 71.209 65.5286 70.8049C66.4277 70.0622 67.2813 69.2893 68.0996 68.4911C68.8371 67.7636 69.5425 67.0125 70.216 66.2379C70.408 66.0156 70.5949 65.7984 70.7818 65.571C71.7546 64.4026 72.6602 63.1797 73.4942 61.9084C73.9892 61.1472 74.459 60.3726 74.9035 59.5845C77.2455 55.3883 78.816 50.806 79.5404 46.0553C80.0689 42.5752 80.142 39.0411 79.7576 35.5422C79.0291 29.0362 76.7115 22.8094 73.0093 17.4106C72.8931 17.2389 72.7719 17.0671 72.6507 16.9054C72.2718 16.3598 71.8728 15.8294 71.4586 15.304C71.3828 15.208 71.3071 15.1069 71.2263 15.011C71.0394 14.7735 70.8474 14.5361 70.6504 14.3037L70.3726 13.9753L70.1251 13.6873L69.9129 13.4449L69.6554 13.1619L69.4129 12.8942L69.1654 12.6264C69.0846 12.5406 69.0037 12.4496 68.9179 12.3637L68.6704 12.1061L68.2764 11.707L68.0036 11.4342L67.9329 11.3685L67.6854 11.126C67.4733 10.9239 67.2611 10.7168 67.0388 10.5197L66.6499 10.1661L66.2711 9.83269C65.7357 9.36286 65.1851 8.90818 64.6244 8.47371C64.3466 8.25142 64.0638 8.03926 63.7809 7.83213L63.301 7.47849L62.9272 7.22083L62.4928 6.91773L62.0534 6.6247L61.6089 6.33674C61.3159 6.14476 61.0179 5.95785 60.7148 5.78103L60.2602 5.50821L59.8056 5.2455L59.3409 4.98787C59.0328 4.8161 58.7247 4.64939 58.4115 4.48267C58.1034 4.32101 57.7902 4.16438 57.477 4.01787L57.0932 3.83095L56.6537 3.62889L56.3102 3.47228L55.7647 3.23482L55.3202 3.0479L54.8151 2.84079L54.1989 2.60333L53.7342 2.43158L53.2795 2.26991L52.8199 2.10824L52.5875 2.03245L52.34 1.95163C47.204 0.28957 41.7857 -0.320378 36.4088 0.158193H36.1259C35.2369 0.244076 34.3479 0.360273 33.4639 0.50678C32.58 0.653287 31.5597 0.855342 30.6151 1.08268C30.0696 1.21403 29.5241 1.36056 28.9886 1.51212C26.3176 2.27937 23.7342 3.32407 21.2806 4.62917C19.9431 5.33736 18.6463 6.11996 17.3963 6.97329Z" fill="url(#paint0_radial_2_1775)"/>
<g style="mix-blend-mode:screen">
<path d="M4.08858 48.7571C6.24672 50.408 8.67963 51.9983 9.69375 54.5378C10.2483 55.9262 10.3182 57.4964 11.0176 58.8191C11.9018 60.4751 13.6703 61.4899 15.4788 61.9393C17.2872 62.3886 19.1705 62.3684 21.0289 62.4441C24.2074 62.5247 27.3492 63.1495 30.3209 64.292C31.8196 64.918 34.1126 65.8066 35.0018 67.3212C35.2966 67.8261 35.4165 68.4067 35.6962 68.9115C35.9111 69.2952 36.1958 69.6184 36.1509 70.0929C36.0809 70.7291 35.2816 71.0168 34.6522 70.9007C33.5881 70.6988 32.6089 70.3353 31.5149 70.1586C30.8355 70.0425 29.9662 70.1586 29.9462 70.9916C29.9162 72.067 31.405 72.3548 32.1094 72.6779C34.3074 73.6876 36.001 74.5409 38.4938 74.6974C40.8968 74.8387 43.3446 74.657 45.6876 75.2275C46.8616 75.5203 48.0006 75.9999 49.1846 76.1211C51.5076 76.3635 52.2169 74.657 54.0903 73.8189C55.9637 72.9808 58.0869 73.4201 60.1401 73.6927C60.5997 73.7533 61.0793 73.7987 61.5539 73.8189C55.9992 77.3643 49.6588 79.4567 43.1042 79.9076C36.5497 80.3585 29.9872 79.1537 24.0084 76.4018C18.0295 73.6499 12.8224 69.4374 8.85655 64.1442C4.89066 58.8509 2.29066 52.6434 1.29102 46.0812C2.10995 47.0872 3.04971 47.986 4.08858 48.7571ZM26.739 71.3703C26.5966 70.935 26.3534 70.5403 26.0296 70.2192C24.3373 68.3517 22.049 67.1454 19.5652 66.8113C18.9557 66.7305 18.1614 66.8113 17.9766 67.407C17.9115 67.728 17.9648 68.062 18.1265 68.3461C18.5988 69.3491 19.2658 70.2459 20.088 70.9831C20.9102 71.7204 21.8707 72.283 22.9123 72.6375C23.9764 73.0111 27.3285 73.5968 26.739 71.3703ZM41.2265 72.2134C41.3875 72.2043 41.5392 72.1339 41.6511 72.0165C41.8159 71.7944 41.6511 71.4763 41.4962 71.2592C40.7508 70.2761 39.7232 69.5497 38.5538 69.1791C37.3498 68.8005 37.5047 70.517 38.0542 71.1027C38.456 71.5226 38.9494 71.8417 39.495 72.0346C40.0406 72.2274 40.6233 72.2887 41.1965 72.2134H41.2265ZM36.6354 0.243938C37.135 0.890174 37.7745 1.87467 38.5138 2.26343C39.413 2.7683 40.7219 2.76827 41.7061 3.09139C43.9224 3.82864 45.954 5.04303 47.6609 6.65076C48.183 7.23417 48.8017 7.72108 49.4893 8.08963C49.8364 8.26786 50.2313 8.32778 50.6149 8.26044C50.9984 8.1931 51.3502 8.00212 51.6175 7.71603C52.0521 7.14048 51.9572 6.2923 52.3918 5.69655C53.0312 4.84331 54.3501 5.09069 55.3292 5.49964C59.0597 7.0864 62.2545 9.73289 64.5263 13.1182C66.085 15.4658 66.9792 18.2123 68.4729 20.6054C70.8608 24.2556 74.2729 26.8658 77.4651 29.7487C78.008 30.2401 78.5342 30.7449 79.0437 31.2633C77.939 26.2978 75.9041 21.5919 73.0489 17.3995C72.934 17.2278 72.8141 17.0562 72.6942 16.8946C72.3195 16.3493 71.9249 15.8192 71.5153 15.2942C71.4403 15.1982 71.3654 15.0973 71.2854 15.0013C71.1006 14.764 70.9108 14.5267 70.716 14.2945L70.4412 13.9664L70.1964 13.6786L69.9866 13.4362L69.7318 13.1535L69.492 12.8859L69.2472 12.6183C69.1673 12.5325 69.0873 12.4416 69.0024 12.3558L68.7576 12.0983L68.368 11.6995L68.0982 11.4268L68.0283 11.3612L67.7835 11.1189C67.5736 10.9169 67.3638 10.7099 67.144 10.513L66.7594 10.1596L66.3847 9.8264C65.8551 9.35686 65.3106 8.90248 64.7561 8.46829C64.4813 8.25119 64.2016 8.03914 63.9218 7.82709L63.4472 7.47371L63.0775 7.21622L62.6479 6.91328L62.2133 6.62047L61.7737 6.33269C61.4839 6.14084 61.1842 5.95907 60.8894 5.77731L60.4398 5.50469L59.9902 5.24215L59.5306 4.98466C59.2259 4.813 58.9211 4.6464 58.6114 4.47979L57.6872 4.01532L57.3075 3.82852L56.8729 3.62655L56.5332 3.47005L55.9937 3.23277L55.5541 3.04597L55.0545 2.83896L54.445 2.60168L53.9854 2.43001L53.5358 2.26845L53.0812 2.10692L52.8514 2.03117L52.6066 1.95041C47.527 0.289411 42.1682 -0.320176 36.8502 0.158088L36.6354 0.243938ZM57.2576 9.89709C56.5083 9.58406 53.356 8.65005 53.4359 9.77087C53.4719 10.0264 53.5659 10.2701 53.7107 10.4827C54.9731 12.6 56.828 14.2918 59.041 15.3446C59.2297 15.4711 59.4473 15.5463 59.6731 15.5631C59.8988 15.5799 60.125 15.5377 60.3299 15.4406C60.7196 15.1679 60.7246 14.5924 60.6297 14.1178C60.4315 13.1954 60.0218 12.3329 59.4335 11.5998C58.8451 10.8667 58.0947 10.2835 57.2426 9.89709H57.2576ZM32.8437 57.0572C32.3151 56.2215 31.5659 55.5517 30.6806 55.1235C29.7911 54.6971 28.7736 54.632 27.8381 54.9417C27.5868 55.0108 27.3549 55.138 27.1607 55.3132C26.9665 55.4885 26.8153 55.707 26.719 55.9515C26.5392 56.5775 26.9238 57.2137 27.3035 57.7387C27.943 58.6273 28.6673 59.526 29.6815 59.9299C31.4799 60.667 34.1626 59.0918 32.8287 57.0572H32.8437ZM15.8584 59.3493C17.2322 59.8542 18.656 59.7077 20.0098 60.2883C20.6543 60.566 21.4835 60.7326 21.9831 60.2429C22.1611 60.0385 22.274 59.7846 22.307 59.5144C22.34 59.2442 22.2915 58.9702 22.1679 58.7283C21.915 58.2507 21.5517 57.8419 21.1089 57.5368C19.1755 56.0222 16.9175 54.9619 14.6844 53.932C13.995 53.6139 13.1857 53.3009 12.5163 53.6897C12.2902 53.84 12.1085 54.0494 11.9907 54.2956C11.8728 54.5418 11.8231 54.8157 11.8469 55.0882C11.9032 55.6329 12.0957 56.1541 12.4064 56.6028C13.2223 57.8771 14.4326 58.8428 15.8484 59.3493H15.8584ZM45.8325 70.9613C45.8339 71.3173 45.9676 71.6597 46.2072 71.9206C46.9821 73.0534 48.1532 73.8473 49.4843 74.142C51.5425 74.4752 52.7365 72.7536 54.3701 71.9004C55.8012 71.1541 57.436 70.9056 59.0211 71.1936C60.7396 71.5217 62.4231 71.7893 64.1666 72.0014C64.6662 71.6126 65.1657 71.2138 65.6653 70.8099C64.9291 70.7712 64.1973 70.6716 63.4772 70.512C61.6188 70.0677 60.3549 68.3613 58.3716 68.5279C56.6331 68.6743 55.2543 70.1737 53.5358 70.4565C52.3468 70.6534 51.1529 70.2495 49.9839 69.9516C48.8149 69.6537 47.4861 69.5073 46.4869 70.1333C46.3171 70.2114 46.1679 70.3289 46.0516 70.4763C45.9353 70.6237 45.8551 70.7968 45.8175 70.9815L45.8325 70.9613ZM3.89377 24.6242L3.80883 24.8262C3.01074 26.7903 2.3709 28.8164 1.8955 30.8846L1.95045 30.9906C2.80971 32.5052 4.44828 33.6513 4.71804 35.3931C4.95284 37.0491 3.80385 38.5435 3.26931 40.1238C1.6657 44.8746 5.87704 48.1563 9.39899 50.3121C9.69968 50.5234 10.0395 50.671 10.3981 50.7463C10.585 50.7828 10.7783 50.7647 10.9553 50.6941C11.1323 50.6234 11.2856 50.5032 11.3973 50.3474C11.4903 50.1197 11.5257 49.8721 11.5004 49.6271C11.4752 49.3821 11.3899 49.1473 11.2524 48.9439C10.0235 46.3842 7.37075 43.8951 7.81037 40.7649C8.04017 39.1544 9.24413 37.7357 9.15921 36.1201C9.08427 34.6712 8.01021 33.5049 7.19591 32.3083C5.66224 30.0515 4.80297 27.4212 3.93372 24.8009L3.89377 24.6242ZM7.15594 18.3133C6.38258 19.5254 5.67547 20.7793 5.03777 22.0695C5.64125 22.9842 6.55431 23.6449 7.60556 23.9275C7.91084 24.0337 8.24456 24.0192 8.53975 23.8871C8.67418 23.7965 8.78488 23.6743 8.86231 23.5309C8.93975 23.3876 8.98163 23.2274 8.98437 23.0641C8.98542 22.7362 8.92611 22.4109 8.8095 22.1049C8.51476 21.2062 8.0102 19.4341 7.15594 18.3133ZM31.1352 1.14765C32.4441 2.81877 34.4973 3.465 36.1309 4.76252C37.09 5.51982 37.3948 6.52454 38.2191 7.36767C39.0823 8.17547 40.1235 8.76387 41.2564 9.08422C42.865 9.58909 44.5836 9.91223 46.0023 10.8412C47.0628 11.6151 47.9866 12.5641 48.735 13.6483C50.1637 15.5129 51.5276 17.4264 52.8264 19.3887C53.5866 20.6634 54.4847 21.8487 55.5041 22.9228C56.5375 23.9998 57.9295 24.651 59.4107 24.7504C60.8045 24.7504 62.2133 24.1294 63.5521 24.5081C64.3994 24.8263 65.1584 25.3458 65.7652 26.0227C68.9575 29.0115 72.4394 31.96 75.257 35.2972C76.9618 37.2393 78.5372 39.2936 79.9729 41.4465C80.0462 39.4934 79.9744 37.5374 79.7581 35.595C78.2582 33.544 76.5868 31.6269 74.7624 29.8648L69.3371 24.3112C65.9051 20.8074 62.2283 17.1571 57.4974 15.9454C56.7743 15.8009 56.0629 15.6018 55.3692 15.3497C53.9105 14.7287 52.8714 13.4413 51.7574 12.3205C48.6005 9.1533 44.8013 6.71592 40.622 5.17651C39.3584 4.76674 38.1411 4.22354 36.9901 3.5559C35.8396 2.74166 34.8273 1.74419 33.9927 0.602377C32.9986 0.723546 32.0544 0.915406 31.1202 1.14765H31.1352ZM69.6419 49.681C69.967 49.6163 70.259 49.4374 70.4662 49.1761C70.8458 48.5804 70.4662 47.7978 70.0815 47.2122C69.031 45.5389 67.6354 44.1147 65.99 43.0368C65.3267 42.6475 64.5862 42.4113 63.8219 42.3452C63.0476 42.2341 62.1484 41.6939 61.394 41.7394C61.1832 41.7667 60.9823 41.8465 60.8095 41.9716C60.0901 42.4411 59.5056 43.2843 59.7005 44.1274C59.7804 44.4152 59.9181 44.6833 60.1051 44.915C60.6133 45.5699 61.3123 46.0468 62.1034 46.2781C62.6879 46.4498 63.3123 46.475 63.8918 46.682C65.7802 47.3333 67.3189 50.2717 69.6269 49.6759L69.6419 49.681ZM41.2415 11.3107C40.4645 11.0548 39.6359 11.0027 38.8335 11.1593C38.4344 11.2448 38.0672 11.4422 37.7739 11.7288C37.4806 12.0154 37.273 12.3796 37.175 12.7799C37.0251 13.6786 37.6146 14.5368 38.309 15.1174C38.953 15.6167 39.648 16.0449 40.3822 16.3948L47.7558 20.2621C48.1305 20.459 48.65 20.6256 48.9148 20.2974C48.9823 20.1838 49.0236 20.0563 49.0357 19.9243C49.0478 19.7924 49.0304 19.6593 48.9848 19.5351C48.1555 15.9606 44.6935 12.2548 41.2265 11.3158L41.2415 11.3107ZM56.9928 29.0671C57.595 29.2055 58.2249 29.1527 58.7962 28.9156C59.2065 28.7629 59.6295 28.648 60.0602 28.5723C60.2922 28.5415 60.5119 28.4491 60.6971 28.3045C60.8822 28.16 61.0262 27.9684 61.1143 27.7493C61.1442 27.6697 61.1442 27.5816 61.1143 27.502C61.0723 27.4208 61.0058 27.3554 60.9244 27.3152C60.1446 26.7792 59.2818 26.3782 58.3716 26.1287C57.9144 26.0112 57.4355 26.0092 56.9773 26.1227C56.5191 26.2363 56.0955 26.462 55.7439 26.78C55.5764 26.9315 55.4526 27.126 55.3857 27.343C55.3189 27.5599 55.3115 27.791 55.3642 28.0119C55.579 28.6278 56.4083 28.9408 56.9778 29.0721L56.9928 29.0671ZM21.9032 4.68175C23.6667 6.50434 26.3993 7.24651 28.3976 8.8621C30.3958 10.4777 31.8945 13.1888 34.4573 13.8654C34.5305 13.8981 34.6096 13.915 34.6896 13.915C34.7696 13.915 34.8487 13.8981 34.9219 13.8654C35.024 13.7796 35.0959 13.6627 35.1267 13.5322C35.5863 12.2548 36.0509 10.9068 35.8561 9.5588C35.5764 7.63019 34.0726 6.27713 32.7238 5.01495C31.5598 3.93957 30.6206 2.68752 29.5216 1.57175C26.8818 2.33723 24.3285 3.37955 21.9032 4.68175ZM19.5852 10.3817C20.5394 12.0428 22.0331 13.2999 23.232 14.7893C26.1145 18.3688 27.3335 23.3216 30.9803 26.0934C33.1385 27.7342 35.8911 28.3956 38.0492 30.0213C41.1166 32.3235 42.5753 36.2261 45.2829 38.9525C47.8757 41.5576 51.5775 43.052 53.5258 46.1772C54.495 47.7372 54.9346 49.575 55.7739 51.2259C57.0457 53.5212 58.915 55.4209 61.1792 56.7189C62.33 57.414 63.5287 58.0248 64.7661 58.5465C67.0241 59.526 69.0224 60.9497 71.4903 61.4495C72.1822 61.5447 72.8621 61.7139 73.5185 61.9544C72.6937 63.225 71.798 64.447 70.8358 65.6147C68.7621 64.693 66.8143 63.5052 65.0408 62.0806C63.1725 60.667 61.1842 59.9198 58.8013 60.1722C56.8379 60.3842 55.3392 61.182 53.4559 60.1167C51.9572 59.2432 50.0388 59.0161 48.66 57.8851C47.2812 56.7542 46.7117 55.1538 46.0073 53.6139C43.1786 47.4349 38.6261 42.2251 32.9086 38.6243C31.4449 37.7054 29.7864 36.8724 28.0728 37.1097C27.4134 37.1904 26.779 37.4277 26.1145 37.5085C23.4668 37.8266 21.1688 35.5951 19.9049 33.2222C19.2191 31.9416 18.7146 30.5702 18.4062 29.1479C18.0915 27.6332 18.0065 26.1186 17.7967 24.604C17.1409 19.923 15.3245 15.4856 12.5163 11.7045C14.2079 10.0065 16.0471 8.46549 18.0116 7.10008C18.606 8.12496 18.9757 9.31649 19.5852 10.3767V10.3817ZM28.1778 31.753C28.9021 31.5106 29.6764 31.6722 30.3858 31.4601C32.2093 30.9149 30.7056 28.9762 29.8863 28.0977L23.1321 20.7518C22.6326 20.1813 21.8283 19.5553 21.1339 19.9238C20.6343 20.1965 20.4994 20.878 20.4794 21.4637C20.4217 23.3299 20.7371 25.1886 21.4066 26.9288C22.0761 28.669 23.0861 30.2548 24.3761 31.5914C24.7789 32.0956 25.3517 32.4318 25.9846 32.5355C26.8139 32.5759 27.4534 31.9852 28.1778 31.7479V31.753ZM53.1262 56.4917C53.8705 56.8098 56.9029 57.2086 55.8688 55.5324C54.9296 54.0178 53.281 53.0081 52.4767 51.4278C52.162 50.8069 51.9772 50.1202 51.7224 49.479C51.488 48.8125 51.0303 48.2499 50.4285 47.8887C50.1925 47.7628 49.9239 47.7135 49.6592 47.7473C49.4785 47.7773 49.3073 47.8499 49.1596 47.9594C48.8144 48.2366 48.548 48.6013 48.3874 49.0163C48.2269 49.4313 48.1779 49.8818 48.2454 50.3222C48.3982 51.2052 48.7391 52.0442 49.2445 52.7809C50.1887 54.4066 51.3827 55.7798 53.1262 56.5119V56.4917ZM23.3869 9.37705C24.3831 9.45461 25.3373 9.81514 26.1395 10.4171C27.9873 11.6934 29.6372 13.2401 31.0353 15.0064C32.484 16.733 33.0336 17.9397 35.4315 18.0356C42.2156 18.2174 48.0206 22.8773 52.8064 27.7392C54.2552 29.2084 55.9238 30.8341 57.977 30.7685C59.056 30.7331 60.0602 30.2131 61.1292 30.0314C63.0076 29.7032 64.906 30.4453 66.5646 31.3945C68.798 32.7047 70.8197 34.3529 72.5594 36.2817C75.2783 39.24 77.618 42.5324 79.5233 46.0812C78.8041 50.8407 77.2439 55.4306 74.9173 59.632H74.7075C71.6435 59.5558 68.6598 58.6264 66.085 56.9461C63.6271 55.3557 60.23 52.7102 59.5906 49.6759C59.4657 49.06 59.5906 48.227 60.215 48.1108C60.4533 48.0927 60.6923 48.1361 60.9094 48.2371C62.9077 48.9893 65.1957 49.7062 66.9043 50.9179C68.2181 51.8418 69.6619 53.1697 71.4004 52.5335C72.7492 52.0286 73.4336 50.4181 73.2737 48.9994C73.1139 47.5807 72.2746 46.2882 71.4203 45.1422C69.9216 43.1984 68.1332 41.4112 65.9251 40.4267C65.0409 40.0329 64.1017 39.7754 63.2474 39.3109C61.0343 38.1043 59.4757 35.5547 56.9778 35.2164C56.5132 35.1558 55.9088 35.277 55.8088 35.7213C55.788 35.8718 55.8 36.0252 55.8438 36.1706C56.1852 37.5939 56.8487 38.9177 57.7821 40.0379C57.9832 40.236 58.1369 40.4777 58.2317 40.7447C58.5515 41.9514 57.0677 42.6683 56.1485 42.3805C54.6498 41.9059 53.4709 40.4267 52.202 39.5431C50.4085 38.2911 48.5451 37.1349 46.7067 35.9333C46.0653 35.5587 45.4897 35.0793 45.0032 34.5146C44.757 34.2321 44.5829 33.8931 44.4958 33.5271C44.4088 33.1611 44.4114 32.7791 44.5036 32.4144C44.6395 32.1411 44.7386 31.8508 44.7984 31.551C44.7914 31.187 44.6727 30.8342 44.4587 30.5413C43.9591 29.7082 43.4595 28.8348 42.5903 28.3956C42.2303 28.2291 41.8556 28.0973 41.4712 28.0018C39.7327 27.4969 37.9493 26.7295 36.2658 26.0681C34.2103 25.284 32.3729 24.0092 30.9104 22.3523C29.5366 20.7114 29.1219 18.5001 27.7781 16.7532C26.288 14.9494 24.6485 13.2773 22.8773 11.755C22.3778 11.2905 21.8332 10.6191 22.123 9.99807C22.256 9.78753 22.4454 9.61936 22.669 9.51304C22.8927 9.40671 23.1416 9.36658 23.3869 9.39727V9.37705ZM67.0391 37.7761C67.4388 37.8316 69.1873 38.0386 69.4121 37.7105C69.4551 37.6321 69.4693 37.5409 69.452 37.453C69.3026 36.8144 68.9519 36.2421 68.4529 35.8222C66.8593 34.1915 64.901 32.6618 62.6379 32.6113C62.4464 32.5814 62.2505 32.603 62.0698 32.6739C61.8892 32.7448 61.7302 32.8625 61.6088 33.0152C61.354 33.4645 61.7237 34.0249 62.0684 34.3834C62.814 35.26 63.6515 36.0522 64.5663 36.7462C65.2979 37.287 66.1449 37.6467 67.0391 37.7963V37.7761ZM11.722 15.8748C12.6862 17.4146 13.2207 19.3331 12.7211 21.08C12.2915 22.5946 11.1225 23.9376 11.1375 25.5229C11.1375 27.5979 13.1358 29.057 14.1349 30.8593C15.134 32.6617 15.1041 34.7267 15.3289 36.726C15.4587 37.867 15.6386 39.5229 16.4429 40.3913C17.2472 41.2597 18.3413 41.9059 19.1755 42.7642C20.0098 43.6225 21.0339 44.506 22.2329 44.8191C23.4318 45.1321 24.8956 44.7383 25.4601 43.6276C25.8648 42.8349 25.7598 41.8353 26.2394 41.1032C26.5262 40.7267 26.9145 40.4421 27.3577 40.2835C27.8009 40.125 28.28 40.0993 28.7373 40.2096C29.6468 40.4396 30.4979 40.8611 31.2351 41.4465C36.7304 45.3088 41.5912 50.2818 44.5786 56.3402C44.9187 56.9215 45.111 57.5789 45.1381 58.2537C45.1465 58.592 45.0443 58.9237 44.8475 59.1975C44.6506 59.4713 44.37 59.6719 44.049 59.7683C43.7943 59.8188 43.4795 59.7986 43.3347 60.0157C43.1898 60.2328 43.3846 60.6115 43.5994 60.8286C45.1631 62.3987 48.0056 64.7767 50.3885 63.6356C51.038 63.3277 51.6425 62.8632 52.3518 62.8026C54.1703 62.6461 55.3093 64.6605 57.2076 64.1203C58.3267 63.8022 59.3208 63.0752 60.4648 62.8884C62.2533 62.6006 63.8469 63.6609 65.3556 64.4636C66.1241 64.9183 66.9537 65.2584 67.8184 65.4734C68.0432 65.5137 70.5861 65.9782 70.3563 66.261C69.6902 67.0317 68.9924 67.7823 68.2631 68.5127C68.0932 68.4774 67.9383 68.4471 67.7985 68.4269C66.7344 68.2552 65.6054 68.1694 64.5563 67.9574C63.3473 67.715 62.3582 66.8517 61.1692 66.4983C60.5547 66.2879 59.9035 66.2097 59.2574 66.2688C58.6113 66.328 57.9845 66.5231 57.4174 66.8416C56.4633 67.4525 55.7389 68.5581 54.6149 68.6793C53.6507 68.7803 52.7815 68.0937 51.8223 67.9169C50.8631 67.7402 49.859 68.0987 48.8798 68.2653C44.8833 68.9671 40.9867 66.5437 38.1142 63.979C36.8203 62.8278 34.6172 61.0456 35.0818 59.0413C35.2616 58.3092 35.8011 57.6933 35.936 56.9511C36.2008 55.487 34.9919 54.2804 33.8578 53.6493C31.8596 52.5436 29.7864 50.4383 27.5433 49.9536C27.2485 49.8763 26.9396 49.8712 26.6425 49.9388C26.3453 50.0065 26.0684 50.1448 25.8348 50.3424C24.9156 51.2309 25.5101 52.8667 24.8356 53.9825C23.7316 55.7849 21.7933 54.6338 20.4894 53.7957C17.8267 52.0791 15.2789 50.4635 13.1258 48.0755C11.6271 46.3943 9.54386 44.0719 9.83361 41.603C9.9635 40.4772 10.7828 39.5835 11.1675 38.5132C11.9768 36.2918 10.8128 33.8735 9.57886 31.8641C8.76456 30.5363 7.86534 29.0721 8.08015 27.5272C8.3699 25.6592 10.2233 24.397 10.7229 22.5744C11.2574 20.6256 10.1234 18.6314 8.91942 17.0208C8.77455 16.8239 8.62967 16.6321 8.4798 16.4402C9.0643 15.6324 9.68374 14.8398 10.3332 14.0724C10.8491 14.6295 11.3139 15.2328 11.722 15.8748ZM30.206 43.0722C29.7364 42.9056 29.092 42.6229 28.6473 42.9207C28.2434 43.32 28.0118 43.8644 28.0029 44.4354C28.0684 44.8429 28.2508 45.2221 28.5275 45.5259C29.7417 47.0757 31.2456 48.3692 32.9536 49.3326C33.3932 49.58 33.9527 49.8021 34.3824 49.5497C34.5422 49.4394 34.6691 49.287 34.7492 49.109C34.8294 48.931 34.8597 48.7342 34.837 48.54C34.7855 48.1562 34.6617 47.7861 34.4723 47.4495C34.0712 46.5726 33.5681 45.7472 32.9736 44.9907C32.2249 44.1083 31.2603 43.4398 30.176 43.052L30.206 43.0722Z" fill="#334211"/>
</g>
<path style="mix-blend-mode:screen" d="M57.0058 35.6091C58.6331 21.3492 48.3923 8.47017 34.1324 6.84294C19.8725 5.21571 6.99351 15.4565 5.36628 29.7164C3.73905 43.9762 13.9798 56.8553 28.2397 58.4825C42.4996 60.1097 55.3786 49.8689 57.0058 35.6091Z" fill="url(#paint1_linear_2_1775)"/>
<path d="M78.7097 31.8351C78.0305 29.0014 77.0552 26.2489 75.8002 23.624C74.5455 21.0102 73.0106 18.5437 71.2232 16.2689C69.4695 13.976 67.4617 11.894 65.2391 10.0638C63.0371 8.2126 60.6368 6.61713 58.0832 5.30727L58.1833 5.3478C58.0866 5.32458 58.0013 5.26707 57.943 5.18571L58.0781 5.30727C54.7551 3.60863 51.2164 2.38137 47.5621 1.66013C45.7444 1.3008 43.9035 1.07397 42.0536 0.981376C40.1989 0.886732 38.3398 0.923955 36.4902 1.0928L36.7055 1.01684C36.4601 1.13334 36.4701 1.08267 36.4751 1.0928H36.3349H36.1747L35.8592 1.1384L35.2232 1.22451L33.9613 1.39168C33.12 1.51325 32.2937 1.726 31.4575 1.89822C29.7962 2.26027 28.1628 2.74272 26.57 3.34187C21.7624 5.11599 17.3407 7.81683 13.5501 11.2947C12.9139 11.8656 12.3087 12.4709 11.7373 13.1081C11.1614 13.7413 10.5605 14.3542 10.0097 15.0026C7.78989 17.6191 5.93638 20.5321 4.50125 23.6595C1.52338 29.9127 0.219722 36.8469 0.720479 43.7693C0.960183 47.2187 1.63329 50.623 2.72354 53.9003C3.83526 57.1868 5.34933 60.3197 7.23043 63.2258C3.20775 57.4974 0.765483 50.7889 0.154612 43.7896C-0.461041 36.758 0.768857 29.6865 3.72006 23.2897C5.16734 20.0845 7.04453 17.0965 9.29859 14.4099C9.85945 13.7413 10.4704 13.1132 11.0563 12.4597C11.6389 11.8071 12.2539 11.1849 12.8991 10.5956C14.1841 9.40885 15.5422 8.30577 16.9653 7.29296C19.8131 5.25694 22.9169 3.61471 26.1944 2.40984C27.8269 1.80271 29.5004 1.31517 31.2021 0.950985C32.0584 0.793955 32.9047 0.581206 33.766 0.444438L35.063 0.277269L35.709 0.196236L36.0295 0.155703H36.1897H36.2698H36.3299C36.3299 0.155703 36.37 0.115192 36.1396 0.231698L36.3549 0.155703C38.2599 -0.0121944 40.1742 -0.0443563 42.0837 0.0594581C45.8803 0.273761 49.628 1.02921 53.2157 2.30346C55.0032 2.94879 56.7434 3.72065 58.4237 4.61331L58.5589 4.73487C58.5318 4.69479 58.497 4.66066 58.4566 4.63455C58.4161 4.60843 58.3709 4.59087 58.3235 4.58291L58.4287 4.61838C61.0053 5.98953 63.4224 7.6478 65.6347 9.56227C67.8612 11.4534 69.8642 13.5985 71.6038 15.9549C73.3479 18.2994 74.8324 20.8304 76.0306 23.5024C77.2354 26.1673 78.1343 28.9631 78.7097 31.8351Z" fill="#FFF5D4"/>
<defs>
<radialGradient id="paint0_radial_2_1775" cx="0" cy="0" r="1" gradientUnits="userSpaceOnUse" gradientTransform="translate(23.5013 32.5368) rotate(-108.613) scale(62.9131 62.9049)">
<stop stop-color="#00F5C3"/>
<stop offset="0.68" stop-color="#118786"/>
<stop offset="0.75" stop-color="#0F9089"/>
<stop offset="0.86" stop-color="#09A793"/>
<stop offset="1" stop-color="#00CCA2"/>
</radialGradient>
<linearGradient id="paint1_linear_2_1775" x1="-1.53336" y1="20.8554" x2="44.694" y2="30.5403" gradientUnits="userSpaceOnUse">
<stop stop-color="#8B742C"/>
<stop offset="1"/>
</linearGradient>
</defs>
</svg>
