<svg width="22" height="22" viewBox="0 0 22 22" fill="none" xmlns="http://www.w3.org/2000/svg">
<path d="M17.3954 4.07129C17.101 4.07129 16.8613 4.31093 16.8613 4.60539C16.8613 4.89986 17.101 5.13949 17.3954 5.13949C17.6899 5.13949 17.9295 4.8999 17.9295 4.60539C17.9295 4.31088 17.6899 4.07129 17.3954 4.07129Z" fill="white"/>
<path d="M11.0006 6.26465C8.38974 6.26465 6.26562 8.38877 6.26562 10.9996C6.26562 13.6105 8.38974 15.7347 11.0006 15.7347C13.6115 15.7347 15.7356 13.6105 15.7356 10.9997C15.7356 8.38881 13.6115 6.26465 11.0006 6.26465Z" fill="white"/>
<path d="M15.969 0H6.03096C2.70548 0 0 2.70548 0 6.03101V15.969C0 19.2946 2.70548 22 6.03096 22H15.969C19.2946 22 22 19.2945 22 15.969V6.03101C22 2.70548 19.2946 0 15.969 0ZM11 17.0342C7.67272 17.0342 4.96586 14.3273 4.96586 11C4.96586 7.67272 7.67276 4.9659 11 4.9659C14.3272 4.9659 17.0342 7.67276 17.0342 11C17.0342 14.3272 14.3272 17.0342 11 17.0342ZM17.3951 6.43827C16.3842 6.43827 15.5618 5.61584 15.5618 4.60496C15.5618 3.59408 16.3842 2.77161 17.3951 2.77161C18.406 2.77161 19.2284 3.59404 19.2284 4.60492C19.2284 5.6158 18.406 6.43827 17.3951 6.43827Z" fill="white"/>
</svg>
