<svg width="18" height="19" viewBox="0 0 18 19" fill="none" xmlns="http://www.w3.org/2000/svg">
<path d="M16.1996 16.7V11.426C16.1996 8.834 15.6416 6.854 12.6176 6.854C11.1596 6.854 10.1876 7.646 9.79156 8.402H9.75556V7.088H6.89355V16.7H9.88156V11.93C9.88156 10.67 10.1156 9.464 11.6636 9.464C13.1936 9.464 13.2116 10.886 13.2116 12.002V16.682H16.1996V16.7Z" fill="white"/>
<path d="M2.03369 7.08789H5.02169V16.6999H2.03369V7.08789Z" fill="white"/>
<path d="M3.52781 2.2998C2.57381 2.2998 1.7998 3.07381 1.7998 4.02781C1.7998 4.98181 2.57381 5.77381 3.52781 5.77381C4.48181 5.77381 5.25581 4.98181 5.25581 4.02781C5.25581 3.07381 4.48181 2.2998 3.52781 2.2998V2.2998Z" fill="white"/>
</svg>
