<svg width="48" height="48" viewBox="0 0 48 48" fill="none" xmlns="http://www.w3.org/2000/svg">
<path d="M0.132183 23.2325L0.132183 23.2069C0.175819 21.7628 0.349632 20.3255 0.651506 18.9126C0.793981 18.2631 0.957825 17.6222 1.14304 16.9898C1.31829 16.4087 1.5149 15.8404 1.73075 15.2806C1.89745 14.8533 2.07483 14.426 2.26503 14.0137C2.6224 13.2282 3.02264 12.4629 3.46396 11.7213C3.74891 11.2427 4.04953 10.7748 4.36583 10.3176L4.44063 10.2087C5.16869 9.17085 5.97761 8.19214 6.85985 7.28169C7.82103 6.28942 8.86643 5.38231 9.98433 4.57053C11.3402 3.58437 12.7957 2.743 14.327 2.06019C17.6063 0.601071 21.1727 -0.09928 24.7604 0.0113306C30.9616 0.191749 36.8505 2.77208 41.1858 7.20841C45.521 11.6447 47.9639 17.5905 47.9995 23.7923C47.9995 24.0743 47.9995 24.3563 47.9995 24.6469C47.9995 24.9951 47.9696 25.3391 47.9461 25.6809C47.9183 26.0655 47.882 26.45 47.835 26.8303C47.7537 27.5204 47.6405 28.1998 47.5016 28.8707C47.3733 29.4774 47.223 30.0749 47.0506 30.6631C47.0036 30.8319 46.9523 30.9964 46.8989 31.1631C46.6244 32.0309 46.3012 32.8826 45.9308 33.714C45.7171 34.2097 45.4692 34.6946 45.2148 35.1732C43.8625 37.7136 42.0636 39.9896 39.9041 41.8924C39.2038 42.511 38.4673 43.0875 37.6986 43.6187C36.7354 44.2878 35.7231 44.8834 34.6703 45.4005C33.898 45.7832 33.1054 46.1234 32.2959 46.4196C29.4371 47.4668 26.4039 47.9563 23.3606 47.8617C23.2366 47.8617 23.1127 47.8617 22.9887 47.8488C22.5912 47.8317 22.1937 47.8018 21.7962 47.7655C21.7236 47.7655 21.6488 47.7506 21.5825 47.7441C21.4009 47.7249 21.2192 47.7036 21.0397 47.6822C20.9542 47.6694 20.8687 47.6587 20.7854 47.6459C20.702 47.6331 20.6336 47.6266 20.5588 47.616C20.484 47.6053 20.4306 47.5967 20.3665 47.5861C20.3024 47.5754 20.2169 47.5626 20.1528 47.5497C20.0887 47.5369 20.0117 47.5262 19.9391 47.5134C19.8664 47.5006 19.798 47.4899 19.7253 47.475L19.5116 47.4365C19.4411 47.4237 19.3706 47.4087 19.2979 47.3938C19.1889 47.3724 19.0842 47.3489 18.9709 47.3254C18.8961 47.3105 18.8192 47.2934 18.7444 47.2741C18.7273 47.2741 18.7081 47.2741 18.6888 47.2741C18.6226 47.2592 18.5563 47.2421 18.4879 47.225C18.317 47.1865 18.1439 47.1438 17.9729 47.0968C17.8725 47.0712 17.7699 47.0434 17.6694 47.0135C17.569 46.9836 17.475 46.9601 17.3788 46.9323C16.9685 46.8127 16.5624 46.6845 16.1606 46.5413C15.9619 46.473 15.7631 46.4003 15.5665 46.3277C15.4575 46.2849 15.3528 46.2422 15.2331 46.1974L14.9809 46.0948L14.6881 45.973C14.592 45.9324 14.4958 45.8897 14.3996 45.847C14.3035 45.8042 14.2073 45.7615 14.1111 45.7166C13.9188 45.6312 13.7286 45.5393 13.5405 45.4453C13.4465 45.3997 13.3524 45.3528 13.2584 45.3043L12.9784 45.1612C12.8844 45.112 12.7904 45.0629 12.6985 45.0116C12.5118 44.9119 12.328 44.8094 12.1471 44.704C11.9647 44.6 11.7852 44.4932 11.6085 44.3835L11.3948 44.2489C11.3136 44.1976 11.2303 44.1464 11.1491 44.0929C11.0679 44.0395 11.023 44.0118 10.9589 43.9712C10.8606 43.9071 10.7622 43.8408 10.6661 43.7746C10.5699 43.7084 10.5058 43.6656 10.4267 43.6101C10.3476 43.5546 10.2472 43.4862 10.1596 43.4221C10.072 43.358 9.94586 43.2683 9.84114 43.1892L9.60392 43.0119L9.37311 42.8346L9.14658 42.6551C9.10597 42.6252 9.0675 42.5953 9.03117 42.5632L8.90935 42.465C6.41256 40.4154 4.35358 37.8848 2.85488 35.0237L2.77794 34.872C2.53217 34.3977 2.3035 33.9127 2.09193 33.4213C1.86325 32.8893 1.65168 32.3531 1.46147 31.7997C1.35248 31.4814 1.24776 31.1588 1.15159 30.8405C0.674626 29.252 0.365194 27.6179 0.228353 25.9651C0.144088 25.0568 0.111979 24.1445 0.132183 23.2325V23.2325Z" fill="url(#paint0_radial_2_3992)"/>
<path d="M14.3289 2.18777C17.608 0.728132 21.1742 0.0275308 24.7617 0.138181C30.9626 0.318664 36.8512 2.89991 41.1862 7.33783C45.5212 11.7757 47.9639 17.7236 47.9995 23.9276C47.835 23.6904 47.6555 23.4617 47.4738 23.248C46.6746 22.3012 45.7471 21.3501 45.5505 20.1255C45.3539 18.9009 45.9907 17.9883 45.1081 16.8812C44.6508 16.3063 44.0396 15.8831 43.5054 15.3851C42.454 14.3785 41.7466 13.0727 40.8897 11.8951C40.0007 10.6747 39.0134 10.0891 37.7868 9.29405C37.3957 9.03972 36.7631 8.37505 36.231 8.73838C35.8229 9.01622 36.0451 9.49709 36.3251 9.80699C36.7717 10.3028 37.2739 10.6832 37.7248 11.162C37.9876 11.442 38.103 11.9399 37.806 12.1857C37.5923 12.3674 37.3252 12.3182 37.0645 12.3353C36.7161 12.3546 36.3828 12.4849 36.0323 12.4935C34.9958 12.5213 33.7927 11.6642 32.9806 11.0915C31.4099 9.98224 30.1171 8.52677 29.0122 6.95591C28.3604 6.03477 27.7578 5.06661 26.9393 4.29294C26.1209 3.51926 25.0331 2.94648 23.9091 3.03411C23.0158 3.1025 22.1995 3.57484 21.319 3.74154C19.7098 4.0493 18.1135 3.3141 16.5727 2.75842C15.8513 2.47605 15.0976 2.28436 14.3289 2.18777V2.18777ZM34.7672 4.61352C34.2485 4.19757 33.6514 3.89031 33.0115 3.71003C32.3716 3.52974 31.7019 3.48011 31.0424 3.56413C30.8464 3.57198 30.6604 3.65279 30.521 3.79069C30.2837 4.07708 30.4996 4.50665 30.7347 4.79304C31.7149 5.94926 33.0705 6.72394 34.5642 6.98156C34.8315 7.04782 35.111 7.04782 35.3784 6.98156C36.6905 6.54984 35.3057 5.03242 34.7672 4.61352ZM38.9407 12.8119C38.4663 12.72 37.5496 13.1987 38.133 13.6882C38.7029 14.1628 39.4049 14.4508 40.1439 14.5132C40.3084 14.5281 40.5179 14.5132 40.5713 14.3486C40.5949 14.2538 40.5811 14.1535 40.5328 14.0686C40.3847 13.7488 40.1635 13.4684 39.8869 13.2501C39.6103 13.0318 39.2861 12.8817 38.9407 12.8119V12.8119ZM2.82536 35.1459C4.32398 38.0081 6.38285 40.5396 8.8795 42.5899L9.00131 42.6882C9.03764 42.7203 9.0761 42.7502 9.11671 42.7801L9.34323 42.9596L9.57403 43.137L9.81123 43.3144C9.91595 43.3935 10.0249 43.4704 10.1296 43.5474C10.2344 43.6243 10.307 43.6735 10.3968 43.7354C10.4865 43.7974 10.5549 43.8466 10.6361 43.9C10.7173 43.9535 10.8306 44.0325 10.9289 44.0966C10.993 44.1372 11.055 44.18 11.1191 44.2185C11.1832 44.2569 11.2836 44.3232 11.3648 44.3745L11.5785 44.5091C11.7559 44.6181 11.9376 44.7228 12.1171 44.8297C12.2994 44.9337 12.4832 45.0363 12.6684 45.1375C12.7603 45.1887 12.8543 45.2379 12.9484 45.2871L13.2283 45.4303C13.3223 45.4801 13.4164 45.5271 13.5104 45.5713C13.6984 45.6654 13.8886 45.7551 14.081 45.8428C14.1771 45.8876 14.2733 45.9304 14.3695 45.9731C14.4656 46.0159 14.5618 46.0586 14.658 46.0992L14.9507 46.221L15.2029 46.3236C15.314 46.3685 15.4166 46.4112 15.5363 46.454C15.7329 46.5288 15.9316 46.5993 16.1304 46.6677C16.5321 46.8109 16.9381 46.9391 17.3485 47.0588C17.4446 47.0866 17.5408 47.1144 17.6391 47.14C17.7374 47.1657 17.8421 47.1977 17.9425 47.2234C18.1135 47.2704 18.2866 47.3131 18.4576 47.3516C18.5259 47.3687 18.5922 47.3858 18.6584 47.4008C18.6777 47.4008 18.6969 47.4008 18.714 47.4008C18.7888 47.42 18.8657 47.4371 18.9405 47.4521C19.0495 47.4756 19.1542 47.4991 19.2675 47.5205C19.338 47.5354 19.4085 47.5504 19.4812 47.5632L19.6949 47.6017C19.7675 47.6166 19.8381 47.6295 19.9086 47.6402C19.9791 47.6509 20.0518 47.6658 20.1223 47.6765C20.1928 47.6872 20.2719 47.7 20.336 47.7128C20.4001 47.7256 20.4642 47.7342 20.5283 47.7427C20.5924 47.7513 20.68 47.7641 20.7548 47.7727C20.8296 47.7812 20.9237 47.7962 21.0091 47.809C21.1886 47.8304 21.3703 47.8517 21.5519 47.871C21.6267 47.871 21.7015 47.8859 21.7656 47.8923C22.1631 47.9287 22.5606 47.9586 22.9581 47.9757C23.082 47.9757 23.206 47.9757 23.3299 47.9885C26.373 48.0832 29.406 47.5935 32.2647 46.5459C31.8373 46.4547 31.4099 46.3493 30.9825 46.2296C28.4865 45.535 26.0674 44.6438 23.4346 44.6074C21.7421 44.6203 20.0689 45.0541 18.3742 45.0199C15.9282 44.9574 13.5528 44.1868 11.5358 42.8015C11.008 42.436 10.4523 41.844 10.681 41.2413C10.8306 40.8352 11.2879 40.6001 11.4375 40.2005C11.5978 39.7581 11.3178 39.2558 10.9289 38.9951C10.54 38.7343 10.0613 38.6446 9.60394 38.5292C8.23724 38.1797 6.96223 37.5389 5.86632 36.6505C5.37695 36.253 4.94955 35.5819 4.40461 35.2913C3.95798 35.0476 3.25276 35.0412 2.76125 34.9942L2.82536 35.1459ZM17.6113 42.7416C17.8784 42.6369 18.1691 42.4467 18.1797 42.1603C18.1904 41.8739 17.9404 41.6816 17.7096 41.5341C16.4557 40.7492 14.9976 40.3529 13.5189 40.395C13.3636 40.3887 13.2091 40.4195 13.068 40.4847C12.4782 40.8053 13.9784 42.1111 14.3801 42.389C14.854 42.6956 15.3929 42.8871 15.9539 42.9484C16.5149 43.0096 17.0825 42.9388 17.6113 42.7416V42.7416ZM30.5786 12.1579C30.0444 11.7732 29.3563 11.6941 28.6981 11.6557C28.3091 11.6343 27.8625 11.6429 27.6061 11.9378C27.5132 12.0656 27.4515 12.2133 27.4259 12.3691C27.4003 12.525 27.4115 12.6847 27.4586 12.8354C27.608 13.4131 27.9737 13.9112 28.4801 14.2268C28.9853 14.5372 29.5668 14.7015 30.1598 14.7012C31.6194 14.7226 31.536 12.844 30.5786 12.1579ZM23.2594 4.44042C22.9305 4.42709 22.604 4.50081 22.3127 4.65414C22.1683 4.73121 22.0469 4.84519 21.961 4.98448C21.875 5.12378 21.8275 5.2834 21.8233 5.44704C21.8426 5.90441 22.27 6.22286 22.6546 6.47078C23.9048 7.27652 25.1699 8.08866 26.5718 8.57808C26.8707 8.70362 27.1952 8.75636 27.5185 8.73196C27.6796 8.71581 27.8323 8.65183 27.9568 8.54824C28.0813 8.44465 28.172 8.30619 28.2173 8.15064C28.2985 7.73602 27.9437 7.37055 27.5954 7.13118C26.8603 6.63107 26.4628 5.84885 25.7661 5.31881C25.0499 4.75829 24.1688 4.44956 23.2594 4.44042V4.44042ZM41.2102 17.3984C41.2316 18.1272 41.7402 18.7449 42.2787 19.2471C42.8173 19.7493 43.4028 20.226 43.6913 20.8949C44.1187 21.8631 43.8046 23.0492 44.3004 23.9811C44.8667 25.0497 46.1382 25.1373 46.9695 25.9388C47.2826 26.2546 47.5686 26.5964 47.8243 26.9604C47.8713 26.5799 47.9076 26.1952 47.9354 25.8105C47.2601 24.992 46.5741 24.2204 45.8497 23.4596C45.1854 22.7464 44.7759 21.8333 44.685 20.8629C44.5803 19.7536 45.0569 18.5867 44.2149 17.657C43.6678 17.05 42.8386 16.7658 42.0244 16.7038C41.8147 16.6664 41.5986 16.71 41.4197 16.8256C41.3454 16.9002 41.2883 16.9901 41.2525 17.089C41.2167 17.188 41.203 17.2936 41.2124 17.3984L41.2102 17.3984ZM4.45377 10.4353C6.06079 10.0292 7.65927 9.61463 9.30263 9.66806C10.1724 9.69585 11.1105 9.86683 11.867 9.43297C12.7111 8.94996 13.0296 7.88135 13.7647 7.2466C15.1901 6.01128 17.3185 6.55412 19.011 6.35108C19.3017 6.31689 19.6393 6.23781 19.7633 5.97065C19.8038 5.86516 19.814 5.75046 19.7929 5.63945C19.7718 5.52844 19.7201 5.42553 19.6436 5.34232C19.4881 5.17674 19.2995 5.04567 19.0901 4.95761C16.8548 3.86335 13.8245 2.78193 11.9547 5.13288C11.3306 5.91724 10.9567 6.98585 10.0442 7.40261C9.08679 7.83005 7.97127 7.35985 6.91987 7.41756C6.8985 7.41756 6.87499 7.41756 6.85149 7.41756C5.96929 8.32833 5.16041 9.3074 4.43239 10.3456L4.3576 10.4545C4.39179 10.4524 4.42171 10.4417 4.4559 10.4353L4.45377 10.4353ZM4.70807 13.7715C4.89981 13.7338 5.08304 13.6614 5.24873 13.5578C5.33039 13.5033 5.39744 13.4296 5.44401 13.3431C5.49058 13.2567 5.51525 13.1602 5.51586 13.062C5.48622 12.8694 5.38464 12.6953 5.23163 12.5747C4.74558 12.1307 4.11396 11.8799 3.45578 11.8694C3.01449 12.6113 2.61427 13.3769 2.25692 14.1627C3.09036 14.2353 4.15031 13.9126 4.7102 13.7715L4.70807 13.7715ZM2.071 33.543C2.92251 33.6006 3.75901 33.7963 4.54779 34.1222C5.27651 34.4578 5.90693 34.9771 6.5523 35.4516C8.70854 37.0438 11.164 38.2706 13.7882 38.8091C14.7263 39.0015 15.7115 39.1212 16.5065 39.664C16.8602 39.9351 17.193 40.2323 17.5023 40.5531C19.6607 42.5685 22.6995 43.261 25.5866 43.8765C27.1082 44.2013 28.629 44.5255 30.1491 44.8489C31.645 45.1674 33.1559 45.4901 34.671 45.5435C35.7208 45.026 36.7302 44.4301 37.6906 43.7611C36.1367 43.727 34.5867 43.5892 33.0512 43.3486C30.4526 42.9981 27.8305 42.1796 25.2789 41.5213C24.7532 41.3866 24.2104 41.237 23.8043 40.8801C23.1632 40.3202 23.0414 39.384 22.5734 38.6916C22.0798 37.95 21.2378 37.5012 20.3744 37.2938C19.5111 37.0865 18.6114 37.0801 17.7224 37.0801C16.3106 37.0545 14.9002 36.9789 13.4912 36.8536C12.7047 36.7852 11.9055 36.6954 11.1853 36.3684C10.2536 35.941 9.54197 35.1695 8.74914 34.5219C8.2175 34.0487 7.58097 33.7088 6.89208 33.5302C6.19756 33.3849 5.59279 33.5537 4.89399 33.3165C3.70795 32.9019 2.70997 32.0662 1.44059 31.9401C1.62223 32.4701 1.83379 33.0108 2.071 33.543ZM35.0706 33.8679C34.78 33.6392 34.5599 33.3293 34.2821 33.0856C33.9085 32.7612 33.4416 32.5636 32.9486 32.5214C32.7711 32.5001 32.5912 32.5169 32.4207 32.5706C31.9335 32.7416 31.6984 33.3143 31.6984 33.8315C31.6916 33.9598 31.7173 34.0877 31.7732 34.2034C31.9869 34.6031 32.5639 34.8852 32.8695 35.2421C33.1546 35.6126 33.5199 35.9136 33.938 36.1227C35.0065 36.6505 36.2097 36.8279 37.3786 36.8557C37.806 36.8664 38.3189 36.8044 38.4941 36.4283C38.5668 36.2384 38.5668 36.0283 38.4941 35.8384C38.0176 34.4599 36.0323 34.6287 35.0621 33.8679L35.0706 33.8679ZM16.5449 35.0562C16.6225 35.0393 16.6952 35.0052 16.7577 34.9564C16.8202 34.9075 16.871 34.8452 16.9061 34.774C16.9852 34.5325 16.7287 34.3231 16.5086 34.197L12.1491 31.6922C11.7329 31.4322 11.2902 31.2172 10.8284 31.051C10.3092 30.8843 9.68301 30.8629 9.27912 31.2305C9.10978 31.4099 8.99432 31.6333 8.94595 31.8751C8.89758 32.117 8.91824 32.3677 9.00558 32.5984C9.18613 33.0564 9.4803 33.4609 9.86038 33.7738C11.4738 35.2421 14.4656 35.8021 16.5364 35.0562L16.5449 35.0562ZM22.9068 35.5755C22.7779 35.6196 22.6634 35.6981 22.5756 35.8024C22.4879 35.9067 22.4303 36.0329 22.4089 36.1675C22.2828 36.7211 22.5435 37.3088 22.9431 37.7149C23.3644 38.0987 23.8478 38.408 24.3728 38.6296C24.4194 38.6587 24.474 38.6721 24.5288 38.6681C24.5782 38.6535 24.6207 38.6217 24.6485 38.5783C24.7303 38.4626 24.7797 38.3271 24.7918 38.1858C24.8038 38.0446 24.7779 37.9027 24.7168 37.7747C24.614 37.5311 24.5339 37.2786 24.4775 37.0203C24.4105 36.6519 24.2305 36.3136 23.9625 36.0521C23.7018 35.8042 23.2722 35.4836 22.8983 35.5755L22.9068 35.5755ZM1.13072 30.9612C2.05177 31.16 2.98991 31.2327 3.90882 31.4784C4.97733 31.7627 6.15054 32.0918 7.21264 31.611C7.95631 31.2754 8.48201 30.6022 8.9778 29.9546C9.03196 29.8953 9.06632 29.8206 9.0761 29.7409C9.07027 29.6932 9.05452 29.6473 9.02986 29.606C9.0052 29.5648 8.97218 29.5292 8.93292 29.5015C7.75757 28.4201 5.94112 28.5462 4.43239 28.0332C2.96 27.5331 1.69916 26.394 0.205398 26.0841C0.340142 27.7373 0.647403 29.3719 1.12217 30.9612L1.13072 30.9612ZM0.134876 23.342C0.17851 21.8974 0.352313 20.4596 0.65417 19.0462C3.4772 19.2545 6.30698 18.7442 8.8795 17.563C9.70866 17.1783 10.5079 16.7273 11.3648 16.4067C12.1822 16.1029 13.0383 15.9158 13.9079 15.851C15.517 15.7292 17.3933 16.1759 18.0985 17.6292C18.2759 17.9904 18.3635 18.3922 18.5388 18.7534C18.9918 19.6938 19.9535 20.2708 20.8895 20.7197C24.5725 22.4652 28.6847 23.098 32.7221 22.5406C33.7286 22.3995 34.7779 22.1879 35.7417 22.5085C36.761 22.8441 37.494 23.7353 38.4321 24.2183C39.5968 24.8253 39.6737 25.8554 40.208 26.9197C40.8491 28.217 41.8877 28.9864 43.1998 29.4844C44.4692 29.9589 45.7642 30.4975 46.8819 31.2882C46.6074 32.1564 46.2842 33.0083 45.9138 33.8401C45.5817 33.5801 45.2767 33.2872 45.0034 32.966C43.9477 31.8696 42.5758 31.3139 41.3427 30.4782C40.6754 30.0183 39.9762 29.6062 39.2506 29.245C37.8381 28.5569 36.2844 28.1294 34.7052 28.2726C33.6068 28.373 32.5383 28.7449 31.4334 28.7556C29.2216 28.777 27.2599 27.375 25.0994 26.8962C22.8406 26.3983 20.398 26.9198 18.2353 26.1033C16.7095 25.5284 15.4743 24.3401 13.9463 23.7738C11.3563 22.8141 8.46065 23.7951 5.71673 23.4831C4.57557 23.3549 3.45364 23.0001 2.29752 23.0556C1.57949 23.1027 0.857185 23.2907 0.12633 23.342L0.134876 23.342ZM15.5833 19.1659C15.3568 18.856 14.9593 18.7385 14.5832 18.6508C13.4881 18.4272 12.3592 18.4266 11.2639 18.6491C10.1686 18.8716 9.12946 19.3127 8.20848 19.946C7.91998 20.1447 7.61439 20.4247 7.64431 20.7752C7.68278 21.2411 8.25122 21.4356 8.71281 21.5168C10.6831 21.8716 12.6527 22.2278 14.6216 22.5854C15.329 22.7137 16.7971 22.8526 16.4744 21.7477C16.3505 21.3202 16.0128 20.9761 15.8974 20.5273C15.782 20.0785 15.8611 19.5591 15.5747 19.1659L15.5833 19.1659ZM33.3909 24.4384C32.8564 24.4252 32.3252 24.5265 31.8331 24.7355C31.5892 24.8439 31.3783 25.0148 31.2218 25.231C31.0653 25.4472 30.9687 25.701 30.9419 25.9666C30.9356 26.0722 30.9523 26.178 30.9911 26.2764C31.0576 26.4243 31.171 26.546 31.3138 26.6227C31.6916 26.8128 32.1242 26.8642 32.5361 26.768C32.9486 26.6975 33.3503 26.5543 33.7671 26.5201C34.8356 26.4154 35.8699 26.9347 36.9405 26.9219C38.1265 26.9069 36.9405 25.4899 36.5302 25.2121C35.5814 24.5624 34.5043 24.4042 33.3824 24.4384L33.3909 24.4384ZM2.95572 24.4769C3.16942 24.1285 3.68872 24.1884 4.0862 24.2952C5.44106 24.6564 6.80447 25.0433 8.20634 25.1715C9.52701 25.2912 10.7708 24.7868 12.053 24.9578C13.3766 25.1727 14.6275 25.7083 15.6965 26.5179C16.5813 27.1591 17.5472 27.8259 18.3742 28.5462C18.5475 28.7106 18.7357 28.8587 18.9362 28.9886C19.4363 29.2793 20.0496 29.2664 20.6288 29.245C20.8443 29.2585 21.0589 29.2064 21.2442 29.0955C21.3739 28.9674 21.4873 28.8238 21.5819 28.668C21.7328 28.5042 21.9208 28.3791 22.1302 28.3032C22.3396 28.2273 22.5642 28.2029 22.785 28.232C23.2281 28.2997 23.6574 28.4382 24.0565 28.6424C25.2575 29.1831 26.45 29.7558 27.6659 30.2645C28.5207 30.6257 29.6533 30.739 30.3863 31.3566C30.8308 31.7306 30.9548 32.7181 30.2431 32.9467C30.0778 32.9842 29.9062 32.9842 29.7409 32.9467C28.8716 32.8318 27.9873 32.9226 27.1594 33.2118C27.0706 33.2348 26.9885 33.2788 26.9201 33.34C26.7192 33.5387 26.8538 33.8871 27.0376 34.103C28.0249 35.2635 29.8157 35.2336 31.1514 35.973C31.6621 36.2551 32.1002 36.6505 32.5874 36.9733C33.8141 37.7897 35.2993 38.1274 36.7653 38.2556C37.6201 38.3304 38.539 38.3347 39.3169 37.95C40.0947 37.5653 40.691 36.6911 40.4965 35.8469C40.2443 34.7505 39.1053 34.4449 38.2099 34.073C37.0345 33.5815 35.9169 32.6368 34.8911 31.8738C34.7678 31.7981 34.6673 31.6902 34.6005 31.5618C34.4573 31.2134 34.8356 30.8736 35.186 30.739C36.9191 30.0743 39.3617 30.9527 40.9666 31.6858C42.6535 32.4545 44.0965 33.6722 45.1381 35.2058L45.2064 35.3126C43.8542 37.8539 42.0553 40.1308 39.896 42.0342C37.4874 42.2158 35.0655 42.0923 32.6879 41.6666C31.1461 41.4012 29.6538 40.9024 28.2621 40.1876C27.2342 39.6512 26.2405 38.9181 25.7918 37.8495C25.5353 37.249 25.4691 36.5672 25.1336 36.0072C24.4925 34.9386 23.1333 34.6138 21.9281 34.353C17.9126 33.4981 13.6664 32.0406 11.3563 28.6445C10.5464 27.4541 9.7514 27.5545 8.40722 27.3793C7.06051 27.2368 5.74209 26.897 4.49436 26.3705C3.94729 26.1226 3.40449 25.8041 3.06898 25.3019C2.89589 25.0668 2.78903 24.7312 2.94717 24.4769L2.95572 24.4769ZM30.3243 37.4328C29.6757 37.192 29.0029 37.0222 28.3177 36.9263C28.0121 36.8707 27.621 36.8579 27.4779 37.14C27.3689 37.3537 27.4779 37.6016 27.6103 37.7961C28.3754 38.9331 29.788 39.4353 31.13 39.7196C31.5104 39.8008 31.9228 39.8649 32.2733 39.6961C32.3232 39.6766 32.3647 39.6403 32.3908 39.5935C32.4827 39.3798 31.8074 38.5505 31.6471 38.3646C31.2832 37.9531 30.827 37.6338 30.3158 37.4328L30.3243 37.4328ZM1.14568 17.1291C1.32091 16.5478 1.51752 15.9793 1.73336 15.4193C1.87867 15.4322 2.02399 15.445 2.16076 15.4557C3.36816 15.5433 4.74226 15.477 5.55005 14.5751C6.30655 13.7309 6.33646 12.3781 7.18272 11.6258C7.88366 11.0038 8.91369 10.9846 9.8497 10.9846C11.2644 10.9611 12.865 10.7709 13.7177 9.64242C14.1258 9.10384 14.316 8.39428 14.8375 7.9647C15.9872 7.01791 17.8293 7.32353 19.1756 7.53726C21.0818 7.86211 22.7294 8.63791 24.4647 9.43937C25.3195 9.82834 26.5269 10.4439 25.9798 11.5873C25.6486 12.2819 24.6164 12.517 24.469 13.2714C24.4455 13.4544 24.4663 13.6403 24.5295 13.8136C24.5927 13.9869 24.6965 14.1425 24.8322 14.2674C25.811 15.2526 27.5548 15.6373 28.7558 16.287C29.446 16.6611 30.4504 16.8855 31.1065 16.287C31.4377 15.9793 31.5702 15.5048 31.8822 15.1757C32.737 14.2802 34.3569 14.838 35.3591 15.1223C37.5902 15.7634 40.0862 16.956 41.0393 19.2172C41.2744 19.7729 41.4154 20.3905 41.8257 20.8308C42.236 21.2711 42.8579 21.472 43.1229 22.0063C43.4285 22.6175 43.1058 23.342 43.1229 24.0259C43.1229 24.8103 43.5845 25.537 44.1764 26.0478C44.7684 26.5586 45.5014 26.7659 46.0206 27.3023C46.4694 27.7661 46.8754 28.3132 47.3157 28.7984C47.3712 28.8604 47.4353 28.9309 47.5101 29.0121C47.3819 29.6191 47.2316 30.2168 47.0592 30.8052C46.9994 31.019 45.9288 29.8691 45.8326 29.7665C45.4378 29.3982 44.9915 29.0893 44.5076 28.8497C43.6122 28.341 42.5544 27.873 42.1163 26.8685C41.8343 26.2273 41.877 25.4835 41.6718 24.8103C41.3214 23.669 39.9345 23.7417 39.4194 22.765C39.2057 22.3824 39.2549 21.925 39.2057 21.4955C38.992 19.9118 36.8721 19.2343 35.5728 18.9479C35.3912 18.9073 35.1454 18.903 35.077 19.074C35.0087 19.245 35.1262 19.3711 35.1839 19.5185C35.3335 19.8925 35.1134 20.3328 34.7821 20.5615C34.433 20.7639 34.0399 20.8783 33.6367 20.8949C29.6084 21.3224 25.5161 20.4675 21.7721 18.9158C21.2366 18.7317 20.7464 18.4359 20.3338 18.0481C19.9492 17.6378 19.7398 17.0094 19.9706 16.4944C20.2014 15.9793 20.7271 15.7399 20.992 15.2783C21.3682 14.6371 21.0882 13.7587 20.539 13.2501C19.9898 12.7414 19.2376 12.5191 18.5046 12.3567C17.8079 12.2028 17.0941 11.8587 16.4146 11.7326C15.735 11.6065 14.8225 12.0468 14.2049 12.3503C13.1236 12.8824 12.0679 13.5557 10.8605 13.6326C9.6189 13.7181 8.24908 13.1816 7.19554 13.8463C6.39203 14.3528 6.10353 15.3766 5.48594 16.0883C4.7679 16.909 3.63102 17.2616 2.54114 17.2702C2.06999 17.2666 1.60011 17.2208 1.13713 17.1334L1.14568 17.1291ZM24.1463 18.6487C24.7211 18.7053 25.3006 18.6945 25.873 18.6166C26.1047 18.6041 26.3319 18.5468 26.5418 18.4478C26.6454 18.3961 26.7331 18.3174 26.7956 18.2199C26.858 18.1225 26.8929 18.0099 26.8966 17.8942C26.8816 17.5886 26.5889 17.3835 26.3196 17.2381C25.277 16.6785 24.1337 16.3312 22.956 16.2165C22.7129 16.1726 22.4623 16.2016 22.2358 16.2999C22.0093 16.4238 21.6737 16.8556 21.6695 17.127C21.6695 17.4476 22.0199 17.6869 22.255 17.8729C22.805 18.2906 23.4535 18.5593 24.1377 18.653L24.1463 18.6487Z" fill="url(#paint1_radial_2_3992)"/>
<path style="mix-blend-mode:screen" d="M15.4643 36.5357C24.0052 37.8228 31.9724 31.9425 33.2595 23.4015C34.5466 14.8606 28.6663 6.89341 20.1254 5.6063C11.5844 4.31918 3.61723 10.1995 2.33011 18.7405C1.04299 27.2814 6.92337 35.2486 15.4643 36.5357Z" fill="url(#paint2_linear_2_3992)"/>
<path d="M9.04238 42.568C7.78164 41.5617 6.62835 40.4279 5.60086 39.1847C4.56812 37.9416 3.66429 36.5969 2.90323 35.1714L2.89254 35.1244C2.90323 35.1928 2.89254 35.1522 2.89254 35.1565L2.89254 35.1436L2.87758 35.1159L2.84979 35.0625L2.79207 34.9514L2.67878 34.7378C2.60611 34.5905 2.53129 34.4431 2.46502 34.2936C2.32181 33.9945 2.18714 33.6934 2.05675 33.3901C1.7981 32.7814 1.55441 32.1641 1.35562 31.534C0.932153 30.2817 0.616776 28.9955 0.412942 27.6894C0.00280832 25.0686 0.0324282 22.3978 0.500584 19.7867C0.966545 17.1696 1.86521 14.6483 3.15974 12.326C3.80165 11.1547 4.54101 10.0394 5.37 8.99192C6.20399 7.95904 7.11969 6.9948 8.10825 6.10848C10.0899 4.33606 12.3513 2.90348 14.801 1.86876C17.2454 0.834222 19.8471 0.219696 22.4963 0.0511209C23.8184 -0.0350854 25.1454 -0.0122367 26.4637 0.119458C27.7811 0.244934 29.0849 0.485061 30.3605 0.837111C32.9139 1.53206 35.3323 2.65046 37.515 4.14562C36.4082 3.43224 35.2476 2.80596 34.0436 2.27244C32.8402 1.74256 31.5946 1.31389 30.3199 0.990914C27.7756 0.346661 25.1435 0.119432 22.5263 0.318106C19.9095 0.519508 17.3433 1.14719 14.9293 2.17631C12.5179 3.20642 10.2934 4.62741 8.34553 6.38188C6.40112 8.13761 4.75384 10.1961 3.46755 12.4777C2.18089 14.7606 1.2857 17.2426 0.819085 19.8208C0.583697 21.108 0.455716 22.4126 0.436459 23.721C0.410749 25.0297 0.492246 26.3384 0.68014 27.6339C0.867168 28.9306 1.16466 30.2089 1.56938 31.455C1.75962 32.0829 1.99689 32.6959 2.24271 33.3004C2.36883 33.6037 2.49923 33.9049 2.63817 34.2017C2.70657 34.3491 2.77711 34.4986 2.85193 34.6439L2.96095 34.8574L3.01866 34.9664L3.04645 35.0219L3.06141 35.0497L3.06141 35.0625C3.06141 35.0753 3.06141 35.0454 3.07851 35.1223L3.07851 35.0753C3.81084 36.5045 4.68448 37.8568 5.68637 39.1121C6.69 40.3703 7.81399 41.5277 9.04238 42.568V42.568Z" fill="#C9A7C3"/>
<defs>
<radialGradient id="paint0_radial_2_3992" cx="0" cy="0" r="1" gradientUnits="userSpaceOnUse" gradientTransform="translate(14.4395 20.9511) rotate(165.784) scale(37.5529 37.5426)">
<stop stop-color="#B80096"/>
<stop offset="0.68" stop-color="#510093"/>
<stop offset="0.76" stop-color="#5A0096"/>
<stop offset="0.89" stop-color="#71009D"/>
<stop offset="1" stop-color="#8A00A4"/>
</radialGradient>
<radialGradient id="paint1_radial_2_3992" cx="0" cy="0" r="1" gradientUnits="userSpaceOnUse" gradientTransform="translate(13.5295 18.9906) rotate(165.779) scale(38.4257 38.4292)">
<stop stop-color="#EAA143"/>
<stop offset="0.1" stop-color="#4DE2D9"/>
<stop offset="0.31" stop-color="#66CDC7"/>
<stop offset="0.59" stop-color="#AB238E"/>
<stop offset="0.73" stop-color="#9900A3"/>
<stop offset="0.77" stop-color="#9D06A0"/>
<stop offset="0.84" stop-color="#A91699"/>
<stop offset="0.91" stop-color="#4532BC"/>
<stop offset="0.98" stop-color="#D6577B"/>
<stop offset="1" stop-color="#DD6177"/>
</radialGradient>
<linearGradient id="paint2_linear_2_3992" x1="3.93445" y1="10.0567" x2="23.801" y2="30.2713" gradientUnits="userSpaceOnUse">
<stop stop-color="#0A6673"/>
<stop offset="1"/>
</linearGradient>
</defs>
</svg>
