<svg width="80" height="83" viewBox="0 0 80 83" fill="none" xmlns="http://www.w3.org/2000/svg">
<path d="M1.66531 20.9053C-0.319511 28.5634 -0.269943 36.7094 0.474365 44.5329C1.30137 53.5887 5.13874 62.785 12.5157 68.1109C17.7258 71.8738 24.0937 73.2467 29.6925 76.2239C35.4816 79.2921 41.097 80.3589 47.7379 80.5409C54.9577 80.789 61.2347 79.1184 66.5193 74.0985C69.695 71.0716 72.9452 67.9621 74.8473 64.009C82.0505 49.1228 74.3015 28.5717 64.9232 16.1748C61.7122 11.9348 57.7205 8.34739 53.163 5.60562C42.9826 -0.522511 28.8325 -1.83746 17.7754 2.71109C10.1752 5.86199 4.02228 11.8082 1.66531 20.9053Z" fill="#FFF5D4"/>
<path d="M20.1152 4.57209C31.1723 0.015276 45.3225 1.33021 55.503 7.45834C60.0605 10.2001 64.052 13.7875 67.263 18.0275C76.6165 30.4327 84.3655 50.9425 77.1871 65.87C75.285 69.8148 72.0349 72.9326 68.8592 75.9512C63.5746 80.9711 57.281 82.6417 50.0777 82.4019C43.4617 82.1786 37.8133 81.1531 32.0325 78.0849C26.4253 75.1077 20.0656 73.7348 14.8555 69.9719C7.47857 64.6377 3.67428 55.4497 2.81419 46.3939C2.06988 38.5621 1.98724 30.4161 4.00514 22.758C6.3373 13.6692 12.4902 7.69819 20.1152 4.57209Z" fill="url(#paint0_radial_2_1904)"/>
<g style="mix-blend-mode:screen">
<path d="M37.3836 29.035C36.8084 26.2073 36.0234 23.4264 35.035 20.7153C34.0508 18.0689 32.5539 15.7533 31.3795 13.2723C29.9984 10.2868 25.8221 6.78022 22.3321 6.83811C20.2563 6.83811 18.7181 8.09519 17.031 9.0876C14.9806 10.2034 13.0421 11.5133 11.2419 12.9993C7.0407 16.6713 5.13032 22.7415 4.12137 28.0757C3.36052 32.1198 3.84846 35.924 4.43564 39.9516C5.35861 47.2344 7.40052 54.331 10.4893 60.9906C11.165 62.5397 12.0228 64.0028 13.0447 65.349C15.2528 68.0864 18.4782 69.6991 21.687 70.9644C23.0022 71.6363 24.5044 71.8488 25.9544 71.5681C27.7781 71.3062 29.5038 70.58 30.966 69.4592C31.7634 68.6648 32.2777 67.6304 32.4299 66.5151C33.1907 62.7853 32.5539 58.8404 33.5629 55.1685C34.2906 52.5469 35.8123 50.2064 36.8295 47.7254C39.1947 41.8288 38.6738 35.2128 37.3836 29.035Z" fill="#482702"/>
</g>
<g style="mix-blend-mode:multiply">
<path d="M62.3594 16.2409C59.2999 13.0926 55.798 10.407 51.9639 8.26857C49.9905 7.19174 47.9086 6.32684 45.7531 5.68831C44.6521 5.35791 43.5305 5.10098 42.3955 4.9192C41.3369 4.74553 40.0716 4.91921 39.0874 4.46436C41.2159 5.43646 43.2182 6.66392 45.0501 8.11972C46.6049 9.29407 48.2754 10.0549 49.6483 11.4278C52.9972 14.8284 55.8809 18.6577 58.2243 22.8157C60.7798 27.3229 62.715 32.318 62.7812 37.4951C62.8359 41.26 61.8853 44.9713 60.0273 48.2462C57.877 52.0173 54.6682 54.0849 51.3354 56.6982C48.7469 58.7327 47.7545 60.9408 47.3327 64.1413C47.1177 65.7292 46.8751 67.3115 46.6049 68.8883C46.3734 70.2281 46.3651 72.1964 45.596 73.3376C44.248 75.3638 40.7001 75.9923 38.525 76.4472C36.9313 76.7077 35.3104 76.7577 33.7036 76.5961C34.481 76.5961 36.2921 78.5478 37.177 78.9282C39.0709 79.7552 41.312 79.7552 43.3547 79.9785C45.9846 80.2845 48.6476 80.6401 51.294 80.8055C53.1397 80.9743 55.0007 80.8374 56.8019 80.4003C58.3751 79.9196 59.8567 79.1788 61.1851 78.2087C65.4227 75.2129 68.6775 71.0285 70.5385 66.184C71.3655 63.9759 72.3662 61.1475 72.2505 58.7409C72.1926 57.4425 71.8452 56.3509 72.0354 55.0028C72.2908 53.6339 72.6249 52.2809 73.0361 50.9505C74.2436 46.4191 74.4664 41.6815 73.6895 37.0568C72.3414 29.134 68.0905 21.9887 62.3594 16.2409Z" fill="#F2CFF1"/>
</g>
<path d="M46.2244 52.3066C49.6068 53.8283 52.8404 54.1178 54.8087 51.3969C57.3046 47.8366 58.9409 43.746 59.5888 39.4466C60.2091 34.4846 58.5303 29.5721 56.2808 25.1394C55.1806 22.7271 53.6055 20.5614 51.6496 18.7714C45.6703 13.7597 36.904 17.5888 32.8186 23.0801C29.8992 27.0084 28.2453 32.7561 29.982 37.4866C31.2969 41.0676 34.2659 42.8953 36.9123 45.368C39.7572 48.0144 42.6351 50.6939 46.2244 52.3066Z" fill="#AA044A"/>
<path d="M39.865 65.2167C40.692 66.9948 41.1964 69.2277 40.0221 70.7907C39.5427 71.3304 38.9439 71.7504 38.2734 72.0175C37.6028 72.2846 36.8791 72.3912 36.16 72.3289C33.2159 72.2793 31.6445 70.7245 29.2958 69.2607C26.2745 67.3752 23.2421 65.4924 20.1987 63.6123C19.0209 62.9283 17.9129 62.1306 16.8907 61.2305C16.3391 60.7854 15.8907 60.2257 15.5766 59.5903C15.2624 58.9549 15.0901 58.2589 15.0713 57.5503C15.1822 56.7747 15.5049 56.0447 16.0039 55.4406C16.5029 54.8365 17.1588 54.3818 17.8996 54.1265C22.994 52.0755 28.568 53.498 32.9264 56.6075C35.9683 58.8043 38.3646 61.7776 39.865 65.2167Z" fill="#AA044A"/>
<path d="M63.765 71.3199C65.3832 69.4914 66.2953 67.1452 66.337 64.7038C66.337 63.0498 65.7498 60.883 63.856 60.6432C62.8947 60.6367 61.9604 60.9608 61.2096 61.5611C58.3068 63.4467 52.6003 67.251 51.8147 70.9394C51.696 71.7584 51.8099 72.5943 52.1433 73.3517C52.4767 74.1091 53.0162 74.7577 53.7003 75.2233C56.1813 77.0593 62.0448 73.2551 63.765 71.3199Z" fill="#AA044A"/>
<path d="M8.43836 31.036C8.88709 30.6748 9.22755 30.197 9.42245 29.6549L14.5665 17.3904C14.9469 16.4889 15.3274 15.5875 15.6995 14.6861C15.8856 14.3605 15.9556 13.9815 15.898 13.611C15.7887 13.3408 15.5816 13.1217 15.3179 12.9976C15.0542 12.8734 14.7535 12.8532 14.4756 12.9411C13.9217 13.1348 13.4361 13.4854 13.0779 13.9501C9.27363 18.0851 5.63485 25.462 7.66102 31.2014C7.79501 31.2289 7.93318 31.2284 8.06696 31.1999C8.20073 31.1715 8.32718 31.1157 8.43836 31.036V31.036Z" fill="#AA044A"/>
<path d="M73.772 38.9092C73.772 39.2482 73.59 39.6452 73.2675 39.7362C73.1507 39.7371 73.035 39.7132 72.9281 39.6662C72.8212 39.6191 72.7255 39.5499 72.6472 39.4632C71.9892 38.762 71.46 37.9501 71.0842 37.0649C70.1993 35.2786 69.2978 33.4178 69.3061 31.4247C69.2903 31.3022 69.3022 31.1777 69.3408 31.0603C69.3795 30.9429 69.4439 30.8358 69.5294 30.7466C69.8437 30.4902 70.3151 30.7466 70.6128 31.0526C72.548 32.9216 74.1359 36.1469 73.772 38.9092Z" fill="#AA044A"/>
<defs>
<radialGradient id="paint0_radial_2_1904" cx="0" cy="0" r="1" gradientUnits="userSpaceOnUse" gradientTransform="translate(10.4081 36.4408) rotate(-114.75) scale(77.2509)">
<stop stop-color="#FFA23F"/>
<stop offset="0.11" stop-color="#F99240"/>
<stop offset="0.32" stop-color="#E86841"/>
<stop offset="0.62" stop-color="#CE2444"/>
<stop offset="0.73" stop-color="#C30945"/>
<stop offset="0.77" stop-color="#C60F43"/>
<stop offset="0.84" stop-color="#D01F3C"/>
<stop offset="0.91" stop-color="#E13B30"/>
<stop offset="0.98" stop-color="#F76020"/>
<stop offset="1" stop-color="#FD6A1C"/>
</radialGradient>
</defs>
</svg>
