<svg width="48" height="48" viewBox="0 0 48 48" fill="none" xmlns="http://www.w3.org/2000/svg">
<path d="M10.4378 4.18397L10.4165 4.19913C9.22477 5.0189 8.10904 5.9441 7.08279 6.96356C6.61001 7.43036 6.16045 7.91433 5.73414 8.41549C5.34015 8.87623 4.96436 9.35212 4.60977 9.83711C4.34104 10.211 4.08141 10.5899 3.83088 10.9738C3.36171 11.7015 2.93273 12.4544 2.54587 13.229C2.29736 13.7291 2.06398 14.2354 1.85183 14.7446L1.80032 14.8658C0.789501 17.3334 0.1945 19.9514 0.0394902 22.6135C-0.213576 27.0212 0.753347 31.4133 2.83396 35.307C4.91457 39.2008 8.0283 42.4453 11.8329 44.6841C15.6374 46.9228 19.9855 48.0691 24.3991 47.9968C28.8127 47.9245 33.1209 46.6365 36.8502 44.2744C37.0896 44.1228 37.326 43.9712 37.5624 43.8045C37.8654 43.6075 38.1321 43.4074 38.4079 43.1983C38.6837 42.9891 39.0141 42.7254 39.3171 42.4829C39.8566 42.0373 40.3688 41.5736 40.8598 41.0946C41.3022 40.6581 41.7255 40.2075 42.1296 39.7427C42.2448 39.6094 42.3569 39.479 42.4691 39.3426C43.0528 38.6416 43.5962 37.9078 44.0965 37.145C44.3935 36.6883 44.6754 36.2235 44.9421 35.7507C46.3473 33.233 47.2896 30.4836 47.7242 27.6332C48.0414 25.5451 48.0852 23.4247 47.8546 21.3253C47.4174 17.4217 46.0269 13.6857 43.8056 10.4464C43.7359 10.3433 43.6631 10.2403 43.5904 10.1433C43.3631 9.8159 43.1237 9.49763 42.8752 9.18239C42.8297 9.12479 42.7842 9.06416 42.7358 9.00657C42.6236 8.86411 42.5084 8.72165 42.3903 8.58222L42.2236 8.38518L42.0751 8.2124L41.9478 8.06691L41.7932 7.89717L41.6477 7.73651L41.4992 7.57586C41.4507 7.52433 41.4023 7.46977 41.3507 7.41824L41.2022 7.26364L40.9658 7.02419L40.8022 6.86049L40.7597 6.8211L40.6112 6.67559C40.484 6.55435 40.3567 6.43006 40.2233 6.31185L39.99 6.09968L39.7627 5.89961C39.4414 5.61771 39.1111 5.34491 38.7747 5.08423C38.608 4.95085 38.4382 4.82356 38.2685 4.69928L37.9806 4.48709L37.7563 4.3325L37.4957 4.15064L37.232 3.97482L36.9653 3.80204C36.7895 3.68686 36.6107 3.57471 36.4289 3.46862L36.1561 3.30492L35.8834 3.1473L35.6045 2.99272C35.4197 2.88966 35.2348 2.78963 35.0469 2.6896C34.862 2.59261 34.6741 2.49863 34.4862 2.41072L34.2559 2.29857L33.9922 2.17733L33.7861 2.08337L33.4588 1.94089L33.1921 1.82874L32.8891 1.70447L32.5193 1.562L32.2405 1.45895L31.9677 1.36195L31.6919 1.26495L31.5525 1.21947L31.404 1.17098C28.3224 0.173742 25.0714 -0.192227 21.8453 0.0949158H21.6755C21.1421 0.146446 20.6087 0.216164 20.0784 0.304068C19.548 0.391972 18.9358 0.513205 18.3691 0.649608C18.0417 0.728419 17.7144 0.816334 17.3932 0.90727C15.7906 1.36762 14.2405 1.99444 12.7684 2.7775C11.9658 3.20242 11.1878 3.67198 10.4378 4.18397V4.18397Z" fill="url(#paint0_radial_2_3734)"/>
<g style="mix-blend-mode:screen">
<path d="M2.45295 29.2542C3.74783 30.2448 5.20758 31.199 5.81605 32.7227C6.14877 33.5557 6.19074 34.4978 6.61037 35.2915C7.14091 36.2851 8.20199 36.894 9.28706 37.1636C10.3721 37.4332 11.5021 37.421 12.6172 37.4665C14.5242 37.5148 16.4093 37.8897 18.1923 38.5752C19.0916 38.9508 20.4674 39.484 21.0009 40.3927C21.1778 40.6956 21.2497 41.044 21.4176 41.3469C21.5464 41.5771 21.7173 41.771 21.6903 42.0558C21.6484 42.4375 21.1688 42.6101 20.7911 42.5404C20.1527 42.4193 19.5652 42.2012 18.9087 42.0952C18.5011 42.0255 17.9795 42.0952 17.9675 42.595C17.9495 43.2402 18.8428 43.4129 19.2654 43.6067C20.5843 44.2126 21.6004 44.7245 23.0961 44.8184C24.5379 44.9032 26.0066 44.7942 27.4124 45.1365C28.1168 45.3122 28.8002 45.6 29.5105 45.6727C30.9043 45.8181 31.33 44.7942 32.454 44.2913C33.578 43.7885 34.8519 44.052 36.0839 44.2156C36.3596 44.252 36.6474 44.2792 36.9321 44.2913C33.5993 46.4186 29.7951 47.674 25.8623 47.9446C21.9296 48.2151 17.9921 47.4922 14.4048 45.8411C10.8175 44.1899 7.69327 41.6624 5.31374 38.4865C2.9342 35.3106 1.3742 31.586 0.774414 27.6487C1.26578 28.2523 1.82963 28.7916 2.45295 29.2542V29.2542ZM16.0432 42.8222C15.9578 42.561 15.8119 42.3242 15.6176 42.1315C14.6022 41.011 13.2292 40.2872 11.7389 40.0868C11.3732 40.0383 10.8967 40.0868 10.7858 40.4442C10.7467 40.6368 10.7787 40.8372 10.8757 41.0076C11.1591 41.6095 11.5593 42.1475 12.0526 42.5899C12.5459 43.0322 13.1222 43.3698 13.7472 43.5825C14.3856 43.8067 16.3969 44.1581 16.0432 42.8222V42.8222ZM24.7357 43.328C24.8323 43.3226 24.9233 43.2804 24.9905 43.2099C25.0894 43.0766 24.9905 42.8858 24.8975 42.7555C24.4503 42.1657 23.8337 41.7298 23.1321 41.5075C22.4097 41.2803 22.5026 42.3102 22.8323 42.6616C23.0734 42.9136 23.3695 43.105 23.6968 43.2208C24.0242 43.3365 24.3738 43.3732 24.7177 43.328H24.7357ZM21.9811 0.146363C22.2808 0.534104 22.6645 1.1248 23.1081 1.35806C23.6476 1.66098 24.433 1.66096 25.0234 1.85484C26.3532 2.29718 27.5722 3.02582 28.5963 3.99046C28.9096 4.3405 29.2808 4.63265 29.6934 4.85378C29.9016 4.96072 30.1386 4.99667 30.3687 4.95627C30.5989 4.91586 30.8099 4.80127 30.9703 4.62962C31.2311 4.28429 31.1741 3.77538 31.4349 3.41793C31.8185 2.90599 32.6099 3.05442 33.1974 3.29978C35.4356 4.25184 37.3525 5.83973 38.7156 7.8709C39.6508 9.27949 40.1873 10.9274 41.0835 12.3632C42.5163 14.5534 44.5635 16.1195 46.4789 17.8492C46.8046 18.144 47.1203 18.447 47.4261 18.758C46.7632 15.7787 45.5423 12.9551 43.8292 10.4397C43.7602 10.3367 43.6883 10.2337 43.6163 10.1368C43.3915 9.8096 43.1547 9.49154 42.909 9.1765C42.864 9.11894 42.819 9.05835 42.7711 9.0008C42.6602 8.85843 42.5463 8.71604 42.4294 8.5767L42.2645 8.37981L42.1176 8.20714L41.9918 8.06175L41.8389 7.89211L41.695 7.73155L41.5481 7.57099C41.5002 7.5195 41.4522 7.46498 41.4013 7.41349L41.2544 7.25899L41.0206 7.01969L40.8587 6.8561L40.8168 6.81672L40.6699 6.67132C40.544 6.55015 40.4181 6.42595 40.2862 6.30781L40.0554 6.09576L39.8306 5.89584C39.5129 5.61412 39.1862 5.34149 38.8535 5.08097C38.6886 4.95072 38.5208 4.82348 38.3529 4.69626L38.0681 4.48422L37.8463 4.32973L37.5886 4.14797L37.3278 3.97228L37.064 3.79961C36.8902 3.6845 36.7103 3.57544 36.5335 3.46639L36.2637 3.30282L35.9939 3.14529L35.7182 2.9908C35.5353 2.8878 35.3525 2.78784 35.1667 2.68787L34.6121 2.40919L34.3843 2.29711L34.1236 2.17593L33.9197 2.08203L33.596 1.93966L33.3322 1.82758L33.0325 1.70337L32.6668 1.56101L32.3911 1.45801L32.1213 1.36107L31.8485 1.26415L31.7107 1.2187L31.5638 1.17024C28.516 0.173646 25.3007 -0.192106 22.11 0.0948525L21.9811 0.146363ZM34.3544 5.93825C33.9048 5.75044 32.0134 5.19003 32.0613 5.86252C32.0829 6.01585 32.1393 6.16204 32.2262 6.28963C32.9837 7.55998 34.0966 8.57508 35.4244 9.20678C35.5376 9.28264 35.6682 9.32777 35.8036 9.33785C35.9391 9.34793 36.0748 9.32262 36.1978 9.26434C36.4316 9.10076 36.4346 8.75543 36.3776 8.47068C36.2587 7.91725 36.0129 7.39976 35.6599 6.9599C35.3069 6.52003 34.8566 6.1701 34.3454 5.93825H34.3544ZM19.706 34.2343C19.3889 33.7329 18.9393 33.331 18.4082 33.0741C17.8745 32.8182 17.264 32.7792 16.7026 32.965C16.5519 33.0065 16.4127 33.0828 16.2962 33.1879C16.1797 33.2931 16.089 33.4242 16.0312 33.5709C15.9233 33.9465 16.1541 34.3282 16.3819 34.6432C16.7656 35.1764 17.2002 35.7156 17.8087 35.9579C18.8877 36.4002 20.4973 35.4551 19.697 34.2343H19.706ZM9.51486 35.6096C10.3391 35.9125 11.1934 35.8246 12.0057 36.173C12.3924 36.3396 12.8899 36.4396 13.1897 36.1457C13.2965 36.0231 13.3642 35.8708 13.384 35.7087C13.4038 35.5465 13.3747 35.3821 13.3006 35.237C13.1488 34.9504 12.9308 34.7052 12.6651 34.5221C11.5051 33.6133 10.1503 32.9772 8.81046 32.3592C8.39682 32.1684 7.91125 31.9805 7.5096 32.2138C7.37391 32.304 7.26491 32.4296 7.19419 32.5773C7.12348 32.7251 7.09367 32.8894 7.10794 33.0529C7.1417 33.3797 7.25723 33.6925 7.44364 33.9617C7.93321 34.7263 8.65936 35.3057 9.50886 35.6096H9.51486ZM27.4993 42.5768C27.5001 42.7904 27.5804 42.9958 27.7241 43.1523C28.1891 43.8321 28.8917 44.3084 29.6904 44.4852C30.9253 44.6851 31.6417 43.6522 32.6219 43.1402C33.4805 42.6924 34.4614 42.5434 35.4124 42.7161C36.4435 42.913 37.4537 43.0736 38.4998 43.2008C38.7995 42.9676 39.0992 42.7283 39.399 42.4859C38.9573 42.4627 38.5182 42.4029 38.0861 42.3072C36.9711 42.0406 36.2128 41.0167 35.0228 41.1167C33.9797 41.2046 33.1524 42.1042 32.1213 42.2739C31.4079 42.392 30.6915 42.1497 29.9901 41.971C29.2888 41.7922 28.4914 41.7044 27.892 42.08C27.7901 42.1269 27.7006 42.1974 27.6308 42.2858C27.561 42.3742 27.5128 42.4781 27.4903 42.5889L27.4993 42.5768ZM2.33607 14.7745L2.2851 14.8957C1.80625 16.0742 1.42234 17.2898 1.13711 18.5308L1.17007 18.5944C1.68563 19.5031 2.66877 20.1908 2.83063 21.2359C2.97151 22.2295 2.28212 23.1261 1.96139 24.0743C0.999226 26.9248 3.52603 28.8938 5.6392 30.1872C5.81962 30.314 6.02353 30.4026 6.23868 30.4478C6.35078 30.4697 6.46676 30.4588 6.57296 30.4165C6.67916 30.3741 6.77116 30.3019 6.83816 30.2085C6.89396 30.0718 6.91525 29.9233 6.90007 29.7763C6.8849 29.6293 6.83374 29.4884 6.75124 29.3663C6.01388 27.8305 4.42225 26.3371 4.68603 24.459C4.82391 23.4926 5.54629 22.6414 5.49533 21.6721C5.45037 20.8027 4.80593 20.1029 4.31735 19.385C3.39715 18.0309 2.88158 16.4527 2.36004 14.8805L2.33607 14.7745ZM4.29337 10.988C3.82935 11.7152 3.40508 12.4676 3.02247 13.2417C3.38455 13.7905 3.93239 14.1869 4.56314 14.3565C4.74631 14.4202 4.94654 14.4115 5.12365 14.3322C5.20431 14.2779 5.27073 14.2046 5.31719 14.1186C5.36366 14.0326 5.38878 13.9364 5.39043 13.8385C5.39106 13.6417 5.35547 13.4466 5.28551 13.2629C5.10866 12.7237 4.80592 11.6605 4.29337 10.988ZM18.6809 0.688588C19.4662 1.69126 20.6982 2.079 21.6783 2.85751C22.2538 3.31189 22.4367 3.91472 22.9312 4.4206C23.4492 4.90528 24.0739 5.25832 24.7537 5.45053C25.7188 5.75345 26.7499 5.94734 27.6012 6.50472C28.2375 6.96904 28.7918 7.53844 29.2408 8.18897C30.0981 9.30776 30.9163 10.4558 31.6957 11.6332C32.1518 12.398 32.6906 13.1092 33.3023 13.7537C33.9223 14.3999 34.7575 14.7906 35.6462 14.8502C36.4825 14.8502 37.3278 14.4777 38.1311 14.7048C38.6394 14.8958 39.0948 15.2075 39.4589 15.6136C41.3743 17.4069 43.4635 19.176 45.154 21.1783C46.1769 22.3436 47.1222 23.5762 47.9836 24.8679C48.0275 23.696 47.9844 22.5224 47.8547 21.357C46.9547 20.1264 45.9519 18.9761 44.8573 17.9189L41.6021 14.5867C39.5429 12.4844 37.3368 10.2943 34.4982 9.56726C34.0644 9.48056 33.6375 9.36107 33.2213 9.20982C32.3461 8.83722 31.7226 8.06477 31.0542 7.39228C29.1601 5.49198 26.8806 4.02955 24.373 3.10591C23.6148 2.86004 22.8844 2.53413 22.1939 2.13354C21.5035 1.645 20.8962 1.04652 20.3954 0.361426C19.799 0.434128 19.2324 0.549244 18.6719 0.688588H18.6809ZM41.7849 29.8086C41.98 29.7698 42.1552 29.6625 42.2795 29.5057C42.5073 29.1482 42.2795 28.6787 42.0487 28.3273C41.4184 27.3234 40.581 26.4688 39.5938 25.8221C39.1958 25.5885 38.7515 25.4468 38.2929 25.4071C37.8283 25.3405 37.2888 25.0164 36.8362 25.0436C36.7097 25.06 36.5892 25.1079 36.4855 25.1829C36.0539 25.4647 35.7032 25.9706 35.8201 26.4764C35.868 26.6491 35.9507 26.81 36.0629 26.949C36.3678 27.3419 36.7872 27.6281 37.2618 27.7669C37.6125 27.8699 37.9872 27.885 38.3349 28.0092C39.4679 28.4 40.3911 30.163 41.7759 29.8056L41.7849 29.8086ZM24.7447 6.78643C24.2785 6.63288 23.7814 6.60161 23.2999 6.69556C23.0605 6.74689 22.8401 6.86531 22.6641 7.03727C22.4881 7.20924 22.3636 7.42778 22.3048 7.66793C22.2149 8.20713 22.5685 8.7221 22.9852 9.07047C23.3716 9.37001 23.7886 9.62695 24.2291 9.83687L28.6533 12.1573C28.8781 12.2754 29.1898 12.3754 29.3487 12.1785C29.3892 12.1103 29.414 12.0338 29.4213 11.9546C29.4285 11.8754 29.4181 11.7956 29.3907 11.721C28.8931 9.57635 26.8159 7.3529 24.7357 6.78946L24.7447 6.78643ZM34.1955 17.4402C34.5568 17.5233 34.9347 17.4916 35.2776 17.3494C35.5237 17.2577 35.7775 17.1888 36.0359 17.1434C36.1751 17.1249 36.307 17.0695 36.418 16.9827C36.5291 16.896 36.6155 16.7811 36.6684 16.6496C36.6863 16.6018 36.6863 16.549 36.6684 16.5012C36.6432 16.4525 36.6033 16.4132 36.5545 16.3891C36.0865 16.0675 35.5689 15.8269 35.0228 15.6772C34.7484 15.6067 34.4611 15.6055 34.1862 15.6737C33.9112 15.7418 33.6571 15.8772 33.4461 16.068C33.3456 16.1589 33.2714 16.2756 33.2313 16.4058C33.1911 16.5359 33.1867 16.6746 33.2183 16.8071C33.3472 17.1767 33.8448 17.3645 34.1865 17.4433L34.1955 17.4402ZM13.1417 2.80905C14.1998 3.9026 15.8394 4.34791 17.0383 5.31726C18.2373 6.28662 19.1365 7.91331 20.6742 8.31922C20.7181 8.33884 20.7656 8.34897 20.8136 8.34897C20.8616 8.34897 20.9091 8.33884 20.953 8.31922C21.0142 8.26775 21.0573 8.19761 21.0758 8.1193C21.3516 7.35291 21.6304 6.54408 21.5135 5.73528C21.3456 4.57811 20.4434 3.76628 19.6341 3.00897C18.9357 2.36375 18.3722 1.61251 17.7128 0.943052C16.1289 1.40234 14.5969 2.02773 13.1417 2.80905V2.80905ZM11.7509 6.22905C12.3234 7.22566 13.2196 7.97995 13.939 8.87358C15.6685 11.0213 16.3999 13.993 18.588 15.656C19.8829 16.6405 21.5345 17.0374 22.8293 18.0128C24.6697 19.3941 25.545 21.7357 27.1696 23.3715C28.7252 24.9346 30.9463 25.8312 32.1153 27.7063C32.6968 28.6423 32.9606 29.745 33.4641 30.7355C34.2272 32.1127 35.3488 33.2525 36.7073 34.0313C37.3978 34.4484 38.1171 34.8149 38.8595 35.1279C40.2143 35.7156 41.4133 36.5698 42.894 36.8697C43.3091 36.9268 43.717 37.0284 44.1109 37.1726C43.616 37.935 43.0786 38.6682 42.5013 39.3688C41.257 38.8158 40.0884 38.1031 39.0243 37.2484C37.9033 36.4002 36.7103 35.9519 35.2806 36.1033C34.1026 36.2305 33.2033 36.7092 32.0733 36.07C31.1741 35.5459 30.0231 35.4096 29.1958 34.7311C28.3685 34.0525 28.0268 33.0923 27.6042 32.1684C25.907 28.4609 23.1754 25.3351 19.745 23.1746C18.8668 22.6232 17.8716 22.1234 16.8435 22.2658C16.4478 22.3143 16.0672 22.4566 15.6685 22.5051C14.0799 22.696 12.7011 21.357 11.9428 19.9333C11.5313 19.165 11.2286 18.3421 11.0435 17.4887C10.8547 16.5799 10.8037 15.6712 10.6778 14.7624C10.2844 11.9538 9.19451 9.29136 7.5096 7.0227C8.52457 6.00389 9.62805 5.07929 10.8067 4.26005C11.1634 4.87498 11.3852 5.58989 11.7509 6.22603V6.22905ZM16.9065 19.0518C17.3411 18.9064 17.8057 19.0033 18.2313 18.8761C19.3254 18.5489 18.4231 17.3857 17.9316 16.8586L13.8791 12.4511C13.5793 12.1088 13.0968 11.7332 12.6801 11.9543C12.3804 12.1179 12.2995 12.5268 12.2875 12.8782C12.2528 13.9979 12.4421 15.1132 12.8438 16.1573C13.2455 17.2014 13.8515 18.1529 14.6254 18.9548C14.8671 19.2574 15.2108 19.4591 15.5906 19.5213C16.0882 19.5455 16.4718 19.1911 16.9065 19.0488V19.0518ZM31.8755 33.895C32.3221 34.0859 34.1415 34.3252 33.5211 33.3195C32.9576 32.4107 31.9684 31.8049 31.4858 30.8567C31.297 30.4841 31.1861 30.0721 31.0332 29.6874C30.8926 29.2875 30.618 28.9499 30.2569 28.7332C30.1153 28.6577 29.9541 28.6281 29.7953 28.6484C29.6869 28.6664 29.5842 28.71 29.4956 28.7756C29.2885 28.942 29.1286 29.1608 29.0323 29.4098C28.9359 29.6588 28.9065 29.9291 28.947 30.1933C29.0387 30.7231 29.2433 31.2265 29.5465 31.6685C30.113 32.644 30.8294 33.4679 31.8755 33.9071V33.895ZM14.0319 5.62623C14.6297 5.67276 15.2022 5.88909 15.6835 6.25025C16.7922 7.01605 17.7821 7.94404 18.621 9.00383C19.4902 10.0398 19.8199 10.7638 21.2587 10.8214C25.3292 10.9304 28.8122 13.7264 31.6837 16.6435C32.5529 17.5251 33.5541 18.5005 34.786 18.4611C35.4334 18.4399 36.0359 18.1279 36.6774 18.0188C37.8044 17.8219 38.9434 18.2672 39.9385 18.8367C41.2786 19.6228 42.4916 20.6117 43.5354 21.769C45.1668 23.544 46.5706 25.5194 47.7138 27.6487C47.2822 30.5044 46.3462 33.2584 44.9502 35.7792H44.8243C42.9859 35.7335 41.1957 35.1758 39.6508 34.1677C38.1761 33.2134 36.1378 31.6261 35.7542 29.8056C35.6792 29.436 35.7542 28.9362 36.1288 28.8665C36.2718 28.8556 36.4152 28.8817 36.5455 28.9422C37.7444 29.3936 39.1172 29.8237 40.1424 30.5508C40.9307 31.1051 41.7969 31.9018 42.84 31.5201C43.6493 31.2172 44.06 30.2509 43.9641 29.3997C43.8681 28.5484 43.3646 27.7729 42.852 27.0853C41.9528 25.9191 40.8797 24.8467 39.5549 24.256C39.0243 24.0197 38.4608 23.8652 37.9483 23.5866C36.6204 22.8626 35.6852 21.3328 34.1865 21.1298C33.9078 21.0935 33.5451 21.1662 33.4851 21.4328C33.4726 21.5231 33.4798 21.6151 33.5061 21.7024C33.7109 22.5563 34.109 23.3506 34.6691 24.0228C34.7897 24.1416 34.882 24.2866 34.9388 24.4468C35.1307 25.1708 34.2405 25.601 33.6889 25.4283C32.7897 25.1436 32.0823 24.256 31.321 23.7259C30.2449 22.9746 29.1269 22.281 28.0238 21.56C27.639 21.3352 27.2936 21.0476 27.0017 20.7088C26.854 20.5393 26.7495 20.3359 26.6973 20.1163C26.6451 19.8966 26.6467 19.6675 26.702 19.4486C26.7835 19.2847 26.843 19.1105 26.8788 18.9306C26.8746 18.7122 26.8034 18.5005 26.675 18.3248C26.3753 17.8249 26.0755 17.3009 25.554 17.0373C25.338 16.9375 25.1132 16.8584 24.8826 16.8011C23.8395 16.4981 22.7694 16.0377 21.7593 15.6409C20.526 15.1704 19.4235 14.4055 18.546 13.4114C17.7217 12.4269 17.473 11.1 16.6667 10.0519C15.7726 8.96967 14.7889 7.9664 13.7262 7.05301C13.4265 6.77432 13.0998 6.37143 13.2736 5.99884C13.3534 5.87252 13.467 5.77162 13.6012 5.70782C13.7354 5.64403 13.8848 5.61995 14.0319 5.63836V5.62623ZM40.2233 22.6657C40.4631 22.699 41.5122 22.8232 41.647 22.6263C41.6729 22.5793 41.6814 22.5245 41.671 22.4718C41.5813 22.0886 41.371 21.7453 41.0715 21.4933C40.1154 20.5149 38.9404 19.5971 37.5826 19.5668C37.4676 19.5488 37.3501 19.5618 37.2417 19.6043C37.1333 19.6469 37.0379 19.7175 36.9651 19.8091C36.8122 20.0787 37.034 20.4149 37.2409 20.63C37.6882 21.156 38.1907 21.6313 38.7396 22.0477C39.1785 22.3722 39.6867 22.588 40.2233 22.6778V22.6657ZM7.033 9.52485C7.6115 10.4488 7.93222 11.5999 7.63248 12.648C7.3747 13.5568 6.67332 14.3625 6.68231 15.3137C6.68231 16.5587 7.88127 17.4342 8.48075 18.5156C9.08023 19.597 9.06224 20.836 9.19712 22.0356C9.27505 22.7202 9.38297 23.7138 9.86555 24.2348C10.3481 24.7558 11.0046 25.1436 11.5051 25.6585C12.0057 26.1735 12.6202 26.7036 13.3395 26.8914C14.0589 27.0793 14.9372 26.843 15.2759 26.1765C15.5187 25.701 15.4557 25.1012 15.7435 24.6619C15.9155 24.436 16.1485 24.2652 16.4144 24.1701C16.6803 24.075 16.9678 24.0596 17.2422 24.1257C17.7879 24.2638 18.2986 24.5167 18.7409 24.8679C22.038 27.1853 24.9545 30.1691 26.7469 33.8041C26.951 34.1529 27.0664 34.5474 27.0827 34.9522C27.0877 35.1552 27.0264 35.3542 26.9083 35.5185C26.7902 35.6828 26.6218 35.8031 26.4292 35.861C26.2764 35.8913 26.0875 35.8792 26.0006 36.0094C25.9137 36.1397 26.0306 36.3669 26.1594 36.4971C27.0976 37.4392 28.8032 38.866 30.2329 38.1814C30.6226 37.9966 30.9853 37.7179 31.4109 37.6816C32.502 37.5877 33.1854 38.7963 34.3244 38.4722C34.9958 38.2813 35.5923 37.8451 36.2787 37.733C37.3518 37.5604 38.3079 38.1965 39.2132 38.6782C39.6743 38.951 40.172 39.155 40.6909 39.284C40.8258 39.3082 42.3514 39.5869 42.2136 39.7566C41.8139 40.219 41.3953 40.6694 40.9576 41.1076C40.8557 41.0864 40.7628 41.0682 40.6789 41.0561C40.0404 40.9531 39.363 40.9016 38.7336 40.7744C38.0082 40.629 37.4147 40.111 36.7013 39.899C36.3326 39.7727 35.9419 39.7258 35.5542 39.7613C35.1666 39.7968 34.7905 39.9138 34.4503 40.1049C33.8778 40.4715 33.4431 41.1349 32.7687 41.2076C32.1902 41.2682 31.6687 40.8562 31.0932 40.7502C30.5177 40.6441 29.9152 40.8592 29.3277 40.9592C26.9298 41.3803 24.5918 39.9262 22.8683 38.3874C22.092 37.6967 20.7701 36.6274 21.0489 35.4248C21.1568 34.9855 21.4805 34.616 21.5614 34.1707C21.7203 33.2922 20.9949 32.5682 20.3145 32.1896C19.1155 31.5262 17.8716 30.263 16.5258 29.9722C16.3489 29.9258 16.1636 29.9227 15.9853 29.9633C15.807 30.0039 15.6408 30.0869 15.5007 30.2054C14.9492 30.7386 15.3058 31.72 14.9012 32.3895C14.2388 33.4709 13.0758 32.7803 12.2934 32.2774C10.6958 31.2475 9.16715 30.2781 7.87527 28.8453C6.97605 27.8366 5.72612 26.4431 5.89997 24.9618C5.9779 24.2863 6.46949 23.7501 6.70029 23.1079C7.18587 21.7751 6.48748 20.3241 5.74712 19.1184C5.25854 18.3218 4.71901 17.4433 4.8479 16.5163C5.02175 15.3955 6.13378 14.6382 6.43352 13.5446C6.75424 12.3754 6.07383 11.1788 5.35146 10.2125C5.26453 10.0944 5.17761 9.97923 5.08769 9.86412C5.43838 9.37945 5.81005 8.90386 6.19971 8.44341C6.50925 8.7777 6.78816 9.13966 7.033 9.52485ZM18.1234 25.8433C17.8416 25.7434 17.455 25.5737 17.1882 25.7524C16.9458 25.992 16.8069 26.3186 16.8016 26.6612C16.8409 26.9057 16.9503 27.1332 17.1163 27.3155C17.8448 28.2454 18.7472 29.0215 19.772 29.5996C20.0357 29.748 20.3715 29.8813 20.6292 29.7298C20.7251 29.6637 20.8013 29.5722 20.8494 29.4654C20.8974 29.3586 20.9156 29.2405 20.902 29.124C20.8711 28.8937 20.7968 28.6716 20.6832 28.4697C20.4425 27.9436 20.1407 27.4483 19.784 26.9944C19.3348 26.465 18.756 26.0639 18.1054 25.8312L18.1234 25.8433Z" fill="#334211"/>
</g>
<path style="mix-blend-mode:screen" d="M34.2037 21.3654C35.18 12.8095 29.0356 5.08207 20.4796 4.10574C11.9237 3.1294 4.1963 9.27387 3.21996 17.8298C2.24363 26.3857 8.38809 34.1131 16.944 35.0895C25.4999 36.0658 33.2274 29.9213 34.2037 21.3654Z" fill="url(#paint1_linear_2_3734)"/>
<path d="M47.2258 19.1011C46.8183 17.4009 46.2331 15.7493 45.4801 14.1744C44.7273 12.6061 43.8064 11.1262 42.7339 9.76137C41.6817 8.38559 40.477 7.1364 39.1435 6.03825C37.8223 4.92756 36.3821 3.97028 34.8499 3.18436L34.91 3.20868C34.852 3.19475 34.8008 3.16024 34.7658 3.11142L34.8469 3.18436C32.853 2.16518 30.7299 1.42882 28.5372 0.996079C27.4466 0.780478 26.3421 0.644384 25.2322 0.588826C24.1193 0.532039 23.0039 0.554373 21.8941 0.655681L22.0233 0.610103C21.8761 0.680006 21.8821 0.649603 21.8851 0.655681H21.8009H21.7048L21.5155 0.683043L21.1339 0.734705L20.3768 0.835007C19.872 0.907949 19.3762 1.0356 18.8745 1.13893C17.8777 1.35616 16.8977 1.64563 15.942 2.00512C13.0574 3.06959 10.4044 4.6901 8.13005 6.77679C7.74833 7.11934 7.38525 7.48256 7.04239 7.86486C6.69686 8.24477 6.33631 8.61252 6.0058 9.00155C4.67393 10.5715 3.56183 12.3192 2.70075 14.1957C0.914031 17.9476 0.131833 22.1081 0.432288 26.2616C0.57611 28.3312 0.979973 30.3738 1.63412 32.3402C2.30116 34.3121 3.2096 36.1918 4.33826 37.9355C1.92465 34.4985 0.45929 30.4733 0.0927672 26.2738C-0.276624 22.0548 0.461314 17.8119 2.23204 13.9738C3.10041 12.0507 4.22672 10.2579 5.57916 8.64596C5.91567 8.24477 6.28223 7.86789 6.63377 7.47582C6.98332 7.08425 7.35235 6.71095 7.73946 6.35737C8.51046 5.64531 9.32534 4.98346 10.1792 4.37577C11.8878 3.15416 13.7501 2.16883 15.7166 1.4459C16.6961 1.08163 17.7003 0.789101 18.7212 0.570591C19.235 0.476373 19.7428 0.348724 20.2596 0.266663L21.0378 0.166362L21.4254 0.117741L21.6177 0.0934219H21.7138H21.7619H21.7979C21.7979 0.0934219 21.822 0.0691151 21.6838 0.139019L21.813 0.0934219C22.956 -0.00731666 24.1045 -0.0266138 25.2502 0.0356749C27.5282 0.164257 29.7768 0.617528 31.9294 1.38207C33.0019 1.76928 34.0461 2.23239 35.0542 2.76798L35.1353 2.84092C35.1191 2.81687 35.0982 2.7964 35.0739 2.78073C35.0497 2.76506 35.0225 2.75452 34.9941 2.74975L35.0572 2.77103C36.6032 3.59372 38.0534 4.58868 39.3808 5.73737C40.7167 6.87207 41.9185 8.15913 42.9623 9.57293C44.0088 10.9796 44.8994 12.4982 45.6184 14.1015C46.3412 15.7004 46.8806 17.3779 47.2258 19.1011Z" fill="#FFF5D4"/>
<defs>
<radialGradient id="paint0_radial_2_3734" cx="0" cy="0" r="1" gradientUnits="userSpaceOnUse" gradientTransform="translate(14.1008 19.5221) rotate(-108.613) scale(37.7478 37.7429)">
<stop stop-color="#00F5C3"/>
<stop offset="0.68" stop-color="#118786"/>
<stop offset="0.75" stop-color="#0F9089"/>
<stop offset="0.86" stop-color="#09A793"/>
<stop offset="1" stop-color="#00CCA2"/>
</radialGradient>
<linearGradient id="paint1_linear_2_3734" x1="-0.91982" y1="12.5132" x2="26.8166" y2="18.3241" gradientUnits="userSpaceOnUse">
<stop stop-color="#8B742C"/>
<stop offset="1"/>
</linearGradient>
</defs>
</svg>
