<svg width="48" height="50" viewBox="0 0 48 50" fill="none" xmlns="http://www.w3.org/2000/svg">
<path d="M0.999195 12.5433C-0.191708 17.1382 -0.161967 22.0259 0.284621 26.72C0.780831 32.1535 3.08327 37.6713 7.50946 40.8669C10.6356 43.1247 14.4563 43.9484 17.8157 45.7348C21.2892 47.5757 24.6585 48.2158 28.643 48.325C32.9749 48.4738 36.7411 47.4715 39.9119 44.4595C41.8174 42.6434 43.7675 40.7776 44.9088 38.4057C49.2308 29.474 44.5813 17.1432 38.9543 9.70498C37.0277 7.16095 34.6326 5.00848 31.8981 3.3634C25.7898 -0.31351 17.2997 -1.10248 10.6653 1.62667C6.10518 3.51723 2.41339 7.08498 0.999195 12.5433Z" fill="#FFF5D4"/>
<path d="M12.0689 2.74331C18.7032 0.00919209 27.1933 0.798161 33.3017 4.47507C36.0362 6.12015 38.4312 8.27262 40.3578 10.8166C45.9699 18.2598 50.6194 30.5658 46.3123 39.5224C45.171 41.8893 43.2209 43.76 41.3155 45.5712C38.1447 48.5832 34.3685 49.5855 30.0465 49.4416C26.0768 49.3076 22.6878 48.6923 19.2193 46.8514C15.855 45.065 12.0391 44.2413 8.91297 41.9836C4.48678 38.783 2.20418 33.2701 1.68813 27.8366C1.24154 23.1375 1.19195 18.2499 2.4027 13.655C3.80201 8.20161 7.4938 4.61898 12.0689 2.74331Z" fill="url(#paint0_radial_2_3724)"/>
<g style="mix-blend-mode:screen">
<path d="M22.4303 17.4212C22.0851 15.7245 21.6141 14.056 21.021 12.4293C20.4306 10.8414 19.5324 9.45206 18.8278 7.96343C17.9991 6.17211 15.4933 4.06817 13.3993 4.1029C12.1538 4.1029 11.2308 4.85716 10.2186 5.45261C8.98835 6.12211 7.8252 6.90806 6.74508 7.79967C4.22434 10.0028 3.0781 13.645 2.47273 16.8456C2.01621 19.272 2.30898 21.5546 2.66129 23.9712C3.21508 28.3409 4.44024 32.5989 6.29352 36.5947C6.69895 37.5242 7.21366 38.402 7.82679 39.2097C9.15167 40.8522 11.0869 41.8198 13.0122 42.579C13.8013 42.9822 14.7027 43.1097 15.5727 42.9412C16.6669 42.7841 17.7023 42.3484 18.5797 41.6759C19.0581 41.1992 19.3667 40.5786 19.458 39.9094C19.9145 37.6715 19.5324 35.3046 20.1378 33.1014C20.5744 31.5284 21.4874 30.1241 22.0978 28.6355C23.5169 25.0975 23.2044 21.1279 22.4303 17.4212Z" fill="#482702"/>
</g>
<g style="mix-blend-mode:multiply">
<path d="M37.4158 9.74467C35.5801 7.85567 33.4789 6.24424 31.1785 4.9612C29.9944 4.3151 28.7452 3.79615 27.4519 3.41303C26.7913 3.21479 26.1183 3.06063 25.4373 2.95156C24.8022 2.84736 24.043 2.95157 23.4525 2.67865C24.7296 3.26192 25.931 3.9984 27.0301 4.87189C27.963 5.57651 28.9653 6.03302 29.789 6.85673C31.7984 8.89716 33.5287 11.1948 34.9347 13.6895C36.468 16.3939 37.6292 19.391 37.6689 22.4973C37.7017 24.7562 37.1313 26.983 36.0165 28.948C34.7264 31.2107 32.8011 32.4512 30.8013 34.0193C29.2482 35.2399 28.6528 36.5648 28.3997 38.4852C28.2707 39.4379 28.1251 40.3873 27.963 41.3334C27.8241 42.1373 27.8191 43.3182 27.3577 44.003C26.5488 45.2187 24.4201 45.5958 23.115 45.8687C22.1588 46.025 21.1862 46.0551 20.2222 45.9581C20.6886 45.9581 21.7753 47.1291 22.3062 47.3574C23.4425 47.8536 24.7873 47.8536 26.0129 47.9876C27.5908 48.1711 29.1886 48.3845 30.7765 48.4838C31.884 48.5851 33.0006 48.5029 34.0813 48.2406C35.0252 47.9522 35.9141 47.5078 36.7112 46.9257C39.2538 45.1281 41.2067 42.6175 42.3233 39.7108C42.8195 38.3859 43.42 36.6889 43.3505 35.2449C43.3158 34.4658 43.1073 33.8108 43.2215 33.002C43.3747 32.1807 43.5752 31.3689 43.8219 30.5706C44.5464 27.8517 44.6801 25.0092 44.2139 22.2343C43.4051 17.4806 40.8545 13.1933 37.4158 9.74467Z" fill="#F2CFF1"/>
</g>
<path d="M27.7353 31.3843C29.7648 32.2973 31.7049 32.471 32.8859 30.8384C34.3835 28.7023 35.3652 26.2479 35.754 23.6682C36.1262 20.6909 35.1189 17.7435 33.7692 15.0838C33.109 13.6364 32.164 12.337 30.9904 11.263C27.4028 8.25593 22.143 10.5534 19.6917 13.8482C17.9401 16.2052 16.9477 19.6539 17.9898 22.4922C18.7787 24.6408 20.5601 25.7374 22.148 27.2211C23.855 28.809 25.5817 30.4166 27.7353 31.3843Z" fill="#AA044A"/>
<path d="M23.9193 39.1304C24.4155 40.1972 24.7182 41.537 24.0136 42.4748C23.726 42.7986 23.3667 43.0507 22.9643 43.2109C22.562 43.3711 22.1278 43.4351 21.6963 43.3978C19.9298 43.368 18.987 42.4351 17.5778 41.5568C15.7649 40.4255 13.9455 39.2958 12.1194 38.1677C11.4127 37.7573 10.748 37.2787 10.1346 36.7386C9.80365 36.4715 9.53462 36.1358 9.34613 35.7545C9.15765 35.3733 9.05424 34.9556 9.04297 34.5305C9.10951 34.0651 9.30313 33.6271 9.60254 33.2647C9.90195 32.9022 10.2955 32.6294 10.74 32.4762C13.7966 31.2456 17.1411 32.0991 19.7561 33.9648C21.5813 35.2829 23.0191 37.0669 23.9193 39.1304Z" fill="#AA044A"/>
<path d="M38.2597 42.7923C39.2306 41.6952 39.7779 40.2875 39.8029 38.8226C39.8029 37.8302 39.4506 36.5301 38.3142 36.3862C37.7375 36.3824 37.1769 36.5768 36.7264 36.937C34.9847 38.0684 31.5608 40.3509 31.0894 42.564C31.0182 43.0554 31.0865 43.557 31.2866 44.0114C31.4866 44.4659 31.8103 44.855 32.2208 45.1344C33.7094 46.236 37.2275 43.9534 38.2597 42.7923Z" fill="#AA044A"/>
<path d="M5.06293 18.6218C5.33216 18.4051 5.53644 18.1184 5.65339 17.7932L8.73986 10.4344C8.96811 9.89349 9.19637 9.35261 9.41966 8.81174C9.53133 8.61643 9.57332 8.38898 9.53875 8.16667C9.47319 8.00456 9.34891 7.87314 9.1907 7.79864C9.03249 7.72413 8.85202 7.71202 8.68528 7.76475C8.35298 7.88099 8.06161 8.09133 7.84666 8.37014C5.56409 10.8512 3.38081 15.2774 4.59652 18.7211C4.67691 18.7376 4.75981 18.7372 4.84008 18.7202C4.92035 18.7031 4.99622 18.6696 5.06293 18.6218V18.6218Z" fill="#AA044A"/>
<path d="M44.2632 23.3456C44.2632 23.549 44.154 23.7872 43.9605 23.8418C43.8904 23.8423 43.821 23.828 43.7569 23.7998C43.6927 23.7716 43.6353 23.7301 43.5884 23.678C43.1935 23.2573 42.876 22.7701 42.6505 22.239C42.1196 21.1672 41.5787 20.0507 41.5837 18.8549C41.5742 18.7813 41.5813 18.7066 41.6045 18.6362C41.6277 18.5658 41.6663 18.5015 41.7176 18.448C41.9062 18.2942 42.1891 18.448 42.3677 18.6316C43.5288 19.753 44.4815 21.6882 44.2632 23.3456Z" fill="#AA044A"/>
<defs>
<radialGradient id="paint0_radial_2_3724" cx="0" cy="0" r="1" gradientUnits="userSpaceOnUse" gradientTransform="translate(6.24449 21.8647) rotate(-114.75) scale(46.3509)">
<stop stop-color="#FFA23F"/>
<stop offset="0.11" stop-color="#F99240"/>
<stop offset="0.32" stop-color="#E86841"/>
<stop offset="0.62" stop-color="#CE2444"/>
<stop offset="0.73" stop-color="#C30945"/>
<stop offset="0.77" stop-color="#C60F43"/>
<stop offset="0.84" stop-color="#D01F3C"/>
<stop offset="0.91" stop-color="#E13B30"/>
<stop offset="0.98" stop-color="#F76020"/>
<stop offset="1" stop-color="#FD6A1C"/>
</radialGradient>
</defs>
</svg>
