<svg width="48" height="73" viewBox="0 0 48 73" fill="none" xmlns="http://www.w3.org/2000/svg">
<path d="M1.39121 41.1456L1.98557 32.1333L4.51979 30.5737L2.57341 28.642L0 16.5496L4.51979 8.68592L8.32111 5.53394L14.3235 4.75736L17.0798 6.95657L19.3397 4.59421L27.8502 0L38.1896 0.95278L47.9999 5.2729L47.6145 17.92L47.5427 21.0916L44.4206 42.2354L44.9105 42.8162L39.9008 48.9701L40.9263 51.1823L29.9599 62.9093L24.2253 71.9998L9.45759 56.9708L1.39121 41.1456Z" fill="url(#paint0_linear_2_3739)"/>
<g style="mix-blend-mode:multiply" opacity="0.5">
<path d="M8.36035 5.3606L3.75363 11.4587L5.12514 16.1566L5.55826 14.1086L11.8384 26.5272L15.5526 22.2939L16.5763 9.23406L19.2866 26.5272L19.9297 35.1117L17.6263 37.7223L13.2493 44.8608L16.0776 51.129L25.0023 53.033L30.3703 50.5401L28.7428 42.9829L36.0729 25.2579L38.5862 24.1063L36.7488 11.0007L40.614 21.5022L47.7669 20.9591L44.4201 41.249L45.1223 42.7408L44.6301 43.4148L41.9658 45.9338L36.8472 48.1127L37.031 50.5205L41.1193 51.129L37.3591 55.2642L30.1012 62.8868L27.7913 67.2183L24.3395 72.0012L8.1963 55.0025L1.39777 41.0658L1.99493 32.0299L4.5411 30.4661L2.58554 28.5294L0 16.4052L4.5411 8.52086L8.36035 5.3606Z" fill="#610051"/>
</g>
<path d="M17.0098 6.97718L22.5348 4.35256L29.559 4.91545L31.8241 6.19176L36.7272 11.6505L36.3083 8.24695L38.1871 6.89864L43.2801 6.82665L48 5.28852L38.1674 0.955603L27.8046 0L19.2748 4.60783L17.0098 6.97718Z" fill="#083982"/>
<path d="M8.3703 5.45041L4.52198 8.66287L3.72852 11.6492L10.0234 11.1969L14.275 8.72939L14.4469 4.65894L8.3703 5.45041Z" fill="#083982"/>
<path d="M10.7188 44.3845L16.1213 51.1918L24.8165 53.1263L30.3725 52.2222L31.6896 53.1263L30.0464 50.5935L28.3394 43.3408L20.0086 39.618L16.1213 39.3787L10.7188 44.3845Z" fill="#083982"/>
<path d="M6.75781 51.833L10.6413 44.4381L16.7803 39.3922L20.0035 35.0944L29.8626 27.437L36.0866 25.2126L38.5906 24.0578H43.0494L47.5344 22.1353L47.1356 24.5499L45.5861 24.5368L43.7751 24.2546L42.0492 24.5368L38.5383 24.8189L36.1259 25.7638L30.1372 27.5748L20.6508 36.4526L18.2971 38.513L17.7218 39.7269L16.7803 39.9565L10.7982 44.6284L7.43774 51.19L7.61427 53.5915L6.75781 51.833Z" fill="#FF8337"/>
<path d="M47.7666 14.2802L44.8626 14.2605L42.3642 14.2867L40.6063 14.3064L37.5478 13.979L34.5794 15.3146L30.4713 18.8239L26.6981 21.4361L19.1064 23.0664L27.3162 21.8028L30.291 19.3018L31.1796 18.6078L35.2298 15.2884L37.1615 15.3474L38.6103 15.4521L39.3379 14.5028L43.5232 14.6075L45.3455 14.9611L47.7215 15.7795L47.7666 14.2802Z" fill="#FF8337"/>
<path style="mix-blend-mode:screen" opacity="0.61" d="M24.0485 37.2386C21.6605 39.0124 18.8288 39.1731 17.7 37.5867C16.5713 36.0003 17.6087 33.2827 19.9902 31.5022C22.3716 29.7217 25.2098 29.5678 26.3386 31.1542C27.4673 32.7405 26.4365 35.4581 24.0485 37.2386Z" fill="url(#paint1_radial_2_3739)"/>
<defs>
<linearGradient id="paint0_linear_2_3739" x1="23.9967" y1="71.9998" x2="23.9967" y2="0" gradientUnits="userSpaceOnUse">
<stop stop-color="#002974"/>
<stop offset="1" stop-color="#00093E"/>
</linearGradient>
<radialGradient id="paint1_radial_2_3739" cx="0" cy="0" r="1" gradientUnits="userSpaceOnUse" gradientTransform="translate(-2529.8 -1647.38) rotate(54.537) scale(51.1838 69.4919)">
<stop stop-color="#FFAE00"/>
<stop offset="0.12" stop-color="#D18E00"/>
<stop offset="0.3" stop-color="#926400"/>
<stop offset="0.48" stop-color="#5E4000"/>
<stop offset="0.64" stop-color="#352400"/>
<stop offset="0.78" stop-color="#181000"/>
<stop offset="0.91" stop-color="#060400"/>
<stop offset="1"/>
</radialGradient>
</defs>
</svg>
