<svg width="48" height="47" viewBox="0 0 48 47" fill="none" xmlns="http://www.w3.org/2000/svg">
<path d="M46.4166 23.8283C46.3441 26.4186 45.8364 28.9783 44.915 31.4003C44.5658 32.3342 44.1539 33.2435 43.6821 34.1219C43.6139 34.2541 43.5456 34.3864 43.4688 34.5101C42.0202 37.1208 40.0755 39.4235 37.744 41.2886C37.0428 41.8534 36.3077 42.3749 35.5428 42.8499C33.9201 43.8681 32.1778 44.682 30.3555 45.2729C30.2233 45.3156 30.0996 45.3583 29.9716 45.3924C24.2063 47.1434 17.986 46.5826 12.6269 43.8286C7.26786 41.0746 3.19056 36.3436 1.25788 30.6367C0.647673 28.8542 0.260787 27.0029 0.106086 25.1251C0.106086 24.9801 0.0804961 24.8351 0.0719643 24.6986C-0.142135 21.3982 0.353905 18.0903 1.52663 14.9979C1.64181 14.7078 1.76125 14.4178 1.8807 14.1234C2.50946 12.6432 3.29003 11.2322 4.20988 9.91298C4.64255 9.28744 5.10967 8.68644 5.60909 8.11278C5.68588 8.01467 5.76692 7.91655 5.85224 7.8227C7.28839 6.1993 8.94724 4.78749 10.7793 3.62933C10.9073 3.54401 11.0353 3.46723 11.1675 3.39044C11.5216 3.17288 11.8799 2.96385 12.2468 2.76762C12.362 2.7079 12.4729 2.64391 12.5923 2.58845C17.2415 0.18603 22.5666 -0.573495 27.702 0.433307C32.8375 1.44011 37.4815 4.15406 40.8795 8.13411C41.0117 8.28342 41.1397 8.43699 41.2591 8.59056C41.8874 9.36551 42.4646 10.1806 42.9868 11.0306C43.0849 11.1885 43.183 11.3506 43.2726 11.5127C44.244 13.1762 45.0036 14.9546 45.5335 16.8067C45.5719 16.9346 45.6061 17.0626 45.6402 17.1863C46.0696 18.7897 46.327 20.4342 46.408 22.0921C46.4251 22.6723 46.4294 23.2482 46.4166 23.8283Z" fill="url(#paint0_radial_2_3758)"/>
<g style="mix-blend-mode:multiply">
<path d="M45.8967 28.1027C45.8967 28.1027 35.232 28.9261 33.0436 25.0441C30.8552 21.1621 28.6369 20.1725 25.1474 20.599C21.6579 21.0256 17.2939 23.8113 13.0707 22.6808C8.84746 21.5503 0.814786 17.1351 0.814786 17.1351C0.123712 19.2681 0 23.261 0 23.261C0 23.261 1.88553 29.9499 7.1795 30.3594C12.4735 30.7689 24.3966 32.6118 32.2288 34.9154C40.061 37.2189 42.211 36.5193 42.211 36.5193C44.0201 34.0055 45.2762 31.1371 45.8967 28.1027ZM7.76392 28.3075C7.21362 26.9382 10.75 26.7761 11.424 27.7657C12.0981 28.7554 8.93704 31.204 7.76392 28.3075ZM22.6945 22.058C25.9963 20.7142 31.7937 23.1245 31.2263 25.2873C30.6589 27.4501 20.135 23.0946 22.6817 22.058H22.6945ZM29.3365 33.1493C29.2427 31.2254 31.5846 32.471 32.1349 33.4778C32.6852 34.4845 29.4133 34.6765 29.3237 33.1365L29.3365 33.1493ZM39.5747 33.1024C39.5704 32.9983 39.5875 32.8945 39.625 32.7973C39.6626 32.7001 39.7197 32.6117 39.7929 32.5376C39.866 32.4635 39.9537 32.4052 40.0503 32.3664C40.147 32.3276 40.2506 32.309 40.3547 32.312C40.4588 32.3149 40.5612 32.3392 40.6556 32.3834C40.7499 32.4276 40.8341 32.4907 40.903 32.5689C40.9718 32.647 41.0239 32.7385 41.0559 32.8376C41.0879 32.9367 41.0992 33.0414 41.089 33.145C41.0592 34.2499 39.5405 33.6228 39.5704 33.0896L39.5747 33.1024Z" fill="#974D8B"/>
</g>
<g style="mix-blend-mode:soft-light">
<path d="M46.4123 23.8284C46.4123 23.8284 38.7721 19.0378 32.7273 17.8134C26.6826 16.5891 19.9937 20.373 12.2511 19.0548C8.2454 18.368 4.51702 16.1242 1.85938 14.1235C2.4872 12.6414 3.26781 11.2289 4.18855 9.90875C5.60056 11.325 9.49958 15.0022 13.1469 16.3289C17.7029 17.9841 21.9048 16.1839 29.5791 16.6275C36.1486 17.0072 44.2111 20.9702 46.3867 22.1007C46.4251 22.6723 46.4294 23.2482 46.4123 23.8284Z" fill="#5FCCCC"/>
</g>
<g style="mix-blend-mode:soft-light">
<path d="M9.36408 35.4486C8.48104 36.0629 6.31823 35.3931 6.50593 34.9665C6.8472 34.156 10.2173 34.8386 9.36408 35.4486ZM11.0363 34.1901C11.3605 33.7166 13.3271 34.0622 13.2119 34.365C13.0967 34.6679 10.7249 34.6167 11.0235 34.1901H11.0363ZM33.0398 40.3885C33.6882 39.6547 37.1734 41.0497 36.9942 41.8815C36.8151 42.7134 32.3743 41.1179 33.027 40.3885H33.0398ZM16.8678 34.8044C8.1227 33.0767 3.27239 31.4258 1.24609 30.6367C2.01187 32.9066 3.12575 35.0437 4.54789 36.9715C8.26774 37.0312 11.8724 33.738 21.8589 36.8222C26.6333 38.3087 31.2242 40.3308 35.5438 42.8499C36.308 42.3738 37.0431 41.8524 37.745 41.2886C31.0077 38.4689 24.017 36.2977 16.8678 34.8044Z" fill="#5FCCCC"/>
</g>
<g style="mix-blend-mode:multiply">
<path d="M12.4138 11.7942C12.2389 12.6473 15.6132 14.2001 16.2531 13.2488C16.893 12.2975 12.7764 10.0409 12.4138 11.7942Z" fill="#190024"/>
</g>
<g style="mix-blend-mode:multiply">
<path d="M13.5652 14.5584C13.7059 15.2239 14.4866 15.2367 14.5804 14.9381C14.6743 14.6395 13.4286 13.8887 13.5652 14.5584Z" fill="#190024"/>
</g>
<g style="mix-blend-mode:multiply">
<path d="M33.0179 22.975C33.9564 22.0238 34.3873 22.5485 34.6048 23.0604C34.8224 23.5723 32.7278 23.2694 33.0179 22.975Z" fill="#190024"/>
</g>
<g style="mix-blend-mode:multiply">
<path d="M33.3887 15.1686C34.3272 14.2173 34.7581 14.742 34.9756 15.2539C35.1932 15.7658 33.0944 15.48 33.3887 15.1686Z" fill="#190024"/>
</g>
<g style="mix-blend-mode:multiply">
<path d="M20.5657 40.2691C21.5042 39.3178 21.9351 39.8425 22.1526 40.3544C22.3702 40.8663 20.2756 40.5634 20.5657 40.2691Z" fill="#190024"/>
</g>
<g style="mix-blend-mode:multiply">
<path d="M37.4935 26.1105C37.6044 26.5925 38.449 26.6821 38.3936 26.1318C38.3381 25.5815 37.3058 25.2914 37.4935 26.1105Z" fill="#190024"/>
</g>
<g style="mix-blend-mode:multiply">
<path d="M20.0491 6.24859C20.1601 6.73064 21.0047 6.82022 20.9493 6.24859C20.8938 5.67696 19.8614 5.42954 20.0491 6.24859Z" fill="#190024"/>
</g>
<g style="mix-blend-mode:soft-light">
<path d="M36.2682 37.7564C36.635 37.8545 37.9404 38.7375 37.8764 39.5097C37.8124 40.2818 34.5831 39.6078 34.6983 38.9039C34.8135 38.2 35.7648 37.6156 36.2682 37.7564Z" fill="#5FCCCC"/>
</g>
<g style="mix-blend-mode:soft-light">
<path d="M37.0918 15.1429C37.4544 15.241 38.7597 16.1241 38.7 16.8962C38.6403 17.6683 35.4025 16.9943 35.5176 16.2904C35.6328 15.5866 36.5799 15.0021 37.0918 15.1429Z" fill="#5FCCCC"/>
</g>
<g style="mix-blend-mode:soft-light">
<path d="M28.0572 5.76649C28.1468 6.13336 28.0188 7.7032 27.3107 8.02741C26.6025 8.35162 25.6043 5.19913 26.2826 4.95597C26.9609 4.71282 27.9292 5.24179 28.0572 5.76649Z" fill="#5FCCCC"/>
</g>
<g style="mix-blend-mode:soft-light" opacity="0.71">
<g style="mix-blend-mode:soft-light" opacity="0.71">
<path d="M33.1374 11.4913C33.2318 11.1303 33.2435 10.7526 33.1716 10.3864C33.1635 10.3274 33.1431 10.2707 33.1118 10.22C33.0745 10.1751 33.0262 10.1406 32.9717 10.1197C32.9172 10.0988 32.8582 10.0922 32.8004 10.1006C32.6584 10.1161 32.5242 10.1734 32.4148 10.2653C32.3055 10.3572 32.2259 10.4795 32.1861 10.6168C32.1519 10.7554 32.1515 10.9002 32.1849 11.039C32.2183 11.1778 32.2846 11.3066 32.3781 11.4145C32.475 11.5403 32.6175 11.623 32.7748 11.6448C32.8524 11.6521 32.93 11.6322 32.9945 11.5887C33.0591 11.5451 33.1066 11.4805 33.1289 11.406C33.1222 11.3963 33.1133 11.3884 33.1029 11.3829C33.0925 11.3774 33.0809 11.3746 33.0692 11.3746C33.0574 11.3746 33.0459 11.3774 33.0354 11.3829C33.025 11.3884 33.0161 11.3963 33.0095 11.406L33.1374 11.4913Z" fill="#E9E9A8"/>
</g>
<g style="mix-blend-mode:soft-light" opacity="0.71">
<path d="M38.5842 13.6199C38.6022 13.5145 38.5937 13.4063 38.5594 13.305C38.5252 13.2037 38.4662 13.1126 38.3879 13.0397C38.2886 13.0728 38.1983 13.1286 38.1242 13.2026C38.0502 13.2767 37.9944 13.367 37.9613 13.4663C37.9471 13.517 37.9429 13.57 37.9491 13.6224C37.9553 13.6747 37.9717 13.7252 37.9975 13.7712C38.0232 13.8171 38.0578 13.8576 38.0991 13.8902C38.1405 13.9228 38.1879 13.9469 38.2386 13.9612C38.4477 13.9996 38.6652 13.7351 38.5415 13.5602L38.5842 13.6199Z" fill="#E9E9A8"/>
</g>
<g style="mix-blend-mode:soft-light" opacity="0.71">
<path d="M37.944 11.7001C37.9229 11.631 37.8928 11.565 37.8544 11.5039C37.8474 11.5021 37.8401 11.5021 37.8331 11.5039C37.8291 11.502 37.8247 11.501 37.8203 11.501C37.8158 11.501 37.8115 11.502 37.8075 11.5039C37.7435 11.5422 37.735 11.6574 37.6582 11.6617C37.5814 11.666 37.6283 11.6617 37.6198 11.6617C37.6112 11.6617 37.6198 11.7044 37.6198 11.7214C37.6409 11.7409 37.666 11.7555 37.6933 11.7643C37.7207 11.773 37.7496 11.7757 37.7781 11.772C37.8065 11.7683 37.8339 11.7585 37.8581 11.7431C37.8824 11.7277 37.9029 11.7072 37.9184 11.683V11.7172L37.944 11.7001Z" fill="#E9E9A8"/>
</g>
<g style="mix-blend-mode:soft-light" opacity="0.71">
<path d="M36.4393 9.89153C36.4015 9.76198 36.3455 9.63846 36.2729 9.52467L36.2388 9.5076C36.2309 9.50349 36.2221 9.50134 36.2132 9.50134C36.2043 9.50134 36.1955 9.50349 36.1876 9.5076C36.0682 9.57586 36.0511 9.79768 35.9103 9.80195C35.8851 9.79545 35.8587 9.79545 35.8335 9.80195C35.7994 9.82754 35.8335 9.883 35.8335 9.91286C35.8731 9.95041 35.9205 9.97877 35.9723 9.99591C36.0241 10.0131 36.0791 10.0186 36.1333 10.0121C36.1874 10.0055 36.2395 9.98715 36.2858 9.95821C36.332 9.92926 36.3713 9.89048 36.4009 9.84461V9.90433L36.4393 9.89153Z" fill="#E9E9A8"/>
</g>
<g style="mix-blend-mode:soft-light" opacity="0.71">
<path d="M40.1203 8.99139C40.081 8.86167 40.0236 8.73816 39.9497 8.62452C39.9432 8.60913 39.9309 8.59688 39.9155 8.5904C39.9076 8.58628 39.8989 8.58414 39.8899 8.58414C39.881 8.58414 39.8723 8.58628 39.8643 8.5904C39.7406 8.65865 39.7236 8.88048 39.5828 8.88474C39.5591 8.8782 39.534 8.8782 39.5103 8.88474C39.4762 8.91034 39.5103 8.9658 39.5103 8.99566C39.5499 9.03321 39.5973 9.06156 39.6491 9.07871C39.7009 9.09585 39.7558 9.10137 39.81 9.09485C39.8642 9.08833 39.9162 9.06994 39.9625 9.041C40.0088 9.01206 40.0481 8.97327 40.0776 8.9274V8.98712L40.1203 8.99139Z" fill="#E9E9A8"/>
</g>
<g style="mix-blend-mode:soft-light" opacity="0.71">
<path d="M38.3709 10.4802C38.3795 10.4312 38.3763 10.3808 38.3614 10.3333C38.3466 10.2858 38.3206 10.2426 38.2856 10.2072C38.2503 10.2345 38.22 10.2677 38.196 10.3053C38.1847 10.324 38.1787 10.3454 38.1787 10.3672C38.1787 10.389 38.1847 10.4104 38.196 10.429C38.2224 10.4448 38.2526 10.4532 38.2834 10.4532C38.3142 10.4532 38.3444 10.4448 38.3709 10.429L38.3453 10.4717L38.3709 10.4802Z" fill="#E9E9A8"/>
</g>
<g style="mix-blend-mode:soft-light" opacity="0.71">
<path d="M37.7061 10.1986C37.7003 10.1713 37.687 10.1461 37.6677 10.126C37.6414 10.1173 37.6129 10.1173 37.5866 10.126C37.5144 10.1344 37.4414 10.1344 37.3691 10.126L37.5994 10.4118V10.4374C37.5994 10.4716 37.5738 10.4972 37.561 10.527C37.5483 10.5569 37.5909 10.6209 37.6378 10.6422C37.945 10.7872 37.753 10.3607 37.7061 10.1986Z" fill="#E9E9A8"/>
</g>
<g style="mix-blend-mode:soft-light" opacity="0.71">
<path d="M34.212 8.88895C34.2072 8.86253 34.1937 8.83848 34.1736 8.82069C34.1473 8.81221 34.1189 8.81221 34.0926 8.82069C34.0202 8.827 33.9474 8.827 33.875 8.82069L34.1054 9.10651C34.1054 9.14063 34.0798 9.16623 34.067 9.20036C34.0542 9.23448 34.0968 9.28994 34.1438 9.31554C34.468 9.46911 34.2547 9.03399 34.212 8.88895Z" fill="#E9E9A8"/>
</g>
<g style="mix-blend-mode:soft-light" opacity="0.71">
<path d="M38.7165 8.04876L38.6526 7.96344C38.6241 7.98457 38.6028 8.01383 38.5914 8.04734C38.58 8.08086 38.579 8.11705 38.5886 8.15114C38.5953 8.16772 38.6062 8.18225 38.6202 8.1933C38.6343 8.20434 38.651 8.21152 38.6687 8.21411C38.6864 8.2167 38.7044 8.21461 38.721 8.20805C38.7377 8.20149 38.7523 8.1907 38.7635 8.17673C38.7848 8.13834 38.8061 8.07009 38.8403 8.09142L38.7165 8.04876Z" fill="#E9E9A8"/>
</g>
<g style="mix-blend-mode:soft-light" opacity="0.71">
<path d="M33.3378 7.96767C33.337 7.99269 33.3297 8.01706 33.3166 8.03841C33.3035 8.05976 33.2852 8.07737 33.2633 8.08951C33.2414 8.10166 33.2167 8.10793 33.1917 8.10772C33.1666 8.10751 33.1421 8.10083 33.1204 8.08832C33.0987 8.07581 33.0806 8.0579 33.0679 8.03633C33.0552 8.01477 33.0483 7.99028 33.0479 7.96525C33.0474 7.94022 33.0535 7.9155 33.0654 7.8935C33.0774 7.8715 33.0948 7.85296 33.116 7.83969C33.1387 7.82837 33.1639 7.82285 33.1892 7.82362C33.2146 7.82439 33.2393 7.83142 33.2613 7.8441C33.2833 7.85677 33.3018 7.87469 33.3151 7.89625C33.3285 7.91782 33.3363 7.94235 33.3378 7.96767Z" fill="#E9E9A8"/>
</g>
<g style="mix-blend-mode:soft-light" opacity="0.71">
<path d="M34.6217 9.02984C34.6815 9.08103 34.754 9.15781 34.7156 9.23033C34.6772 9.30285 34.5748 9.28153 34.5023 9.25593C34.4298 9.23034 34.434 9.23033 34.4298 9.19621C34.4255 9.16208 34.5748 9.10663 34.5748 9.02557C34.5748 9.02557 34.6175 9.02557 34.6004 9.06397L34.6217 9.02984Z" fill="#E9E9A8"/>
</g>
<g style="mix-blend-mode:soft-light" opacity="0.71">
<path d="M39.7318 14.6779C39.7251 14.6194 39.7045 14.5634 39.6719 14.5144C39.6393 14.4655 39.5955 14.425 39.5441 14.3963C39.5182 14.3833 39.4896 14.3764 39.4606 14.3763C39.4315 14.3761 39.4029 14.3827 39.3768 14.3955C39.3508 14.4083 39.3281 14.427 39.3105 14.4501C39.2928 14.4732 39.2808 14.5 39.2754 14.5285C39.2747 14.5636 39.2852 14.5979 39.3052 14.6267L39.3521 14.6651C39.3811 14.6923 39.4154 14.7132 39.4528 14.7264C39.4903 14.7396 39.5301 14.7449 39.5697 14.7418C39.6097 14.7386 39.6468 14.7198 39.6731 14.6895C39.6994 14.6592 39.7128 14.6198 39.7105 14.5797L39.7318 14.6779Z" fill="#E9E9A8"/>
</g>
<g style="mix-blend-mode:soft-light" opacity="0.71">
<path d="M42.2104 16.0129C42.1926 16.0132 42.1751 16.0171 42.159 16.0244C42.1428 16.0318 42.1283 16.0424 42.1165 16.0556C42.0963 16.0838 42.0818 16.1157 42.0739 16.1495C42.0397 16.222 41.9501 16.2561 41.8989 16.3158C41.8615 16.3807 41.8418 16.4542 41.8418 16.5291C41.8418 16.604 41.8615 16.6776 41.8989 16.7424C41.9016 16.7581 41.9081 16.7729 41.9177 16.7855C41.9274 16.7982 41.94 16.8083 41.9544 16.8149C41.9779 16.8227 42.0034 16.8227 42.0269 16.8149C42.1848 16.7552 42.2872 16.9088 42.4535 16.8875C42.5215 16.8711 42.5846 16.839 42.638 16.7938C42.6913 16.7486 42.7333 16.6916 42.7607 16.6272C42.7906 16.5477 42.7982 16.4614 42.7825 16.3778C42.7668 16.2942 42.7286 16.2165 42.6718 16.1532C42.6151 16.0899 42.5421 16.0433 42.4607 16.0186C42.3793 15.9938 42.2928 15.9919 42.2104 16.0129Z" fill="#E9E9A8"/>
</g>
<g style="mix-blend-mode:soft-light" opacity="0.71">
<path d="M38.4309 11.6876C38.454 11.7071 38.4692 11.7344 38.4735 11.7644C38.4346 11.7604 38.3972 11.747 38.3645 11.7255C38.3319 11.704 38.3049 11.6748 38.2858 11.6406C38.2603 11.6065 38.2347 11.5639 38.256 11.5255C38.2773 11.4871 38.3029 11.4913 38.3285 11.47C38.3541 11.4487 38.3968 11.3506 38.4565 11.3591C38.4731 11.3629 38.4879 11.372 38.4987 11.3852C38.5095 11.3983 38.5157 11.4146 38.5162 11.4316C38.5142 11.4662 38.504 11.4999 38.4863 11.5297C38.4565 11.5937 38.4224 11.662 38.3925 11.7302L38.4309 11.6876Z" fill="#E9E9A8"/>
</g>
<g style="mix-blend-mode:soft-light" opacity="0.71">
<path d="M37.6041 12.5149C37.6041 12.4551 37.5017 12.4423 37.4633 12.5149C37.4393 12.5737 37.4393 12.6395 37.4633 12.6983C37.5064 12.6928 37.5471 12.675 37.5804 12.647C37.6137 12.619 37.6382 12.582 37.651 12.5404L37.6041 12.5149Z" fill="#E9E9A8"/>
</g>
<g style="mix-blend-mode:soft-light" opacity="0.71">
<path d="M37.4152 11.6065C37.4083 11.5765 37.3967 11.5477 37.381 11.5212C37.3714 11.5095 37.3588 11.5005 37.3446 11.4953C37.3303 11.49 37.3149 11.4886 37.3 11.4913C37.253 11.4913 37.2445 11.5724 37.2104 11.6065C37.1763 11.6406 37.108 11.6449 37.0867 11.6918C37.0653 11.7388 37.108 11.7899 37.1592 11.8027C37.209 11.8047 37.2581 11.7913 37.3 11.7644C37.3411 11.7452 37.3753 11.714 37.3981 11.6748C37.4128 11.6583 37.4209 11.6371 37.4209 11.615C37.4209 11.593 37.4128 11.5717 37.3981 11.5553L37.4152 11.6065Z" fill="#E9E9A8"/>
</g>
<g style="mix-blend-mode:soft-light" opacity="0.71">
<path d="M37.2832 11.2139C37.2792 11.2282 37.27 11.2405 37.2573 11.2484C37.2447 11.2563 37.2296 11.2592 37.2149 11.2565C37.2005 11.2534 37.187 11.2472 37.1752 11.2384C37.1634 11.2295 37.1537 11.2183 37.1467 11.2053C37.1425 11.19 37.1425 11.1738 37.1467 11.1584C37.1467 11.1392 37.1543 11.1207 37.1679 11.1071C37.1815 11.0935 37.2 11.0859 37.2192 11.0859C37.2384 11.0859 37.2569 11.0935 37.2705 11.1071C37.2841 11.1207 37.2917 11.1392 37.2917 11.1584C37.2898 11.1781 37.2811 11.1966 37.2671 11.2106C37.2531 11.2246 37.2347 11.2333 37.2149 11.2352L37.2832 11.2139Z" fill="#E9E9A8"/>
</g>
<g style="mix-blend-mode:soft-light" opacity="0.71">
<path d="M33.1451 12.0287C33.1451 12.0585 33.111 12.0756 33.0811 12.0713C33.0668 12.0682 33.0532 12.062 33.0414 12.0532C33.0297 12.0444 33.0199 12.0331 33.0129 12.0201C33.0087 12.0048 33.0087 11.9886 33.0129 11.9732C33.0129 11.9633 33.0149 11.9535 33.0188 11.9444C33.0227 11.9354 33.0284 11.9272 33.0356 11.9204C33.0428 11.9136 33.0513 11.9083 33.0606 11.9049C33.0699 11.9016 33.0798 11.9001 33.0897 11.9007C33.1093 11.9029 33.1273 11.9125 33.14 11.9276C33.1527 11.9427 33.1591 11.9621 33.1579 11.9818C33.156 12.0015 33.1473 12.0199 33.1333 12.0339C33.1193 12.0479 33.1009 12.0566 33.0811 12.0585L33.1451 12.0287Z" fill="#E9E9A8"/>
</g>
<g style="mix-blend-mode:soft-light" opacity="0.71">
<path d="M37.6457 11.0775C37.6605 11.0738 37.6742 11.0665 37.6854 11.0561C37.6965 11.0457 37.7049 11.0326 37.7096 11.018C37.7143 11.0035 37.7152 10.988 37.7122 10.973C37.7092 10.958 37.7025 10.9441 37.6926 10.9324C37.6608 10.9387 37.6313 10.9534 37.6073 10.9751C37.5972 10.9879 37.5918 11.0036 37.5918 11.0199C37.5918 11.0361 37.5972 11.0519 37.6073 11.0647C37.6116 11.0708 37.6174 11.0759 37.624 11.0793C37.6307 11.0828 37.6381 11.0846 37.6457 11.0846C37.6532 11.0846 37.6606 11.0828 37.6673 11.0793C37.674 11.0759 37.6797 11.0708 37.6841 11.0647L37.6457 11.0775Z" fill="#E9E9A8"/>
</g>
<g style="mix-blend-mode:soft-light" opacity="0.71">
<path d="M33.4527 6.54281C33.4672 6.53932 33.4805 6.53211 33.4913 6.52191C33.5021 6.5117 33.51 6.49885 33.5143 6.48463C33.5186 6.4704 33.5192 6.4553 33.5158 6.44081C33.5125 6.42633 33.5055 6.41296 33.4954 6.40204C33.4625 6.40473 33.432 6.42001 33.4101 6.4447C33.4 6.45747 33.3946 6.47325 33.3946 6.48949C33.3946 6.50573 33.4 6.52151 33.4101 6.53428C33.4144 6.54044 33.4202 6.54547 33.4268 6.54894C33.4335 6.55241 33.4409 6.55422 33.4485 6.55422C33.456 6.55422 33.4634 6.55241 33.4701 6.54894C33.4768 6.54547 33.4825 6.54044 33.4869 6.53428L33.4527 6.54281Z" fill="#E9E9A8"/>
</g>
<g style="mix-blend-mode:soft-light" opacity="0.71">
<path d="M32.1474 9.45636C32.1631 9.42224 32.1712 9.38513 32.1712 9.34758C32.1712 9.31002 32.1631 9.27292 32.1474 9.2388L31.9853 9.32838C31.9639 9.32838 31.9341 9.35824 31.9213 9.38384C31.9158 9.39668 31.913 9.4105 31.9131 9.42445C31.9132 9.43841 31.9161 9.4522 31.9217 9.46498C31.9273 9.47777 31.9354 9.48927 31.9456 9.49879C31.9558 9.50831 31.9679 9.51565 31.981 9.52035C32.009 9.52683 32.0383 9.52458 32.065 9.5139C32.0917 9.50323 32.1145 9.48463 32.1303 9.46062L32.1474 9.45636Z" fill="#E9E9A8"/>
</g>
<g style="mix-blend-mode:soft-light" opacity="0.71">
<path d="M33.8406 10.0835L34.0326 10.3566C34.0027 10.4035 33.9259 10.3566 33.8833 10.331C33.8388 10.2969 33.8048 10.2511 33.7852 10.1987C33.7852 10.1433 33.8065 10.0707 33.8619 10.0707L33.8406 10.0835Z" fill="#E9E9A8"/>
</g>
<g style="mix-blend-mode:soft-light" opacity="0.71">
<path d="M41.571 12.7839C41.5839 12.7686 41.5927 12.7503 41.5966 12.7306C41.6006 12.711 41.5995 12.6907 41.5936 12.6716C41.5876 12.6525 41.577 12.6352 41.5626 12.6213C41.5482 12.6073 41.5306 12.5973 41.5113 12.5919C41.471 12.5865 41.43 12.5949 41.3951 12.6159C41.3602 12.6368 41.3335 12.669 41.3193 12.7071C41.3098 12.7275 41.3065 12.7502 41.3098 12.7725C41.3131 12.7947 41.3229 12.8155 41.3378 12.8323C41.3528 12.8491 41.3723 12.8611 41.3941 12.8669C41.4158 12.8727 41.4387 12.8721 41.4601 12.865C41.5108 12.848 41.5574 12.8204 41.5966 12.7839H41.571Z" fill="#E9E9A8"/>
</g>
<g style="mix-blend-mode:soft-light" opacity="0.71">
<path d="M34.2891 8.6884C34.3166 8.66201 34.3354 8.62787 34.343 8.59053C34.3506 8.5532 34.3467 8.51442 34.3318 8.47937C34.2768 8.48402 34.2253 8.50824 34.1867 8.54763C34.1604 8.57128 34.143 8.60331 34.1376 8.63829C34.1321 8.67327 34.1389 8.70905 34.1568 8.73959C34.2038 8.79931 34.319 8.76945 34.319 8.69693L34.2891 8.6884Z" fill="#E9E9A8"/>
</g>
<g style="mix-blend-mode:soft-light" opacity="0.71">
<path d="M34.0754 9.43503C34.0749 9.46036 34.0657 9.48476 34.0494 9.50417C34.0331 9.52357 34.0107 9.53681 33.9858 9.54168L33.8877 9.40517C33.9001 9.39 33.9157 9.37777 33.9334 9.36938C33.9511 9.36098 33.9705 9.35663 33.9901 9.35663C34.0097 9.35663 34.029 9.36098 34.0467 9.36938C34.0644 9.37777 34.0801 9.39 34.0925 9.40517L34.0754 9.43503Z" fill="#E9E9A8"/>
</g>
<g style="mix-blend-mode:soft-light" opacity="0.71">
<path d="M40.2356 13.5943L40.082 13.8119C40.0643 13.8291 40.0524 13.8515 40.0479 13.8758C40.04 13.9008 40.04 13.9276 40.0479 13.9526C40.082 14.0379 40.1417 14.1403 40.2356 14.1361C40.3294 14.1318 40.3764 14.0038 40.419 13.9142C40.5043 13.7393 40.948 13.4578 40.7816 13.236C40.6153 13.0141 40.3337 13.4663 40.2356 13.5943Z" fill="#E9E9A8"/>
</g>
<g style="mix-blend-mode:soft-light" opacity="0.71">
<path d="M41.1101 12.387L41.1613 12.4339C41.1151 12.4583 41.0642 12.4729 41.012 12.4765C40.986 12.4779 40.9602 12.4707 40.9387 12.4561C40.9171 12.4415 40.9009 12.4202 40.8926 12.3955C40.8926 12.3486 40.931 12.2888 40.9779 12.3059C41.0282 12.3208 41.0728 12.3505 41.1059 12.3912L41.1101 12.387Z" fill="#E9E9A8"/>
</g>
<g style="mix-blend-mode:soft-light" opacity="0.71">
<path d="M36.9893 12.0672C36.985 12.0887 36.9748 12.1086 36.9597 12.1244C36.9445 12.1403 36.9252 12.1515 36.904 12.1568C36.8831 12.1629 36.8609 12.1624 36.8404 12.1556C36.8198 12.1487 36.8018 12.1358 36.7888 12.1184C36.7888 12.0928 36.7674 12.0544 36.7888 12.0416C36.7947 12.0386 36.8013 12.037 36.808 12.037C36.8146 12.037 36.8212 12.0386 36.8272 12.0416H36.9893V12.0672Z" fill="#E9E9A8"/>
</g>
<g style="mix-blend-mode:soft-light" opacity="0.71">
<path d="M36.1704 12.289C36.1192 12.289 36.068 12.3146 36.0339 12.353C35.9997 12.3914 35.9571 12.4426 35.9016 12.4383C35.8462 12.4341 35.8718 12.4383 35.8675 12.4127C35.8632 12.3871 35.8931 12.3487 35.9144 12.3189C35.9298 12.2931 35.9426 12.266 35.9528 12.2378C35.9663 12.2043 35.9901 12.1758 36.0208 12.1567C36.0514 12.1375 36.0874 12.1286 36.1235 12.1312C36.1397 12.1415 36.1527 12.1561 36.161 12.1735C36.1693 12.1908 36.1726 12.2102 36.1704 12.2293C36.1682 12.2487 36.1601 12.2669 36.1471 12.2814C36.1341 12.2959 36.1169 12.306 36.0979 12.3103L36.1704 12.289Z" fill="#E9E9A8"/>
</g>
<g style="mix-blend-mode:soft-light" opacity="0.71">
<path d="M36.0244 11.7728L36.0031 11.7131C35.9858 11.7116 35.9685 11.7164 35.9544 11.7266C35.9403 11.7367 35.9303 11.7516 35.9263 11.7686C35.9244 11.777 35.9243 11.7857 35.9259 11.7941C35.9275 11.8026 35.9308 11.8107 35.9355 11.8179C35.9403 11.825 35.9465 11.8312 35.9537 11.8359C35.9609 11.8406 35.969 11.8438 35.9775 11.8453C35.9856 11.8449 35.9936 11.8427 36.0008 11.8389C36.008 11.8351 36.0142 11.8297 36.0191 11.8232C36.024 11.8167 36.0274 11.8092 36.029 11.8012C36.0307 11.7933 36.0306 11.785 36.0287 11.7771L36.0244 11.7728Z" fill="#E9E9A8"/>
</g>
<g style="mix-blend-mode:soft-light" opacity="0.71">
<path d="M34.5752 11.6406L34.5539 11.5808C34.5365 11.5793 34.5193 11.5841 34.5052 11.5943C34.4911 11.6045 34.4811 11.6194 34.4771 11.6363C34.4752 11.6447 34.4751 11.6534 34.4767 11.6619C34.4783 11.6704 34.4816 11.6784 34.4863 11.6856C34.4911 11.6928 34.4973 11.6989 34.5045 11.7036C34.5117 11.7083 34.5198 11.7116 34.5283 11.7131C34.5368 11.7133 34.5452 11.7116 34.5529 11.708C34.5607 11.7045 34.5675 11.6992 34.5728 11.6926C34.5782 11.686 34.582 11.6783 34.5839 11.67C34.5857 11.6617 34.5857 11.6531 34.5837 11.6448L34.5752 11.6406Z" fill="#E9E9A8"/>
</g>
<g style="mix-blend-mode:soft-light" opacity="0.71">
<path d="M38.0507 10.8771C38.0507 10.9154 38.1019 10.941 38.1403 10.9282C38.1787 10.9154 38.2085 10.8856 38.2469 10.8685C38.2657 10.86 38.2861 10.8557 38.3066 10.8557C38.3272 10.8557 38.3476 10.86 38.3664 10.8685C38.3781 10.8726 38.3884 10.8801 38.3959 10.8899C38.4035 10.8997 38.4081 10.9116 38.409 10.924C38.4121 10.9307 38.4137 10.9379 38.4137 10.9453C38.4137 10.9527 38.4121 10.9599 38.409 10.9666C38.3713 11.0382 38.3154 11.0985 38.2469 11.1415C38.2136 11.1643 38.1742 11.1764 38.1339 11.1764C38.0935 11.1764 38.0541 11.1643 38.0208 11.1415C37.9992 11.1239 37.9829 11.1006 37.9739 11.0742C37.9648 11.0478 37.9634 11.0194 37.9696 10.9922C37.9759 10.965 37.989 10.9397 38.0077 10.9188C38.0263 10.898 38.0499 10.8821 38.0763 10.8728L38.0507 10.8771Z" fill="#E9E9A8"/>
</g>
<g style="mix-blend-mode:soft-light" opacity="0.71">
<path d="M32.6252 4.29893C32.6252 4.33732 32.6764 4.36292 32.7148 4.35012C32.7503 4.33277 32.7846 4.3128 32.8172 4.2904C32.8367 4.28206 32.8578 4.27777 32.879 4.27777C32.9003 4.27777 32.9213 4.28206 32.9409 4.2904C32.9521 4.29529 32.9619 4.30294 32.9693 4.31264C32.9768 4.32234 32.9817 4.33376 32.9835 4.34585C32.9876 4.35979 32.9876 4.37458 32.9835 4.38851C32.9484 4.46047 32.8937 4.52109 32.8257 4.56342C32.7924 4.58616 32.753 4.59832 32.7126 4.59832C32.6723 4.59832 32.6329 4.58616 32.5996 4.56342C32.5786 4.54502 32.5629 4.5214 32.5541 4.49496C32.5452 4.46853 32.5435 4.44022 32.5492 4.41291C32.5548 4.3856 32.5676 4.36027 32.5862 4.3395C32.6048 4.31873 32.6285 4.30326 32.6551 4.29466L32.6252 4.29893Z" fill="#E9E9A8"/>
</g>
<g style="mix-blend-mode:soft-light" opacity="0.71">
<path d="M38.4653 9.87443C38.4736 9.85123 38.4724 9.8257 38.462 9.80335C38.4516 9.781 38.4329 9.76363 38.4098 9.75499C38.386 9.74584 38.36 9.7438 38.335 9.74909C38.31 9.75439 38.2871 9.76681 38.269 9.78485C38.2602 9.79073 38.2533 9.79922 38.2495 9.80916C38.2457 9.81911 38.2451 9.82999 38.2477 9.8403C38.2616 9.84486 38.2765 9.84486 38.2904 9.8403L38.4738 9.87443H38.4653Z" fill="#E9E9A8"/>
</g>
<g style="mix-blend-mode:soft-light" opacity="0.71">
<path d="M32.5867 6.35935C32.7133 6.32394 32.8217 6.24155 32.8896 6.129C32.8896 6.129 32.9109 6.08634 32.8896 6.06501C32.8683 6.04368 32.8086 6.03088 32.7574 6.02661C32.7062 6.02235 32.5995 5.95409 32.5142 5.94983C32.4449 5.9557 32.3799 5.98593 32.3308 6.03515C32.2497 6.09487 32.1644 6.19725 32.2199 6.28257C32.2369 6.30209 32.2579 6.31785 32.2814 6.32887C32.3049 6.33988 32.3304 6.3459 32.3564 6.34655C32.4638 6.36356 32.5732 6.36356 32.6806 6.34655L32.5867 6.35935Z" fill="#E9E9A8"/>
</g>
<g style="mix-blend-mode:soft-light" opacity="0.71">
<path d="M36.2387 7.80117C36.3155 7.80117 36.3539 7.70731 36.3581 7.63053C36.362 7.60568 36.3605 7.58031 36.3539 7.55606C36.3473 7.5318 36.3357 7.50921 36.3197 7.48975C36.2685 7.44709 36.1918 7.48975 36.1363 7.52388L35.9913 7.61773C35.9794 7.62339 35.9689 7.63172 35.9608 7.64208C35.9526 7.65244 35.947 7.66455 35.9443 7.67745C35.9464 7.69954 35.9554 7.72042 35.9699 7.73718C36.0463 7.82415 36.1391 7.89519 36.243 7.9462L36.2387 7.80117Z" fill="#E9E9A8"/>
</g>
<g style="mix-blend-mode:soft-light" opacity="0.71">
<path d="M35.3847 10.2286C36.063 10.4077 36.2038 9.59294 35.6748 9.30712C35.1459 9.02131 34.8046 10.0707 35.3847 10.2286Z" fill="#E9E9A8"/>
</g>
<g style="mix-blend-mode:soft-light" opacity="0.71">
<path d="M38.4695 12.6685C38.4535 12.6882 38.4333 12.704 38.4105 12.7148C38.3876 12.7257 38.3626 12.7313 38.3373 12.7313C38.312 12.7313 38.2869 12.7257 38.2641 12.7148C38.2412 12.704 38.221 12.6882 38.205 12.6685C38.2503 12.6009 38.3139 12.5476 38.3885 12.515C38.4072 12.5084 38.4271 12.5057 38.4469 12.5072C38.4667 12.5086 38.486 12.5141 38.5036 12.5233C38.5212 12.5325 38.5367 12.5452 38.5492 12.5607C38.5617 12.5761 38.5709 12.5939 38.5762 12.6131L38.4951 12.7283L38.4695 12.6685Z" fill="#E9E9A8"/>
</g>
<g style="mix-blend-mode:soft-light" opacity="0.71">
<path d="M36.5751 13.9654L36.5068 13.8758C36.4064 13.9634 36.2887 14.0288 36.1613 14.0678C36.0948 14.0807 36.0303 14.1022 35.9693 14.1317C35.9385 14.1459 35.9121 14.168 35.8926 14.1957C35.8731 14.2235 35.8613 14.2558 35.8584 14.2896C35.8584 14.4176 36.0162 14.4773 36.1399 14.473C36.2219 14.4711 36.3025 14.4514 36.3762 14.4153C36.4498 14.3792 36.5148 14.3276 36.5665 14.264C36.6087 14.2009 36.6312 14.1266 36.6312 14.0507C36.6312 13.9748 36.6087 13.9005 36.5665 13.8374L36.4343 13.9227L36.5751 13.9654Z" fill="#E9E9A8"/>
</g>
<g style="mix-blend-mode:soft-light" opacity="0.71">
<path d="M35.8123 13.1078C35.8464 13.0651 35.8123 13.0438 35.7568 13.0609C35.6992 13.0808 35.6456 13.1111 35.599 13.1505L35.2577 13.3894C35.1937 13.432 35.1212 13.4917 35.1084 13.5387C35.0956 13.5856 35.1468 13.5899 35.2023 13.5728C35.2641 13.5523 35.323 13.5236 35.3772 13.4875C35.5649 13.3723 35.8038 13.2145 35.8336 13.0609L35.7227 13.0865L35.8123 13.1078Z" fill="#E9E9A8"/>
</g>
<g style="mix-blend-mode:soft-light" opacity="0.71">
<path d="M35.4625 12.4381C35.4625 12.4381 35.4369 12.4765 35.4156 12.4765C35.3931 12.4704 35.3726 12.4587 35.3559 12.4424C35.3419 12.428 35.3317 12.4104 35.326 12.3912C35.3211 12.3731 35.3227 12.3538 35.3305 12.3366C35.3383 12.3195 35.3518 12.3056 35.3687 12.2974C35.3849 12.288 35.4033 12.2831 35.422 12.2831C35.4407 12.2831 35.4591 12.288 35.4753 12.2974C35.4899 12.3077 35.5005 12.3228 35.5052 12.34C35.5067 12.349 35.5049 12.3582 35.5002 12.3661C35.4956 12.3739 35.4882 12.3798 35.4796 12.3827L35.4625 12.4381Z" fill="#E9E9A8"/>
</g>
<g style="mix-blend-mode:soft-light" opacity="0.71">
<path d="M36.8012 9.08084C36.8725 9.00578 36.9367 8.92439 36.9932 8.83769C36.985 8.82597 36.9742 8.81638 36.9616 8.8097C36.949 8.80302 36.935 8.79945 36.9207 8.79929C36.8832 8.79698 36.8457 8.8023 36.8103 8.81493C36.775 8.82755 36.7426 8.84723 36.715 8.87275C36.6875 8.89828 36.6655 8.92913 36.6502 8.96343C36.635 8.99774 36.6268 9.03478 36.6263 9.07231C36.618 9.09284 36.618 9.11578 36.6263 9.1363C36.6384 9.14599 36.6535 9.15127 36.669 9.15127C36.6845 9.15127 36.6995 9.14599 36.7117 9.1363C36.7378 9.12229 36.7599 9.10171 36.7757 9.07658L36.8012 9.08084Z" fill="#E9E9A8"/>
</g>
<g style="mix-blend-mode:soft-light" opacity="0.71">
<path d="M37.2319 10.6852L37.2063 10.6297C37.1894 10.6321 37.1732 10.6379 37.1585 10.6467C37.1439 10.6555 37.1311 10.6671 37.121 10.6809C37.121 10.7108 37.121 10.7577 37.1594 10.7534H37.1935L37.2831 10.6724L37.2319 10.6852Z" fill="#E9E9A8"/>
</g>
<g style="mix-blend-mode:soft-light" opacity="0.71">
<path d="M32.3991 8.25335C32.402 8.20048 32.3918 8.14771 32.3693 8.09978C32.3596 8.07513 32.3425 8.05409 32.3203 8.03958C32.2981 8.02506 32.272 8.01777 32.2456 8.01873C32.2199 8.0229 32.1961 8.0348 32.1773 8.05285C32.1644 8.06714 32.1545 8.08382 32.148 8.10195C32.1416 8.12008 32.1388 8.1393 32.1398 8.15851C32.1408 8.17772 32.1455 8.19655 32.1538 8.21393C32.1621 8.2313 32.1737 8.24687 32.188 8.25975C32.2022 8.27263 32.2189 8.28258 32.2371 8.28902C32.2552 8.29546 32.2744 8.29826 32.2936 8.29727C32.3128 8.29628 32.3317 8.29151 32.349 8.28325C32.3664 8.27498 32.382 8.26337 32.3949 8.24909L32.3991 8.25335Z" fill="#E9E9A8"/>
</g>
<g style="mix-blend-mode:soft-light" opacity="0.71">
<path d="M34.2457 6.23981C34.2569 6.2546 34.2641 6.27194 34.2669 6.29025C34.2696 6.30857 34.2677 6.32727 34.2613 6.34466C34.2549 6.36205 34.2443 6.37757 34.2304 6.38981C34.2165 6.40204 34.1998 6.4106 34.1817 6.41471C34.1447 6.39332 34.1127 6.36423 34.0879 6.32939C34.102 6.31035 34.1199 6.29444 34.1404 6.28269C34.161 6.27094 34.1838 6.2636 34.2073 6.26114L34.2457 6.23981Z" fill="#E9E9A8"/>
</g>
<g style="mix-blend-mode:soft-light" opacity="0.71">
<path d="M34.8905 7.42167C34.9161 7.38327 34.8351 7.34488 34.8052 7.38327C34.796 7.4047 34.7943 7.42864 34.8005 7.45114C34.8067 7.47364 34.8204 7.49334 34.8393 7.50698C34.8583 7.4972 34.8736 7.48149 34.8828 7.46224C34.8921 7.443 34.8948 7.42126 34.8905 7.40034V7.42167Z" fill="#E9E9A8"/>
</g>
<g style="mix-blend-mode:soft-light" opacity="0.71">
<path d="M38.7982 14.0977L38.7342 14.0081C38.7084 14.0187 38.6851 14.0347 38.666 14.0551C38.6694 14.0678 38.6753 14.0797 38.6835 14.0901C38.6916 14.1005 38.7018 14.1091 38.7133 14.1155C38.7249 14.1218 38.7376 14.1258 38.7507 14.1272C38.7638 14.1285 38.7771 14.1272 38.7897 14.1233L38.7982 14.0977Z" fill="#E9E9A8"/>
</g>
<g style="mix-blend-mode:soft-light" opacity="0.71">
<path d="M47.9994 13.3683L47.9311 13.283C47.9065 13.2936 47.8847 13.3097 47.8671 13.3299C47.8706 13.3426 47.8765 13.3545 47.8846 13.3649C47.8928 13.3753 47.9029 13.3839 47.9145 13.3903C47.926 13.3967 47.9387 13.4007 47.9519 13.402C47.965 13.4033 47.9782 13.402 47.9908 13.3981L47.9994 13.3683Z" fill="#E9E9A8"/>
</g>
<g style="mix-blend-mode:soft-light" opacity="0.71">
<path d="M43.3156 12.6216C43.3645 12.6627 43.4019 12.7157 43.4243 12.7754C43.4468 12.8352 43.4534 12.8998 43.4436 12.9629C43.4467 12.9769 43.4467 12.9915 43.4436 13.0055C43.433 13.0108 43.4213 13.0135 43.4094 13.0135C43.3976 13.0135 43.3859 13.0108 43.3753 13.0055C43.2345 12.9799 43.0682 12.9245 43.0468 12.788C43.0439 12.7583 43.0484 12.7283 43.06 12.7008C43.0716 12.6733 43.0899 12.6491 43.1132 12.6304C43.1365 12.6118 43.1641 12.5993 43.1935 12.594C43.2229 12.5887 43.2531 12.5909 43.2815 12.6003L43.3156 12.7112V12.6216Z" fill="#E9E9A8"/>
</g>
<g style="mix-blend-mode:soft-light" opacity="0.71">
<path d="M41.2043 23.935C41.2223 23.8296 41.2138 23.7213 41.1795 23.6201C41.1453 23.5188 41.0863 23.4276 41.008 23.3548C40.9087 23.3879 40.8184 23.4436 40.7444 23.5177C40.6703 23.5917 40.6145 23.682 40.5815 23.7814C40.5672 23.8321 40.563 23.8851 40.5692 23.9374C40.5754 23.9897 40.5918 24.0403 40.6176 24.0863C40.6433 24.1322 40.6779 24.1726 40.7193 24.2052C40.7606 24.2378 40.808 24.262 40.8587 24.2762C41.0678 24.3146 41.2853 24.0501 41.1616 23.8752L41.2043 23.935Z" fill="#E9E9A8"/>
</g>
<g style="mix-blend-mode:soft-light" opacity="0.71">
<path d="M40.5719 22.0152C40.5508 21.9461 40.5207 21.8802 40.4823 21.819H40.461C40.457 21.8171 40.4526 21.8161 40.4482 21.8161C40.4438 21.8161 40.4394 21.8171 40.4354 21.819C40.3714 21.8574 40.3629 21.9726 40.2861 21.9768C40.2093 21.9811 40.2562 21.9768 40.2477 21.9768C40.2392 21.9768 40.2477 22.0195 40.2477 22.0365C40.2688 22.056 40.2939 22.0707 40.3212 22.0794C40.3486 22.0882 40.3775 22.0908 40.406 22.0871C40.4345 22.0835 40.4618 22.0736 40.486 22.0582C40.5103 22.0429 40.5309 22.0223 40.5463 21.9982V22.0323L40.5719 22.0152Z" fill="#E9E9A8"/>
</g>
<g style="mix-blend-mode:soft-light" opacity="0.71">
<path d="M42.7354 19.3192C42.6997 19.1889 42.6435 19.0651 42.569 18.9524C42.5626 18.937 42.5503 18.9247 42.5349 18.9182C42.527 18.9141 42.5182 18.912 42.5093 18.912C42.5004 18.912 42.4916 18.9141 42.4837 18.9182C42.36 18.9865 42.343 19.2083 42.2022 19.2126C42.1766 19.2126 42.1467 19.2126 42.1297 19.2126C42.1126 19.2126 42.1297 19.2936 42.1297 19.3235C42.1692 19.3611 42.2166 19.3894 42.2684 19.4066C42.3202 19.4237 42.3752 19.4292 42.4294 19.4227C42.4836 19.4162 42.5356 19.3978 42.5819 19.3689C42.6282 19.3399 42.6675 19.3011 42.697 19.2553V19.315L42.7354 19.3192Z" fill="#E9E9A8"/>
</g>
<g style="mix-blend-mode:soft-light" opacity="0.71">
<path d="M40.9822 20.7951C40.9898 20.746 40.9861 20.6959 40.9713 20.6486C40.9565 20.6013 40.931 20.558 40.8969 20.522C40.8616 20.5493 40.8313 20.5825 40.8073 20.6201C40.796 20.6388 40.79 20.6602 40.79 20.682C40.79 20.7038 40.796 20.7252 40.8073 20.7439C40.8337 20.7596 40.864 20.768 40.8948 20.768C40.9256 20.768 40.9558 20.7596 40.9822 20.7439L40.9566 20.7865L40.9822 20.7951Z" fill="#E9E9A8"/>
</g>
<g style="mix-blend-mode:soft-light" opacity="0.71">
<path d="M40.3253 20.5136C40.3195 20.4864 40.3062 20.4612 40.2869 20.4411C40.2605 20.4326 40.2322 20.4326 40.2058 20.4411C40.1327 20.4425 40.0597 20.4353 39.9883 20.4198L40.2186 20.7056C40.2199 20.7141 40.2199 20.7227 40.2186 20.7312C40.2186 20.7653 40.193 20.7909 40.1802 20.8208C40.1674 20.8507 40.2101 20.9146 40.257 20.936C40.5812 21.0895 40.3679 20.6587 40.3253 20.5136Z" fill="#E9E9A8"/>
</g>
<g style="mix-blend-mode:soft-light" opacity="0.71">
<path d="M41.3324 18.3636L41.2727 18.2783C41.2443 18.2994 41.2229 18.3286 41.2115 18.3622C41.2001 18.3957 41.1991 18.4319 41.2087 18.466C41.2154 18.4825 41.2263 18.4971 41.2403 18.5081C41.2544 18.5192 41.2711 18.5263 41.2888 18.5289C41.3065 18.5315 41.3245 18.5294 41.3412 18.5229C41.3578 18.5163 41.3724 18.5055 41.3836 18.4916C41.4049 18.4532 41.422 18.3849 41.4604 18.4062L41.3324 18.3636Z" fill="#E9E9A8"/>
</g>
<g style="mix-blend-mode:soft-light" opacity="0.71">
<path d="M42.352 24.9927C42.3452 24.9342 42.3247 24.8782 42.2921 24.8293C42.2595 24.7803 42.2157 24.7398 42.1643 24.7111C42.1382 24.699 42.1098 24.6928 42.081 24.6931C42.0523 24.6933 42.024 24.7001 41.9982 24.7128C41.9724 24.7255 41.9498 24.7438 41.932 24.7664C41.9142 24.789 41.9018 24.8153 41.8955 24.8434C41.8949 24.8784 41.9053 24.9128 41.9254 24.9415L41.9723 24.9799C42.0013 25.0071 42.0355 25.028 42.073 25.0412C42.1105 25.0544 42.1503 25.0597 42.1899 25.0567C42.2299 25.0534 42.267 25.0346 42.2933 25.0043C42.3196 24.974 42.333 24.9346 42.3307 24.8946L42.352 24.9927Z" fill="#E9E9A8"/>
</g>
<g style="mix-blend-mode:soft-light" opacity="0.71">
<path d="M41.05 22.0024C41.0732 22.0219 41.0883 22.0492 41.0927 22.0792C41.0538 22.0752 41.0164 22.0619 40.9837 22.0403C40.951 22.0188 40.924 21.9897 40.905 21.9555C40.8794 21.9213 40.8538 21.8787 40.8751 21.8403C40.8965 21.8019 40.9221 21.8062 40.9477 21.7848C40.9733 21.7635 41.0159 21.6654 41.0756 21.6739C41.0922 21.6777 41.1071 21.6869 41.1179 21.7C41.1287 21.7131 41.1348 21.7295 41.1354 21.7464C41.1334 21.7811 41.1231 21.8147 41.1055 21.8446L41.0116 22.0451L41.05 22.0024Z" fill="#E9E9A8"/>
</g>
<g style="mix-blend-mode:soft-light" opacity="0.71">
<path d="M40.2652 21.3923C40.28 21.3887 40.2937 21.3813 40.3048 21.3709C40.316 21.3605 40.3244 21.3474 40.3291 21.3329C40.3338 21.3183 40.3347 21.3028 40.3317 21.2878C40.3287 21.2729 40.322 21.2589 40.3121 21.2473C40.2793 21.2532 40.2494 21.2697 40.2268 21.2942C40.2178 21.3066 40.2129 21.3215 40.2129 21.3368C40.2129 21.3522 40.2178 21.3671 40.2268 21.3795C40.2316 21.3857 40.2377 21.3907 40.2447 21.3942C40.2517 21.3976 40.2595 21.3994 40.2673 21.3994C40.2751 21.3994 40.2828 21.3976 40.2899 21.3942C40.2969 21.3907 40.303 21.3857 40.3078 21.3795L40.2652 21.3923Z" fill="#E9E9A8"/>
</g>
<g style="mix-blend-mode:soft-light" opacity="0.71">
<path d="M44.1892 23.0987C44.202 23.0834 44.2108 23.0651 44.2148 23.0455C44.2187 23.0258 44.2177 23.0055 44.2117 22.9864C44.2058 22.9673 44.1952 22.95 44.1808 22.9361C44.1664 22.9222 44.1487 22.9121 44.1294 22.9068C44.0891 22.9013 44.0481 22.9097 44.0133 22.9307C43.9784 22.9516 43.9516 22.9838 43.9375 23.0219C43.928 23.0423 43.9247 23.0651 43.928 23.0873C43.9313 23.1096 43.941 23.1304 43.956 23.1471C43.9709 23.1639 43.9905 23.176 44.0122 23.1818C44.034 23.1876 44.0569 23.1869 44.0783 23.1798C44.129 23.1628 44.1756 23.1352 44.2148 23.0987H44.1892Z" fill="#E9E9A8"/>
</g>
<g style="mix-blend-mode:soft-light" opacity="0.71">
<path d="M42.8544 23.9094L42.7008 24.1269C42.6912 24.1348 42.6832 24.1445 42.6774 24.1555C42.6715 24.1665 42.6679 24.1785 42.6667 24.1909C42.6606 24.2161 42.6606 24.2425 42.6667 24.2677C42.7051 24.353 42.7648 24.4597 42.8587 24.4511C42.9525 24.4426 42.9995 24.3189 43.0421 24.2293C43.1274 24.0544 43.5668 23.7728 43.4047 23.551C43.2426 23.3292 42.9525 23.7814 42.8544 23.9094Z" fill="#E9E9A8"/>
</g>
<g style="mix-blend-mode:soft-light" opacity="0.71">
<path d="M43.7293 22.7021L43.7805 22.749C43.7342 22.7735 43.6834 22.788 43.6312 22.7916C43.6058 22.7927 43.5807 22.7858 43.5593 22.7721C43.538 22.7584 43.5213 22.7384 43.5117 22.7149C43.5117 22.6637 43.5501 22.604 43.597 22.621C43.6473 22.6359 43.6919 22.6656 43.725 22.7063L43.7293 22.7021Z" fill="#E9E9A8"/>
</g>
<g style="mix-blend-mode:soft-light" opacity="0.71">
<path d="M40.6708 21.1919C40.6708 21.2303 40.722 21.2559 40.7604 21.2431C40.7988 21.2303 40.8286 21.2004 40.867 21.1833C40.8858 21.1749 40.9062 21.1705 40.9268 21.1705C40.9473 21.1705 40.9677 21.1749 40.9865 21.1833C40.9982 21.1874 41.0085 21.1949 41.0161 21.2047C41.0236 21.2146 41.0282 21.2264 41.0291 21.2388C41.0334 21.2527 41.0334 21.2676 41.0291 21.2815C40.9914 21.353 40.9355 21.4133 40.867 21.4564C40.8337 21.4791 40.7943 21.4913 40.754 21.4913C40.7137 21.4913 40.6743 21.4791 40.6409 21.4564C40.6193 21.4387 40.6031 21.4154 40.594 21.389C40.585 21.3626 40.5835 21.3342 40.5898 21.307C40.5953 21.2794 40.6081 21.2538 40.6268 21.2328C40.6456 21.2118 40.6696 21.1962 40.6964 21.1876L40.6708 21.1919Z" fill="#E9E9A8"/>
</g>
<g style="mix-blend-mode:soft-light" opacity="0.71">
<path d="M41.0843 20.1723C41.0926 20.1491 41.0914 20.1236 41.081 20.1012C41.0706 20.0789 41.0519 20.0615 41.0288 20.0528C41.005 20.0437 40.979 20.0416 40.954 20.0469C40.929 20.0522 40.9061 20.0647 40.888 20.0827C40.8827 20.091 40.8799 20.1006 40.8799 20.1104C40.8799 20.1203 40.8827 20.1299 40.888 20.1382C40.9019 20.1427 40.9169 20.1427 40.9307 20.1382L41.1141 20.1723H41.0843Z" fill="#E9E9A8"/>
</g>
<g style="mix-blend-mode:soft-light" opacity="0.71">
<path d="M41.0888 22.9836C41.0728 23.0032 41.0526 23.019 41.0297 23.0299C41.0069 23.0408 40.9818 23.0464 40.9565 23.0464C40.9312 23.0464 40.9062 23.0408 40.8833 23.0299C40.8604 23.019 40.8403 23.0032 40.8243 22.9836C40.8695 22.9159 40.9332 22.8627 41.0077 22.83C41.0262 22.8235 41.0458 22.8209 41.0653 22.8223C41.0848 22.8238 41.1038 22.8294 41.1211 22.8386C41.1383 22.8478 41.1535 22.8606 41.1656 22.876C41.1776 22.8914 41.1863 22.9092 41.1911 22.9281L41.1144 23.0433L41.0888 22.9836Z" fill="#E9E9A8"/>
</g>
<g style="mix-blend-mode:soft-light" opacity="0.71">
<path d="M41.4339 24.4125L41.37 24.323C41.3441 24.3336 41.3209 24.3496 41.3017 24.3699C41.3051 24.3826 41.3111 24.3945 41.3192 24.4049C41.3274 24.4153 41.3375 24.4239 41.349 24.4303C41.3606 24.4367 41.3733 24.4406 41.3864 24.442C41.3996 24.4433 41.4128 24.442 41.4254 24.4381L41.4339 24.4125Z" fill="#E9E9A8"/>
</g>
<g style="mix-blend-mode:soft-light" opacity="0.71">
<path d="M45.9347 22.9367C45.9835 22.9778 46.021 23.0308 46.0434 23.0906C46.0658 23.1504 46.0725 23.2149 46.0626 23.278C46.0658 23.292 46.0658 23.3066 46.0626 23.3207C46.052 23.3259 46.0404 23.3287 46.0285 23.3287C46.0167 23.3287 46.005 23.3259 45.9944 23.3207C45.8536 23.2951 45.6872 23.2396 45.6659 23.1031C45.663 23.0734 45.6675 23.0434 45.6791 23.0159C45.6907 22.9884 45.709 22.9642 45.7323 22.9456C45.7556 22.9269 45.7832 22.9144 45.8126 22.9091C45.842 22.9039 45.8722 22.906 45.9005 22.9154L45.9304 23.0263L45.9347 22.9367Z" fill="#E9E9A8"/>
</g>
<g style="mix-blend-mode:soft-light" opacity="0.71">
<path d="M38.692 19.319C38.7405 19.3594 38.7778 19.4117 38.8002 19.4707C38.8226 19.5297 38.8294 19.5936 38.8199 19.656C38.823 19.6627 38.8246 19.67 38.8246 19.6773C38.8246 19.6847 38.823 19.692 38.8199 19.6987C38.8199 19.6987 38.7773 19.6987 38.7517 19.6987C38.6152 19.6731 38.4446 19.6176 38.4232 19.4811C38.4213 19.4517 38.4266 19.4222 38.4385 19.3953C38.4504 19.3683 38.4687 19.3446 38.4917 19.3262C38.5147 19.3078 38.5418 19.2952 38.5708 19.2895C38.5997 19.2838 38.6296 19.2851 38.6579 19.2934L38.692 19.4043V19.319Z" fill="#E9E9A8"/>
</g>
</g>
<g style="mix-blend-mode:soft-light" opacity="0.51">
<g style="mix-blend-mode:soft-light" opacity="0.51">
<path d="M11.6325 4.00064L10.7794 3.62524C10.9073 3.53992 11.0353 3.46314 11.1676 3.38635L11.7904 3.65937L12.2468 3.85987C18.7265 6.69304 25.5864 8.56144 32.6079 9.40552C33.3758 9.49937 34.1479 9.58042 34.92 9.65721C36.7842 9.85344 38.7167 10.0539 40.5851 10.4293C41.3959 10.5902 42.1976 10.7939 42.9868 11.0394C43.0849 11.1972 43.183 11.3593 43.2726 11.5214C42.365 11.2225 41.4406 10.9775 40.5041 10.7877C38.6484 10.4123 36.7288 10.2118 34.8731 10.0241C34.0967 9.93876 33.3246 9.86197 32.5524 9.76812C25.4911 8.92077 18.5923 7.04227 12.0762 4.19261L11.6325 4.00064Z" fill="#5FCCCC"/>
</g>
<g style="mix-blend-mode:soft-light" opacity="0.51">
<path d="M45.6229 17.1864C43.7843 17.0627 42.014 16.427 40.2948 15.8085L39.2625 15.4416C34.9686 13.8863 30.4249 13.1357 25.859 13.2276C24.9376 13.2617 23.9948 13.3385 23.0862 13.4068C21.6574 13.548 20.2219 13.6121 18.7862 13.5987C14.4678 13.4667 10.3048 11.957 6.90568 9.2902C6.43951 8.92578 6.00039 8.52801 5.5918 8.10002C5.66858 8.0019 5.74964 7.90379 5.83496 7.80994C6.23696 8.23867 6.67199 8.6352 7.13605 8.99586C10.4718 11.6127 14.557 13.094 18.7947 13.2234C20.2189 13.2394 21.643 13.1782 23.0606 13.0399C23.9735 12.9631 24.9205 12.8906 25.8548 12.8608C30.4653 12.7627 35.0543 13.5177 39.3904 15.0875C39.736 15.207 40.0772 15.3307 40.4228 15.4587C42.0779 16.0516 43.78 16.6617 45.5205 16.8067C45.5589 16.9432 45.593 17.0712 45.6229 17.1864Z" fill="#5FCCCC"/>
</g>
</g>
<g style="mix-blend-mode:soft-light" opacity="0.51">
<g style="mix-blend-mode:soft-light" opacity="0.51">
<path d="M43.6822 34.122C43.614 34.2542 43.5457 34.3865 43.4689 34.5102L42.7267 34.5614C40.9179 34.6381 38.4992 34.3651 37.2407 32.6161C36.9933 32.2477 36.7764 31.8596 36.5923 31.4558C36.2511 30.7477 35.9311 30.0864 35.3126 29.7494C34.8437 29.5132 34.3135 29.4268 33.7939 29.502C32.7835 29.685 31.8168 30.057 30.9443 30.5983C30.1882 31.0429 29.3801 31.3925 28.5383 31.6392C27.2586 31.9549 25.8935 31.7885 24.699 31.6392H24.5625C21.8153 31.298 19.0681 30.9609 16.3208 30.6069C15.7887 30.5744 15.2695 30.429 14.7979 30.1803C14.5416 30.0396 14.3364 29.8215 14.2115 29.5572C14.0866 29.2929 14.0485 28.9958 14.1026 28.7086C14.2079 28.4006 14.3899 28.1246 14.6315 27.9066C14.7662 27.7778 14.8863 27.6348 14.9899 27.48C15.1252 27.1928 15.168 26.8706 15.1122 26.558C15.0564 26.2454 14.9048 25.9579 14.6785 25.7352C14.1843 25.2618 13.5493 24.9623 12.8697 24.8821C11.1634 24.592 9.38876 24.9844 7.68241 25.3598C6.18409 25.7664 4.63607 25.9602 3.08378 25.9357C2.04803 25.8696 1.03446 25.6061 0.097659 25.1593C0.097659 25.0143 0.0720694 24.8693 0.0635376 24.7327C1.00697 25.218 2.03851 25.5082 3.09658 25.5859C4.5939 25.684 6.11683 25.3428 7.58856 25.0186C9.32904 24.6304 11.1335 24.2336 12.9166 24.5365C13.6735 24.6244 14.3814 24.9551 14.9344 25.4793C15.2194 25.7591 15.4085 26.122 15.4744 26.516C15.5403 26.9099 15.4797 27.3146 15.3013 27.6719C15.1781 27.855 15.0351 28.0238 14.8747 28.1753C14.6833 28.3531 14.5371 28.5739 14.4481 28.8195C14.418 29.0298 14.4529 29.2443 14.5482 29.4342C14.6435 29.624 14.7947 29.7802 14.9813 29.8817C15.4068 30.0999 15.8733 30.2264 16.3507 30.2528C19.0979 30.6083 21.8466 30.9524 24.5966 31.2852L24.7332 31.3065C25.9617 31.4558 27.2372 31.6136 28.453 31.3065C29.2649 31.0672 30.0443 30.7291 30.7737 30.2997C31.6883 29.7361 32.7016 29.3511 33.7598 29.165C34.3579 29.0709 34.9704 29.1742 35.5045 29.4594C36.2212 29.8859 36.5838 30.6197 36.9336 31.3406C37.1068 31.7269 37.3123 32.0979 37.5479 32.4497C38.7082 34.0665 40.999 34.3139 42.7096 34.2371C43.0296 34.1732 43.358 34.1518 43.6822 34.122Z" fill="#5FCCCC"/>
</g>
</g>
<g style="mix-blend-mode:soft-light" opacity="0.51">
<g style="mix-blend-mode:soft-light" opacity="0.51">
<path d="M30.3522 45.2728C30.2199 45.3155 30.0962 45.3581 29.9683 45.3923C29.615 44.9272 29.301 44.4335 29.0298 43.9163C28.9615 43.7925 28.8847 43.6646 28.8165 43.5366C27.3831 41.0496 25.5531 39.228 23.5182 38.2597C21.172 37.1463 18.476 37.078 15.9122 37.1634C12.8876 37.2657 9.45359 37.6369 6.89406 39.5693L6.66797 39.275C9.30855 37.2743 12.8151 36.8989 15.8994 36.788C18.5101 36.6984 21.2616 36.788 23.6761 37.9227C25.7791 38.9209 27.6689 40.8022 29.1407 43.3532C29.2089 43.4769 29.2857 43.6091 29.354 43.7371C29.6384 44.2788 29.9726 44.793 30.3522 45.2728Z" fill="#5FCCCC"/>
</g>
</g>
<g style="mix-blend-mode:soft-light" opacity="0.51">
<g style="mix-blend-mode:soft-light" opacity="0.51">
<path d="M41.2472 8.59906L40.6287 8.47535C37.962 7.93072 35.245 7.67046 32.5235 7.69896C32.1976 7.72507 31.8699 7.68591 31.5594 7.58377C30.8854 7.31929 30.6379 6.64101 30.399 5.98407C30.3026 5.69948 30.1842 5.42279 30.045 5.15649C29.452 4.11561 28.168 3.75727 27.174 3.77007C26.1757 3.83427 25.1916 4.04113 24.2519 4.38436L23.7784 4.53366C21.1506 5.33138 19.0347 5.57028 17.1151 5.28446C15.2486 5.04019 13.5273 4.14783 12.252 2.76332C12.3671 2.7036 12.478 2.63961 12.5975 2.58415C13.8047 3.86701 15.4193 4.69165 17.1663 4.91759C19.0305 5.19061 21.0994 4.95599 23.6717 4.1796L24.1367 4.03029C25.112 3.67467 26.1336 3.46202 27.1698 3.39894C28.2704 3.39894 29.6994 3.7914 30.3692 4.97305C30.52 5.25638 30.647 5.55174 30.7489 5.85609C30.9707 6.46185 31.1754 7.03348 31.7001 7.23824C31.9604 7.32057 32.2344 7.35101 32.5064 7.32782C35.264 7.29168 38.0174 7.55486 40.7182 8.11275L40.8846 8.14261C40.9998 8.29191 41.1278 8.44549 41.2472 8.59906Z" fill="#5FCCCC"/>
</g>
</g>
<defs>
<radialGradient id="paint0_radial_2_3758" cx="0" cy="0" r="1" gradientUnits="userSpaceOnUse" gradientTransform="translate(19.1149 44.7653) scale(45.3421)">
<stop offset="0.59" stop-color="#1622A0"/>
<stop offset="1" stop-color="#5757E8"/>
</radialGradient>
</defs>
</svg>
