<svg width="268" height="63" viewBox="0 0 268 63" fill="none" xmlns="http://www.w3.org/2000/svg">
<path fill-rule="evenodd" clip-rule="evenodd" d="M112.356 8.27857C112.356 8.6728 112.356 9.86693 112.356 10.2824C112.356 10.8817 112.356 11.0382 112.356 11.0382H115.116V14.5863C115.116 17.543 115.116 18.1344 115.116 18.9228C116.101 18.9228 117.678 18.9228 118.27 18.9228C118.27 18.1344 118.27 17.543 118.27 14.5863L118.299 11.0382H121.015C121.015 11.0382 121.029 9.46127 121.029 8.27857C120.438 8.27857 119.588 8.25531 116.89 8.27857C114.919 8.27857 112.75 8.27857 112.356 8.27857ZM123 8.27857C123 9.46127 123 18.1344 123 18.9228C123.395 18.9228 125.531 18.9228 126.154 18.9228C126.154 18.9228 126.154 18.7257 126.146 17.4445C126.146 14.9805 126.154 14.9805 126.154 14.9805H128.914V16.9517C128.914 18.8479 128.914 18.9228 128.914 18.9228C129.771 18.9228 131.279 18.9228 132.068 18.9228C132.068 17.9373 132.068 16.2712 132.068 13.9949C132.068 12.088 132.068 9.54011 132.068 8.27857C130.885 8.27857 129.925 8.27857 128.914 8.27857C128.914 8.27857 128.914 7.95924 128.914 9.8555V13.0094H126.154C126.154 13.0094 126.154 12.8122 126.154 11.0382C126.154 9.46127 126.154 8.96943 126.154 8.27857C125.64 8.27857 123.395 8.27857 123 8.27857ZM134.039 8.27857C134.039 9.26415 134.039 18.1344 134.039 18.9228C134.63 18.9228 135.695 18.9228 137.193 18.9228C139.753 18.9228 140.741 18.9228 140.741 18.9228C140.741 18.5708 140.741 16.9517 140.741 16.9517C138.901 16.9517 136.799 16.9517 136.799 16.9517C136.799 16.0319 136.799 14.9805 136.799 14.9805C138.638 14.9805 140.741 14.9805 140.741 14.9805C140.741 14.0608 140.741 13.0094 140.741 13.0094C138.901 13.0094 136.799 13.0094 136.799 13.0094C136.799 12.0896 136.799 11.0382 136.799 11.0382C138.153 11.0382 140.741 11.0382 140.741 11.0382C140.741 10.5199 140.741 8.86992 140.741 8.27857C139.952 8.27857 138.492 8.27857 137.193 8.27857C135.695 8.27857 134.433 8.27857 134.039 8.27857ZM1.85092 24.4023L0 26.3336V34.5683V42.8034L1.886 44.6614L3.77241 46.5191H11.9527H20.1334L20.0211 50.56L19.9087 54.6008H15.9664H12.0241L11.905 52.5311L11.7856 50.4614H5.89298H0V54.5523V58.6429L2.06972 60.6618L4.13944 62.6802L16.1375 62.6814L28.1355 62.6826L30.0342 60.7126L31.9328 58.743V50.5466V42.3501L30.0551 40.5007L28.1777 38.6514L20.1007 38.5442L12.0241 38.4373V34.495V30.5527H15.9664H19.9087L20.0278 32.6224L20.1472 34.6921H26.0398H31.9328V30.4391V26.1866L30.0468 24.3285L28.1604 22.4709H15.9313H3.70184L1.85092 24.4023ZM38.1278 24.3565L36.2705 26.2418L36.239 42.5448L36.2075 58.8475L38.0962 60.765L39.985 62.6826H44.0404H48.0963V54.6008V46.5191H52.0386H55.9809V54.6008V62.6826L60.0218 62.6822L64.0627 62.6818L66.1324 60.6964L68.2021 58.7111V42.6473V26.5836L66.1202 24.5272L64.0379 22.4709H52.0114H39.985L38.1278 24.3565ZM74.2008 24.5529L72.1445 26.6352V42.6028V58.57L74.2264 60.6263L76.3087 62.6826H80.337H84.3656V50.5856V38.4886L90.2744 44.3764L96.1835 50.2643L96.1879 56.4734L96.1926 62.6826H100.247H104.301L106.357 60.6006L108.414 58.5183V42.5507V26.5836L106.332 24.5272L104.25 22.4709H100.221H96.1926V28.4782V34.4855L90.1758 28.4782L84.1595 22.4709H80.2081H76.2571L74.2008 24.5529ZM112.356 42.5768V62.6826H126.463H140.571L142.627 60.6006L144.683 58.5183V42.5507V26.5836L142.601 24.5272L140.519 22.4709H126.438H112.356V42.5768ZM148.625 42.5768V62.6826H162.734H176.843L178.701 60.7966L180.558 58.9102V52.6297V46.3492L178.701 44.4628L176.843 42.5768L178.701 40.6907L180.558 38.8043V32.4955V26.1866L178.672 24.3285L176.786 22.4709H162.706H148.625V42.5768ZM186.752 24.3569L184.895 26.2433V42.6051V58.967L186.781 60.825L188.667 62.6826H200.691H212.715L214.771 60.6006L216.828 58.5183V42.5042V26.4897L214.758 24.4851L212.688 22.4808L200.649 22.4756L188.61 22.4709L186.752 24.3569ZM222.826 24.5529L220.77 26.6352V32.5238V38.4125L222.826 40.4948L224.883 42.5768L222.826 44.6587L220.77 46.741V52.6557V58.57L222.852 60.6263L224.934 62.6826H228.962H232.991V56.6556V50.6289L234.962 48.6873L236.933 46.7458L238.905 48.6873L240.876 50.6289V56.6556V62.6826H244.93H248.984L251.041 60.6006L253.097 58.5183V52.6297V46.741L251.041 44.6587L248.984 42.5768L251.041 40.4948L253.097 38.4125V32.4978V26.5836L251.015 24.5272L248.933 22.4709H244.904H240.876V28.4979V34.5246L238.905 36.4662L236.933 38.4077L234.962 36.4662L232.991 34.5246V28.4979V22.4709H228.937H224.883L222.826 24.5529ZM54.7494 32.4746L57.2405 34.9878L54.8775 37.4025C53.5781 38.7306 52.3682 39.8171 52.1888 39.8171C52.0094 39.8171 50.7491 38.7133 49.3878 37.3642L46.9128 34.9113L49.3657 32.4363C50.7148 31.075 51.9176 29.9613 52.0386 29.9613C52.1597 29.9613 53.3794 31.0924 54.7494 32.4746ZM132.462 42.5768V54.7979H128.52H124.577V42.5768V30.3556H128.52H132.462V42.5768ZM168.647 34.6074L168.759 38.6624L164.704 38.5497L160.65 38.4373L160.535 34.9204C160.471 32.9863 160.513 31.1614 160.626 30.8653C160.786 30.4498 161.714 30.3528 164.684 30.4399L168.534 30.5527L168.647 34.6074ZM204.804 42.5768V54.6008L200.763 54.7132L196.722 54.8255V42.5768V30.328L200.763 30.4403L204.804 30.5527V42.5768ZM168.647 50.56L168.534 54.6008H164.592H160.65L160.535 51.0839C160.471 49.1498 160.51 47.3312 160.621 47.043C160.77 46.6551 161.853 46.5191 164.791 46.5191H168.759L168.647 50.56Z" fill="white"/>
<path d="M134.433 5.51925V2.75962V0H137.193H139.952V2.75962V5.51925H137.193H134.433Z" fill="#3BBFF0"/>
<rect x="260.432" y="35.0874" width="10.7027" height="10.7027" transform="rotate(45 260.432 35.0874)" fill="#3BBFF0"/>
</svg>
