<svg width="40" height="40" viewBox="0 0 40 40" fill="none" xmlns="http://www.w3.org/2000/svg">
<path d="M19.9998 36C22.9702 36 25.819 34.82 27.9194 32.7196C30.0198 30.6192 31.1998 27.7704 31.1998 24.8V15.2C31.1998 12.2296 30.0198 9.38081 27.9194 7.2804C25.819 5.18 22.9702 4 19.9998 4C17.0294 4 14.1806 5.18 12.0802 7.2804C9.9798 9.38081 8.7998 12.2296 8.7998 15.2V24.8C8.7998 27.7704 9.9798 30.6192 12.0802 32.7196C14.1806 34.82 17.0294 36 19.9998 36ZM10.3998 15.2C10.3998 12.6539 11.4112 10.2121 13.2116 8.41177C15.0119 6.61143 17.4537 5.6 19.9998 5.6C22.5459 5.6 24.9877 6.61143 26.788 8.41177C28.5884 10.2121 29.5998 12.6539 29.5998 15.2V24.8C29.5998 27.3461 28.5884 29.7879 26.788 31.5882C24.9877 33.3886 22.5459 34.4 19.9998 34.4C17.4537 34.4 15.0119 33.3886 13.2116 31.5882C11.4112 29.7879 10.3998 27.3461 10.3998 24.8V15.2Z" fill="white"/>
<path d="M19.1998 19.5998H19.2718L19.4318 19.7678C19.5062 19.8428 19.5947 19.9023 19.6922 19.9429C19.7897 19.9835 19.8942 20.0044 19.9998 20.0044C20.1054 20.0044 20.21 19.9835 20.3075 19.9429C20.405 19.9023 20.4935 19.8428 20.5678 19.7678L20.7278 19.5998H20.7998V19.5278L25.3678 14.9678L24.2318 13.8318L20.7998 17.2718V8.7998H19.1998V17.2718L15.7678 13.8318L14.6318 14.9678L19.1998 19.5278V19.5998Z" fill="white"/>
</svg>
