<svg width="1788" height="388" viewBox="0 0 1788 388" fill="none" xmlns="http://www.w3.org/2000/svg">
<path opacity="0.3" d="M888.293 276.707C888.683 277.098 889.317 277.098 889.707 276.707L896.071 270.343C896.462 269.953 896.462 269.319 896.071 268.929C895.681 268.538 895.047 268.538 894.657 268.929L889 274.586L883.343 268.929C882.953 268.538 882.319 268.538 881.929 268.929C881.538 269.319 881.538 269.953 881.929 270.343L888.293 276.707ZM890 276V272.804H888V276H890ZM890 266.411V260.018H888V266.411H890ZM890 253.625V247.232H888V253.625H890ZM890 240.839V234.446H888V240.839H890ZM890 228.054V221.661H888V228.054H890ZM890 215.268V212.071H888V215.268H890ZM890 212.071C890 211.008 890.069 209.961 890.203 208.936L888.22 208.677C888.075 209.788 888 210.921 888 212.071H890ZM891.821 202.885C892.63 200.934 893.689 199.113 894.958 197.461L893.372 196.243C891.997 198.031 890.85 200.004 889.973 202.119L891.821 202.885ZM899.39 193.029C901.042 191.76 902.863 190.701 904.813 189.892L904.047 188.045C901.933 188.921 899.96 190.069 898.171 191.444L899.39 193.029ZM910.864 188.274C911.89 188.141 912.937 188.071 914 188.071V186.071C912.85 186.071 911.717 186.146 910.605 186.291L910.864 188.274ZM914 188.071H917.636V186.071H914V188.071ZM924.909 188.071H932.182V186.071H924.909V188.071ZM939.455 188.071H946.727V186.071H939.455V188.071ZM954 188.071H961.273V186.071H954V188.071ZM968.545 188.071H975.818V186.071H968.545V188.071ZM983.091 188.071H990.364V186.071H983.091V188.071ZM997.636 188.071H1004.91V186.071H997.636V188.071ZM1012.18 188.071H1019.45V186.071H1012.18V188.071ZM1026.73 188.071H1034V186.071H1026.73V188.071ZM1041.27 188.071H1048.55V186.071H1041.27V188.071ZM1055.82 188.071H1063.09V186.071H1055.82V188.071ZM1070.36 188.071H1074V186.071H1070.36V188.071ZM1074 188.071C1075.15 188.071 1076.28 187.997 1077.39 187.852L1077.14 185.869C1076.11 186.002 1075.06 186.071 1074 186.071V188.071ZM1083.95 186.098C1086.07 185.221 1088.04 184.074 1089.83 182.699L1088.61 181.113C1086.96 182.383 1085.14 183.442 1083.19 184.251L1083.95 186.098ZM1094.63 177.9C1096 176.112 1097.15 174.138 1098.03 172.024L1096.18 171.258C1095.37 173.209 1094.31 175.03 1093.04 176.682L1094.63 177.9ZM1099.78 165.466C1099.93 164.355 1100 163.221 1100 162.071H1098C1098 163.135 1097.93 164.181 1097.8 165.207L1099.78 165.466ZM1100 162.071V158.817H1098V162.071H1100ZM1100 152.308V145.799H1098V152.308H1100ZM1100 139.29V132.781H1098V139.29H1100ZM1100 126.272V119.763H1098V126.272H1100ZM1100 113.254V110H1098V113.254H1100Z" fill="white"/>
<path opacity="0.3" d="M1635.29 276.707C1635.68 277.098 1636.32 277.098 1636.71 276.707L1643.07 270.343C1643.46 269.953 1643.46 269.319 1643.07 268.929C1642.68 268.538 1642.05 268.538 1641.66 268.929L1636 274.586L1630.34 268.929C1629.95 268.538 1629.32 268.538 1628.93 268.929C1628.54 269.319 1628.54 269.953 1628.93 270.343L1635.29 276.707ZM1292 70H1295.57V68H1292V70ZM1302.7 70H1309.84V68H1302.7V70ZM1316.98 70H1324.11V68H1316.98V70ZM1331.25 70H1338.39V68H1331.25V70ZM1345.52 70H1352.66V68H1345.52V70ZM1359.8 70H1366.93V68H1359.8V70ZM1374.07 70H1381.2V68H1374.07V70ZM1388.34 70H1395.48V68H1388.34V70ZM1402.61 70H1409.75V68H1402.61V70ZM1416.89 70H1424.02V68H1416.89V70ZM1431.16 70H1438.3V68H1431.16V70ZM1445.43 70H1452.57V68H1445.43V70ZM1459.7 70H1466.84V68H1459.7V70ZM1473.98 70H1481.11V68H1473.98V70ZM1488.25 70H1495.39V68H1488.25V70ZM1502.52 70H1509.66V68H1502.52V70ZM1516.8 70H1523.93V68H1516.8V70ZM1531.07 70H1538.2V68H1531.07V70ZM1545.34 70H1552.48V68H1545.34V70ZM1559.61 70H1566.75V68H1559.61V70ZM1573.89 70H1581.02V68H1573.89V70ZM1588.16 70H1595.3V68H1588.16V70ZM1602.43 70H1606V68H1602.43V70ZM1606 70C1607.28 70 1608.55 70.0835 1609.79 70.2452L1610.05 68.262C1608.72 68.0891 1607.37 68 1606 68V70ZM1617.1 72.2001C1619.46 73.1776 1621.66 74.4572 1623.65 75.9909L1624.87 74.4051C1622.74 72.7661 1620.39 71.398 1617.87 70.3527L1617.1 72.2001ZM1629.01 81.3458C1630.54 83.3417 1631.82 85.5423 1632.8 87.8994L1634.65 87.1333C1633.6 84.6125 1632.23 82.26 1630.59 80.1272L1629.01 81.3458ZM1634.75 95.2111C1634.92 96.4507 1635 97.7153 1635 99H1637C1637 97.6286 1636.91 96.2776 1636.74 94.9524L1634.75 95.2111ZM1635 99V102.404H1637V99H1635ZM1635 109.212V116.019H1637V109.212H1635ZM1635 122.827V129.635H1637V122.827H1635ZM1635 136.442V143.25H1637V136.442H1635ZM1635 150.058V156.865H1637V150.058H1635ZM1635 163.673V170.481H1637V163.673H1635ZM1635 177.288V184.096H1637V177.288H1635ZM1635 190.904V197.712H1637V190.904H1635ZM1635 204.519V211.327H1637V204.519H1635ZM1635 218.135V224.942H1637V218.135H1635ZM1635 231.75V238.558H1637V231.75H1635ZM1635 245.365V252.173H1637V245.365H1635ZM1635 258.981V265.788H1637V258.981H1635ZM1635 272.596V276H1637V272.596H1635Z" fill="white"/>
<path opacity="0.3" d="M1477.29 84.7071C1477.68 85.0976 1478.32 85.0976 1478.71 84.7071L1485.07 78.3431C1485.46 77.9526 1485.46 77.3195 1485.07 76.9289C1484.68 76.5384 1484.05 76.5384 1483.66 76.9289L1478 82.5858L1472.34 76.9289C1471.95 76.5384 1471.32 76.5384 1470.93 76.9289C1470.54 77.3195 1470.54 77.9526 1470.93 78.3431L1477.29 84.7071ZM1292 55H1295.35V53H1292V55ZM1302.06 55H1308.77V53H1302.06V55ZM1315.48 55H1322.19V53H1315.48V55ZM1328.9 55H1335.6V53H1328.9V55ZM1342.31 55H1349.02V53H1342.31V55ZM1355.73 55H1362.44V53H1355.73V55ZM1369.15 55H1375.85V53H1369.15V55ZM1382.56 55H1389.27V53H1382.56V55ZM1395.98 55H1402.69V53H1395.98V55ZM1409.4 55H1416.1V53H1409.4V55ZM1422.81 55H1429.52V53H1422.81V55ZM1436.23 55H1442.94V53H1436.23V55ZM1449.65 55H1453V53H1449.65V55ZM1453 55C1454.06 55 1455.11 55.0691 1456.14 55.2029L1456.39 53.2197C1455.28 53.0747 1454.15 53 1453 53V55ZM1462.19 56.8207C1464.14 57.6296 1465.96 58.6886 1467.61 59.9579L1468.83 58.3721C1467.04 56.9975 1465.07 55.85 1462.95 54.9733L1462.19 56.8207ZM1472.04 64.3897C1473.31 66.0415 1474.37 67.8628 1475.18 69.8134L1477.03 69.0472C1476.15 66.933 1475 64.9599 1473.63 63.1711L1472.04 64.3897ZM1476.8 75.8641C1476.93 76.89 1477 77.9367 1477 79H1479C1479 77.85 1478.93 76.7169 1478.78 75.6054L1476.8 75.8641ZM1477 79V80.25H1479V79H1477ZM1477 82.75V84H1479V82.75H1477Z" fill="white"/>
<path opacity="0.3" d="M1306.29 180.707C1306.68 181.098 1307.32 181.098 1307.71 180.707L1314.07 174.343C1314.46 173.953 1314.46 173.319 1314.07 172.929C1313.68 172.538 1313.05 172.538 1312.66 172.929L1307 178.586L1301.34 172.929C1300.95 172.538 1300.32 172.538 1299.93 172.929C1299.54 173.319 1299.54 173.953 1299.93 174.343L1306.29 180.707ZM1206 110V113.209H1208V110H1206ZM1206 119.628V122.838H1208V119.628H1206ZM1206 122.838C1206 123.988 1206.07 125.121 1206.22 126.232L1208.2 125.974C1208.07 124.948 1208 123.901 1208 122.838H1206ZM1207.97 132.791C1208.85 134.905 1210 136.878 1211.37 138.667L1212.96 137.448C1211.69 135.796 1210.63 133.975 1209.82 132.024L1207.97 132.791ZM1216.17 143.466C1217.96 144.84 1219.93 145.988 1222.05 146.865L1222.81 145.017C1220.86 144.208 1219.04 143.149 1217.39 141.88L1216.17 143.466ZM1228.61 148.618C1229.72 148.763 1230.85 148.838 1232 148.838V146.838C1230.94 146.838 1229.89 146.769 1228.86 146.635L1228.61 148.618ZM1232 148.838H1235.12V146.838H1232V148.838ZM1241.38 148.838H1247.62V146.838H1241.38V148.838ZM1253.88 148.838H1260.12V146.838H1253.88V148.838ZM1266.38 148.838H1272.62V146.838H1266.38V148.838ZM1278.88 148.838H1282V146.838H1278.88V148.838ZM1282 148.838C1283.06 148.838 1284.11 148.907 1285.14 149.041L1285.39 147.058C1284.28 146.913 1283.15 146.838 1282 146.838V148.838ZM1291.19 150.659C1293.14 151.467 1294.96 152.526 1296.61 153.796L1297.83 152.21C1296.04 150.835 1294.07 149.688 1291.95 148.811L1291.19 150.659ZM1301.04 158.228C1302.31 159.879 1303.37 161.701 1304.18 163.651L1306.03 162.885C1305.15 160.771 1304 158.798 1302.63 157.009L1301.04 158.228ZM1305.8 169.702C1305.93 170.728 1306 171.775 1306 172.838H1308C1308 171.688 1307.93 170.555 1307.78 169.443L1305.8 169.702ZM1306 172.838V174.628H1308V172.838H1306ZM1306 178.209V180H1308V178.209H1306Z" fill="white"/>
<path opacity="0.3" d="M1051.21 73.2071C1051.6 72.8166 1051.6 72.1834 1051.21 71.7929L1044.84 65.4289C1044.45 65.0384 1043.82 65.0384 1043.43 65.4289C1043.04 65.8195 1043.04 66.4526 1043.43 66.8431L1049.09 72.5L1043.43 78.1569C1043.04 78.5474 1043.04 79.1805 1043.43 79.5711C1043.82 79.9616 1044.45 79.9616 1044.84 79.5711L1051.21 73.2071ZM565.5 73.5H568.964V71.5H565.5V73.5ZM575.893 73.5H582.821V71.5H575.893V73.5ZM589.75 73.5H596.679V71.5H589.75V73.5ZM603.607 73.5H610.536V71.5H603.607V73.5ZM617.464 73.5H624.393V71.5H617.464V73.5ZM631.321 73.5H638.25V71.5H631.321V73.5ZM645.179 73.5H652.107V71.5H645.179V73.5ZM659.036 73.5H665.964V71.5H659.036V73.5ZM672.893 73.5H679.821V71.5H672.893V73.5ZM686.75 73.5H693.679V71.5H686.75V73.5ZM700.607 73.5H707.536V71.5H700.607V73.5ZM714.464 73.5H721.393V71.5H714.464V73.5ZM728.321 73.5H735.25V71.5H728.321V73.5ZM742.179 73.5H749.107V71.5H742.179V73.5ZM756.036 73.5H762.964V71.5H756.036V73.5ZM769.893 73.5H776.821V71.5H769.893V73.5ZM783.75 73.5H790.679V71.5H783.75V73.5ZM797.607 73.5H804.536V71.5H797.607V73.5ZM811.464 73.5H818.393V71.5H811.464V73.5ZM825.321 73.5H832.25V71.5H825.321V73.5ZM839.179 73.5H846.107V71.5H839.179V73.5ZM853.036 73.5H859.964V71.5H853.036V73.5ZM866.893 73.5H873.821V71.5H866.893V73.5ZM880.75 73.5H887.678V71.5H880.75V73.5ZM894.607 73.5H901.536V71.5H894.607V73.5ZM908.464 73.5H915.393V71.5H908.464V73.5ZM922.321 73.5H929.25V71.5H922.321V73.5ZM936.178 73.5H943.107V71.5H936.178V73.5ZM950.036 73.5H956.964V71.5H950.036V73.5ZM963.893 73.5H970.821V71.5H963.893V73.5ZM977.75 73.5H984.678V71.5H977.75V73.5ZM991.607 73.5H998.535V71.5H991.607V73.5ZM1005.46 73.5H1012.39V71.5H1005.46V73.5ZM1019.32 73.5H1026.25V71.5H1019.32V73.5ZM1033.18 73.5H1040.11V71.5H1033.18V73.5ZM1047.04 73.5H1050.5V71.5H1047.04V73.5Z" fill="white"/>
<path opacity="0.3" d="M445.293 111.293C445.683 110.902 446.317 110.902 446.707 111.293L453.071 117.657C453.462 118.047 453.462 118.681 453.071 119.071C452.681 119.462 452.047 119.462 451.657 119.071L446 113.414L440.343 119.071C439.953 119.462 439.319 119.462 438.929 119.071C438.538 118.681 438.538 118.047 438.929 117.657L445.293 111.293ZM445 282V278.458H447V282H445ZM445 271.375V264.292H447V271.375H445ZM445 257.208V250.125H447V257.208H445ZM445 243.042V235.958H447V243.042H445ZM445 228.875V221.792H447V228.875H445ZM445 214.708V207.625H447V214.708H445ZM445 200.542V193.458H447V200.542H445ZM445 186.375V179.292H447V186.375H445ZM445 172.208V165.125H447V172.208H445ZM445 158.042V150.958H447V158.042H445ZM445 143.875V136.792H447V143.875H445ZM445 129.708V122.625H447V129.708H445ZM445 115.542V112H447V115.542H445Z" fill="white"/>
<g filter="url(#filter0_d_127_2)">
<rect x="325" y="30" width="240" height="80" rx="14" fill="url(#paint0_radial_127_2)"/>
<rect x="326" y="31" width="238" height="78" rx="13" stroke="white" stroke-opacity="0.1" stroke-width="2"/>
</g>
<path d="M416.511 63H418.991L424.111 77H421.351L420.211 73.9H415.291L414.151 77H411.391L416.511 63ZM419.611 71.66L417.751 66.34H417.711L415.911 71.66H419.611ZM424.928 74.92V69.12L426.988 67.04H432.708L434.768 69.12V74.92L432.708 77H426.988L424.928 74.92ZM431.428 74.8L432.128 74.1V69.94L431.428 69.24H428.268L427.568 69.94V74.1L428.268 74.8H431.428ZM436.471 74.84V72.84H439.151V74.02L439.811 74.68H443.951L444.631 74V71.68L443.971 71.02H438.671L436.511 68.86V65.16L438.671 63H444.991L447.151 65.16V67.18H444.471V65.98L443.811 65.32H439.851L439.191 65.98V68.04L439.851 68.7H445.151L447.311 70.86V74.8L445.111 77H438.631L436.471 74.84ZM453.854 63H456.654L460.134 73.76H460.174L463.654 63H466.454L461.474 77H458.834L453.854 63ZM471.642 69.78L466.962 63H470.022L473.182 67.6L476.342 63H479.402L474.722 69.86L479.602 77H476.542L473.182 72.06L469.822 77H466.762L471.642 69.78Z" fill="white"/>
<g filter="url(#filter1_d_127_2)">
<rect x="1052.5" y="30" width="240" height="80" rx="14" fill="url(#paint1_radial_127_2)"/>
<rect x="1053.5" y="31" width="238" height="78" rx="13" stroke="white" stroke-opacity="0.1" stroke-width="2"/>
</g>
<path d="M1080.17 74.84V72.84H1082.85V74.02L1083.51 74.68H1087.65L1088.33 74V71.68L1087.67 71.02H1082.37L1080.21 68.86V65.16L1082.37 63H1088.69L1090.85 65.16V67.18H1088.17V65.98L1087.51 65.32H1083.55L1082.89 65.98V68.04L1083.55 68.7H1088.85L1091.01 70.86V74.8L1088.81 77H1082.33L1080.17 74.84ZM1092.71 75.16V72.88L1094.55 71.04H1099.61V69.78L1098.99 69.16H1095.99L1095.39 69.78V70.34H1092.79V69.2L1094.93 67.04H1100.07L1102.21 69.2V77H1099.83V75.58L1098.35 77H1094.55L1092.71 75.16ZM1098.17 74.96L1099.61 73.58V72.92H1095.85L1095.31 73.46V74.46L1095.81 74.96H1098.17ZM1104.51 67.04H1106.95V68.7L1108.61 67.04H1111.83L1114.05 69.26V77H1111.41V69.98L1110.73 69.28H1109.05L1107.15 71.2V77H1104.51V67.04ZM1116.15 74.92V69.12L1118.21 67.04H1122.17L1123.35 68.06V62.72H1125.99V77H1123.51V75.46L1121.97 77H1118.21L1116.15 74.92ZM1121.73 74.76L1123.35 73.1V70.5L1121.99 69.28H1119.55L1118.79 70.06V73.98L1119.55 74.76H1121.73ZM1128.38 74.84V62.72H1131.02V68.42L1132.48 67.04H1136.12L1138.18 69.12V74.92L1136.12 77H1130.52L1128.38 74.84ZM1134.78 74.76L1135.54 73.98V70.06L1134.78 69.28H1132.82L1131.02 71.08V73.98L1131.78 74.76H1134.78ZM1140.17 74.92V69.12L1142.23 67.04H1147.95L1150.01 69.12V74.92L1147.95 77H1142.23L1140.17 74.92ZM1146.67 74.8L1147.37 74.1V69.94L1146.67 69.24H1143.51L1142.81 69.94V74.1L1143.51 74.8H1146.67ZM1158.1 77L1155.9 73.96L1153.7 77H1150.72L1154.44 71.94L1150.82 67.04H1153.8L1155.9 69.96L1158 67.04H1160.98L1157.38 71.98L1161.08 77H1158.1ZM1167.93 63H1170.45L1174.61 72.04H1174.65L1178.83 63H1181.35V77H1178.73V68.48H1178.69L1175.47 75.04H1173.79L1170.59 68.48H1170.55V77H1167.93V63ZM1183.65 74.96V69.12L1185.71 67.04H1191.33L1193.41 69.12V72.9H1186.29V74.18L1186.93 74.84H1190.19L1190.79 74.22V73.7H1193.39V75L1191.41 77H1185.67L1183.65 74.96ZM1190.77 71.06V69.9L1190.09 69.2H1186.97L1186.29 69.9V71.06H1190.77ZM1196.41 74.96V69.26H1194.61V67.04H1196.45V63.8H1199.05V67.04H1202.09V69.28H1199.05V74.1L1199.73 74.76H1202.09V77H1198.47L1196.41 74.96ZM1203.49 75.16V72.88L1205.33 71.04H1210.39V69.78L1209.77 69.16H1206.77L1206.17 69.78V70.34H1203.57V69.2L1205.71 67.04H1210.85L1212.99 69.2V77H1210.61V75.58L1209.13 77H1205.33L1203.49 75.16ZM1208.95 74.96L1210.39 73.58V72.92H1206.63L1206.09 73.46V74.46L1206.59 74.96H1208.95ZM1213.9 67.04H1216.64L1218.96 73.98H1219.04L1221.36 67.04H1224.1L1220.28 77H1217.72L1213.9 67.04ZM1224.9 74.96V69.12L1226.96 67.04H1232.58L1234.66 69.12V72.9H1227.54V74.18L1228.18 74.84H1231.44L1232.04 74.22V73.7H1234.64V75L1232.66 77H1226.92L1224.9 74.96ZM1232.02 71.06V69.9L1231.34 69.2H1228.22L1227.54 69.9V71.06H1232.02ZM1236.76 67.04H1239.2V68.7L1240.8 67.04H1243.64V69.28H1241.34L1239.4 71.28V77H1236.76V67.04ZM1244.15 75.04V73.82H1246.75V74.38L1247.19 74.84H1250.43L1250.87 74.38V73.52L1250.41 73.04H1246.11L1244.23 71.14V68.96L1246.13 67.04H1251.33L1253.27 69V70.22H1250.67V69.66L1250.23 69.2H1247.27L1246.83 69.66V70.44L1247.29 70.92H1251.59L1253.47 72.82V75.08L1251.57 77H1246.09L1244.15 75.04ZM1255.17 74.96V69.12L1257.23 67.04H1262.85L1264.93 69.12V72.9H1257.81V74.18L1258.45 74.84H1261.71L1262.31 74.22V73.7H1264.91V75L1262.93 77H1257.19L1255.17 74.96ZM1262.29 71.06V69.9L1261.61 69.2H1258.49L1257.81 69.9V71.06H1262.29Z" fill="white"/>
<g filter="url(#filter2_d_127_2)">
<rect x="1052.5" y="278" width="240" height="80" rx="14" fill="url(#paint2_radial_127_2)"/>
<rect x="1053.5" y="279" width="238" height="78" rx="13" stroke="white" stroke-opacity="0.1" stroke-width="2"/>
</g>
<path d="M1130.21 322.84V320.84H1132.89V322.02L1133.55 322.68H1137.69L1138.37 322V319.68L1137.71 319.02H1132.41L1130.25 316.86V313.16L1132.41 311H1138.73L1140.89 313.16V315.18H1138.21V313.98L1137.55 313.32H1133.59L1132.93 313.98V316.04L1133.59 316.7H1138.89L1141.05 318.86V322.8L1138.85 325H1132.37L1130.21 322.84ZM1143.85 322.96V317.26H1142.05V315.04H1143.89V311.8H1146.49V315.04H1149.53V317.28H1146.49V322.1L1147.17 322.76H1149.53V325H1145.91L1143.85 322.96ZM1150.74 322.92V317.12L1152.8 315.04H1158.52L1160.58 317.12V322.92L1158.52 325H1152.8L1150.74 322.92ZM1157.24 322.8L1157.94 322.1V317.94L1157.24 317.24H1154.08L1153.38 317.94V322.1L1154.08 322.8H1157.24ZM1162.77 315.04H1165.21V316.7L1166.81 315.04H1169.65V317.28H1167.35L1165.41 319.28V325H1162.77V315.04ZM1180.42 315.04V327.28L1178.26 329.42H1173.02L1171.16 327.58V326.22H1173.8V326.82L1174.18 327.22H1177.1L1177.78 326.52V323.52L1176.3 325H1173L1170.86 322.84V315.04H1173.5V322.06L1174.18 322.76H1175.92L1177.78 320.78V315.04H1180.42ZM1182.91 310.72H1185.55V325H1182.91V310.72ZM1187.95 312.96V311.68L1188.87 310.76H1190.27L1191.19 311.68V312.96L1190.27 313.88H1188.87L1187.95 312.96ZM1188.25 315.04H1190.89V325H1188.25V315.04ZM1193.49 315.04H1195.93V316.7L1197.59 315.04H1200.81L1203.03 317.26V325H1200.39V317.98L1199.71 317.28H1198.03L1196.13 319.2V325H1193.49V315.04ZM1205.13 322.96V317.12L1207.19 315.04H1212.81L1214.89 317.12V320.9H1207.77V322.18L1208.41 322.84H1211.67L1212.27 322.22V321.7H1214.87V323L1212.89 325H1207.15L1205.13 322.96ZM1212.25 319.06V317.9L1211.57 317.2H1208.45L1207.77 317.9V319.06H1212.25Z" fill="white"/>
<g filter="url(#filter3_d_127_2)">
<rect x="1194" y="182" width="240" height="80" rx="14" fill="url(#paint3_radial_127_2)"/>
<rect x="1195" y="183" width="238" height="78" rx="13" stroke="white" stroke-opacity="0.1" stroke-width="2"/>
</g>
<path d="M1263.98 226.84V224.84H1266.66V226.02L1267.32 226.68H1271.46L1272.14 226V223.68L1271.48 223.02H1266.18L1264.02 220.86V217.16L1266.18 215H1272.5L1274.66 217.16V219.18H1271.98V217.98L1271.32 217.32H1267.36L1266.7 217.98V220.04L1267.36 220.7H1272.66L1274.82 222.86V226.8L1272.62 229H1266.14L1263.98 226.84ZM1276.62 226.92V221.12L1278.68 219.04H1284.4L1286.46 221.12V226.92L1284.4 229H1278.68L1276.62 226.92ZM1283.12 226.8L1283.82 226.1V221.94L1283.12 221.24H1279.96L1279.26 221.94V226.1L1279.96 226.8H1283.12ZM1288.46 226.96V221.08L1290.48 219.04H1295.96L1298.02 221.12V222.96H1295.38V221.98L1294.68 221.28H1291.8L1291.1 221.98V226.06L1291.8 226.76H1294.68L1295.38 226.06V225.08H1298.02V226.92L1295.96 229H1290.48L1288.46 226.96ZM1299.71 216.96V215.68L1300.63 214.76H1302.03L1302.95 215.68V216.96L1302.03 217.88H1300.63L1299.71 216.96ZM1300.01 219.04H1302.65V229H1300.01V219.04ZM1304.96 227.16V224.88L1306.8 223.04H1311.86V221.78L1311.24 221.16H1308.24L1307.64 221.78V222.34H1305.04V221.2L1307.18 219.04H1312.32L1314.46 221.2V229H1312.08V227.58L1310.6 229H1306.8L1304.96 227.16ZM1310.42 226.96L1311.86 225.58V224.92H1308.1L1307.56 225.46V226.46L1308.06 226.96H1310.42ZM1316.86 214.72H1319.5V229H1316.86V214.72ZM1327.54 215H1330.26V220.86H1336.18V215H1338.9V229H1336.18V223.18H1330.26V229H1327.54V215ZM1341.31 226.9V219.04H1343.95V226.08L1344.63 226.76H1346.23L1348.19 224.8V219.04H1350.83V229H1348.39V227.3L1346.67 229H1343.41L1341.31 226.9ZM1353.23 226.84V214.72H1355.87V220.42L1357.33 219.04H1360.97L1363.03 221.12V226.92L1360.97 229H1355.37L1353.23 226.84ZM1359.63 226.76L1360.39 225.98V222.06L1359.63 221.28H1357.67L1355.87 223.08V225.98L1356.63 226.76H1359.63Z" fill="white"/>
<g filter="url(#filter4_d_127_2)">
<rect x="1364" y="86" width="240" height="80" rx="14" fill="url(#paint4_radial_127_2)"/>
<rect x="1365" y="87" width="238" height="78" rx="13" stroke="white" stroke-opacity="0.1" stroke-width="2"/>
</g>
<path d="M1402.05 119H1412.17V121.3H1404.77V124.84H1411.59V127.1H1404.77V130.7H1412.17V133H1402.05V119ZM1420.36 133L1418.15 129.96L1415.96 133H1412.98L1416.7 127.94L1413.08 123.04H1416.06L1418.15 125.96L1420.26 123.04H1423.24L1419.64 127.98L1423.34 133H1420.36ZM1424.64 123.04H1427.08V124.5L1428.54 123.04H1432.42L1434.48 125.12V130.92L1432.42 133H1428.56L1427.28 131.94V137.24H1424.64V123.04ZM1431.14 130.76L1431.84 130.06V125.98L1431.14 125.28H1428.88L1427.28 126.9V129.34L1428.86 130.76H1431.14ZM1436.77 118.72H1439.41V133H1436.77V118.72ZM1441.71 130.92V125.12L1443.77 123.04H1449.49L1451.55 125.12V130.92L1449.49 133H1443.77L1441.71 130.92ZM1448.21 130.8L1448.91 130.1V125.94L1448.21 125.24H1445.05L1444.35 125.94V130.1L1445.05 130.8H1448.21ZM1453.74 123.04H1456.18V124.7L1457.78 123.04H1460.62V125.28H1458.32L1456.38 127.28V133H1453.74V123.04ZM1461.22 130.96V125.12L1463.28 123.04H1468.9L1470.98 125.12V128.9H1463.86V130.18L1464.5 130.84H1467.76L1468.36 130.22V129.7H1470.96V131L1468.98 133H1463.24L1461.22 130.96ZM1468.34 127.06V125.9L1467.66 125.2H1464.54L1463.86 125.9V127.06H1468.34ZM1479.43 130.96V125.26H1477.63V123.04H1479.47V119.8H1482.07V123.04H1485.11V125.28H1482.07V130.1L1482.75 130.76H1485.11V133H1481.49L1479.43 130.96ZM1486.81 118.72H1489.45V124.58L1490.99 123.04H1494.17L1496.39 125.26V133H1493.75V125.98L1493.07 125.28H1491.35L1489.45 127.2V133H1486.81V118.72ZM1498.48 130.96V125.12L1500.54 123.04H1506.16L1508.24 125.12V128.9H1501.12V130.18L1501.76 130.84H1505.02L1505.62 130.22V129.7H1508.22V131L1506.24 133H1500.5L1498.48 130.96ZM1505.6 127.06V125.9L1504.92 125.2H1501.8L1501.12 125.9V127.06H1505.6ZM1514.99 123.04H1517.67L1518.81 129.32H1518.89L1520.69 123.04H1523.09L1524.75 129.32H1524.83L1526.09 123.04H1528.77L1526.19 133H1523.73L1521.89 126.28H1521.81L1519.85 133H1517.39L1514.99 123.04ZM1529.97 130.92V125.12L1532.03 123.04H1537.75L1539.81 125.12V130.92L1537.75 133H1532.03L1529.97 130.92ZM1536.47 130.8L1537.17 130.1V125.94L1536.47 125.24H1533.31L1532.61 125.94V130.1L1533.31 130.8H1536.47ZM1542 123.04H1544.44V124.7L1546.04 123.04H1548.88V125.28H1546.58L1544.64 127.28V133H1542V123.04ZM1550.29 118.72H1552.93V133H1550.29V118.72ZM1555.22 130.92V125.12L1557.28 123.04H1561.24L1562.42 124.06V118.72H1565.06V133H1562.58V131.46L1561.04 133H1557.28L1555.22 130.92ZM1560.8 130.76L1562.42 129.1V126.5L1561.06 125.28H1558.62L1557.86 126.06V129.98L1558.62 130.76H1560.8Z" fill="white"/>
<g filter="url(#filter5_d_127_2)">
<rect x="1518" y="278" width="240" height="80" rx="14" fill="url(#paint5_radial_127_2)"/>
<rect x="1519" y="279" width="238" height="78" rx="13" stroke="white" stroke-opacity="0.1" stroke-width="2"/>
</g>
<path d="M1598.16 299H1606.94L1608.94 301V304.92L1608.14 305.74L1609.56 307.18V310.84L1607.4 313H1598.16V299ZM1605.54 304.86L1606.26 304.14V301.98L1605.56 301.28H1600.82V304.86H1605.54ZM1606.02 310.72L1606.88 309.86V307.9L1606.02 307.04H1600.82V310.72H1606.02ZM1611.36 310.9V303.04H1614V310.08L1614.68 310.76H1616.28L1618.24 308.8V303.04H1620.88V313H1618.44V311.3L1616.72 313H1613.46L1611.36 310.9ZM1632.73 303.04V315.28L1630.57 317.42H1625.33L1623.47 315.58V314.22H1626.11V314.82L1626.49 315.22H1629.41L1630.09 314.52V311.52L1628.61 313H1625.31L1623.17 310.84V303.04H1625.81V310.06L1626.49 310.76H1628.23L1630.09 308.78V303.04H1632.73ZM1641.65 299H1644.37L1636.65 313H1633.93L1641.65 299ZM1645.38 310.84V308.84H1648.06V310.02L1648.72 310.68H1652.86L1653.54 310V307.68L1652.88 307.02H1647.58L1645.42 304.86V301.16L1647.58 299H1653.9L1656.06 301.16V303.18H1653.38V301.98L1652.72 301.32H1648.76L1648.1 301.98V304.04L1648.76 304.7H1654.06L1656.22 306.86V310.8L1654.02 313H1647.54L1645.38 310.84ZM1658.01 310.96V305.12L1660.07 303.04H1665.69L1667.77 305.12V308.9H1660.65V310.18L1661.29 310.84H1664.55L1665.15 310.22V309.7H1667.75V311L1665.77 313H1660.03L1658.01 310.96ZM1665.13 307.06V305.9L1664.45 305.2H1661.33L1660.65 305.9V307.06H1665.13ZM1669.97 298.72H1672.61V313H1669.97V298.72ZM1675.21 298.72H1677.85V313H1675.21V298.72ZM1570.03 323H1572.75V337H1570.03V323ZM1575.35 327.04H1577.79V328.7L1579.45 327.04H1582.67L1584.89 329.26V337H1582.25V329.98L1581.57 329.28H1579.89L1577.99 331.2V337H1575.35V327.04ZM1596.83 327.04V339.28L1594.67 341.42H1589.25L1587.39 339.58V338.22H1590.03V338.82L1590.41 339.22H1593.51L1594.19 338.52V335.7L1592.81 337H1589.05L1586.99 334.92V329.12L1589.05 327.04H1592.97L1594.39 328.4V327.04H1596.83ZM1594.19 330.5L1592.83 329.28H1590.39L1589.63 330.06V333.98L1590.39 334.76H1592.57L1594.19 333.1V330.5ZM1598.92 335.16V332.88L1600.76 331.04H1605.82V329.78L1605.2 329.16H1602.2L1601.6 329.78V330.34H1599V329.2L1601.14 327.04H1606.28L1608.42 329.2V337H1606.04V335.58L1604.56 337H1600.76L1598.92 335.16ZM1604.38 334.96L1605.82 333.58V332.92H1602.06L1601.52 333.46V334.46L1602.02 334.96H1604.38ZM1610.72 327.04H1613.16V328.68L1614.78 327.04H1617.3L1618.66 328.42L1620.02 327.04H1623.5L1625.64 329.2V337H1623V329.98L1622.32 329.28H1620.64L1619.58 330.34V337H1617.02V329.94L1616.38 329.28H1615.18L1613.36 331.12V337H1610.72V327.04ZM1627.75 334.96V329.12L1629.81 327.04H1635.43L1637.51 329.12V332.9H1630.39V334.18L1631.03 334.84H1634.29L1634.89 334.22V333.7H1637.49V335L1635.51 337H1629.77L1627.75 334.96ZM1634.87 331.06V329.9L1634.19 329.2H1631.07L1630.39 329.9V331.06H1634.87ZM1644.76 335.16V332.88L1646.6 331.04H1651.66V329.78L1651.04 329.16H1648.04L1647.44 329.78V330.34H1644.84V329.2L1646.98 327.04H1652.12L1654.26 329.2V337H1651.88V335.58L1650.4 337H1646.6L1644.76 335.16ZM1650.22 334.96L1651.66 333.58V332.92H1647.9L1647.36 333.46V334.46L1647.86 334.96H1650.22ZM1656.06 335.04V333.82H1658.66V334.38L1659.1 334.84H1662.34L1662.78 334.38V333.52L1662.32 333.04H1658.02L1656.14 331.14V328.96L1658.04 327.04H1663.24L1665.18 329V330.22H1662.58V329.66L1662.14 329.2H1659.18L1658.74 329.66V330.44L1659.2 330.92H1663.5L1665.38 332.82V335.08L1663.48 337H1658L1656.06 335.04ZM1666.79 335.04V333.82H1669.39V334.38L1669.83 334.84H1673.07L1673.51 334.38V333.52L1673.05 333.04H1668.75L1666.87 331.14V328.96L1668.77 327.04H1673.97L1675.91 329V330.22H1673.31V329.66L1672.87 329.2H1669.91L1669.47 329.66V330.44L1669.93 330.92H1674.23L1676.11 332.82V335.08L1674.21 337H1668.73L1666.79 335.04ZM1677.81 334.96V329.12L1679.87 327.04H1685.49L1687.57 329.12V332.9H1680.45V334.18L1681.09 334.84H1684.35L1684.95 334.22V333.7H1687.55V335L1685.57 337H1679.83L1677.81 334.96ZM1684.93 331.06V329.9L1684.25 329.2H1681.13L1680.45 329.9V331.06H1684.93ZM1690.57 334.96V329.26H1688.77V327.04H1690.61V323.8H1693.21V327.04H1696.25V329.28H1693.21V334.1L1693.89 334.76H1696.25V337H1692.63L1690.57 334.96ZM1697.35 335.04V333.82H1699.95V334.38L1700.39 334.84H1703.63L1704.07 334.38V333.52L1703.61 333.04H1699.31L1697.43 331.14V328.96L1699.33 327.04H1704.53L1706.47 329V330.22H1703.87V329.66L1703.43 329.2H1700.47L1700.03 329.66V330.44L1700.49 330.92H1704.79L1706.67 332.82V335.08L1704.77 337H1699.29L1697.35 335.04Z" fill="white"/>
<g filter="url(#filter6_d_127_2)">
<rect x="30" y="154" width="240" height="80" rx="14" fill="url(#paint6_radial_127_2)"/>
<rect x="31" y="155" width="238" height="78" rx="13" stroke="white" stroke-opacity="0.1" stroke-width="2"/>
</g>
<path d="M99.4973 187H101.977L107.097 201H104.337L103.197 197.9H98.2773L97.1373 201H94.3773L99.4973 187ZM102.597 195.66L100.737 190.34H100.697L98.8973 195.66H102.597ZM107.914 198.92V193.12L109.974 191.04H115.694L117.754 193.12V198.92L115.694 201H109.974L107.914 198.92ZM114.414 198.8L115.114 198.1V193.94L114.414 193.24H111.254L110.554 193.94V198.1L111.254 198.8H114.414ZM119.457 198.84V196.84H122.137V198.02L122.797 198.68H126.937L127.617 198V195.68L126.957 195.02H121.657L119.497 192.86V189.16L121.657 187H127.977L130.137 189.16V191.18H127.457V189.98L126.797 189.32H122.837L122.177 189.98V192.04L122.837 192.7H128.137L130.297 194.86V198.8L128.097 201H121.617L119.457 198.84ZM137.141 187H139.881L141.581 196.88H141.661L144.441 187H146.481L149.201 196.88H149.281L150.981 187H153.721L150.821 201H148.281L145.501 191.16H145.421L142.581 201H140.041L137.141 187ZM154.32 198.92V193.12L156.38 191.04H162.1L164.16 193.12V198.92L162.1 201H156.38L154.32 198.92ZM160.82 198.8L161.52 198.1V193.94L160.82 193.24H157.66L156.96 193.94V198.1L157.66 198.8H160.82ZM166.356 191.04H168.796V192.68L170.416 191.04H172.936L174.296 192.42L175.656 191.04H179.136L181.276 193.2V201H178.636V193.98L177.956 193.28H176.276L175.216 194.34V201H172.656V193.94L172.016 193.28H170.816L168.996 195.12V201H166.356V191.04ZM183.283 199.16V196.88L185.123 195.04H190.183V193.78L189.563 193.16H186.563L185.963 193.78V194.34H183.363V193.2L185.503 191.04H190.643L192.783 193.2V201H190.403V199.58L188.923 201H185.123L183.283 199.16ZM188.743 198.96L190.183 197.58V196.92H186.423L185.883 197.46V198.46L186.383 198.96H188.743ZM195.087 191.04H197.527V192.7L199.187 191.04H202.407L204.627 193.26V201H201.987V193.98L201.307 193.28H199.627L197.727 195.2V201H195.087V191.04Z" fill="white"/>
<path d="M645.716 242.509C645.796 242.061 646.032 241.681 646.424 241.369C646.816 241.057 647.26 240.901 647.756 240.901C648.18 240.901 648.564 241.013 648.908 241.237C649.244 241.453 649.512 241.769 649.712 242.185C649.904 242.601 650 243.085 650 243.637L650 246.973L641.66 246.973L641.66 243.793C641.66 243.225 641.756 242.737 641.948 242.329C642.14 241.921 642.4 241.613 642.728 241.405C643.048 241.197 643.408 241.093 643.808 241.093C644.288 241.093 644.688 241.221 645.008 241.477C645.328 241.733 645.564 242.077 645.716 242.509ZM645.164 245.605L645.164 243.913C645.164 243.465 645.064 243.117 644.864 242.869C644.656 242.613 644.36 242.485 643.976 242.485C643.6 242.485 643.308 242.613 643.1 242.869C642.884 243.117 642.776 243.465 642.776 243.913L642.776 245.605L645.164 245.605ZM648.884 243.757C648.884 243.293 648.772 242.929 648.548 242.665C648.324 242.401 648.012 242.269 647.612 242.269C647.204 242.269 646.88 242.409 646.64 242.689C646.4 242.969 646.28 243.341 646.28 243.805L646.28 245.605L648.884 245.605L648.884 243.757ZM648.296 234.386L648.296 237.878L650 238.478L650 239.906L641.648 236.918L641.648 235.334L650 232.346L650 233.786L648.296 234.386ZM647.18 234.77L643.304 236.126L647.18 237.494L647.18 234.77ZM641.66 225.659L642.776 225.659L642.776 227.879L650 227.879L650 229.247L642.776 229.247L642.776 231.479L641.66 231.479L641.66 225.659ZM641.66 218.886L642.776 218.886L642.776 221.106L650 221.106L650 222.474L642.776 222.474L642.776 224.706L641.66 224.706L641.66 218.886ZM648.896 216.132L648.896 213.312L650 213.312L650 217.5L641.66 217.5L641.66 216.132L648.896 216.132ZM642.764 210.8L645.212 210.8L645.212 207.92L646.328 207.92L646.328 210.8L648.884 210.8L648.884 207.56L650 207.56L650 212.168L641.648 212.168L641.648 207.56L642.764 207.56L642.764 210.8ZM648.296 197.73L648.296 201.222L650 201.822L650 203.25L641.648 200.262L641.648 198.678L650 195.69L650 197.13L648.296 197.73ZM647.18 198.114L643.304 199.47L647.18 200.838L647.18 198.114ZM650 187.539L650 188.907L643.772 193.023L650 193.023L650 194.391L641.648 194.391L641.648 193.023L647.864 188.907L641.648 188.907L641.648 187.539L650 187.539ZM641.66 183.019C641.66 182.131 641.832 181.355 642.176 180.691C642.512 180.019 643 179.503 643.64 179.143C644.272 178.775 645.012 178.591 645.86 178.591C646.708 178.591 647.444 178.775 648.068 179.143C648.692 179.503 649.172 180.019 649.508 180.691C649.836 181.355 650 182.131 650 183.019L650 185.743L641.66 185.743L641.66 183.019ZM648.884 183.019C648.884 182.043 648.62 181.295 648.092 180.775C647.564 180.255 646.82 179.995 645.86 179.995C644.892 179.995 644.136 180.255 643.592 180.775C643.048 181.295 642.776 182.043 642.776 183.019L642.776 184.375L648.884 184.375L648.884 183.019ZM642.764 172.75L645.212 172.75L645.212 169.87L646.328 169.87L646.328 172.75L648.884 172.75L648.884 169.51L650 169.51L650 174.118L641.648 174.118L641.648 169.51L642.764 169.51L642.764 172.75ZM648.296 162.797L648.296 166.289L650 166.889L650 168.317L641.648 165.329L641.648 163.745L650 160.757L650 162.197L648.296 162.797ZM647.18 163.181L643.304 164.537L647.18 165.905L647.18 163.181ZM650 155.125L646.664 157.045L646.664 158.089L650 158.089L650 159.457L641.66 159.457L641.66 156.577C641.66 155.937 641.772 155.397 641.996 154.957C642.22 154.509 642.52 154.177 642.896 153.961C643.272 153.737 643.692 153.625 644.156 153.625C644.7 153.625 645.196 153.785 645.644 154.105C646.084 154.417 646.384 154.901 646.544 155.557L650 153.493L650 155.125ZM645.572 158.089L645.572 156.577C645.572 156.065 645.444 155.681 645.188 155.425C644.932 155.161 644.588 155.029 644.156 155.029C643.724 155.029 643.388 155.157 643.148 155.413C642.9 155.669 642.776 156.057 642.776 156.577L642.776 158.089L645.572 158.089ZM650 145.023L650 146.391L643.772 150.507L650 150.507L650 151.875L641.648 151.875L641.648 150.507L647.864 146.391L641.648 146.391L641.648 145.023L650 145.023Z" fill="#FFA51E"/>
<g filter="url(#filter7_d_127_2)">
<rect x="322" y="278" width="240" height="80" rx="14" fill="url(#paint7_radial_127_2)"/>
<rect x="323" y="279" width="238" height="78" rx="13" stroke="white" stroke-opacity="0.1" stroke-width="2"/>
</g>
<path d="M428.763 311H431.243L436.363 325H433.603L432.463 321.9H427.543L426.403 325H423.643L428.763 311ZM431.863 319.66L430.003 314.34H429.963L428.163 319.66H431.863ZM437.18 322.92V317.12L439.24 315.04H444.96L447.02 317.12V322.92L444.96 325H439.24L437.18 322.92ZM443.68 322.8L444.38 322.1V317.94L443.68 317.24H440.52L439.82 317.94V322.1L440.52 322.8H443.68ZM448.723 322.84V320.84H451.403V322.02L452.063 322.68H456.203L456.883 322V319.68L456.223 319.02H450.923L448.763 316.86V313.16L450.923 311H457.243L459.403 313.16V315.18H456.723V313.98L456.063 313.32H452.103L451.443 313.98V316.04L452.103 316.7H457.403L459.563 318.86V322.8L457.363 325H450.883L448.723 322.84Z" fill="white"/>
<g filter="url(#filter8_d_127_2)">
<rect x="760" y="278" width="240" height="80" rx="14" fill="url(#paint8_radial_127_2)"/>
<rect x="761" y="279" width="238" height="78" rx="13" stroke="white" stroke-opacity="0.1" stroke-width="2"/>
</g>
<path d="M822.234 313.3H818.054V311H829.134V313.3H824.954V325H822.234V313.3ZM828.637 322.92V317.12L830.697 315.04H836.417L838.477 317.12V322.92L836.417 325H830.697L828.637 322.92ZM835.137 322.8L835.837 322.1V317.94L835.137 317.24H831.977L831.277 317.94V322.1L831.977 322.8H835.137ZM840.573 322.9V315.04H843.213V322.08L843.893 322.76H845.493L847.453 320.8V315.04H850.093V325H847.653V323.3L845.933 325H842.673L840.573 322.9ZM852.489 315.04H854.929V316.7L856.529 315.04H859.369V317.28H857.069L855.129 319.28V325H852.489V315.04ZM860.673 315.04H863.113V316.7L864.773 315.04H867.993L870.213 317.26V325H867.573V317.98L866.893 317.28H865.213L863.313 319.2V325H860.673V315.04ZM872.209 323.16V320.88L874.049 319.04H879.109V317.78L878.489 317.16H875.489L874.889 317.78V318.34H872.289V317.2L874.429 315.04H879.569L881.709 317.2V325H879.329V323.58L877.849 325H874.049L872.209 323.16ZM877.669 322.96L879.109 321.58V320.92H875.349L874.809 321.46V322.46L875.309 322.96H877.669ZM884.013 315.04H886.453V316.68L888.073 315.04H890.593L891.953 316.42L893.313 315.04H896.793L898.933 317.2V325H896.293V317.98L895.613 317.28H893.933L892.873 318.34V325H890.313V317.94L889.673 317.28H888.473L886.653 319.12V325H884.013V315.04ZM901.039 322.96V317.12L903.099 315.04H908.719L910.799 317.12V320.9H903.679V322.18L904.319 322.84H907.579L908.179 322.22V321.7H910.779V323L908.799 325H903.059L901.039 322.96ZM908.159 319.06V317.9L907.479 317.2H904.359L903.679 317.9V319.06H908.159ZM912.899 315.04H915.339V316.7L916.999 315.04H920.219L922.439 317.26V325H919.799V317.98L919.119 317.28H917.439L915.539 319.2V325H912.899V315.04ZM925.44 322.96V317.26H923.64V315.04H925.48V311.8H928.08V315.04H931.12V317.28H928.08V322.1L928.76 322.76H931.12V325H927.5L925.44 322.96ZM932.223 323.04V321.82H934.823V322.38L935.263 322.84H938.503L938.943 322.38V321.52L938.483 321.04H934.183L932.303 319.14V316.96L934.203 315.04H939.403L941.343 317V318.22H938.743V317.66L938.303 317.2H935.343L934.903 317.66V318.44L935.363 318.92H939.663L941.543 320.82V323.08L939.643 325H934.163L932.223 323.04Z" fill="white"/>
<path opacity="0.3" d="M760.707 320.707C761.098 320.317 761.098 319.683 760.707 319.293L754.343 312.929C753.953 312.538 753.319 312.538 752.929 312.929C752.538 313.319 752.538 313.953 752.929 314.343L758.586 320L752.929 325.657C752.538 326.047 752.538 326.681 752.929 327.071C753.319 327.462 753.953 327.462 754.343 327.071L760.707 320.707ZM567.293 55.2929C566.902 55.6834 566.902 56.3166 567.293 56.7071L573.657 63.0711C574.047 63.4616 574.681 63.4616 575.071 63.0711C575.462 62.6805 575.462 62.0474 575.071 61.6569L569.414 56L575.071 50.3431C575.462 49.9526 575.462 49.3195 575.071 48.9289C574.681 48.5384 574.047 48.5384 573.657 48.9289L567.293 55.2929ZM568 57H571.313V55H568V57ZM577.938 57H584.563V55H577.938V57ZM591.188 57H597.813V55H591.188V57ZM604.438 57H611.063V55H604.438V57ZM617.688 57H624.313V55H617.688V57ZM630.938 57H634.251V55H630.938V57ZM634.251 57C635.535 57 636.8 57.0835 638.04 57.2452L638.298 55.262C636.973 55.0891 635.622 55 634.251 55V57ZM645.351 59.2001C647.708 60.1776 649.909 61.4572 651.905 62.9909L653.124 61.4051C650.991 59.7661 648.638 58.398 646.117 57.3527L645.351 59.2001ZM657.26 68.3458C658.793 70.3417 660.073 72.5423 661.051 74.8994L662.898 74.1333C661.853 71.6125 660.485 69.26 658.846 67.1272L657.26 68.3458ZM663.005 82.2111C663.167 83.4507 663.251 84.7154 663.251 86H665.251C665.251 84.6286 665.162 83.2776 664.989 81.9524L663.005 82.2111ZM663.251 86V89.4H665.251V86H663.251ZM663.251 96.2V103H665.251V96.2H663.251ZM663.251 109.8V116.6H665.251V109.8H663.251ZM663.251 123.4V130.2H665.251V123.4H663.251ZM663.251 137V143.8H665.251V137H663.251ZM663.251 150.6V157.4H665.251V150.6H663.251ZM663.251 164.2V171H665.251V164.2H663.251ZM663.251 177.8V184.6H665.251V177.8H663.251ZM663.251 191.4V198.2H665.251V191.4H663.251ZM663.251 205V211.8H665.251V205H663.251ZM663.251 218.6V225.4H665.251V218.6H663.251ZM663.251 232.2V239H665.251V232.2H663.251ZM663.251 245.8V252.6H665.251V245.8H663.251ZM663.251 259.4V266.2H665.251V259.4H663.251ZM663.251 273V279.8H665.251V273H663.251ZM663.251 286.6V290H665.251V286.6H663.251ZM663.251 290C663.251 291.371 663.34 292.722 663.513 294.048L665.496 293.789C665.334 292.549 665.251 291.285 665.251 290H663.251ZM665.603 301.867C666.649 304.387 668.017 306.74 669.656 308.873L671.242 307.654C669.708 305.658 668.428 303.458 667.451 301.101L665.603 301.867ZM675.378 314.595C677.511 316.234 679.863 317.602 682.384 318.647L683.15 316.8C680.793 315.822 678.592 314.543 676.596 313.009L675.378 314.595ZM690.203 320.738C691.528 320.911 692.879 321 694.251 321V319C692.966 319 691.701 318.917 690.462 318.755L690.203 320.738ZM694.251 321H697.538V319H694.251V321ZM704.113 321H710.688V319H704.113V321ZM717.263 321H723.838V319H717.263V321ZM730.413 321H736.988V319H730.413V321ZM743.563 321H750.138V319H743.563V321ZM756.713 321H760V319H756.713V321Z" fill="white"/>
<path opacity="0.3" d="M1173.29 276.707C1173.68 277.098 1174.32 277.098 1174.71 276.707L1181.07 270.343C1181.46 269.953 1181.46 269.319 1181.07 268.929C1180.68 268.538 1180.05 268.538 1179.66 268.929L1174 274.586L1168.34 268.929C1167.95 268.538 1167.32 268.538 1166.93 268.929C1166.54 269.319 1166.54 269.953 1166.93 270.343L1173.29 276.707ZM1173 110L1173 113.458L1175 113.458L1175 110L1173 110ZM1173 120.375L1173 127.292L1175 127.292L1175 120.375L1173 120.375ZM1173 134.208L1173 141.125L1175 141.125L1175 134.208L1173 134.208ZM1173 148.042L1173 154.958L1175 154.958L1175 148.042L1173 148.042ZM1173 161.875L1173 168.792L1175 168.792L1175 161.875L1173 161.875ZM1173 175.708L1173 182.625L1175 182.625L1175 175.708L1173 175.708ZM1173 189.542L1173 196.458L1175 196.458L1175 189.542L1173 189.542ZM1173 203.375L1173 210.292L1175 210.292L1175 203.375L1173 203.375ZM1173 217.208L1173 224.125L1175 224.125L1175 217.208L1173 217.208ZM1173 231.042L1173 237.958L1175 237.958L1175 231.042L1173 231.042ZM1173 244.875L1173 251.792L1175 251.792L1175 244.875L1173 244.875ZM1173 258.708L1173 265.625L1175 265.625L1175 258.708L1173 258.708ZM1173 272.542L1173 276L1175 276L1175 272.542L1173 272.542Z" fill="white"/>
<path opacity="0.3" d="M151.707 235.293C151.317 234.902 150.683 234.902 150.293 235.293L143.929 241.657C143.538 242.047 143.538 242.681 143.929 243.071C144.319 243.462 144.953 243.462 145.343 243.071L151 237.414L156.657 243.071C157.047 243.462 157.681 243.462 158.071 243.071C158.462 242.681 158.462 242.047 158.071 241.657L151.707 235.293ZM150 236V239.625H152V236H150ZM150 246.875V254.125H152V246.875H150ZM150 261.375V268.625H152V261.375H150ZM150 275.875V283.125H152V275.875H150ZM150 290.375V294H152V290.375H150ZM150 294C150 295.15 150.075 296.283 150.22 297.395L152.203 297.136C152.069 296.11 152 295.063 152 294H150ZM151.973 303.953C152.85 306.067 153.997 308.04 155.372 309.829L156.958 308.61C155.689 306.958 154.63 305.137 153.821 303.187L151.973 303.953ZM160.171 314.628C161.96 316.003 163.933 317.15 166.047 318.027L166.813 316.179C164.863 315.37 163.042 314.311 161.39 313.042L160.171 314.628ZM172.605 319.78C173.717 319.925 174.85 320 176 320V318C174.937 318 173.89 317.931 172.864 317.797L172.605 319.78ZM176 320H179.65V318H176V320ZM186.95 320H194.25V318H186.95V320ZM201.55 320H208.85V318H201.55V320ZM216.15 320H223.45V318H216.15V320ZM230.75 320H238.05V318H230.75V320ZM245.35 320H252.65V318H245.35V320ZM259.95 320H267.25V318H259.95V320ZM274.55 320H281.85V318H274.55V320ZM289.15 320H296.45V318H289.15V320ZM303.75 320H311.05V318H303.75V320ZM318.35 320H322V318H318.35V320Z" fill="white"/>
<defs>
<filter id="filter0_d_127_2" x="295" y="0" width="300" height="140" filterUnits="userSpaceOnUse" color-interpolation-filters="sRGB">
<feFlood flood-opacity="0" result="BackgroundImageFix"/>
<feColorMatrix in="SourceAlpha" type="matrix" values="0 0 0 0 0 0 0 0 0 0 0 0 0 0 0 0 0 0 127 0" result="hardAlpha"/>
<feOffset/>
<feGaussianBlur stdDeviation="15"/>
<feComposite in2="hardAlpha" operator="out"/>
<feColorMatrix type="matrix" values="0 0 0 0 0.272321 0 0 0 0 0.1875 0 0 0 0 0.5625 0 0 0 0.6 0"/>
<feBlend mode="normal" in2="BackgroundImageFix" result="effect1_dropShadow_127_2"/>
<feBlend mode="normal" in="SourceGraphic" in2="effect1_dropShadow_127_2" result="shape"/>
</filter>
<filter id="filter1_d_127_2" x="1022.5" y="0" width="300" height="140" filterUnits="userSpaceOnUse" color-interpolation-filters="sRGB">
<feFlood flood-opacity="0" result="BackgroundImageFix"/>
<feColorMatrix in="SourceAlpha" type="matrix" values="0 0 0 0 0 0 0 0 0 0 0 0 0 0 0 0 0 0 127 0" result="hardAlpha"/>
<feOffset/>
<feGaussianBlur stdDeviation="15"/>
<feComposite in2="hardAlpha" operator="out"/>
<feColorMatrix type="matrix" values="0 0 0 0 0.272321 0 0 0 0 0.1875 0 0 0 0 0.5625 0 0 0 0.6 0"/>
<feBlend mode="normal" in2="BackgroundImageFix" result="effect1_dropShadow_127_2"/>
<feBlend mode="normal" in="SourceGraphic" in2="effect1_dropShadow_127_2" result="shape"/>
</filter>
<filter id="filter2_d_127_2" x="1022.5" y="248" width="300" height="140" filterUnits="userSpaceOnUse" color-interpolation-filters="sRGB">
<feFlood flood-opacity="0" result="BackgroundImageFix"/>
<feColorMatrix in="SourceAlpha" type="matrix" values="0 0 0 0 0 0 0 0 0 0 0 0 0 0 0 0 0 0 127 0" result="hardAlpha"/>
<feOffset/>
<feGaussianBlur stdDeviation="15"/>
<feComposite in2="hardAlpha" operator="out"/>
<feColorMatrix type="matrix" values="0 0 0 0 0.272321 0 0 0 0 0.1875 0 0 0 0 0.5625 0 0 0 0.6 0"/>
<feBlend mode="normal" in2="BackgroundImageFix" result="effect1_dropShadow_127_2"/>
<feBlend mode="normal" in="SourceGraphic" in2="effect1_dropShadow_127_2" result="shape"/>
</filter>
<filter id="filter3_d_127_2" x="1164" y="152" width="300" height="140" filterUnits="userSpaceOnUse" color-interpolation-filters="sRGB">
<feFlood flood-opacity="0" result="BackgroundImageFix"/>
<feColorMatrix in="SourceAlpha" type="matrix" values="0 0 0 0 0 0 0 0 0 0 0 0 0 0 0 0 0 0 127 0" result="hardAlpha"/>
<feOffset/>
<feGaussianBlur stdDeviation="15"/>
<feComposite in2="hardAlpha" operator="out"/>
<feColorMatrix type="matrix" values="0 0 0 0 0.272321 0 0 0 0 0.1875 0 0 0 0 0.5625 0 0 0 0.6 0"/>
<feBlend mode="normal" in2="BackgroundImageFix" result="effect1_dropShadow_127_2"/>
<feBlend mode="normal" in="SourceGraphic" in2="effect1_dropShadow_127_2" result="shape"/>
</filter>
<filter id="filter4_d_127_2" x="1334" y="56" width="300" height="140" filterUnits="userSpaceOnUse" color-interpolation-filters="sRGB">
<feFlood flood-opacity="0" result="BackgroundImageFix"/>
<feColorMatrix in="SourceAlpha" type="matrix" values="0 0 0 0 0 0 0 0 0 0 0 0 0 0 0 0 0 0 127 0" result="hardAlpha"/>
<feOffset/>
<feGaussianBlur stdDeviation="15"/>
<feComposite in2="hardAlpha" operator="out"/>
<feColorMatrix type="matrix" values="0 0 0 0 0.272321 0 0 0 0 0.1875 0 0 0 0 0.5625 0 0 0 0.6 0"/>
<feBlend mode="normal" in2="BackgroundImageFix" result="effect1_dropShadow_127_2"/>
<feBlend mode="normal" in="SourceGraphic" in2="effect1_dropShadow_127_2" result="shape"/>
</filter>
<filter id="filter5_d_127_2" x="1488" y="248" width="300" height="140" filterUnits="userSpaceOnUse" color-interpolation-filters="sRGB">
<feFlood flood-opacity="0" result="BackgroundImageFix"/>
<feColorMatrix in="SourceAlpha" type="matrix" values="0 0 0 0 0 0 0 0 0 0 0 0 0 0 0 0 0 0 127 0" result="hardAlpha"/>
<feOffset/>
<feGaussianBlur stdDeviation="15"/>
<feComposite in2="hardAlpha" operator="out"/>
<feColorMatrix type="matrix" values="0 0 0 0 0.272321 0 0 0 0 0.1875 0 0 0 0 0.5625 0 0 0 0.6 0"/>
<feBlend mode="normal" in2="BackgroundImageFix" result="effect1_dropShadow_127_2"/>
<feBlend mode="normal" in="SourceGraphic" in2="effect1_dropShadow_127_2" result="shape"/>
</filter>
<filter id="filter6_d_127_2" x="0" y="124" width="300" height="140" filterUnits="userSpaceOnUse" color-interpolation-filters="sRGB">
<feFlood flood-opacity="0" result="BackgroundImageFix"/>
<feColorMatrix in="SourceAlpha" type="matrix" values="0 0 0 0 0 0 0 0 0 0 0 0 0 0 0 0 0 0 127 0" result="hardAlpha"/>
<feOffset/>
<feGaussianBlur stdDeviation="15"/>
<feComposite in2="hardAlpha" operator="out"/>
<feColorMatrix type="matrix" values="0 0 0 0 0.272321 0 0 0 0 0.1875 0 0 0 0 0.5625 0 0 0 0.6 0"/>
<feBlend mode="normal" in2="BackgroundImageFix" result="effect1_dropShadow_127_2"/>
<feBlend mode="normal" in="SourceGraphic" in2="effect1_dropShadow_127_2" result="shape"/>
</filter>
<filter id="filter7_d_127_2" x="292" y="248" width="300" height="140" filterUnits="userSpaceOnUse" color-interpolation-filters="sRGB">
<feFlood flood-opacity="0" result="BackgroundImageFix"/>
<feColorMatrix in="SourceAlpha" type="matrix" values="0 0 0 0 0 0 0 0 0 0 0 0 0 0 0 0 0 0 127 0" result="hardAlpha"/>
<feOffset/>
<feGaussianBlur stdDeviation="15"/>
<feComposite in2="hardAlpha" operator="out"/>
<feColorMatrix type="matrix" values="0 0 0 0 0.272321 0 0 0 0 0.1875 0 0 0 0 0.5625 0 0 0 0.6 0"/>
<feBlend mode="normal" in2="BackgroundImageFix" result="effect1_dropShadow_127_2"/>
<feBlend mode="normal" in="SourceGraphic" in2="effect1_dropShadow_127_2" result="shape"/>
</filter>
<filter id="filter8_d_127_2" x="730" y="248" width="300" height="140" filterUnits="userSpaceOnUse" color-interpolation-filters="sRGB">
<feFlood flood-opacity="0" result="BackgroundImageFix"/>
<feColorMatrix in="SourceAlpha" type="matrix" values="0 0 0 0 0 0 0 0 0 0 0 0 0 0 0 0 0 0 127 0" result="hardAlpha"/>
<feOffset/>
<feGaussianBlur stdDeviation="15"/>
<feComposite in2="hardAlpha" operator="out"/>
<feColorMatrix type="matrix" values="0 0 0 0 0.272321 0 0 0 0 0.1875 0 0 0 0 0.5625 0 0 0 0.6 0"/>
<feBlend mode="normal" in2="BackgroundImageFix" result="effect1_dropShadow_127_2"/>
<feBlend mode="normal" in="SourceGraphic" in2="effect1_dropShadow_127_2" result="shape"/>
</filter>
<radialGradient id="paint0_radial_127_2" cx="0" cy="0" r="1" gradientUnits="userSpaceOnUse" gradientTransform="translate(445 70) rotate(89.6667) scale(45.9499 137.845)">
<stop stop-color="#372181"/>
<stop offset="1" stop-color="#251363"/>
</radialGradient>
<radialGradient id="paint1_radial_127_2" cx="0" cy="0" r="1" gradientUnits="userSpaceOnUse" gradientTransform="translate(1172.5 70) rotate(89.6667) scale(45.9499 137.845)">
<stop stop-color="#372181"/>
<stop offset="1" stop-color="#251363"/>
</radialGradient>
<radialGradient id="paint2_radial_127_2" cx="0" cy="0" r="1" gradientUnits="userSpaceOnUse" gradientTransform="translate(1172.5 318) rotate(89.6667) scale(45.9499 137.845)">
<stop stop-color="#372181"/>
<stop offset="1" stop-color="#251363"/>
</radialGradient>
<radialGradient id="paint3_radial_127_2" cx="0" cy="0" r="1" gradientUnits="userSpaceOnUse" gradientTransform="translate(1314 222) rotate(89.6667) scale(45.9499 137.845)">
<stop stop-color="#372181"/>
<stop offset="1" stop-color="#251363"/>
</radialGradient>
<radialGradient id="paint4_radial_127_2" cx="0" cy="0" r="1" gradientUnits="userSpaceOnUse" gradientTransform="translate(1484 126) rotate(89.6667) scale(45.9499 137.845)">
<stop stop-color="#372181"/>
<stop offset="1" stop-color="#251363"/>
</radialGradient>
<radialGradient id="paint5_radial_127_2" cx="0" cy="0" r="1" gradientUnits="userSpaceOnUse" gradientTransform="translate(1638 318) rotate(89.6667) scale(45.9499 137.845)">
<stop stop-color="#372181"/>
<stop offset="1" stop-color="#251363"/>
</radialGradient>
<radialGradient id="paint6_radial_127_2" cx="0" cy="0" r="1" gradientUnits="userSpaceOnUse" gradientTransform="translate(150 194) rotate(89.6667) scale(45.9499 137.845)">
<stop stop-color="#372181"/>
<stop offset="1" stop-color="#251363"/>
</radialGradient>
<radialGradient id="paint7_radial_127_2" cx="0" cy="0" r="1" gradientUnits="userSpaceOnUse" gradientTransform="translate(442 318) rotate(89.6667) scale(45.9499 137.845)">
<stop stop-color="#372181"/>
<stop offset="1" stop-color="#251363"/>
</radialGradient>
<radialGradient id="paint8_radial_127_2" cx="0" cy="0" r="1" gradientUnits="userSpaceOnUse" gradientTransform="translate(880 318) rotate(89.6667) scale(45.9499 137.845)">
<stop stop-color="#372181"/>
<stop offset="1" stop-color="#251363"/>
</radialGradient>
</defs>
</svg>
