<svg width="1308" height="388" viewBox="0 0 1308 388" fill="none" xmlns="http://www.w3.org/2000/svg">
<g filter="url(#filter0_d_112_10)">
<rect x="30" y="154" width="224" height="80" rx="14" fill="url(#paint0_radial_112_10)"/>
<rect x="31" y="155" width="222" height="78" rx="13" stroke="white" stroke-opacity="0.1" stroke-width="2"/>
</g>
<path d="M101.598 187.8H103.582L107.678 199H105.47L104.558 196.52H100.622L99.7099 199H97.5019L101.598 187.8ZM104.078 194.728L102.59 190.472H102.558L101.118 194.728H104.078ZM108.331 197.336V192.696L109.979 191.032H114.555L116.203 192.696V197.336L114.555 199H109.979L108.331 197.336ZM113.531 197.24L114.091 196.68V193.352L113.531 192.792H111.003L110.443 193.352V196.68L111.003 197.24H113.531ZM117.566 197.272V195.672H119.71V196.616L120.238 197.144H123.55L124.094 196.6V194.744L123.566 194.216H119.326L117.598 192.488V189.528L119.326 187.8H124.382L126.11 189.528V191.144H123.966V190.184L123.438 189.656H120.27L119.742 190.184V191.832L120.27 192.36H124.51L126.238 194.088V197.24L124.478 199H119.294L117.566 197.272ZM131.713 187.8H133.905L135.265 195.704H135.329L137.553 187.8H139.185L141.361 195.704H141.425L142.785 187.8H144.977L142.657 199H140.625L138.401 191.128H138.337L136.065 199H134.033L131.713 187.8ZM145.456 197.336V192.696L147.104 191.032H151.68L153.328 192.696V197.336L151.68 199H147.104L145.456 197.336ZM150.656 197.24L151.216 196.68V193.352L150.656 192.792H148.128L147.568 193.352V196.68L148.128 197.24H150.656ZM155.085 191.032H157.037V192.344L158.333 191.032H160.349L161.437 192.136L162.525 191.032H165.309L167.021 192.76V199H164.909V193.384L164.365 192.824H163.021L162.173 193.672V199H160.125V193.352L159.613 192.824H158.653L157.197 194.296V199H155.085V191.032ZM168.626 197.528V195.704L170.098 194.232H174.146V193.224L173.65 192.728H171.25L170.77 193.224V193.672H168.69V192.76L170.402 191.032H174.514L176.226 192.76V199H174.322V197.864L173.138 199H170.098L168.626 197.528ZM172.994 197.368L174.146 196.264V195.736H171.138L170.706 196.168V196.968L171.106 197.368H172.994ZM178.069 191.032H180.021V192.36L181.349 191.032H183.925L185.701 192.808V199H183.589V193.384L183.045 192.824H181.701L180.181 194.36V199H178.069V191.032Z" fill="white"/>
<path opacity="0.3" d="M638.293 276.707C638.683 277.098 639.317 277.098 639.707 276.707L646.071 270.343C646.462 269.953 646.462 269.319 646.071 268.929C645.681 268.538 645.047 268.538 644.657 268.929L639 274.586L633.343 268.929C632.953 268.538 632.319 268.538 631.929 268.929C631.538 269.319 631.538 269.953 631.929 270.343L638.293 276.707ZM640 276V272.804H638V276H640ZM640 266.411V260.018H638V266.411H640ZM640 253.625V247.232H638V253.625H640ZM640 240.839V234.446H638V240.839H640ZM640 228.054V221.661H638V228.054H640ZM640 215.268V212.071H638V215.268H640ZM640 212.071C640 211.008 640.069 209.961 640.203 208.936L638.22 208.677C638.075 209.788 638 210.921 638 212.071H640ZM641.821 202.885C642.63 200.934 643.689 199.113 644.958 197.461L643.372 196.243C641.997 198.031 640.85 200.004 639.973 202.119L641.821 202.885ZM649.39 193.029C651.042 191.76 652.863 190.701 654.813 189.892L654.047 188.045C651.933 188.921 649.96 190.069 648.171 191.444L649.39 193.029ZM660.864 188.274C661.89 188.141 662.937 188.071 664 188.071V186.071C662.85 186.071 661.717 186.146 660.605 186.291L660.864 188.274ZM664 188.071H667.458V186.071H664V188.071ZM674.375 188.071H681.292V186.071H674.375V188.071ZM688.208 188.071H695.125V186.071H688.208V188.071ZM702.042 188.071H708.958V186.071H702.042V188.071ZM715.875 188.071H722.792V186.071H715.875V188.071ZM729.708 188.071H736.625V186.071H729.708V188.071ZM743.542 188.071H747V186.071H743.542V188.071ZM747 188.071C748.15 188.071 749.283 187.997 750.395 187.852L750.136 185.869C749.11 186.002 748.063 186.071 747 186.071V188.071ZM756.953 186.098C759.067 185.221 761.04 184.074 762.829 182.699L761.61 181.113C759.958 182.383 758.137 183.442 756.187 184.251L756.953 186.098ZM767.628 177.9C769.003 176.112 770.15 174.138 771.027 172.024L769.179 171.258C768.37 173.209 767.311 175.03 766.042 176.682L767.628 177.9ZM772.78 165.466C772.925 164.355 773 163.221 773 162.071H771C771 163.135 770.931 164.181 770.797 165.207L772.78 165.466ZM773 162.071V158.817H771V162.071H773ZM773 152.308V145.799H771V152.308H773ZM773 139.29V132.781H771V139.29H773ZM773 126.272V119.763H771V126.272H773ZM773 113.254V110H771V113.254H773Z" fill="white"/>
<path opacity="0.3" d="M653.707 73.7071C654.098 73.3166 654.098 72.6834 653.707 72.2929L647.343 65.9289C646.953 65.5384 646.319 65.5384 645.929 65.9289C645.538 66.3195 645.538 66.9526 645.929 67.3431L651.586 73L645.929 78.6569C645.538 79.0474 645.538 79.6805 645.929 80.0711C646.319 80.4616 646.953 80.4616 647.343 80.0711L653.707 73.7071ZM432 74H435.453V72H432V74ZM442.359 74H449.266V72H442.359V74ZM456.172 74H463.078V72H456.172V74ZM469.984 74H476.891V72H469.984V74ZM483.797 74H490.703V72H483.797V74ZM497.609 74H504.516V72H497.609V74ZM511.422 74H518.328V72H511.422V74ZM525.234 74H532.141V72H525.234V74ZM539.047 74H545.953V72H539.047V74ZM552.859 74H559.766V72H552.859V74ZM566.672 74H573.578V72H566.672V74ZM580.484 74H587.391V72H580.484V74ZM594.297 74H601.203V72H594.297V74ZM608.109 74H615.016V72H608.109V74ZM621.922 74H628.828V72H621.922V74ZM635.734 74H642.641V72H635.734V74ZM649.547 74H653V72H649.547V74Z" fill="white"/>
<path opacity="0.3" d="M320.293 111.293C320.683 110.902 321.317 110.902 321.707 111.293L328.071 117.657C328.462 118.047 328.462 118.681 328.071 119.071C327.681 119.462 327.047 119.462 326.657 119.071L321 113.414L315.343 119.071C314.953 119.462 314.319 119.462 313.929 119.071C313.538 118.681 313.538 118.047 313.929 117.657L320.293 111.293ZM320 282V278.458H322V282H320ZM320 271.375V264.292H322V271.375H320ZM320 257.208V250.125H322V257.208H320ZM320 243.042V235.958H322V243.042H320ZM320 228.875V221.792H322V228.875H320ZM320 214.708V207.625H322V214.708H320ZM320 200.542V193.458H322V200.542H320ZM320 186.375V179.292H322V186.375H320ZM320 172.208V165.125H322V172.208H320ZM320 158.042V150.958H322V158.042H320ZM320 143.875V136.792H322V143.875H320ZM320 129.708V122.625H322V129.708H320ZM320 115.542V112H322V115.542H320Z" fill="white"/>
<g filter="url(#filter1_d_112_10)">
<rect x="208" y="30" width="224" height="80" rx="14" fill="url(#paint1_radial_112_10)"/>
<rect x="209" y="31" width="222" height="78" rx="13" stroke="white" stroke-opacity="0.1" stroke-width="2"/>
</g>
<path d="M297.309 63.8H299.293L303.389 75H301.181L300.269 72.52H296.333L295.421 75H293.213L297.309 63.8ZM299.789 70.728L298.301 66.472H298.269L296.829 70.728H299.789ZM304.042 73.336V68.696L305.69 67.032H310.266L311.914 68.696V73.336L310.266 75H305.69L304.042 73.336ZM309.242 73.24L309.802 72.68V69.352L309.242 68.792H306.714L306.154 69.352V72.68L306.714 73.24H309.242ZM313.277 73.272V71.672H315.421V72.616L315.949 73.144H319.261L319.805 72.6V70.744L319.277 70.216H315.037L313.309 68.488V65.528L315.037 63.8H320.093L321.821 65.528V67.144H319.677V66.184L319.149 65.656H315.981L315.453 66.184V67.832L315.981 68.36H320.221L321.949 70.088V73.24L320.189 75H315.005L313.277 73.272ZM327.183 63.8H329.423L332.207 72.408H332.239L335.023 63.8H337.263L333.279 75H331.167L327.183 63.8ZM341.414 69.224L337.67 63.8H340.118L342.646 67.48L345.174 63.8H347.622L343.878 69.288L347.782 75H345.334L342.646 71.048L339.958 75H337.51L341.414 69.224Z" fill="white"/>
<path d="M490.716 242.509C490.796 242.061 491.032 241.681 491.424 241.369C491.816 241.057 492.26 240.901 492.756 240.901C493.18 240.901 493.564 241.013 493.908 241.237C494.244 241.453 494.512 241.769 494.712 242.185C494.904 242.601 495 243.085 495 243.637L495 246.973L486.66 246.973L486.66 243.793C486.66 243.225 486.756 242.737 486.948 242.329C487.14 241.921 487.4 241.613 487.728 241.405C488.048 241.197 488.408 241.093 488.808 241.093C489.288 241.093 489.688 241.221 490.008 241.477C490.328 241.733 490.564 242.077 490.716 242.509ZM490.164 245.605L490.164 243.913C490.164 243.465 490.064 243.117 489.864 242.869C489.656 242.613 489.36 242.485 488.976 242.485C488.6 242.485 488.308 242.613 488.1 242.869C487.884 243.117 487.776 243.465 487.776 243.913L487.776 245.605L490.164 245.605ZM493.884 243.757C493.884 243.293 493.772 242.929 493.548 242.665C493.324 242.401 493.012 242.269 492.612 242.269C492.204 242.269 491.88 242.409 491.64 242.689C491.4 242.969 491.28 243.341 491.28 243.805L491.28 245.605L493.884 245.605L493.884 243.757ZM493.296 234.386L493.296 237.878L495 238.478L495 239.906L486.648 236.918L486.648 235.334L495 232.346L495 233.786L493.296 234.386ZM492.18 234.77L488.304 236.126L492.18 237.494L492.18 234.77ZM486.66 225.659L487.776 225.659L487.776 227.879L495 227.879L495 229.247L487.776 229.247L487.776 231.479L486.66 231.479L486.66 225.659ZM486.66 218.886L487.776 218.886L487.776 221.106L495 221.106L495 222.474L487.776 222.474L487.776 224.706L486.66 224.706L486.66 218.886ZM493.896 216.132L493.896 213.312L495 213.312L495 217.5L486.66 217.5L486.66 216.132L493.896 216.132ZM487.764 210.8L490.212 210.8L490.212 207.92L491.328 207.92L491.328 210.8L493.884 210.8L493.884 207.56L495 207.56L495 212.168L486.648 212.168L486.648 207.56L487.764 207.56L487.764 210.8ZM493.296 197.73L493.296 201.222L495 201.822L495 203.25L486.648 200.262L486.648 198.678L495 195.69L495 197.13L493.296 197.73ZM492.18 198.114L488.304 199.47L492.18 200.838L492.18 198.114ZM495 187.539L495 188.907L488.772 193.023L495 193.023L495 194.391L486.648 194.391L486.648 193.023L492.864 188.907L486.648 188.907L486.648 187.539L495 187.539ZM486.66 183.019C486.66 182.131 486.832 181.355 487.176 180.691C487.512 180.019 488 179.503 488.64 179.143C489.272 178.775 490.012 178.591 490.86 178.591C491.708 178.591 492.444 178.775 493.068 179.143C493.692 179.503 494.172 180.019 494.508 180.691C494.836 181.355 495 182.131 495 183.019L495 185.743L486.66 185.743L486.66 183.019ZM493.884 183.019C493.884 182.043 493.62 181.295 493.092 180.775C492.564 180.255 491.82 179.995 490.86 179.995C489.892 179.995 489.136 180.255 488.592 180.775C488.048 181.295 487.776 182.043 487.776 183.019L487.776 184.375L493.884 184.375L493.884 183.019ZM487.764 172.75L490.212 172.75L490.212 169.87L491.328 169.87L491.328 172.75L493.884 172.75L493.884 169.51L495 169.51L495 174.118L486.648 174.118L486.648 169.51L487.764 169.51L487.764 172.75ZM493.296 162.797L493.296 166.289L495 166.889L495 168.317L486.648 165.329L486.648 163.745L495 160.757L495 162.197L493.296 162.797ZM492.18 163.181L488.304 164.537L492.18 165.905L492.18 163.181ZM495 155.125L491.664 157.045L491.664 158.089L495 158.089L495 159.457L486.66 159.457L486.66 156.577C486.66 155.937 486.772 155.397 486.996 154.957C487.22 154.509 487.52 154.177 487.896 153.961C488.272 153.737 488.692 153.625 489.156 153.625C489.7 153.625 490.196 153.785 490.644 154.105C491.084 154.417 491.384 154.901 491.544 155.557L495 153.493L495 155.125ZM490.572 158.089L490.572 156.577C490.572 156.065 490.444 155.681 490.188 155.425C489.932 155.161 489.588 155.029 489.156 155.029C488.724 155.029 488.388 155.157 488.148 155.413C487.9 155.669 487.776 156.057 487.776 156.577L487.776 158.089L490.572 158.089ZM495 145.023L495 146.391L488.772 150.507L495 150.507L495 151.875L486.648 151.875L486.648 150.507L492.864 146.391L486.648 146.391L486.648 145.023L495 145.023Z" fill="#FFA51E"/>
<g filter="url(#filter2_d_112_10)">
<rect x="208" y="278" width="224" height="80" rx="14" fill="url(#paint2_radial_112_10)"/>
<rect x="209" y="279" width="222" height="78" rx="13" stroke="white" stroke-opacity="0.1" stroke-width="2"/>
</g>
<path d="M309.41 311.8H311.394L315.49 323H313.282L312.37 320.52H308.434L307.522 323H305.314L309.41 311.8ZM311.89 318.728L310.402 314.472H310.37L308.93 318.728H311.89ZM316.144 321.336V316.696L317.792 315.032H322.368L324.016 316.696V321.336L322.368 323H317.792L316.144 321.336ZM321.344 321.24L321.904 320.68V317.352L321.344 316.792H318.816L318.256 317.352V320.68L318.816 321.24H321.344ZM325.378 321.272V319.672H327.522V320.616L328.05 321.144H331.362L331.906 320.6V318.744L331.378 318.216H327.138L325.41 316.488V313.528L327.138 311.8H332.194L333.922 313.528V315.144H331.778V314.184L331.25 313.656H328.082L327.554 314.184V315.832L328.082 316.36H332.322L334.05 318.088V321.24L332.29 323H327.106L325.378 321.272Z" fill="white"/>
<g filter="url(#filter3_d_112_10)">
<rect x="526" y="278" width="224" height="80" rx="14" fill="url(#paint3_radial_112_10)"/>
<rect x="527" y="279" width="222" height="78" rx="13" stroke="white" stroke-opacity="0.1" stroke-width="2"/>
</g>
<path d="M591.787 313.64H588.443V311.8H597.307V313.64H593.963V323H591.787V313.64ZM596.909 321.336V316.696L598.557 315.032H603.133L604.781 316.696V321.336L603.133 323H598.557L596.909 321.336ZM602.109 321.24L602.669 320.68V317.352L602.109 316.792H599.581L599.021 317.352V320.68L599.581 321.24H602.109ZM606.458 321.32V315.032H608.57V320.664L609.114 321.208H610.394L611.962 319.64V315.032H614.074V323H612.122V321.64L610.746 323H608.138L606.458 321.32ZM615.991 315.032H617.943V316.36L619.223 315.032H621.495V316.824H619.655L618.103 318.424V323H615.991V315.032ZM622.538 315.032H624.49V316.36L625.818 315.032H628.394L630.17 316.808V323H628.058V317.384L627.514 316.824H626.17L624.65 318.36V323H622.538V315.032ZM631.767 321.528V319.704L633.239 318.232H637.287V317.224L636.791 316.728H634.391L633.911 317.224V317.672H631.831V316.76L633.543 315.032H637.655L639.367 316.76V323H637.463V321.864L636.279 323H633.239L631.767 321.528ZM636.135 321.368L637.287 320.264V319.736H634.279L633.847 320.168V320.968L634.247 321.368H636.135ZM641.21 315.032H643.162V316.344L644.458 315.032H646.474L647.562 316.136L648.65 315.032H651.434L653.146 316.76V323H651.034V317.384L650.49 316.824H649.146L648.298 317.672V323H646.25V317.352L645.738 316.824H644.778L643.322 318.296V323H641.21V315.032ZM654.831 321.368V316.696L656.479 315.032H660.975L662.639 316.696V319.72H656.943V320.744L657.455 321.272H660.063L660.543 320.776V320.36H662.623V321.4L661.039 323H656.447L654.831 321.368ZM660.527 318.248V317.32L659.983 316.76H657.487L656.943 317.32V318.248H660.527ZM664.319 315.032H666.271V316.36L667.599 315.032H670.175L671.951 316.808V323H669.839V317.384L669.295 316.824H667.951L666.431 318.36V323H664.319V315.032ZM674.352 321.368V316.808H672.912V315.032H674.384V312.44H676.464V315.032H678.896V316.824H676.464V320.68L677.008 321.208H678.896V323H676L674.352 321.368ZM679.779 321.432V320.456H681.859V320.904L682.211 321.272H684.803L685.155 320.904V320.216L684.787 319.832H681.347L679.843 318.312V316.568L681.363 315.032H685.523L687.075 316.6V317.576H684.995V317.128L684.643 316.76H682.275L681.923 317.128V317.752L682.291 318.136H685.731L687.235 319.656V321.464L685.715 323H681.331L679.779 321.432Z" fill="white"/>
<path opacity="0.3" d="M524.707 320.707C525.098 320.317 525.098 319.683 524.707 319.293L518.343 312.929C517.953 312.538 517.319 312.538 516.929 312.929C516.538 313.319 516.538 313.953 516.929 314.343L522.586 320L516.929 325.657C516.538 326.047 516.538 326.681 516.929 327.071C517.319 327.462 517.953 327.462 518.343 327.071L524.707 320.707ZM434.293 55.2929C433.902 55.6834 433.902 56.3166 434.293 56.7071L440.657 63.0711C441.047 63.4616 441.681 63.4616 442.071 63.0711C442.462 62.6805 442.462 62.0474 442.071 61.6569L436.414 56L442.071 50.3431C442.462 49.9526 442.462 49.3195 442.071 48.9289C441.681 48.5384 441.047 48.5384 440.657 48.9289L434.293 55.2929ZM435 57H438.654V55H435V57ZM445.962 57H449.616V55H445.962V57ZM449.616 57C450.901 57 452.165 57.0835 453.405 57.2452L453.664 55.262C452.339 55.0891 450.988 55 449.616 55V57ZM460.717 59.2001C463.074 60.1776 465.275 61.4572 467.27 62.9909L468.489 61.4051C466.356 59.7661 464.004 58.398 461.483 57.3527L460.717 59.2001ZM472.625 68.3458C474.159 70.3417 475.439 72.5423 476.416 74.8994L478.264 74.1333C477.218 71.6125 475.85 69.26 474.211 67.1272L472.625 68.3458ZM478.371 82.2111C478.533 83.4507 478.616 84.7154 478.616 86H480.616C480.616 84.6286 480.527 83.2776 480.354 81.9524L478.371 82.2111ZM478.616 86V89.4H480.616V86H478.616ZM478.616 96.2V103H480.616V96.2H478.616ZM478.616 109.8V116.6H480.616V109.8H478.616ZM478.616 123.4V130.2H480.616V123.4H478.616ZM478.616 137V143.8H480.616V137H478.616ZM478.616 150.6V157.4H480.616V150.6H478.616ZM478.616 164.2V171H480.616V164.2H478.616ZM478.616 177.8V184.6H480.616V177.8H478.616ZM478.616 191.4V198.2H480.616V191.4H478.616ZM478.616 205V211.8H480.616V205H478.616ZM478.616 218.6V225.4H480.616V218.6H478.616ZM478.616 232.2V239H480.616V232.2H478.616ZM478.616 245.8V252.6H480.616V245.8H478.616ZM478.616 259.4V266.2H480.616V259.4H478.616ZM478.616 273V279.8H480.616V273H478.616ZM478.616 286.6V290H480.616V286.6H478.616ZM478.616 290C478.616 291.371 478.705 292.722 478.878 294.048L480.861 293.789C480.7 292.549 480.616 291.285 480.616 290H478.616ZM480.969 301.867C482.014 304.387 483.382 306.74 485.021 308.873L486.607 307.654C485.073 305.658 483.794 303.458 482.816 301.101L480.969 301.867ZM490.743 314.595C492.876 316.234 495.229 317.602 497.75 318.647L498.516 316.8C496.159 315.822 493.958 314.543 491.962 313.009L490.743 314.595ZM505.569 320.738C506.894 320.911 508.245 321 509.616 321V319C508.332 319 507.067 318.917 505.827 318.755L505.569 320.738ZM509.616 321H513.212V319H509.616V321ZM520.404 321H524V319H520.404V321Z" fill="white"/>
<path opacity="0.3" d="M142.707 235.293C142.317 234.902 141.683 234.902 141.293 235.293L134.929 241.657C134.538 242.047 134.538 242.681 134.929 243.071C135.319 243.462 135.953 243.462 136.343 243.071L142 237.414L147.657 243.071C148.047 243.462 148.681 243.462 149.071 243.071C149.462 242.681 149.462 242.047 149.071 241.657L142.707 235.293ZM141 236V239.625H143V236H141ZM141 246.875V254.125H143V246.875H141ZM141 261.375V268.625H143V261.375H141ZM141 275.875V283.125H143V275.875H141ZM141 290.375V294H143V290.375H141ZM141 294C141 295.15 141.075 296.283 141.22 297.395L143.203 297.136C143.069 296.11 143 295.063 143 294H141ZM142.973 303.953C143.85 306.067 144.997 308.04 146.372 309.829L147.958 308.61C146.689 306.958 145.63 305.137 144.821 303.187L142.973 303.953ZM151.171 314.628C152.96 316.003 154.933 317.15 157.047 318.027L157.813 316.179C155.863 315.37 154.042 314.311 152.39 313.042L151.171 314.628ZM163.605 319.78C164.717 319.925 165.85 320 167 320V318C165.937 318 164.89 317.931 163.864 317.797L163.605 319.78ZM167 320H170.417V318H167V320ZM177.25 320H184.083V318H177.25V320ZM190.917 320H197.75V318H190.917V320ZM204.583 320H208V318H204.583V320Z" fill="white"/>
<g filter="url(#filter4_d_112_10)">
<rect x="656" y="30" width="240" height="80" rx="14" fill="url(#paint4_radial_112_10)"/>
<rect x="657" y="31" width="238" height="78" rx="13" stroke="white" stroke-opacity="0.1" stroke-width="2"/>
</g>
<path d="M702.136 73.272V71.672H704.28V72.616L704.808 73.144H708.12L708.664 72.6V70.744L708.136 70.216H703.896L702.168 68.488V65.528L703.896 63.8H708.952L710.68 65.528V67.144H708.536V66.184L708.008 65.656H704.84L704.312 66.184V67.832L704.84 68.36H709.08L710.808 70.088V73.24L709.048 75H703.864L702.136 73.272ZM712.165 73.528V71.704L713.637 70.232H717.685V69.224L717.189 68.728H714.789L714.309 69.224V69.672H712.229V68.76L713.941 67.032H718.053L719.765 68.76V75H717.861V73.864L716.677 75H713.637L712.165 73.528ZM716.533 73.368L717.685 72.264V71.736H714.677L714.245 72.168V72.968L714.645 73.368H716.533ZM721.608 67.032H723.56V68.36L724.888 67.032H727.464L729.24 68.808V75H727.128V69.384L726.584 68.824H725.24L723.72 70.36V75H721.608V67.032ZM730.917 73.336V68.696L732.565 67.032H735.733L736.677 67.848V63.576H738.789V75H736.805V73.768L735.573 75H732.565L730.917 73.336ZM735.381 73.208L736.677 71.88V69.8L735.589 68.824H733.637L733.029 69.448V72.584L733.637 73.208H735.381ZM740.702 73.272V63.576H742.814V68.136L743.982 67.032H746.894L748.542 68.696V73.336L746.894 75H742.414L740.702 73.272ZM745.822 73.208L746.43 72.584V69.448L745.822 68.824H744.254L742.814 70.264V72.584L743.422 73.208H745.822ZM750.136 73.336V68.696L751.784 67.032H756.36L758.008 68.696V73.336L756.36 75H751.784L750.136 73.336ZM755.336 73.24L755.896 72.68V69.352L755.336 68.792H752.808L752.248 69.352V72.68L752.808 73.24H755.336ZM764.476 75L762.716 72.568L760.956 75H758.572L761.548 70.952L758.652 67.032H761.036L762.716 69.368L764.396 67.032H766.78L763.9 70.984L766.86 75H764.476ZM772.345 63.8H774.361L777.689 71.032H777.721L781.065 63.8H783.081V75H780.985V68.184H780.953L778.377 73.432H777.033L774.473 68.184H774.441V75H772.345V63.8ZM784.917 73.368V68.696L786.565 67.032H791.061L792.725 68.696V71.72H787.029V72.744L787.541 73.272H790.149L790.629 72.776V72.36H792.709V73.4L791.125 75H786.533L784.917 73.368ZM790.613 70.248V69.32L790.069 68.76H787.573L787.029 69.32V70.248H790.613ZM795.125 73.368V68.808H793.685V67.032H795.157V64.44H797.237V67.032H799.669V68.824H797.237V72.68L797.781 73.208H799.669V75H796.773L795.125 73.368ZM800.79 73.528V71.704L802.262 70.232H806.31V69.224L805.814 68.728H803.414L802.934 69.224V69.672H800.854V68.76L802.566 67.032H806.678L808.39 68.76V75H806.486V73.864L805.302 75H802.262L800.79 73.528ZM805.158 73.368L806.31 72.264V71.736H803.302L802.87 72.168V72.968L803.27 73.368H805.158ZM809.117 67.032H811.309L813.165 72.584H813.229L815.085 67.032H817.277L814.221 75H812.173L809.117 67.032ZM817.917 73.368V68.696L819.565 67.032H824.061L825.725 68.696V71.72H820.029V72.744L820.541 73.272H823.149L823.629 72.776V72.36H825.709V73.4L824.125 75H819.533L817.917 73.368ZM823.613 70.248V69.32L823.069 68.76H820.573L820.029 69.32V70.248H823.613ZM827.405 67.032H829.357V68.36L830.637 67.032H832.909V68.824H831.069L829.517 70.424V75H827.405V67.032ZM833.318 73.432V72.456H835.398V72.904L835.75 73.272H838.342L838.694 72.904V72.216L838.326 71.832H834.886L833.382 70.312V68.568L834.902 67.032H839.062L840.614 68.6V69.576H838.534V69.128L838.182 68.76H835.814L835.462 69.128V69.752L835.83 70.136H839.27L840.774 71.656V73.464L839.254 75H834.87L833.318 73.432ZM842.136 73.368V68.696L843.784 67.032H848.28L849.944 68.696V71.72H844.248V72.744L844.76 73.272H847.368L847.848 72.776V72.36H849.928V73.4L848.344 75H843.752L842.136 73.368ZM847.832 70.248V69.32L847.288 68.76H844.792L844.248 69.32V70.248H847.832Z" fill="white"/>
<path opacity="0.3" d="M1247.29 276.707C1247.68 277.098 1248.32 277.098 1248.71 276.707L1255.07 270.343C1255.46 269.953 1255.46 269.319 1255.07 268.929C1254.68 268.538 1254.05 268.538 1253.66 268.929L1248 274.586L1242.34 268.929C1241.95 268.538 1241.32 268.538 1240.93 268.929C1240.54 269.319 1240.54 269.953 1240.93 270.343L1247.29 276.707ZM897 70H900.489V68H897V70ZM907.467 70H914.446V68H907.467V70ZM921.424 70H928.402V68H921.424V70ZM935.38 70H942.359V68H935.38V70ZM949.337 70H956.315V68H949.337V70ZM963.293 70H970.272V68H963.293V70ZM977.25 70H984.228V68H977.25V70ZM991.207 70H998.185V68H991.207V70ZM1005.16 70H1012.14V68H1005.16V70ZM1019.12 70H1026.1V68H1019.12V70ZM1033.08 70H1040.05V68H1033.08V70ZM1047.03 70H1054.01V68H1047.03V70ZM1060.99 70H1067.97V68H1060.99V70ZM1074.95 70H1081.92V68H1074.95V70ZM1088.9 70H1095.88V68H1088.9V70ZM1102.86 70H1109.84V68H1102.86V70ZM1116.82 70H1123.79V68H1116.82V70ZM1130.77 70H1137.75V68H1130.77V70ZM1144.73 70H1151.71V68H1144.73V70ZM1158.68 70H1165.66V68H1158.68V70ZM1172.64 70H1179.62V68H1172.64V70ZM1186.6 70H1193.58V68H1186.6V70ZM1200.55 70H1207.53V68H1200.55V70ZM1214.51 70H1218V68H1214.51V70ZM1218 70C1219.28 70 1220.55 70.0835 1221.79 70.2452L1222.05 68.262C1220.72 68.0891 1219.37 68 1218 68V70ZM1229.1 72.2001C1231.46 73.1776 1233.66 74.4572 1235.65 75.9909L1236.87 74.4051C1234.74 72.7661 1232.39 71.398 1229.87 70.3527L1229.1 72.2001ZM1241.01 81.3458C1242.54 83.3417 1243.82 85.5423 1244.8 87.8994L1246.65 87.1333C1245.6 84.6125 1244.23 82.26 1242.59 80.1271L1241.01 81.3458ZM1246.75 95.2111C1246.92 96.4507 1247 97.7153 1247 99H1249C1249 97.6286 1248.91 96.2776 1248.74 94.9524L1246.75 95.2111ZM1247 99V102.404H1249V99H1247ZM1247 109.212V116.019H1249V109.212H1247ZM1247 122.827V129.635H1249V122.827H1247ZM1247 136.442V143.25H1249V136.442H1247ZM1247 150.058V156.865H1249V150.058H1247ZM1247 163.673V170.481H1249V163.673H1247ZM1247 177.288V184.096H1249V177.288H1247ZM1247 190.904V197.712H1249V190.904H1247ZM1247 204.519V211.327H1249V204.519H1247ZM1247 218.135V224.942H1249V218.135H1247ZM1247 231.75V238.558H1249V231.75H1247ZM1247 245.365V252.173H1249V245.365H1247ZM1247 258.981V265.788H1249V258.981H1247ZM1247 272.596V276H1249V272.596H1247Z" fill="white"/>
<path opacity="0.3" d="M1106.29 84.7071C1106.68 85.0976 1107.32 85.0976 1107.71 84.7071L1114.07 78.3431C1114.46 77.9526 1114.46 77.3195 1114.07 76.9289C1113.68 76.5384 1113.05 76.5384 1112.66 76.9289L1107 82.5858L1101.34 76.9289C1100.95 76.5384 1100.32 76.5384 1099.93 76.9289C1099.54 77.3195 1099.54 77.9526 1099.93 78.3431L1106.29 84.7071ZM896 55H899.577V53H896V55ZM906.731 55H913.885V53H906.731V55ZM921.038 55H928.192V53H921.038V55ZM935.346 55H942.5V53H935.346V55ZM949.654 55H956.808V53H949.654V55ZM963.962 55H971.115V53H963.962V55ZM978.269 55H985.423V53H978.269V55ZM992.577 55H999.731V53H992.577V55ZM1006.88 55H1014.04V53H1006.88V55ZM1021.19 55H1028.35V53H1021.19V55ZM1035.5 55H1042.65V53H1035.5V55ZM1049.81 55H1056.96V53H1049.81V55ZM1064.12 55H1071.27V53H1064.12V55ZM1078.42 55H1082V53H1078.42V55ZM1082 55C1083.06 55 1084.11 55.0691 1085.14 55.2029L1085.39 53.2197C1084.28 53.0747 1083.15 53 1082 53V55ZM1091.19 56.8207C1093.14 57.6296 1094.96 58.6886 1096.61 59.9579L1097.83 58.3721C1096.04 56.9975 1094.07 55.85 1091.95 54.9733L1091.19 56.8207ZM1101.04 64.3897C1102.31 66.0415 1103.37 67.8628 1104.18 69.8134L1106.03 69.0472C1105.15 66.933 1104 64.9599 1102.63 63.1711L1101.04 64.3897ZM1105.8 75.8641C1105.93 76.89 1106 77.9367 1106 79H1108C1108 77.85 1107.93 76.7169 1107.78 75.6054L1105.8 75.8641ZM1106 79V80.25H1108V79H1106ZM1106 82.75V84H1108V82.75H1106Z" fill="white"/>
<path opacity="0.3" d="M959.793 180.707C960.183 181.098 960.817 181.098 961.207 180.707L967.571 174.343C967.962 173.953 967.962 173.319 967.571 172.929C967.181 172.538 966.547 172.538 966.157 172.929L960.5 178.586L954.843 172.929C954.453 172.538 953.819 172.538 953.429 172.929C953.038 173.319 953.038 173.953 953.429 174.343L959.793 180.707ZM859.5 110V113.209H861.5V110H859.5ZM859.5 119.628V122.838H861.5V119.628H859.5ZM859.5 122.838C859.5 123.988 859.575 125.121 859.72 126.232L861.703 125.974C861.569 124.948 861.5 123.901 861.5 122.838H859.5ZM861.473 132.791C862.35 134.905 863.497 136.878 864.872 138.667L866.458 137.448C865.189 135.796 864.13 133.975 863.321 132.024L861.473 132.791ZM869.671 143.466C871.46 144.84 873.433 145.988 875.547 146.865L876.313 145.017C874.363 144.208 872.542 143.149 870.89 141.88L869.671 143.466ZM882.105 148.618C883.217 148.763 884.35 148.838 885.5 148.838V146.838C884.437 146.838 883.39 146.769 882.364 146.635L882.105 148.618ZM885.5 148.838H888.625V146.838H885.5V148.838ZM894.875 148.838H901.125V146.838H894.875V148.838ZM907.375 148.838H913.625V146.838H907.375V148.838ZM919.875 148.838H926.125V146.838H919.875V148.838ZM932.375 148.838H935.5V146.838H932.375V148.838ZM935.5 148.838C936.563 148.838 937.61 148.907 938.636 149.041L938.895 147.058C937.783 146.913 936.65 146.838 935.5 146.838V148.838ZM944.687 150.659C946.637 151.467 948.458 152.526 950.11 153.796L951.329 152.21C949.54 150.835 947.567 149.688 945.453 148.811L944.687 150.659ZM954.542 158.228C955.811 159.879 956.87 161.701 957.679 163.651L959.527 162.885C958.65 160.771 957.503 158.798 956.128 157.009L954.542 158.228ZM959.297 169.702C959.431 170.728 959.5 171.775 959.5 172.838H961.5C961.5 171.688 961.425 170.555 961.28 169.443L959.297 169.702ZM959.5 172.838V174.628H961.5V172.838H959.5ZM959.5 178.209V180H961.5V178.209H959.5Z" fill="white"/>
<g filter="url(#filter5_d_112_10)">
<rect x="774" y="278" width="240" height="80" rx="14" fill="url(#paint5_radial_112_10)"/>
<rect x="775" y="279" width="238" height="78" rx="13" stroke="white" stroke-opacity="0.1" stroke-width="2"/>
</g>
<path d="M860.167 321.272V319.672H862.311V320.616L862.839 321.144H866.151L866.695 320.6V318.744L866.167 318.216H861.927L860.199 316.488V313.528L861.927 311.8H866.983L868.711 313.528V315.144H866.567V314.184L866.039 313.656H862.871L862.343 314.184V315.832L862.871 316.36H867.111L868.839 318.088V321.24L867.079 323H861.895L860.167 321.272ZM871.078 321.368V316.808H869.638V315.032H871.11V312.44H873.19V315.032H875.622V316.824H873.19V320.68L873.734 321.208H875.622V323H872.726L871.078 321.368ZM876.589 321.336V316.696L878.237 315.032H882.813L884.461 316.696V321.336L882.813 323H878.237L876.589 321.336ZM881.789 321.24L882.349 320.68V317.352L881.789 316.792H879.261L878.701 317.352V320.68L879.261 321.24H881.789ZM886.218 315.032H888.17V316.36L889.45 315.032H891.722V316.824H889.882L888.33 318.424V323H886.218V315.032ZM900.333 315.032V324.824L898.605 326.536H894.413L892.925 325.064V323.976H895.037V324.456L895.341 324.776H897.677L898.221 324.216V321.816L897.037 323H894.397L892.685 321.272V315.032H894.797V320.648L895.341 321.208H896.733L898.221 319.624V315.032H900.333ZM902.329 311.576H904.441V323H902.329V311.576ZM906.357 313.368V312.344L907.093 311.608H908.213L908.949 312.344V313.368L908.213 314.104H907.093L906.357 313.368ZM906.597 315.032H908.709V323H906.597V315.032ZM910.796 315.032H912.748V316.36L914.076 315.032H916.652L918.428 316.808V323H916.316V317.384L915.772 316.824H914.428L912.908 318.36V323H910.796V315.032ZM920.105 321.368V316.696L921.753 315.032H926.249L927.913 316.696V319.72H922.217V320.744L922.729 321.272H925.337L925.817 320.776V320.36H927.897V321.4L926.313 323H921.721L920.105 321.368ZM925.801 318.248V317.32L925.257 316.76H922.761L922.217 317.32V318.248H925.801Z" fill="white"/>
<g filter="url(#filter6_d_112_10)">
<rect x="848" y="182" width="240" height="80" rx="14" fill="url(#paint6_radial_112_10)"/>
<rect x="849" y="183" width="238" height="78" rx="13" stroke="white" stroke-opacity="0.1" stroke-width="2"/>
</g>
<path d="M927.886 225.272V223.672H930.03V224.616L930.558 225.144H933.87L934.414 224.6V222.744L933.886 222.216H929.646L927.918 220.488V217.528L929.646 215.8H934.702L936.43 217.528V219.144H934.286V218.184L933.758 217.656H930.59L930.062 218.184V219.832L930.59 220.36H934.83L936.558 222.088V225.24L934.798 227H929.614L927.886 225.272ZM937.995 225.336V220.696L939.643 219.032H944.219L945.867 220.696V225.336L944.219 227H939.643L937.995 225.336ZM943.195 225.24L943.755 224.68V221.352L943.195 220.792H940.667L940.107 221.352V224.68L940.667 225.24H943.195ZM947.464 225.368V220.664L949.08 219.032H953.464L955.112 220.696V222.168H953V221.384L952.44 220.824H950.136L949.576 221.384V224.648L950.136 225.208H952.44L953 224.648V223.864H955.112V225.336L953.464 227H949.08L947.464 225.368ZM956.466 217.368V216.344L957.202 215.608H958.322L959.058 216.344V217.368L958.322 218.104H957.202L956.466 217.368ZM956.706 219.032H958.818V227H956.706V219.032ZM960.665 225.528V223.704L962.137 222.232H966.185V221.224L965.689 220.728H963.289L962.809 221.224V221.672H960.729V220.76L962.441 219.032H966.553L968.265 220.76V227H966.361V225.864L965.177 227H962.137L960.665 225.528ZM965.033 225.368L966.185 224.264V223.736H963.177L962.745 224.168V224.968L963.145 225.368H965.033ZM970.188 215.576H972.3V227H970.188V215.576ZM978.735 215.8H980.911V220.488H985.647V215.8H987.823V227H985.647V222.344H980.911V227H978.735V215.8ZM989.747 225.32V219.032H991.859V224.664L992.403 225.208H993.683L995.251 223.64V219.032H997.363V227H995.411V225.64L994.035 227H991.427L989.747 225.32ZM999.28 225.272V215.576H1001.39V220.136L1002.56 219.032H1005.47L1007.12 220.696V225.336L1005.47 227H1000.99L999.28 225.272ZM1004.4 225.208L1005.01 224.584V221.448L1004.4 220.824H1002.83L1001.39 222.264V224.584L1002 225.208H1004.4Z" fill="white"/>
<g filter="url(#filter7_d_112_10)">
<rect x="984" y="86" width="240" height="80" rx="14" fill="url(#paint7_radial_112_10)"/>
<rect x="985" y="87" width="238" height="78" rx="13" stroke="white" stroke-opacity="0.1" stroke-width="2"/>
</g>
<path d="M1039.34 119.8H1047.43V121.64H1041.51V124.472H1046.97V126.28H1041.51V129.16H1047.43V131H1039.34V119.8ZM1053.98 131L1052.22 128.568L1050.46 131H1048.08L1051.06 126.952L1048.16 123.032H1050.54L1052.22 125.368L1053.9 123.032H1056.29L1053.41 126.984L1056.37 131H1053.98ZM1057.41 123.032H1059.37V124.2L1060.53 123.032H1063.64L1065.29 124.696V129.336L1063.64 131H1060.55L1059.53 130.152V134.392H1057.41V123.032ZM1062.61 129.208L1063.17 128.648V125.384L1062.61 124.824H1060.81L1059.53 126.12V128.072L1060.79 129.208H1062.61ZM1067.12 119.576H1069.23V131H1067.12V119.576ZM1071.07 129.336V124.696L1072.71 123.032H1077.29L1078.94 124.696V129.336L1077.29 131H1072.71L1071.07 129.336ZM1076.27 129.24L1076.83 128.68V125.352L1076.27 124.792H1073.74L1073.18 125.352V128.68L1073.74 129.24H1076.27ZM1080.69 123.032H1082.65V124.36L1083.93 123.032H1086.2V124.824H1084.36L1082.81 126.424V131H1080.69V123.032ZM1086.68 129.368V124.696L1088.32 123.032H1092.82L1094.48 124.696V127.72H1088.79V128.744L1089.3 129.272H1091.91L1092.39 128.776V128.36H1094.47V129.4L1092.88 131H1088.29L1086.68 129.368ZM1092.37 126.248V125.32L1091.83 124.76H1089.33L1088.79 125.32V126.248H1092.37ZM1101.24 129.368V124.808H1099.8V123.032H1101.27V120.44H1103.35V123.032H1105.79V124.824H1103.35V128.68L1103.9 129.208H1105.79V131H1102.89L1101.24 129.368ZM1107.15 119.576H1109.26V124.264L1110.49 123.032H1113.04L1114.81 124.808V131H1112.7V125.384L1112.16 124.824H1110.78L1109.26 126.36V131H1107.15V119.576ZM1116.49 129.368V124.696L1118.14 123.032H1122.63L1124.3 124.696V127.72H1118.6V128.744L1119.11 129.272H1121.72L1122.2 128.776V128.36H1124.28V129.4L1122.7 131H1118.1L1116.49 129.368ZM1122.18 126.248V125.32L1121.64 124.76H1119.14L1118.6 125.32V126.248H1122.18ZM1129.7 123.032H1131.84L1132.75 128.056H1132.82L1134.26 123.032H1136.18L1137.5 128.056H1137.57L1138.58 123.032H1140.72L1138.66 131H1136.69L1135.22 125.624H1135.15L1133.58 131H1131.62L1129.7 123.032ZM1141.68 129.336V124.696L1143.32 123.032H1147.9L1149.55 124.696V129.336L1147.9 131H1143.32L1141.68 129.336ZM1146.88 129.24L1147.44 128.68V125.352L1146.88 124.792H1144.35L1143.79 125.352V128.68L1144.35 129.24H1146.88ZM1151.3 123.032H1153.26V124.36L1154.54 123.032H1156.81V124.824H1154.97L1153.42 126.424V131H1151.3V123.032ZM1157.93 119.576H1160.04V131H1157.93V119.576ZM1161.88 129.336V124.696L1163.53 123.032H1166.69L1167.64 123.848V119.576H1169.75V131H1167.77V129.768L1166.53 131H1163.53L1161.88 129.336ZM1166.34 129.208L1167.64 127.88V125.8L1166.55 124.824H1164.6L1163.99 125.448V128.584L1164.6 129.208H1166.34Z" fill="white"/>
<g filter="url(#filter8_d_112_10)">
<rect x="1038" y="278" width="240" height="80" rx="14" fill="url(#paint8_radial_112_10)"/>
<rect x="1039" y="279" width="238" height="78" rx="13" stroke="white" stroke-opacity="0.1" stroke-width="2"/>
</g>
<path d="M1126.63 299.8H1133.65L1135.25 301.4V304.536L1134.61 305.192L1135.75 306.344V309.272L1134.02 311H1126.63V299.8ZM1132.53 304.488L1133.11 303.912V302.184L1132.55 301.624H1128.75V304.488H1132.53ZM1132.91 309.176L1133.6 308.488V306.92L1132.91 306.232H1128.75V309.176H1132.91ZM1137.18 309.32V303.032H1139.3V308.664L1139.84 309.208H1141.12L1142.69 307.64V303.032H1144.8V311H1142.85V309.64L1141.47 311H1138.86L1137.18 309.32ZM1154.29 303.032V312.824L1152.56 314.536H1148.37L1146.88 313.064V311.976H1148.99V312.456L1149.29 312.776H1151.63L1152.17 312.216V309.816L1150.99 311H1148.35L1146.64 309.272V303.032H1148.75V308.648L1149.29 309.208H1150.69L1152.17 307.624V303.032H1154.29ZM1161.42 299.8H1163.59L1157.42 311H1155.24L1161.42 299.8ZM1164.4 309.272V307.672H1166.55V308.616L1167.07 309.144H1170.39L1170.93 308.6V306.744L1170.4 306.216H1166.16L1164.43 304.488V301.528L1166.16 299.8H1171.22L1172.95 301.528V303.144H1170.8V302.184L1170.27 301.656H1167.11L1166.58 302.184V303.832L1167.11 304.36H1171.35L1173.07 306.088V309.24L1171.31 311H1166.13L1164.4 309.272ZM1174.51 309.368V304.696L1176.16 303.032H1180.65L1182.32 304.696V307.72H1176.62V308.744L1177.13 309.272H1179.74L1180.22 308.776V308.36H1182.3V309.4L1180.72 311H1176.13L1174.51 309.368ZM1180.21 306.248V305.32L1179.66 304.76H1177.17L1176.62 305.32V306.248H1180.21ZM1184.08 299.576H1186.19V311H1184.08V299.576ZM1188.27 299.576H1190.38V311H1188.27V299.576ZM1104.12 323.8H1106.3V335H1104.12V323.8ZM1108.38 327.032H1110.33V328.36L1111.66 327.032H1114.24L1116.01 328.808V335H1113.9V329.384L1113.36 328.824H1112.01L1110.49 330.36V335H1108.38V327.032ZM1125.56 327.032V336.824L1123.83 338.536H1119.5L1118.01 337.064V335.976H1120.12V336.456L1120.43 336.776H1122.91L1123.45 336.216V333.96L1122.35 335H1119.34L1117.69 333.336V328.696L1119.34 327.032H1122.47L1123.61 328.12V327.032H1125.56ZM1123.45 329.8L1122.36 328.824H1120.41L1119.8 329.448V332.584L1120.41 333.208H1122.15L1123.45 331.88V329.8ZM1127.24 333.528V331.704L1128.71 330.232H1132.76V329.224L1132.26 328.728H1129.86L1129.38 329.224V329.672H1127.3V328.76L1129.01 327.032H1133.12L1134.84 328.76V335H1132.93V333.864L1131.75 335H1128.71L1127.24 333.528ZM1131.6 333.368L1132.76 332.264V331.736H1129.75L1129.32 332.168V332.968L1129.72 333.368H1131.6ZM1136.68 327.032H1138.63V328.344L1139.93 327.032H1141.94L1143.03 328.136L1144.12 327.032H1146.9L1148.61 328.76V335H1146.5V329.384L1145.96 328.824H1144.61L1143.77 329.672V335H1141.72V329.352L1141.21 328.824H1140.25L1138.79 330.296V335H1136.68V327.032ZM1150.3 333.368V328.696L1151.95 327.032H1156.44L1158.11 328.696V331.72H1152.41V332.744L1152.92 333.272H1155.53L1156.01 332.776V332.36H1158.09V333.4L1156.51 335H1151.92L1150.3 333.368ZM1156 330.248V329.32L1155.45 328.76H1152.96L1152.41 329.32V330.248H1156ZM1163.91 333.528V331.704L1165.38 330.232H1169.43V329.224L1168.93 328.728H1166.53L1166.05 329.224V329.672H1163.97V328.76L1165.68 327.032H1169.8L1171.51 328.76V335H1169.6V333.864L1168.42 335H1165.38L1163.91 333.528ZM1168.28 333.368L1169.43 332.264V331.736H1166.42L1165.99 332.168V332.968L1166.39 333.368H1168.28ZM1172.95 333.432V332.456H1175.03V332.904L1175.38 333.272H1177.97L1178.33 332.904V332.216L1177.96 331.832H1174.52L1173.01 330.312V328.568L1174.53 327.032H1178.69L1180.25 328.6V329.576H1178.17V329.128L1177.81 328.76H1175.45L1175.09 329.128V329.752L1175.46 330.136H1178.9L1180.41 331.656V333.464L1178.89 335H1174.5L1172.95 333.432ZM1181.53 333.432V332.456H1183.61V332.904L1183.96 333.272H1186.55L1186.9 332.904V332.216L1186.54 331.832H1183.1L1181.59 330.312V328.568L1183.11 327.032H1187.27L1188.82 328.6V329.576H1186.74V329.128L1186.39 328.76H1184.02L1183.67 329.128V329.752L1184.04 330.136H1187.48L1188.98 331.656V333.464L1187.46 335H1183.08L1181.53 333.432ZM1190.35 333.368V328.696L1191.99 327.032H1196.49L1198.15 328.696V331.72H1192.46V332.744L1192.97 333.272H1195.58L1196.06 332.776V332.36H1198.14V333.4L1196.55 335H1191.96L1190.35 333.368ZM1196.04 330.248V329.32L1195.5 328.76H1193L1192.46 329.32V330.248H1196.04ZM1200.56 333.368V328.808H1199.12V327.032H1200.59V324.44H1202.67V327.032H1205.1V328.824H1202.67V332.68L1203.21 333.208H1205.1V335H1202.2L1200.56 333.368ZM1205.98 333.432V332.456H1208.06V332.904L1208.41 333.272H1211.01L1211.36 332.904V332.216L1210.99 331.832H1207.55L1206.05 330.312V328.568L1207.57 327.032H1211.73L1213.28 328.6V329.576H1211.2V329.128L1210.85 328.76H1208.48L1208.13 329.128V329.752L1208.49 330.136H1211.93L1213.44 331.656V333.464L1211.92 335H1207.53L1205.98 333.432Z" fill="white"/>
<path opacity="0.3" d="M826.793 276.707C827.183 277.098 827.817 277.098 828.207 276.707L834.571 270.343C834.962 269.953 834.962 269.319 834.571 268.929C834.181 268.538 833.547 268.538 833.157 268.929L827.5 274.586L821.843 268.929C821.453 268.538 820.819 268.538 820.429 268.929C820.038 269.319 820.038 269.953 820.429 270.343L826.793 276.707ZM826.5 110L826.5 113.458L828.5 113.458L828.5 110L826.5 110ZM826.5 120.375L826.5 127.292L828.5 127.292L828.5 120.375L826.5 120.375ZM826.5 134.208L826.5 141.125L828.5 141.125L828.5 134.208L826.5 134.208ZM826.5 148.042L826.5 154.958L828.5 154.958L828.5 148.042L826.5 148.042ZM826.5 161.875L826.5 168.792L828.5 168.792L828.5 161.875L826.5 161.875ZM826.5 175.708L826.5 182.625L828.5 182.625L828.5 175.708L826.5 175.708ZM826.5 189.542L826.5 196.458L828.5 196.458L828.5 189.542L826.5 189.542ZM826.5 203.375L826.5 210.292L828.5 210.292L828.5 203.375L826.5 203.375ZM826.5 217.208L826.5 224.125L828.5 224.125L828.5 217.208L826.5 217.208ZM826.5 231.042L826.5 237.958L828.5 237.958L828.5 231.042L826.5 231.042ZM826.5 244.875L826.5 251.792L828.5 251.792L828.5 244.875L826.5 244.875ZM826.5 258.708L826.5 265.625L828.5 265.625L828.5 258.708L826.5 258.708ZM826.5 272.542L826.5 276L828.5 276L828.5 272.542L826.5 272.542Z" fill="white"/>
<defs>
<filter id="filter0_d_112_10" x="0" y="124" width="284" height="140" filterUnits="userSpaceOnUse" color-interpolation-filters="sRGB">
<feFlood flood-opacity="0" result="BackgroundImageFix"/>
<feColorMatrix in="SourceAlpha" type="matrix" values="0 0 0 0 0 0 0 0 0 0 0 0 0 0 0 0 0 0 127 0" result="hardAlpha"/>
<feOffset/>
<feGaussianBlur stdDeviation="15"/>
<feComposite in2="hardAlpha" operator="out"/>
<feColorMatrix type="matrix" values="0 0 0 0 0.272321 0 0 0 0 0.1875 0 0 0 0 0.5625 0 0 0 0.6 0"/>
<feBlend mode="normal" in2="BackgroundImageFix" result="effect1_dropShadow_112_10"/>
<feBlend mode="normal" in="SourceGraphic" in2="effect1_dropShadow_112_10" result="shape"/>
</filter>
<filter id="filter1_d_112_10" x="178" y="0" width="284" height="140" filterUnits="userSpaceOnUse" color-interpolation-filters="sRGB">
<feFlood flood-opacity="0" result="BackgroundImageFix"/>
<feColorMatrix in="SourceAlpha" type="matrix" values="0 0 0 0 0 0 0 0 0 0 0 0 0 0 0 0 0 0 127 0" result="hardAlpha"/>
<feOffset/>
<feGaussianBlur stdDeviation="15"/>
<feComposite in2="hardAlpha" operator="out"/>
<feColorMatrix type="matrix" values="0 0 0 0 0.272321 0 0 0 0 0.1875 0 0 0 0 0.5625 0 0 0 0.6 0"/>
<feBlend mode="normal" in2="BackgroundImageFix" result="effect1_dropShadow_112_10"/>
<feBlend mode="normal" in="SourceGraphic" in2="effect1_dropShadow_112_10" result="shape"/>
</filter>
<filter id="filter2_d_112_10" x="178" y="248" width="284" height="140" filterUnits="userSpaceOnUse" color-interpolation-filters="sRGB">
<feFlood flood-opacity="0" result="BackgroundImageFix"/>
<feColorMatrix in="SourceAlpha" type="matrix" values="0 0 0 0 0 0 0 0 0 0 0 0 0 0 0 0 0 0 127 0" result="hardAlpha"/>
<feOffset/>
<feGaussianBlur stdDeviation="15"/>
<feComposite in2="hardAlpha" operator="out"/>
<feColorMatrix type="matrix" values="0 0 0 0 0.272321 0 0 0 0 0.1875 0 0 0 0 0.5625 0 0 0 0.6 0"/>
<feBlend mode="normal" in2="BackgroundImageFix" result="effect1_dropShadow_112_10"/>
<feBlend mode="normal" in="SourceGraphic" in2="effect1_dropShadow_112_10" result="shape"/>
</filter>
<filter id="filter3_d_112_10" x="496" y="248" width="284" height="140" filterUnits="userSpaceOnUse" color-interpolation-filters="sRGB">
<feFlood flood-opacity="0" result="BackgroundImageFix"/>
<feColorMatrix in="SourceAlpha" type="matrix" values="0 0 0 0 0 0 0 0 0 0 0 0 0 0 0 0 0 0 127 0" result="hardAlpha"/>
<feOffset/>
<feGaussianBlur stdDeviation="15"/>
<feComposite in2="hardAlpha" operator="out"/>
<feColorMatrix type="matrix" values="0 0 0 0 0.272321 0 0 0 0 0.1875 0 0 0 0 0.5625 0 0 0 0.6 0"/>
<feBlend mode="normal" in2="BackgroundImageFix" result="effect1_dropShadow_112_10"/>
<feBlend mode="normal" in="SourceGraphic" in2="effect1_dropShadow_112_10" result="shape"/>
</filter>
<filter id="filter4_d_112_10" x="626" y="0" width="300" height="140" filterUnits="userSpaceOnUse" color-interpolation-filters="sRGB">
<feFlood flood-opacity="0" result="BackgroundImageFix"/>
<feColorMatrix in="SourceAlpha" type="matrix" values="0 0 0 0 0 0 0 0 0 0 0 0 0 0 0 0 0 0 127 0" result="hardAlpha"/>
<feOffset/>
<feGaussianBlur stdDeviation="15"/>
<feComposite in2="hardAlpha" operator="out"/>
<feColorMatrix type="matrix" values="0 0 0 0 0.272321 0 0 0 0 0.1875 0 0 0 0 0.5625 0 0 0 0.6 0"/>
<feBlend mode="normal" in2="BackgroundImageFix" result="effect1_dropShadow_112_10"/>
<feBlend mode="normal" in="SourceGraphic" in2="effect1_dropShadow_112_10" result="shape"/>
</filter>
<filter id="filter5_d_112_10" x="744" y="248" width="300" height="140" filterUnits="userSpaceOnUse" color-interpolation-filters="sRGB">
<feFlood flood-opacity="0" result="BackgroundImageFix"/>
<feColorMatrix in="SourceAlpha" type="matrix" values="0 0 0 0 0 0 0 0 0 0 0 0 0 0 0 0 0 0 127 0" result="hardAlpha"/>
<feOffset/>
<feGaussianBlur stdDeviation="15"/>
<feComposite in2="hardAlpha" operator="out"/>
<feColorMatrix type="matrix" values="0 0 0 0 0.272321 0 0 0 0 0.1875 0 0 0 0 0.5625 0 0 0 0.6 0"/>
<feBlend mode="normal" in2="BackgroundImageFix" result="effect1_dropShadow_112_10"/>
<feBlend mode="normal" in="SourceGraphic" in2="effect1_dropShadow_112_10" result="shape"/>
</filter>
<filter id="filter6_d_112_10" x="818" y="152" width="300" height="140" filterUnits="userSpaceOnUse" color-interpolation-filters="sRGB">
<feFlood flood-opacity="0" result="BackgroundImageFix"/>
<feColorMatrix in="SourceAlpha" type="matrix" values="0 0 0 0 0 0 0 0 0 0 0 0 0 0 0 0 0 0 127 0" result="hardAlpha"/>
<feOffset/>
<feGaussianBlur stdDeviation="15"/>
<feComposite in2="hardAlpha" operator="out"/>
<feColorMatrix type="matrix" values="0 0 0 0 0.272321 0 0 0 0 0.1875 0 0 0 0 0.5625 0 0 0 0.6 0"/>
<feBlend mode="normal" in2="BackgroundImageFix" result="effect1_dropShadow_112_10"/>
<feBlend mode="normal" in="SourceGraphic" in2="effect1_dropShadow_112_10" result="shape"/>
</filter>
<filter id="filter7_d_112_10" x="954" y="56" width="300" height="140" filterUnits="userSpaceOnUse" color-interpolation-filters="sRGB">
<feFlood flood-opacity="0" result="BackgroundImageFix"/>
<feColorMatrix in="SourceAlpha" type="matrix" values="0 0 0 0 0 0 0 0 0 0 0 0 0 0 0 0 0 0 127 0" result="hardAlpha"/>
<feOffset/>
<feGaussianBlur stdDeviation="15"/>
<feComposite in2="hardAlpha" operator="out"/>
<feColorMatrix type="matrix" values="0 0 0 0 0.272321 0 0 0 0 0.1875 0 0 0 0 0.5625 0 0 0 0.6 0"/>
<feBlend mode="normal" in2="BackgroundImageFix" result="effect1_dropShadow_112_10"/>
<feBlend mode="normal" in="SourceGraphic" in2="effect1_dropShadow_112_10" result="shape"/>
</filter>
<filter id="filter8_d_112_10" x="1008" y="248" width="300" height="140" filterUnits="userSpaceOnUse" color-interpolation-filters="sRGB">
<feFlood flood-opacity="0" result="BackgroundImageFix"/>
<feColorMatrix in="SourceAlpha" type="matrix" values="0 0 0 0 0 0 0 0 0 0 0 0 0 0 0 0 0 0 127 0" result="hardAlpha"/>
<feOffset/>
<feGaussianBlur stdDeviation="15"/>
<feComposite in2="hardAlpha" operator="out"/>
<feColorMatrix type="matrix" values="0 0 0 0 0.272321 0 0 0 0 0.1875 0 0 0 0 0.5625 0 0 0 0.6 0"/>
<feBlend mode="normal" in2="BackgroundImageFix" result="effect1_dropShadow_112_10"/>
<feBlend mode="normal" in="SourceGraphic" in2="effect1_dropShadow_112_10" result="shape"/>
</filter>
<radialGradient id="paint0_radial_112_10" cx="0" cy="0" r="1" gradientUnits="userSpaceOnUse" gradientTransform="translate(142 194) rotate(89.689) scale(45.9498 128.656)">
<stop stop-color="#372181"/>
<stop offset="1" stop-color="#251363"/>
</radialGradient>
<radialGradient id="paint1_radial_112_10" cx="0" cy="0" r="1" gradientUnits="userSpaceOnUse" gradientTransform="translate(320 70) rotate(89.689) scale(45.9498 128.656)">
<stop stop-color="#372181"/>
<stop offset="1" stop-color="#251363"/>
</radialGradient>
<radialGradient id="paint2_radial_112_10" cx="0" cy="0" r="1" gradientUnits="userSpaceOnUse" gradientTransform="translate(320 318) rotate(89.689) scale(45.9498 128.656)">
<stop stop-color="#372181"/>
<stop offset="1" stop-color="#251363"/>
</radialGradient>
<radialGradient id="paint3_radial_112_10" cx="0" cy="0" r="1" gradientUnits="userSpaceOnUse" gradientTransform="translate(638 318) rotate(89.689) scale(45.9498 128.656)">
<stop stop-color="#372181"/>
<stop offset="1" stop-color="#251363"/>
</radialGradient>
<radialGradient id="paint4_radial_112_10" cx="0" cy="0" r="1" gradientUnits="userSpaceOnUse" gradientTransform="translate(776 70) rotate(89.6667) scale(45.9499 137.845)">
<stop stop-color="#372181"/>
<stop offset="1" stop-color="#251363"/>
</radialGradient>
<radialGradient id="paint5_radial_112_10" cx="0" cy="0" r="1" gradientUnits="userSpaceOnUse" gradientTransform="translate(894 318) rotate(89.6667) scale(45.9499 137.845)">
<stop stop-color="#372181"/>
<stop offset="1" stop-color="#251363"/>
</radialGradient>
<radialGradient id="paint6_radial_112_10" cx="0" cy="0" r="1" gradientUnits="userSpaceOnUse" gradientTransform="translate(968 222) rotate(89.6667) scale(45.9499 137.845)">
<stop stop-color="#372181"/>
<stop offset="1" stop-color="#251363"/>
</radialGradient>
<radialGradient id="paint7_radial_112_10" cx="0" cy="0" r="1" gradientUnits="userSpaceOnUse" gradientTransform="translate(1104 126) rotate(89.6667) scale(45.9499 137.845)">
<stop stop-color="#372181"/>
<stop offset="1" stop-color="#251363"/>
</radialGradient>
<radialGradient id="paint8_radial_112_10" cx="0" cy="0" r="1" gradientUnits="userSpaceOnUse" gradientTransform="translate(1158 318) rotate(89.6667) scale(45.9499 137.845)">
<stop stop-color="#372181"/>
<stop offset="1" stop-color="#251363"/>
</radialGradient>
</defs>
</svg>
