<svg width="32" height="32" viewBox="0 0 32 32" fill="none" xmlns="http://www.w3.org/2000/svg">
<path d="M28.768 8.06361C27.808 8.47961 26.816 8.76761 25.76 8.89561C26.848 8.25561 27.68 7.23161 28.064 5.98361C27.04 6.59161 25.92 7.00761 24.736 7.26361C23.776 6.23961 22.4 5.59961 20.896 5.59961C17.984 5.59961 15.648 7.96761 15.648 10.8476C15.648 11.2636 15.68 11.6476 15.776 12.0316C11.424 11.8396 7.58397 9.72761 4.99197 6.55961C3.13597 9.88761 5.21597 12.6396 6.59197 13.5676C5.75997 13.5676 4.92797 13.3116 4.22397 12.9276C4.22397 15.5196 6.04797 17.6636 8.41597 18.1436C7.90397 18.3036 6.75197 18.3996 6.04797 18.2396C6.71997 20.3196 8.67197 21.8556 10.944 21.8876C9.15197 23.2956 6.52797 24.4156 3.16797 24.0636C5.50397 25.5676 8.25597 26.4316 11.232 26.4316C20.896 26.4316 26.144 18.4316 26.144 11.5196C26.144 11.2956 26.144 11.0716 26.112 10.8476C27.2 10.0476 28.096 9.11961 28.768 8.06361Z" fill="white"/>
</svg>
