<svg width="143" height="125" viewBox="0 0 143 125" fill="none" xmlns="http://www.w3.org/2000/svg">
<g filter="url(#filter0_f_2_1836)">
<path d="M115.482 70.0772C111.189 66.4218 106.068 63.7783 100.525 62.3568C99.6512 62.0839 98.7278 61.99 97.8141 62.0811C96.9497 62.2909 96.1545 62.707 95.5022 63.2908C94.8499 63.8745 94.3617 64.6071 94.0827 65.4204C93.328 67.3913 93.2072 69.5346 93.7361 71.5722C94.2649 73.6099 95.4191 75.4479 97.0487 76.8477C98.7057 78.2129 100.683 79.1714 102.81 79.641C104.938 80.1106 107.152 80.0772 109.263 79.5437C111.631 79.0918 113.718 77.7593 115.068 75.8367C115.679 74.8757 115.926 73.7421 115.77 72.6263C115.613 71.5104 115.061 70.4804 114.207 69.7095C114.032 69.7633 113.873 69.8578 113.745 69.9845C113.618 70.1113 113.524 70.2665 113.474 70.4362C113.423 70.6059 113.417 70.7849 113.456 70.9574C113.495 71.1299 113.577 71.2906 113.696 71.4251L115.482 70.0772Z" fill="#FFF200"/>
<path d="M118.734 95.3502C117.553 94.361 116.161 93.7243 114.693 93.5011C113.225 93.278 111.729 93.476 110.35 94.0761C110.097 95.686 110.198 97.3395 110.645 98.8972C111.091 100.455 111.869 101.871 112.914 103.027C113.454 103.569 114.086 103.987 114.773 104.258C115.46 104.529 116.188 104.647 116.917 104.606C117.645 104.564 118.358 104.364 119.017 104.017C119.675 103.669 120.264 103.181 120.751 102.581C122.508 99.9687 120.549 95.3184 117.61 95.7006L118.734 95.3502Z" fill="#FFF200"/>
<path d="M115.815 15.366C114.205 14.9563 112.556 14.8901 110.93 15.1697C110.733 15.1661 110.542 15.2591 110.393 15.4314C110.324 15.5319 110.274 15.6516 110.244 15.7818C110.214 15.9119 110.207 16.0493 110.222 16.1838C110.222 18.4083 112.542 20.1748 111.858 22.203C111.689 22.5303 111.596 22.9172 111.59 23.3152C111.59 23.9694 112.347 24.0675 112.835 23.8712C113.434 23.5704 113.976 23.0974 114.423 22.4856C114.87 21.8737 115.212 21.138 115.424 20.3301C115.636 19.5223 115.713 18.662 115.65 17.81C115.587 16.9579 115.385 16.1348 115.058 15.3986L115.742 15.6604L115.815 15.366Z" fill="#FFF200"/>
<path d="M75.4895 77.3064C74.8474 76.9668 74.1084 76.7434 73.3308 76.6537C72.5531 76.5641 71.7582 76.6107 71.0088 76.7899C71.1309 77.3023 71.3766 77.794 71.7337 78.241C71.9267 78.4598 72.2007 78.6321 72.5224 78.7369C72.8441 78.8416 73.1996 78.8744 73.5457 78.8312C74.5012 78.659 74.8637 77.8474 75.0614 77.1342L75.4895 77.6507V77.3064Z" fill="#FFF200"/>
<path d="M66.1295 85.651C65.6825 85.5441 65.2045 85.5441 64.7575 85.651C64.4038 85.8553 64.1304 86.1323 63.9684 86.4507C63.422 87.2937 62.779 88.0967 62.0474 88.85L67.9477 87.8104H68.428C68.9769 87.8104 69.1141 88.4768 69.4915 88.7701C69.8688 89.0633 71.0693 88.9301 71.7554 88.5835C76.5237 85.9709 68.5651 85.9709 66.1295 85.651Z" fill="#FFF200"/>
<path d="M44.4117 56.5759L43.0044 56.8259C43.0905 57.2966 43.3202 57.7287 43.6614 58.0621C44.0026 58.3956 44.4384 58.6139 44.9084 58.6867C45.8742 58.6867 46.7297 57.548 46.2054 56.7703C45.6811 55.9927 45.1844 55.6317 45.6535 55.3262L44.4117 56.5759Z" fill="#FFF200"/>
<path d="M92.9141 33.7767C94.1951 32.9681 95.9885 32.3497 96.5741 33.7767C97.1597 35.2038 96.3545 37.1065 95.4029 38.5335C94.4513 39.9606 94.4514 39.6752 93.9024 39.485C92.5116 39.0568 93.573 35.5844 92.292 34.7281C92.292 34.2049 93.0239 34.0146 93.0971 34.7281L92.9141 33.7767Z" fill="#FFF200"/>
<path d="M91.2374 85.2864C91.5801 85.0819 91.949 85.0819 92.2917 85.2864C92.0432 85.9922 91.7108 86.5838 91.3198 87.0159C90.9289 87.4481 90.4898 87.7096 90.0359 87.7803C89.521 87.7803 88.908 88.0069 88.6382 87.2361C88.3685 86.4653 88.6383 85.9666 88.4422 85.3318C88.246 84.697 87.5349 82.7926 87.9272 81.7044C88.048 81.4164 88.2189 81.2141 88.4109 81.1316C88.6029 81.049 88.8044 81.0913 88.9816 81.2511C89.3381 81.6073 89.6414 82.1213 89.8642 82.7473L91.5072 86.556L91.2374 85.2864Z" fill="#FFF200"/>
<path d="M97.8847 101.696C97.185 101.312 96.5111 102.551 96.874 103.346C97.1098 103.698 97.406 103.992 97.7445 104.21C98.083 104.428 98.4569 104.565 98.8435 104.614C99.0301 104.038 99.0633 103.411 98.9389 102.814C98.8144 102.216 98.5378 101.673 98.1437 101.253L97.8847 101.696Z" fill="#FFF200"/>
<path d="M77.461 97.1001C77.6052 97.2511 77.699 97.4666 77.7233 97.7029C77.7476 97.9391 77.7007 98.1783 77.592 98.3718C77.339 98.7198 76.9935 98.9346 76.6232 98.9742C76.4157 99.0257 76.2025 99.0257 75.995 98.9742C75.8844 98.9003 75.7864 98.799 75.7067 98.6763C75.627 98.5535 75.567 98.4118 75.5305 98.2593C75.4939 98.1067 75.4816 97.9464 75.4939 97.7876C75.5062 97.6289 75.5431 97.4748 75.6024 97.3344C75.7415 97.0699 75.9532 96.8819 76.1956 96.8076C76.438 96.7332 76.6935 96.7779 76.9113 96.9328C77.1227 97.1054 77.2785 97.3692 77.3506 97.6763C77.4226 97.9834 77.406 98.3133 77.3039 98.6061L77.461 97.1001Z" fill="#FFF200"/>
<path d="M77.6761 91.6551C77.7046 91.43 77.6977 91.1963 77.6563 90.977C77.6149 90.7578 77.5403 90.5603 77.4399 90.4041C77.3395 90.2479 77.2168 90.1383 77.0836 90.086C76.9504 90.0337 76.8114 90.0406 76.6803 90.1059C76.5857 90.5776 76.5857 91.0885 76.6803 91.5602C76.7295 91.7901 76.8226 91.9861 76.9449 92.1176C77.0673 92.2492 77.2121 92.3088 77.3568 92.2873C77.6386 92.2873 77.8452 91.5286 77.6573 91.1492L77.6761 91.6551Z" fill="#FFF200"/>
<path d="M50.7493 34.2389C50.8064 33.897 50.7927 33.5421 50.7094 33.209C50.6262 32.8759 50.4763 32.576 50.2744 32.3387C50.0725 32.1014 49.8258 31.9349 49.5581 31.8555C49.2904 31.776 49.0111 31.7865 48.7475 31.8857C48.5575 32.6022 48.5575 33.3782 48.7475 34.0948C48.8475 34.4399 49.036 34.7319 49.2828 34.9236C49.5296 35.1154 49.8201 35.1957 50.1073 35.1514C50.2499 35.1238 50.3847 35.0515 50.4999 34.941C50.615 34.8306 50.7067 34.6853 50.7666 34.5185C50.8266 34.3517 50.853 34.1686 50.8434 33.9856C50.8338 33.8026 50.7884 33.6256 50.7115 33.4704L50.7493 34.2389Z" fill="#FFF200"/>
<path d="M80.893 70.6389C80.655 70.0765 80.3476 69.6161 79.9937 69.2921C79.6398 68.968 79.2486 68.7889 78.8496 68.7681L78.9829 72.1982C78.9593 72.7412 79.029 73.2842 79.1828 73.7573C79.2828 73.9499 79.4044 74.1038 79.5402 74.2092C79.676 74.3145 79.8228 74.3689 79.9713 74.3689C80.1198 74.3689 80.2666 74.3145 80.4024 74.2092C80.5382 74.1038 80.6598 73.9499 80.7598 73.7573C80.9481 73.3434 81.0615 72.8399 81.0853 72.3119C81.109 71.7839 81.042 71.2555 80.893 70.7949V70.6389Z" fill="#FFF200"/>
<path d="M102.462 52.3186L106.758 51.9658C107.136 52.3185 106.326 52.7019 105.623 52.8553C104.966 53.0471 104.222 53.1219 103.488 53.07C102.759 52.978 102.137 52.5333 102.462 52.1499V52.3186Z" fill="#FFF200"/>
<path d="M126.61 49.6427C126.511 49.3772 126.352 49.1444 126.15 48.9665C125.948 48.7886 125.708 48.6715 125.454 48.6261C125.2 48.5807 124.94 48.6087 124.698 48.7073C124.457 48.8059 124.242 48.9719 124.073 49.1896C123.769 49.6672 123.624 50.2491 123.663 50.8341C123.703 51.4191 123.924 51.97 124.289 52.391C124.434 52.5921 124.614 52.7576 124.818 52.8772C125.022 52.9967 125.246 53.0677 125.476 53.0857C125.826 53.0461 126.155 52.8803 126.413 52.6133C126.671 52.3463 126.844 51.9928 126.907 51.6058C127.054 50.8394 127.054 50.0466 126.907 49.2802L126.61 49.6427Z" fill="#FFF200"/>
<path d="M86.3738 37.343C86.1163 36.7374 85.6134 36.2041 84.9324 35.8145C84.2514 35.4249 83.4248 35.1976 82.5633 35.1631C82.0928 36.0055 82.0928 36.9504 82.5633 37.7928C82.7728 38.372 83.259 38.8762 83.9329 39.2131C84.6069 39.5499 85.4233 39.6968 86.2325 39.6267C87.832 39.3499 88.4437 37.4468 86.9854 36.9624L86.3738 37.343Z" fill="#FFF200"/>
<path d="M93.8032 44.5022C94.0779 44.646 94.2951 44.8791 94.419 45.1629C94.5429 45.4467 94.566 45.7642 94.4845 46.0628L92.4659 46.3649C92.3599 46.1579 92.3009 45.9302 92.2929 45.6979C92.2849 45.4657 92.3282 45.2345 92.4197 45.0208C92.5111 44.807 92.6485 44.616 92.8222 44.4611C92.9959 44.3063 93.2015 44.1913 93.4247 44.1245L93.8032 44.5022Z" fill="#FFF200"/>
<path d="M119.62 53.4271L120.294 53.0859C120.31 53.8605 120.214 54.6313 120.012 55.3505C119.899 55.7076 119.71 56.0047 119.472 56.1997C119.233 56.3946 118.958 56.4773 118.685 56.4361C118.163 56.4361 117.837 55.1954 118.228 54.668C118.615 54.1104 119.106 53.7227 119.642 53.5512L119.62 53.4271Z" fill="#FFF200"/>
<path d="M86.5007 105.962C87.0024 106.16 87.387 106.436 87.6065 106.756C87.8259 107.075 87.87 107.423 87.7333 107.757C87.5916 108.086 87.285 108.387 86.8487 108.624C86.4123 108.86 85.8641 109.024 85.2678 109.094C84.4459 109.094 83.3891 109.094 83.3304 108.474C83.355 108.279 83.5002 108.095 83.7414 107.952L86.0898 105.734L86.6767 106.028L86.5007 105.962Z" fill="#FFF200"/>
<path d="M77.7295 84.9191C78.1814 85.2955 78.8026 84.6796 78.8873 83.9952C78.9148 83.3341 78.9148 82.6718 78.8873 82.0106C78.9082 81.6681 78.9896 81.3349 79.1261 81.0338C79.2625 80.7326 79.4508 80.4707 79.6782 80.2655C79.7971 80.1306 79.9437 80.0372 80.1028 79.995C80.2619 79.9529 80.4275 79.9635 80.582 80.0259C80.7798 80.1527 80.9456 80.3419 81.062 80.5734C81.7071 81.6334 82.098 82.8885 82.1918 84.2005C82.2568 84.8873 82.1485 85.5818 81.8813 86.1926C81.6142 86.8035 81.2005 87.3019 80.6949 87.6223C80.3426 87.7907 79.9606 87.8477 79.5851 87.7878C79.2096 87.728 78.8528 87.5532 78.5485 87.2801C78.2515 86.9956 78.022 86.6211 77.8831 86.1944C77.7442 85.7677 77.701 85.3042 77.7578 84.8507L77.7295 84.9191Z" fill="#FFF200"/>
<path d="M15 29.429C15.7221 29.7579 16.6141 29.1897 16.784 28.6215C16.8264 28.0438 16.8264 27.465 16.784 26.8873C16.807 26.5856 16.9212 26.2908 17.119 26.0226C17.3168 25.7545 17.5937 25.5192 17.931 25.3324C18.1226 25.2196 18.3507 25.1415 18.595 25.105C18.8394 25.0685 19.0927 25.0747 19.3329 25.123C19.6204 25.2463 19.8551 25.4219 20.0125 25.6313C20.9826 26.5576 21.5707 27.6544 21.7117 28.801C21.766 29.3769 21.5823 29.9516 21.1828 30.4557C20.7833 30.9597 20.1849 31.3717 19.4602 31.6417C18.9296 31.7861 18.3559 31.8344 17.7918 31.7821C17.2278 31.7299 16.6913 31.5787 16.2318 31.3427C15.7918 31.0902 15.4515 30.7623 15.2432 30.3905C15.0349 30.0187 14.9658 29.6156 15.0425 29.2196L15 29.429Z" fill="#FFF200"/>
<path d="M67.433 72.5785C67.2269 72.2906 66.9475 72.1289 66.6562 72.1289C66.3649 72.1289 66.0855 72.2906 65.8794 72.5785C65.6747 72.867 65.5291 73.227 65.4576 73.621C65.3862 74.015 65.3915 74.4285 65.4731 74.8187C65.4731 75.153 65.712 75.5207 65.9749 75.4873C66.2379 75.4539 66.2619 75.2532 66.3814 75.0526L67.6481 72.6453L67.433 72.5785Z" fill="#FFF200"/>
<path d="M113.737 32.9433C119.918 24.6241 110.965 16.9928 104.452 22.4297C97.9382 27.8667 108.332 40.1816 113.737 32.9433Z" fill="#FFF200"/>
<path d="M105.737 91.5494C105.91 91.8243 106.009 92.1307 106.026 92.4448C106.043 92.7588 105.978 93.0722 105.836 93.3606C105.694 93.6489 105.478 93.9046 105.206 94.1077C104.934 94.3108 104.613 94.456 104.267 94.532C103.706 93.6656 103.441 92.6751 103.502 91.6791C103.679 90.6936 104.796 89.7858 105.855 90.123C106.178 90.6417 106.531 91.1344 106.854 91.6272L105.737 91.5494Z" fill="#FFF200"/>
<path d="M70.6673 94.1311H69.9375C69.8388 94.5532 69.8895 95.0022 70.0787 95.3827C70.2906 95.7289 70.8792 95.7556 70.9734 95.3827C71.02 95.2273 71.02 95.0588 70.9734 94.9034L70.6202 93.4121L70.6673 94.1311Z" fill="#FFF200"/>
<path d="M67.6433 58.33C67.0858 57.8749 66.4717 57.6151 65.8436 57.569C65.5349 57.5468 65.229 57.6688 64.9647 57.9195C64.7005 58.1702 64.49 58.5382 64.36 58.9768C64.2635 59.4339 64.2635 59.9275 64.36 60.3846C64.4446 60.7094 64.5693 61.0048 64.7269 61.2542C64.8846 61.5036 65.0721 61.702 65.2787 61.838C65.4854 61.9741 65.7071 62.0451 65.9313 62.0471C66.1555 62.049 66.3777 61.9818 66.5853 61.8494C66.793 61.717 66.9819 61.522 67.1413 61.2754C67.3007 61.0287 67.4275 60.7354 67.5145 60.4122C67.6014 60.0889 67.6468 59.7419 67.6481 59.3912C67.6493 59.0404 67.6064 58.6929 67.5218 58.3681L67.6433 58.33Z" fill="#FFF200"/>
<path d="M51.0988 20.6457C51.6877 20.5735 52.2997 20.5891 52.8748 20.6909C53.4499 20.7927 53.9685 20.9773 54.3808 21.2267C54.793 21.4761 55.0848 21.7819 55.2274 22.1142C55.3699 22.4465 55.3583 22.794 55.1942 23.1231C54.0456 23.535 52.7698 23.8196 51.4344 23.9616C50.789 23.1739 50.6698 22.2799 51.0988 21.446V20.6457Z" fill="#FFF200"/>
<path d="M125.714 95.6523L124.781 95.8781C124.764 96.1762 124.796 96.4755 124.873 96.7587C125.105 96.8045 125.343 96.7355 125.535 96.5664C125.727 96.3974 125.857 96.142 125.897 95.8555L125.714 95.6523Z" fill="#FFF200"/>
</g>
<defs>
<filter id="filter0_f_2_1836" x="0" y="0" width="142.017" height="124.094" filterUnits="userSpaceOnUse" color-interpolation-filters="sRGB">
<feFlood flood-opacity="0" result="BackgroundImageFix"/>
<feBlend mode="normal" in="SourceGraphic" in2="BackgroundImageFix" result="shape"/>
<feGaussianBlur stdDeviation="7.5" result="effect1_foregroundBlur_2_1836"/>
</filter>
</defs>
</svg>
